<svg height="131.765" viewBox="0 0 424.8 131.765" width="424.8" xmlns="http://www.w3.org/2000/svg" xmlns:xlink="http://www.w3.org/1999/xlink"><defs><g id="a"><path d="m1.75-4.078125c0-1.140625.75-1.828125 1.78125-1.828125 1 0 1.640625.65625 1.640625 1.734375v4.171875h.765625v-4.21875c0-1.546875-.90625-2.390625-2.21875-2.390625-.953125 0-1.609375.453125-1.921875 1.109375h-.0625v-1.015625h-.734375v6.515625h.75zm0 0"/></g><g id="b"><path d="m1 0h.765625v-6.515625h-.765625zm.390625-7.640625c.3125 0 .578125-.25.578125-.546875s-.265625-.546875-.578125-.546875-.5625.25-.5625.546875.25.546875.5625.546875zm0 0"/></g><g id="c"><path d="m3.53125.140625c1.6875 0 2.875-1.390625 2.875-3.375 0-2-1.1875-3.375-2.875-3.375s-2.875 1.375-2.875 3.375c0 1.984375 1.1875 3.375 2.875 3.375zm0-.703125c-1.359375 0-2.109375-1.203125-2.109375-2.671875 0-1.453125.75-2.6875 2.109375-2.6875s2.109375 1.234375 2.109375 2.6875c0 1.46875-.75 2.671875-2.109375 2.671875zm0 0"/></g><g id="d"><path d="m2.8125.15625c1.09375 0 1.75-.609375 2.03125-1.1875h.046875v1.03125h.75v-4.421875c0-1.75-1.3125-2.1875-2.3125-2.1875s-2.03125.390625-2.46875 1.453125l.71875.265625c.234375-.5625.828125-1.046875 1.765625-1.046875 1 0 1.546875.546875 1.546875 1.4375v.15625c0 .5-.609375.5-1.71875.640625-1.46875.1875-2.5.59375-2.5 1.875 0 1.265625.96875 1.984375 2.140625 1.984375zm.109375-.703125c-.859375 0-1.484375-.453125-1.484375-1.234375 0-.796875.640625-1.125 1.734375-1.265625.546875-.0625 1.5-.171875 1.71875-.390625v.9375c0 1.0625-.765625 1.953125-1.96875 1.953125zm0 0"/></g><g id="e"><path d="m5.375-5.09375c-.3125-.9375-1.015625-1.515625-2.203125-1.515625-1.3125 0-2.265625.75-2.265625 1.828125 0 .875.53125 1.46875 1.65625 1.734375l1.0625.265625c.71875.15625 1.0625.53125 1.0625 1.046875 0 .6875-.640625 1.1875-1.640625 1.1875-.90625 0-1.453125-.40625-1.640625-1.171875l-.71875.171875c.21875 1.09375 1.09375 1.6875 2.359375 1.6875 1.4375 0 2.421875-.796875 2.421875-1.90625 0-.859375-.546875-1.453125-1.640625-1.71875l-.984375-.234375c-.8125-.203125-1.1875-.53125-1.1875-1.09375 0-.671875.640625-1.125 1.515625-1.125s1.3125.453125 1.515625 1.046875zm0 0"/></g></defs><g fill="none" stroke-linecap="square" stroke-miterlimit="10" transform="matrix(1 0 0 -1 0 131.765)"><path d="m13.089844 35.815781h27.191406l3.019531 84.523438h57.398438l3.023437-84.523438h27.1875" stroke="#8be9fd" stroke-linejoin="round" stroke-width="1.50002"/><path d="m7.199219 31.589219v92.976562" stroke="#fff" stroke-width=".8"/><path d="m136.800781 31.589219v92.976562" stroke="#fff" stroke-width=".8"/><path d="m7.199219 31.589219h129.601562" stroke="#fff" stroke-width=".8"/><path d="m7.199219 124.565781h129.601562" stroke="#fff" stroke-width=".8"/></g><g fill="#fff"><path d="m6.953125-8.6875v5.6875c0 1.390625-.984375 2.40625-2.5 2.40625s-2.5-1.015625-2.5-2.40625v-5.6875h-.796875v5.75c0 1.78125 1.328125 3.09375 3.296875 3.09375 1.953125 0 3.296875-1.3125 3.296875-3.09375v-5.75zm0 0" transform="translate(49.947 122.068)"/><use x="58.845255" xlink:href="#a" y="122.068"/><use x="65.773294" xlink:href="#b" y="122.068"/><path d="m3.6875-6.515625h-1.453125v-.796875c0-.6875.375-1.078125 1.03125-1.078125.25 0 .40625.0625.515625.09375l.21875-.65625c-.15625-.0625-.40625-.140625-.796875-.140625-.890625 0-1.71875.5625-1.71875 1.625v.953125h-1.015625v.65625h1.015625v5.859375h.75v-5.859375h1.453125zm0 0" transform="translate(68.545705 122.068)"/></g><g fill="#fff"><use x="72.465815" xlink:href="#c" y="122.068"/><path d="m1 0h.75v-4.203125c0-.96875.75-1.671875 1.765625-1.671875.203125 0 .390625.03125.453125.03125v-.765625c-.109375 0-.28125-.015625-.40625-.015625-.8125 0-1.515625.453125-1.78125 1.109375h-.046875v-1h-.734375zm0 0" transform="translate(79.530142 122.068)"/><path d="m1 0h.75v-4.171875c0-1.015625.671875-1.734375 1.578125-1.734375.890625 0 1.40625.59375 1.40625 1.46875v4.4375h.78125v-4.296875c0-.9375.5625-1.609375 1.546875-1.609375.859375 0 1.4375.515625 1.4375 1.53125v4.375h.765625v-4.375c0-1.453125-.765625-2.234375-1.96875-2.234375-.953125 0-1.640625.46875-1.9375 1.1875h-.046875c-.296875-.734375-.859375-1.1875-1.765625-1.1875-.84375 0-1.484375.421875-1.75 1.09375h-.0625v-1h-.734375zm0 0" transform="translate(83.792171 122.068)"/></g><path d="m153.492188 35.815781h30.210937l3.019531 16.058594 3.023438 14.371094 3.019531 12.679687 3.023437 10.984375 3.019532 9.300781 3.019531 7.605469 3.023437 5.917969 3.019532 4.226562 3.019531 2.535157 3.023437.84375 3.019532-.84375 3.023437-2.535157 3.019531-4.226562 3.019532-5.917969 3.023437-7.605469 3.019531-9.300781 3.019532-10.984375 3.023437-12.679687 3.019531-14.371094 3.023438-16.058594h27.1875" style="fill:none;stroke-width:1.50002;stroke-linecap:square;stroke-linejoin:round;stroke:#8be9fd;stroke-miterlimit:10" transform="matrix(1 0 0 -1 0 131.765)"/><path d="m147.601562 31.589219v92.976562" fill="none" stroke="#fff" stroke-linecap="square" stroke-miterlimit="10" stroke-width=".8" transform="matrix(1 0 0 -1 0 131.765)"/><path d="m277.203125 31.589219v92.976562" fill="none" stroke="#fff" stroke-linecap="square" stroke-miterlimit="10" stroke-width=".8" transform="matrix(1 0 0 -1 0 131.765)"/><path d="m147.601562 31.589219h129.601563" fill="none" stroke="#fff" stroke-linecap="square" stroke-miterlimit="10" stroke-width=".8" transform="matrix(1 0 0 -1 0 131.765)"/><path d="m147.601562 124.565781h129.601563" fill="none" stroke="#fff" stroke-linecap="square" stroke-miterlimit="10" stroke-width=".8" transform="matrix(1 0 0 -1 0 131.765)"/><g fill="#fff"><path d="m1.15625 0h5.125v-.71875h-4.328125v-3.28125h3.984375v-.703125h-3.984375v-3.28125h4.25v-.703125h-5.046875zm0 0" transform="translate(173.668 122.068)"/><path d="m.984375 2.4375h.765625v-3.640625h.0625c.265625.59375.8125 1.34375 2 1.34375 1.59375 0 2.6875-1.359375 2.6875-3.390625 0-2-1.078125-3.359375-2.703125-3.359375-1.1875 0-1.71875.75-1.984375 1.328125h-.09375v-1.234375h-.734375zm.75-5.6875c0-1.5625.71875-2.671875 1.984375-2.671875 1.3125 0 2.015625 1.15625 2.015625 2.671875s-.71875 2.6875-2.015625 2.6875c-1.25 0-1.984375-1.125-1.984375-2.6875zm0 0" transform="translate(180.762216 122.068)"/><use x="187.924576" xlink:href="#d" y="122.068"/><use x="194.577645" xlink:href="#a" y="122.068"/><path d="m3.640625.140625c1.296875 0 2.171875-.71875 2.46875-1.53125l-.703125-.234375c-.25.578125-.84375 1.0625-1.765625 1.0625-1.34375 0-2.1875-.96875-2.21875-2.46875h4.859375v-.375c0-2.1875-1.34375-3.203125-2.765625-3.203125-1.6875 0-2.859375 1.40625-2.859375 3.390625 0 1.96875 1.15625 3.359375 2.984375 3.359375zm-2.21875-3.84375c.078125-1.21875.90625-2.21875 2.09375-2.21875 1.171875 0 1.984375.96875 1.984375 2.21875zm0 0" transform="translate(201.505683 122.068)"/><path d="m3.546875.140625c1.359375 0 2.3125-.859375 2.484375-2.046875h-.765625c-.171875.84375-.859375 1.34375-1.71875 1.34375-1.28125 0-2.125-1.109375-2.125-2.6875s.875-2.671875 2.125-2.671875c.921875 0 1.5625.59375 1.71875 1.34375h.765625c-.1875-1.21875-1.1875-2.03125-2.5-2.03125-1.703125 0-2.875 1.421875-2.875 3.375s1.140625 3.375 2.890625 3.375zm0 0" transform="translate(208.446872 122.068)"/><path d="m1.75-4.078125c0-1.140625.765625-1.828125 1.8125-1.828125 1.015625 0 1.65625.65625 1.65625 1.734375v4.171875h.765625v-4.21875c0-1.5625-.90625-2.390625-2.234375-2.390625-.984375 0-1.625.4375-1.921875 1.109375h-.078125v-3.1875h-.75v8.6875h.75zm0 0" transform="translate(215.099941 122.068)"/><use x="222.0758" xlink:href="#a" y="122.068"/><use x="229.003839" xlink:href="#b" y="122.068"/><path d="m1 0h.75v-2.53125l.75-.703125 2.5625 3.234375h.96875l-2.96875-3.734375 2.796875-2.78125h-.953125l-3.0625 3.0625h-.09375v-5.234375h-.75zm0 0" transform="translate(231.77625 122.068)"/></g><use fill="#fff" x="237.780151" xlink:href="#c" y="122.068"/><path d="m6.046875-6.515625h-.828125l-1.921875 5.515625h-.0625l-1.9375-5.515625h-.828125l2.390625 6.515625h.796875zm0 0" fill="#fff" transform="translate(244.605375 122.068)"/><path d="m293.894531 35.815781 3.019531 2.847656 3.023438 3.265625 3.019531 3.703125 3.023438 4.132813 3.019531 4.558594 3.019531 4.949218 3.023438 5.304688 3.019531 5.589844 3.019531 5.800781 3.023438 5.910156 3.019531 5.90625 3.023438 5.785156 3.019531 5.53125 3.019531 5.136719 3.023438 4.617188 3.019531 3.96875 3.023437 3.214843 3.019532 2.367188 3.019531 1.445312 3.023437.488282 3.019532-.488282 3.019531-1.445312 3.023437-2.367188 3.019532-3.214843 3.023437-3.96875 3.019531-4.617188 3.019532-5.136719 3.023437-5.53125 3.019531-5.785156 3.019532-5.90625 3.023437-5.910156 3.019531-5.800781 3.023438-5.589844 3.019531-5.304688 3.019531-4.949218 3.023438-4.558594 3.019531-4.132813 3.023437-3.703125 3.019532-3.265625" style="fill:none;stroke-width:1.50002;stroke-linecap:square;stroke-linejoin:round;stroke:#8be9fd;stroke-miterlimit:10" transform="matrix(1 0 0 -1 0 131.765)"/><path d="m288.003906 31.589219v92.976562" fill="none" stroke="#fff" stroke-linecap="square" stroke-miterlimit="10" stroke-width=".8" transform="matrix(1 0 0 -1 0 131.765)"/><path d="m417.605469 31.589219v92.976562" fill="none" stroke="#fff" stroke-linecap="square" stroke-miterlimit="10" stroke-width=".8" transform="matrix(1 0 0 -1 0 131.765)"/><path d="m288.003906 31.589219h129.601563" fill="none" stroke="#fff" stroke-linecap="square" stroke-miterlimit="10" stroke-width=".8" transform="matrix(1 0 0 -1 0 131.765)"/><path d="m288.003906 124.565781h129.601563" fill="none" stroke="#fff" stroke-linecap="square" stroke-miterlimit="10" stroke-width=".8" transform="matrix(1 0 0 -1 0 131.765)"/><g fill="#fff"><path d="m7.171875-5.984375h.8125c-.28125-1.53125-1.578125-2.828125-3.484375-2.828125-2.203125 0-3.734375 1.734375-3.734375 4.46875 0 2.71875 1.515625 4.46875 3.78125 4.46875 2.046875 0 3.5-1.390625 3.5-3.625v-.703125h-3.3125v.703125h2.53125c-.015625 1.78125-1.125 2.875-2.71875 2.875-1.75 0-3.015625-1.390625-3.015625-3.71875 0-2.34375 1.28125-3.71875 2.96875-3.71875 1.4375 0 2.359375.9375 2.671875 2.078125zm0 0" transform="translate(327.286 122.068)"/><use x="336.150781" xlink:href="#d" y="122.068"/><path d="m5.140625-2.484375c0 1.1875-.90625 1.828125-1.78125 1.828125-.9375 0-1.609375-.671875-1.609375-1.6875v-4.171875h-.75v4.21875c0 1.546875.890625 2.375 2.140625 2.375.953125 0 1.640625-.484375 1.9375-1.15625h.0625v1.078125h.75v-6.515625h-.75zm0 0" transform="translate(342.80385 122.068)"/><use x="349.698413" xlink:href="#e" y="122.068"/><use x="355.82904" xlink:href="#e" y="122.068"/><use x="361.959667" xlink:href="#b" y="122.068"/><use x="364.732077" xlink:href="#d" y="122.068"/><use x="371.385146" xlink:href="#a" y="122.068"/></g></svg>