<svg height="280.267" viewBox="0 0 424.641 280.267" width="424.641" xmlns="http://www.w3.org/2000/svg" xmlns:xlink="http://www.w3.org/1999/xlink"><defs><g id="a"><path d="m3.0625.09375c1.515625 0 2.421875-1.375 2.421875-3.71875s-.90625-3.71875-2.421875-3.71875-2.421875 1.375-2.421875 3.71875.890625 3.71875 2.421875 3.71875zm0-.59375c-1.125 0-1.78125-1.140625-1.78125-3.125s.671875-3.140625 1.78125-3.140625 1.78125 1.15625 1.78125 3.140625-.671875 3.125-1.78125 3.125zm0 0"/></g><g id="b"><path d="m3.046875-7.25h-.6875l-1.71875 1.140625v.6875l1.703125-1.140625h.03125v6.5625h.671875zm0 0"/></g><g id="c"><path d="m.8125 0h4.5v-.59375h-3.578125v-.046875l1.796875-2c1.203125-1.34375 1.5625-1.9375 1.5625-2.75 0-1.09375-.875-1.953125-2.09375-1.953125s-2.125.859375-2.125 2.0625h.625c0-.859375.59375-1.484375 1.484375-1.484375.84375 0 1.484375.546875 1.484375 1.375 0 .6875-.375 1.203125-1.296875 2.25l-2.359375 2.65625zm0 0"/></g><g id="d"><path d="m3.15625.09375c1.359375 0 2.359375-.875 2.359375-2.03125 0-.921875-.5625-1.59375-1.5-1.78125v-.046875c.765625-.234375 1.25-.84375 1.25-1.671875 0-1.03125-.8125-1.90625-2.09375-1.90625-1.203125 0-2.1875.765625-2.203125 1.90625h.640625c.015625-.8125.71875-1.328125 1.5625-1.328125.875 0 1.453125.5625 1.453125 1.359375 0 .84375-.6875 1.390625-1.625 1.390625h-.421875v.59375h.421875c1.15625 0 1.859375.59375 1.859375 1.484375 0 .828125-.703125 1.4375-1.703125 1.4375-.921875 0-1.640625-.515625-1.6875-1.3125h-.671875c.046875 1.125 1.015625 1.90625 2.359375 1.90625zm0 0"/></g><g id="e"><path d="m2.34375.125c.90625 0 1.46875-.5 1.6875-.984375h.046875v.859375h.625v-3.6875c0-1.46875-1.09375-1.828125-1.921875-1.828125-.84375 0-1.6875.328125-2.0625 1.21875l.59375.21875c.203125-.46875.6875-.875 1.484375-.875.828125 0 1.28125.453125 1.28125 1.203125v.125c0 .421875-.515625.421875-1.421875.53125-1.234375.15625-2.09375.5-2.09375 1.578125 0 1.046875.796875 1.640625 1.78125 1.640625zm.09375-.578125c-.71875 0-1.25-.375-1.25-1.03125 0-.671875.546875-.9375 1.46875-1.046875.4375-.0625 1.234375-.15625 1.421875-.34375v.796875c0 .890625-.640625 1.625-1.640625 1.625zm0 0"/></g><g id="f"><path d="m2.96875-5.4375h-1.140625v-1.296875h-.640625v1.296875h-.8125v.546875h.8125v3.625c0 .890625.703125 1.34375 1.40625 1.34375.25 0 .4375-.046875.546875-.09375l-.125-.5625c-.09375.015625-.203125.046875-.375.046875-.421875 0-.8125-.203125-.8125-.890625v-3.46875h1.140625zm0 0"/></g><g id="g"><path d="m.828125 0h.640625v-3.515625c0-.796875.609375-1.390625 1.46875-1.390625.15625 0 .3125.03125.375.03125v-.640625c-.09375 0-.234375 0-.328125 0-.6875 0-1.28125.359375-1.5.90625h-.046875v-.828125h-.609375zm0 0"/></g><g id="h"><path d="m4.28125-2.078125c0 1-.75 1.53125-1.484375 1.53125-.78125 0-1.328125-.5625-1.328125-1.40625v-3.484375h-.640625v3.515625c0 1.296875.75 2 1.796875 2 .796875 0 1.359375-.421875 1.609375-.984375h.046875v.90625h.640625v-5.4375h-.640625zm0 0"/></g><g id="i"><path d="m3.03125.109375c1.09375 0 1.828125-.59375 2.0625-1.265625l-.59375-.203125c-.203125.484375-.703125.890625-1.46875.890625-1.109375 0-1.8125-.8125-1.84375-2.0625h4.046875v-.3125c0-1.8125-1.125-2.671875-2.296875-2.671875-1.40625 0-2.390625 1.1875-2.390625 2.828125 0 1.65625.96875 2.796875 2.484375 2.796875zm-1.84375-3.203125c.0625-1 .75-1.84375 1.75-1.84375.96875 0 1.65625.796875 1.65625 1.84375zm0 0"/></g><g id="j"><path d="m2.90625 2.15625c1.28125 0 2.25-.640625 2.25-2.015625v-5.578125h-.625v1.03125h-.0625c-.21875-.484375-.671875-1.109375-1.671875-1.109375-1.34375 0-2.25 1.125-2.25 2.78125 0 1.671875.9375 2.671875 2.25 2.671875.96875 0 1.453125-.5625 1.65625-1.0625h.0625v1.234375c0 1-.640625 1.484375-1.609375 1.484375-.9375 0-1.375-.453125-1.609375-.875l-.515625.34375c.3125.625 1.015625 1.09375 2.125 1.09375zm-.046875-2.796875c-1.078125 0-1.671875-.859375-1.671875-2.109375 0-1.21875.59375-2.1875 1.671875-2.1875 1.0625 0 1.671875.921875 1.671875 2.1875 0 1.3125-.625 2.109375-1.671875 2.109375zm0 0"/></g><g id="k"><path d="m4.484375-4.25c-.265625-.78125-.84375-1.265625-1.84375-1.265625-1.09375 0-1.890625.625-1.890625 1.53125 0 .71875.4375 1.21875 1.390625 1.453125l.890625.203125c.59375.140625.875.453125.875.890625 0 .5625-.53125.984375-1.375.984375-.734375 0-1.203125-.34375-1.359375-.984375l-.609375.15625c.203125.90625.921875 1.390625 1.984375 1.390625 1.1875 0 2.015625-.65625 2.015625-1.578125 0-.71875-.453125-1.21875-1.359375-1.4375l-.828125-.203125c-.671875-.171875-.984375-.4375-.984375-.90625 0-.546875.515625-.9375 1.25-.9375s1.09375.390625 1.265625.875zm0 0"/></g><g id="l"><path d="m.84375 0h.625v-5.4375h-.625zm.3125-6.375c.265625 0 .484375-.203125.484375-.453125s-.21875-.453125-.484375-.453125c-.25 0-.46875.203125-.46875.453125s.21875.453125.46875.453125zm0 0"/></g><g id="m"><path d="m2.953125.109375c1.40625 0 2.390625-1.140625 2.390625-2.796875 0-1.671875-.984375-2.828125-2.390625-2.828125-1.421875 0-2.40625 1.15625-2.40625 2.828125 0 1.65625.984375 2.796875 2.40625 2.796875zm0-.578125c-1.140625 0-1.765625-1-1.765625-2.21875s.625-2.25 1.765625-2.25c1.125 0 1.75 1.03125 1.75 2.25s-.625 2.21875-1.75 2.21875zm0 0"/></g><g id="n"><path d="m1.46875-3.40625c0-.9375.609375-1.53125 1.46875-1.53125.84375 0 1.375.5625 1.375 1.453125v3.484375h.640625v-3.515625c0-1.296875-.75-2-1.859375-2-.796875 0-1.34375.375-1.59375.9375h-.0625v-.859375h-.609375v5.4375h.640625zm0 0"/></g><g id="o"><path d="m3.0625-5.4375h-1.203125v-.671875c0-.5625.3125-.875.859375-.875.21875 0 .34375.03125.4375.078125l.1875-.5625c-.140625-.046875-.34375-.125-.671875-.125-.75 0-1.4375.484375-1.4375 1.359375v.796875h-.84375v.546875h.84375v4.890625h.625v-4.890625h1.203125zm0 0"/></g><g id="p"><path d="m2.953125.109375c1.140625 0 1.9375-.71875 2.078125-1.703125h-.640625c-.140625.703125-.71875 1.125-1.4375 1.125-1.0625 0-1.765625-.921875-1.765625-2.25 0-1.3125.71875-2.21875 1.765625-2.21875.78125 0 1.296875.5 1.4375 1.109375h.640625c-.15625-1-1-1.6875-2.078125-1.6875-1.4375 0-2.40625 1.1875-2.40625 2.828125 0 1.609375.953125 2.796875 2.40625 2.796875zm0 0"/></g><g id="q"><path d="m2.515625-3.828125c.0625-.234375.171875-.640625.171875-.703125 0-.1875-.140625-.296875-.328125-.296875-.03125 0-.328125.015625-.421875.40625l-1.578125 6.3125c-.03125.125-.03125.15625-.03125.171875 0 .15625.125.296875.296875.296875.234375 0 .375-.203125.390625-.234375.046875-.09375.1875-.65625.59375-2.34375.359375.296875.84375.34375 1.0625.34375.765625 0 1.1875-.5 1.453125-.796875.09375.484375.5.796875.984375.796875.375 0 .625-.25.796875-.609375.1875-.390625.328125-1.046875.328125-1.078125 0-.109375-.09375-.109375-.125-.109375-.109375 0-.125.046875-.15625.203125-.1875.703125-.375 1.34375-.828125 1.34375-.296875 0-.328125-.28125-.328125-.5 0-.234375.125-.75.21875-1.125l.3125-1.1875c.03125-.15625.140625-.578125.171875-.734375.0625-.25.171875-.671875.171875-.734375 0-.203125-.15625-.296875-.3125-.296875-.0625 0-.34375.015625-.4375.390625l-.5 2.03125c-.140625.546875-.25 1-.28125 1.109375-.015625.0625-.546875 1.046875-1.421875 1.046875-.546875 0-.8125-.359375-.8125-.9375 0-.328125.078125-.625.15625-.9375zm0 0"/></g><g id="r"><path d="m2.59375-5.59375c0-.203125-.140625-.328125-.328125-.328125-.25 0-.484375.234375-.484375.46875 0 .171875.125.328125.328125.328125.25 0 .484375-.21875.484375-.46875zm.125 4.3125c0-.046875-.015625-.109375-.109375-.109375s-.109375.046875-.140625.15625c-.21875.734375-.578125 1.109375-.921875 1.109375-.140625 0-.21875-.078125-.21875-.296875s.078125-.40625.140625-.578125c.15625-.4375.15625-.453125.28125-.734375.140625-.375.34375-.890625.421875-1.140625.078125-.171875.078125-.25.078125-.328125 0-.515625-.40625-.765625-.765625-.765625-.875 0-1.21875 1.28125-1.21875 1.390625 0 .078125.0625.109375.125.109375.09375 0 .109375-.0625.140625-.171875.1875-.640625.53125-1.09375.921875-1.09375.09375 0 .21875.015625.21875.28125 0 .21875-.09375.453125-.171875.65625l-.640625 1.671875c-.0625.171875-.109375.3125-.109375.46875 0 .421875.3125.75.765625.75.875 0 1.203125-1.28125 1.203125-1.375zm0 0"/></g></defs><path d="m.00175625.00048625v-3.50000025" fill="none" stroke="#fff" stroke-linejoin="round" stroke-miterlimit="10" stroke-width=".8" transform="matrix(1 0 0 -1 55.31465 238.84033)"/><use fill="#fff" x="52.257" xlink:href="#a" y="253.137"/><path d="m.0001375.00048625v-3.50000025" fill="none" stroke="#fff" stroke-linejoin="round" stroke-miterlimit="10" stroke-width=".8" transform="matrix(1 0 0 -1 170.5858 238.84033)"/><use fill="#fff" x="168.363" xlink:href="#b" y="253.137"/><path d="m.001345.00048625v-3.50000025" fill="none" stroke="#fff" stroke-linejoin="round" stroke-miterlimit="10" stroke-width=".8" transform="matrix(1 0 0 -1 285.85803 238.84033)"/><use fill="#fff" x="282.814" xlink:href="#c" y="253.137"/><path d="m-.00137375.00048625v-3.50000025" fill="none" stroke="#fff" stroke-linejoin="round" stroke-miterlimit="10" stroke-width=".8" transform="matrix(1 0 0 -1 401.13028 238.84033)"/><use fill="#fff" x="397.992" xlink:href="#d" y="253.137"/><path d="m6.796875-5.859375c-.453125.09375-.625.4375-.625.703125 0 .34375.265625.46875.46875.46875.4375 0 .734375-.375.734375-.765625 0-.59375-.6875-.875-1.296875-.875-.875 0-1.359375.859375-1.484375 1.140625-.328125-1.078125-1.21875-1.140625-1.484375-1.140625-1.453125 0-2.234375 1.875-2.234375 2.203125 0 .046875.0625.125.15625.125.109375 0 .140625-.09375.171875-.140625.484375-1.59375 1.453125-1.890625 1.859375-1.890625.65625 0 .78125.59375.78125.9375 0 .3125-.078125.640625-.265625 1.328125l-.484375 1.96875c-.203125.859375-.625 1.65625-1.390625 1.65625-.0625 0-.421875 0-.734375-.1875.515625-.109375.640625-.53125.640625-.703125 0-.28125-.21875-.453125-.484375-.453125-.34375 0-.71875.296875-.71875.75 0 .609375.671875.875 1.28125.875.6875 0 1.1875-.546875 1.484375-1.125.234375.84375.9375 1.125 1.46875 1.125 1.46875 0 2.25-1.875 2.25-2.1875 0-.078125-.0625-.140625-.15625-.140625-.125 0-.140625.078125-.171875.1875-.390625 1.265625-1.234375 1.859375-1.875 1.859375-.5 0-.765625-.375-.765625-.96875 0-.3125.046875-.546875.28125-1.484375l.5-1.953125c.21875-.859375.703125-1.484375 1.359375-1.484375.03125 0 .4375 0 .734375.171875zm0 0" fill="#fff" transform="translate(223.785 265.695)"/><path d="m.00123125-.000125h-3.50000025" fill="none" stroke="#fff" stroke-linejoin="round" stroke-miterlimit="10" stroke-width=".8" transform="matrix(1 0 0 -1 38.11205 200.98425)"/><use fill="#fff" x="24.749" xlink:href="#a" y="204.784"/><path d="m.00123125.00074875h-3.50000025" fill="none" stroke="#fff" stroke-linejoin="round" stroke-miterlimit="10" stroke-width=".8" transform="matrix(1 0 0 -1 38.11205 146.14528)"/><use fill="#fff" x="24.749" xlink:href="#b" y="149.946"/><path d="m.00123125.0016325h-3.50000025" fill="none" stroke="#fff" stroke-linejoin="round" stroke-miterlimit="10" stroke-width=".8" transform="matrix(1 0 0 -1 38.11205 91.30632)"/><use fill="#fff" x="24.749" xlink:href="#c" y="95.108"/><path d="m.00123125-.00139h-3.50000025" fill="none" stroke="#fff" stroke-linejoin="round" stroke-miterlimit="10" stroke-width=".8" transform="matrix(1 0 0 -1 38.11205 36.46736)"/><use fill="#fff" x="24.749" xlink:href="#d" y="40.27"/><path d="m1.609375-3.765625c.546875.375 1.03125.9375 1.03125 1.640625 0 .171875-.03125.859375-.6875 1.078125.015625-.046875.015625-.109375.015625-.140625 0-.4375-.375-.71875-.703125-.71875s-.453125.265625-.453125.484375c0 .234375.171875.734375.875.734375.734375 0 1.234375-.625 1.234375-1.4375 0-1.4375-1.3125-2.875-2.90625-3.28125l-5.59375-1.40625c-.078125-.015625-.15625-.046875-.25-.046875-.203125 0-.359375.171875-.359375.390625 0 .125.0625.4375.5.546875l4.203125 1.0625c.265625.0625.296875.0625.453125.1875.40625.28125.890625.75.890625 1.4375 0 .8125-.796875.875-1.171875.875-.828125 0-1.921875-.375-2.96875-.765625-.40625-.15625-.609375-.25-.890625-.25-.609375 0-1.15625.4375-1.15625 1.140625 0 1.3125 2.078125 1.84375 2.203125 1.84375.046875 0 .125-.046875.125-.15625 0-.125-.0625-.140625-.265625-.203125-1.203125-.34375-1.765625-.890625-1.765625-1.4375 0-.140625 0-.375.46875-.375.375 0 .78125.15625 1.328125.375 1.875.703125 2.359375.703125 2.703125.703125 1.359375 0 1.671875-.984375 1.671875-1.703125 0-.40625-.125-.921875-.65625-1.4375l.015625-.015625c.84375.21875 1.40625.359375 2.109375.875zm0 0" fill="#fff" transform="translate(17.959 126.703)"/><path d="m38.113281 41.427156v231.644531" fill="none" stroke="#fff" stroke-linecap="square" stroke-miterlimit="10" stroke-width=".8" transform="matrix(1 0 0 -1 0 280.267)"/><path d="m417.445312 41.427156v231.644531" fill="none" stroke="#fff" stroke-linecap="square" stroke-miterlimit="10" stroke-width=".8" transform="matrix(1 0 0 -1 0 280.267)"/><path d="m38.113281 41.427156h379.332031" fill="none" stroke="#fff" stroke-linecap="square" stroke-miterlimit="10" stroke-width=".8" transform="matrix(1 0 0 -1 0 280.267)"/><path d="m38.113281 273.071687h379.332031" fill="none" stroke="#fff" stroke-linecap="square" stroke-miterlimit="10" stroke-width=".8" transform="matrix(1 0 0 -1 0 280.267)"/><path d="m45.113281 220.614656h191.019531c1.332032 0 2 .667969 2 2.003906v43.453125c0 1.332032-.667968 2-2 2h-191.019531c-1.335937 0-2-.667968-2-2v-43.453125c0-1.335937.664063-2.003906 2-2.003906zm0 0" fill="none" stroke="#fff" stroke-miterlimit="10" stroke-opacity=".7" stroke-width="1.00002" transform="matrix(1 0 0 -1 0 280.267)"/><path d="m.00123125-1.5802c.41796875 0 .82031275.164063 1.11718775.460938s.460937.699218.460937 1.12109325c0 .41796875-.164062.82031275-.460937 1.11718775s-.699219.460937-1.11718775.460937c-.42187525 0-.82421925-.164062-1.12109425-.460937s-.460937-.699219-.460937-1.11718775c0-.42187525.164062-.82421825.460937-1.12109325s.699219-.460938 1.12109425-.460938zm0 0" fill="#cda3ff" stroke="#cda3ff" stroke-linejoin="round" stroke-miterlimit="10" stroke-width="1.00002" transform="matrix(1 0 0 -1 57.11205 21.1698)"/><g fill="#fff"><path d="m3.09375 0c2.171875 0 3.421875-1.359375 3.421875-3.640625 0-2.25-1.234375-3.609375-3.296875-3.609375h-2.25v7.25zm-1.46875-.59375v-6.0625h1.546875c1.765625 0 2.703125 1.140625 2.703125 3.015625 0 1.890625-.953125 3.046875-2.828125 3.046875zm0 0" transform="translate(75.111 23.798)"/><use x="82.257173" xlink:href="#e" y="23.798"/><use x="87.80136" xlink:href="#f" y="23.798"/><use x="91.370959" xlink:href="#e" y="23.798"/></g><path d="m3.609375 2.625c0-.046875 0-.0625-.1875-.25-1.359375-1.375-1.703125-3.4375-1.703125-5.09375 0-1.90625.40625-3.796875 1.75-5.171875.140625-.125.140625-.140625.140625-.1875 0-.0625-.046875-.09375-.109375-.09375-.109375 0-1.09375.734375-1.734375 2.125-.5625 1.1875-.6875 2.40625-.6875 3.328125 0 .84375.125 2.15625.71875 3.390625.65625 1.34375 1.59375 2.046875 1.703125 2.046875.0625 0 .109375-.03125.109375-.09375zm0 0" fill="#fff" transform="translate(99.717 23.798)"/><path d="m3.640625-3.296875c.0625-.28125.3125-1.28125 1.078125-1.28125.0625 0 .3125 0 .546875.140625-.296875.046875-.515625.328125-.515625.59375 0 .171875.109375.375.40625.375.25 0 .59375-.203125.59375-.625 0-.578125-.640625-.734375-1.015625-.734375-.640625 0-1.015625.578125-1.140625.84375-.28125-.734375-.875-.84375-1.1875-.84375-1.125 0-1.75 1.421875-1.75 1.6875 0 .109375.109375.109375.125.109375.09375 0 .125-.015625.140625-.125.375-1.15625 1.09375-1.421875 1.46875-1.421875.203125 0 .59375.09375.59375.734375 0 .328125-.1875 1.0625-.59375 2.59375-.171875.671875-.5625 1.125-1.03125 1.125-.078125 0-.328125 0-.546875-.140625.265625-.046875.5-.28125.5-.578125s-.234375-.390625-.390625-.390625c-.328125 0-.609375.28125-.609375.640625 0 .5.546875.71875 1.03125.71875.71875 0 1.109375-.765625 1.140625-.828125.140625.390625.53125.828125 1.1875.828125 1.109375 0 1.734375-1.40625 1.734375-1.6875 0-.109375-.09375-.109375-.125-.109375-.09375 0-.125.046875-.140625.125-.359375 1.171875-1.109375 1.421875-1.453125 1.421875-.421875 0-.59375-.34375-.59375-.71875 0-.234375.0625-.46875.171875-.953125zm0 0" fill="#fff" transform="translate(103.959 23.798)"/><use fill="#fff" x="110.194" xlink:href="#r" y="25.957"/><path d="m2.21875-.015625c0-.71875-.28125-1.140625-.703125-1.140625-.359375 0-.578125.265625-.578125.578125 0 .296875.21875.578125.578125.578125.125 0 .265625-.046875.375-.140625.046875-.015625.046875-.03125.0625-.03125s.015625.015625.015625.15625c0 .8125-.375 1.46875-.734375 1.828125-.125.125-.125.140625-.125.171875 0 .078125.0625.125.109375.125.125 0 1-.84375 1-2.125zm0 0" fill="#fff" transform="translate(113.846 23.798)"/><path d="m5.296875-4.15625c.046875-.15625.046875-.171875.046875-.25 0-.203125-.15625-.296875-.3125-.296875-.109375 0-.28125.0625-.390625.234375-.015625.046875-.109375.390625-.140625.59375-.078125.28125-.15625.578125-.21875.859375l-.5 1.96875c-.046875.15625-.515625.921875-1.234375.921875-.546875 0-.671875-.46875-.671875-.875 0-.5.1875-1.1875.5625-2.140625.171875-.453125.21875-.5625.21875-.78125 0-.5-.359375-.90625-.90625-.90625-1.03125 0-1.4375 1.59375-1.4375 1.6875 0 .109375.109375.109375.140625.109375.109375 0 .109375-.015625.171875-.203125.296875-1.015625.734375-1.34375 1.09375-1.34375.09375 0 .28125 0 .28125.34375 0 .28125-.109375.5625-.1875.765625-.4375 1.15625-.640625 1.78125-.640625 2.296875 0 .96875.6875 1.296875 1.34375 1.296875.421875 0 .78125-.1875 1.09375-.5-.140625.578125-.265625 1.109375-.703125 1.6875-.28125.359375-.703125.6875-1.203125.6875-.15625 0-.640625-.03125-.828125-.46875.171875 0 .3125 0 .46875-.125.109375-.09375.21875-.234375.21875-.453125 0-.328125-.296875-.375-.40625-.375-.25 0-.609375.171875-.609375.703125 0 .546875.484375.953125 1.15625.953125 1.125 0 2.25-.984375 2.546875-2.21875zm0 0" fill="#fff" transform="translate(118.698368 23.798)"/><use fill="#fff" x="124.043" xlink:href="#r" y="25.957"/><path d="m3.15625-2.71875c0-.859375-.125-2.171875-.71875-3.40625-.65625-1.34375-1.59375-2.046875-1.703125-2.046875-.0625 0-.109375.03125-.109375.09375 0 .046875 0 .0625.203125.265625 1.0625 1.078125 1.6875 2.8125 1.6875 5.09375 0 1.859375-.40625 3.78125-1.75 5.15625-.140625.125-.140625.140625-.140625.1875 0 .0625.046875.09375.109375.09375.109375 0 1.09375-.734375 1.734375-2.125.546875-1.1875.6875-2.40625.6875-3.3125zm0 0" fill="#fff" transform="translate(127.694 23.798)"/><path d="m47.113281 244.872469h20" style="fill:none;stroke-width:1.50002;stroke-linecap:square;stroke-linejoin:round;stroke:#50ea7b;stroke-miterlimit:10" transform="matrix(1 0 0 -1 0 280.267)"/><path d="m.53125-6.65625h2.296875v6.65625h.65625v-6.65625h2.296875v-.59375h-5.25zm0 0" fill="#fff" transform="translate(75.111 38.896)"/><g fill="#fff"><use x="80.844476" xlink:href="#g" y="38.896"/><use x="84.396143" xlink:href="#h" y="38.896"/><use x="90.141575" xlink:href="#i" y="38.896"/></g><use fill="#fff" x="98.725351" xlink:href="#g" y="38.896"/><g fill="#fff"><use x="102.107653" xlink:href="#i" y="38.896"/><use x="107.891939" xlink:href="#j" y="38.896"/><use x="113.878465" xlink:href="#g" y="38.896"/></g><g fill="#fff"><use x="117.260768" xlink:href="#i" y="38.896"/><use x="123.045054" xlink:href="#k" y="38.896"/><use x="128.153875" xlink:href="#k" y="38.896"/><use x="133.262696" xlink:href="#l" y="38.896"/><use x="135.573023" xlink:href="#m" y="38.896"/><use x="141.459923" xlink:href="#n" y="38.896"/></g><g fill="#fff"><use x="150.042703" xlink:href="#o" y="38.896"/><use x="153.53858" xlink:href="#h" y="38.896"/><use x="159.284011" xlink:href="#n" y="38.896"/><use x="165.057338" xlink:href="#p" y="38.896"/><use x="170.601525" xlink:href="#f" y="38.896"/><use x="174.171124" xlink:href="#l" y="38.896"/><use x="176.481451" xlink:href="#m" y="38.896"/><use x="182.368352" xlink:href="#n" y="38.896"/></g><use fill="#fff" x="190.94" xlink:href="#q" y="38.896"/><path d="m47.113281 230.196687h20" style="fill:none;stroke-width:1.50002;stroke-linecap:square;stroke-linejoin:round;stroke:#f55;stroke-miterlimit:10" transform="matrix(1 0 0 -1 0 280.267)"/><g fill="#fff"><path d="m.96875 0h4.265625v-.59375h-3.609375v-2.734375h3.328125v-.59375h-3.328125v-2.734375h3.546875v-.59375h-4.203125zm0 0" transform="translate(75.111 53.574)"/><use x="81.022807" xlink:href="#k" y="53.574"/><use x="86.131628" xlink:href="#f" y="53.574"/><use x="89.701228" xlink:href="#l" y="53.574"/><path d="m.828125 0h.640625v-3.484375c0-.84375.5625-1.453125 1.3125-1.453125.734375 0 1.171875.5 1.171875 1.234375v3.703125h.640625v-3.578125c0-.78125.46875-1.359375 1.296875-1.359375.71875 0 1.203125.4375 1.203125 1.296875v3.640625h.625v-3.640625c0-1.21875-.625-1.875-1.640625-1.875-.78125 0-1.359375.390625-1.609375 1h-.046875c-.234375-.625-.71875-1-1.46875-1-.703125 0-1.234375.34375-1.453125.90625h-.0625v-.828125h-.609375zm0 0" transform="translate(92.011555 53.574)"/><use x="100.559465" xlink:href="#e" y="53.574"/><use x="106.103652" xlink:href="#f" y="53.574"/></g><g fill="#fff"><use x="109.613476" xlink:href="#i" y="53.574"/><path d="m2.796875.109375c.984375 0 1.4375-.625 1.65625-1.125h.078125v1.015625h.625v-7.25h-.640625v2.84375h-.0625c-.203125-.484375-.65625-1.109375-1.65625-1.109375-1.34375 0-2.25 1.140625-2.25 2.8125 0 1.6875.90625 2.8125 2.25 2.8125zm.0625-.578125c-1.078125 0-1.671875-.984375-1.671875-2.25 0-1.25.59375-2.21875 1.671875-2.21875 1.0625 0 1.671875.921875 1.671875 2.21875 0 1.3125-.609375 2.25-1.671875 2.25zm0 0" transform="translate(115.397762 53.574)"/></g><use fill="#fff" x="124.317278" xlink:href="#g" y="53.574"/><g fill="#fff"><use x="127.69958" xlink:href="#i" y="53.574"/><use x="133.483866" xlink:href="#j" y="53.574"/><use x="139.470392" xlink:href="#g" y="53.574"/></g><g fill="#fff"><use x="142.852695" xlink:href="#i" y="53.574"/><use x="148.636981" xlink:href="#k" y="53.574"/><use x="153.745802" xlink:href="#k" y="53.574"/><use x="158.854623" xlink:href="#l" y="53.574"/><use x="161.16495" xlink:href="#m" y="53.574"/><use x="167.05185" xlink:href="#n" y="53.574"/></g><g fill="#fff"><use x="175.624668" xlink:href="#o" y="53.574"/><use x="179.120544" xlink:href="#h" y="53.574"/><use x="184.865975" xlink:href="#n" y="53.574"/><use x="190.639302" xlink:href="#p" y="53.574"/><use x="196.183489" xlink:href="#f" y="53.574"/><use x="199.753089" xlink:href="#l" y="53.574"/><use x="202.063416" xlink:href="#m" y="53.574"/><use x="207.950316" xlink:href="#n" y="53.574"/></g><path d="m2.765625-6.828125 2.703125 1.21875.125-.21875-2.828125-1.59375-2.8125 1.59375.109375.21875zm0 0" fill="#fff" transform="translate(217.345 53.167)"/><use fill="#fff" x="216.523" xlink:href="#q" y="53.574"/><g stroke-linejoin="round"><path d="m55.453125 79.349031 344.75 164.011719" fill="none" stroke="#50ea7b" stroke-linecap="square" stroke-miterlimit="10" stroke-width="1.50002" transform="matrix(1 0 0 -1 0 280.267)"/><path d="m.00124875-1.579846c.41796925 0 .82031225.164062 1.11718725.460937s.460938.699219.460938 1.11718775c0 .42187525-.164063.82421825-.460938 1.12109325s-.699218.460938-1.11718725.460938c-.42187475 0-.82421875-.164063-1.12109375-.460938s-.460937-.699218-.460937-1.12109325c0-.41796875.164062-.82031275.460937-1.11718775s.699219-.460937 1.12109375-.460937zm0 0" fill="#cda3ff" stroke="#cda3ff" stroke-miterlimit="10" stroke-width="1.00002" transform="matrix(1 0 0 -1 55.35422 190.98656)"/><path d="m.00186375-1.580656c.41796825 0 .82031225.164062 1.11718725.460937s.460938.699219.460938 1.121094c0 .417969-.164063.820312-.460938 1.117187s-.699219.460938-1.11718725.460938c-.42187475 0-.82421875-.164063-1.12109375-.460938s-.460938-.699218-.460938-1.117187c0-.421875.164063-.824219.460938-1.121094s.699219-.460937 1.12109375-.460937zm0 0" fill="#cda3ff" stroke="#cda3ff" stroke-miterlimit="10" stroke-width="1.00002" transform="matrix(1 0 0 -1 56.30673 212.642)"/><path d="m-.00177125-1.580756c.42187525 0 .82421825.164062 1.12109325.460937s.460938.699219.460938 1.121094c0 .417969-.164063.820312-.460938 1.117187s-.699218.460938-1.12109325.460938c-.41796875 0-.82031275-.164063-1.11718775-.460938s-.460937-.699218-.460937-1.117187c0-.421875.164062-.824219.460937-1.121094s.699219-.460937 1.11718775-.460937zm0 0" fill="#cda3ff" stroke="#cda3ff" stroke-miterlimit="10" stroke-width="1.00002" transform="matrix(1 0 0 -1 61.63849 195.2669)"/><path d="m-.00029125-1.582475c.42187525 0 .82031225.167969 1.11718725.464844s.464844.699219.464844 1.11718725c0 .42187475-.167969.82031275-.464844 1.11718775s-.695312.464844-1.11718725.464844c-.41796875 0-.82031275-.167969-1.11718775-.464844s-.464844-.695313-.464844-1.11718775c0-.41796825.167969-.82031225.464844-1.11718725s.699219-.464844 1.11718775-.464844zm0 0" fill="#cda3ff" stroke="#cda3ff" stroke-miterlimit="10" stroke-width="1.00002" transform="matrix(1 0 0 -1 62.01201 184.99565)"/><path d="m-.00094375-1.582774c.42187475 0 .82421875.167969 1.12109375.464844.292969.296875.460937.699219.460937 1.1171875 0 .4218745-.167968.8242185-.460937 1.1210935-.296875.292969-.699219.460938-1.12109375.460938-.41796925 0-.82031225-.167969-1.11718725-.460938-.296875-.296875-.460938-.699219-.460938-1.1210935 0-.4179685.164063-.8203125.460938-1.1171875s.699218-.464844 1.11718725-.464844zm0 0" fill="#cda3ff" stroke="#cda3ff" stroke-miterlimit="10" stroke-width="1.00002" transform="matrix(1 0 0 -1 64.7861 191.38207)"/><path d="m-.0000275-1.58038c.4179685 0 .8203125.164063 1.1171875.460938s.464844.699218.464844 1.12109325c0 .41796875-.167969.82031275-.464844 1.11718775s-.699219.460937-1.1171875.460937-.8203125-.164062-1.1171875-.460937-.464844-.699219-.464844-1.11718775c0-.42187525.167969-.82421825.464844-1.12109325s.699219-.460938 1.1171875-.460938zm0 0" fill="#cda3ff" stroke="#cda3ff" stroke-miterlimit="10" stroke-width="1.00002" transform="matrix(1 0 0 -1 68.82034 177.26337)"/><path d="m.00114375-1.582166c.41796925 0 .82031225.167968 1.11718725.464843s.460938.699219.460938 1.117188-.164063.820312-.460938 1.117187-.699218.464844-1.11718725.464844c-.42187475 0-.82421875-.167969-1.12109375-.464844s-.460937-.699218-.460937-1.117187.164062-.820313.460937-1.117188.699219-.464843 1.12109375-.464843zm0 0" fill="#cda3ff" stroke="#cda3ff" stroke-miterlimit="10" stroke-width="1.00002" transform="matrix(1 0 0 -1 72.5887 191.20299)"/><path d="m.00088125-1.580331c.41796875 0 .82031275.164062 1.11718775.460937s.460937.699219.460937 1.121094c0 .417969-.164062.820312-.460937 1.117187s-.699219.460938-1.11718775.460938c-.42187525 0-.82421925-.164063-1.12109425-.460938-.292968-.296875-.460937-.699218-.460937-1.117187 0-.421875.167969-.824219.460937-1.121094.296875-.296875.699219-.460937 1.12109425-.460937zm0 0" fill="#cda3ff" stroke="#cda3ff" stroke-miterlimit="10" stroke-width="1.00002" transform="matrix(1 0 0 -1 73.76865 190.8767)"/><path d="m-.00169375-1.581801c.42187475 0 .82421875.167968 1.12109375.464843s.460937.699219.460937 1.117188-.164062.820312-.460937 1.117187-.699219.464844-1.12109375.464844c-.41796925 0-.82031225-.167969-1.11718725-.464844s-.460938-.699218-.460938-1.117187.164063-.820313.460938-1.117188.699218-.464843 1.11718725-.464843zm0 0" fill="#cda3ff" stroke="#cda3ff" stroke-miterlimit="10" stroke-width="1.00002" transform="matrix(1 0 0 -1 84.72435 199.62523)"/><path d="m-.00074625-1.580324c.42187525 0 .82421825.164063 1.12109325.460938.292969.296875.460938.699219.460938 1.1210935 0 .4179685-.167969.8203125-.460938 1.1171875-.296875.296875-.699218.460938-1.12109325.460938-.41796875 0-.82031275-.164063-1.11718775-.460938s-.464844-.699219-.464844-1.1171875c0-.4218745.167969-.8242185.464844-1.1210935s.699219-.460938 1.11718775-.460938zm0 0" fill="#cda3ff" stroke="#cda3ff" stroke-miterlimit="10" stroke-width="1.00002" transform="matrix(1 0 0 -1 87.24684 191.79077)"/><path d="m-.00017125-1.581649c.41796925 0 .82031225.167969 1.11718725.464844s.464844.695313.464844 1.1171875c0 .4179685-.167969.8203125-.464844 1.1171875s-.699218.464844-1.11718725.464844c-.41796875 0-.82031275-.167969-1.11718775-.464844s-.464843-.699219-.464843-1.1171875c0-.4218745.167968-.8203125.464843-1.1171875s.699219-.464844 1.11718775-.464844zm0 0" fill="#cda3ff" stroke="#cda3ff" stroke-miterlimit="10" stroke-width="1.00002" transform="matrix(1 0 0 -1 89.32439 192.36757)"/><path d="m-.000045-1.581635c.417969 0 .820312.167969 1.117187.464844s.464844.695312.464844 1.11718725c0 .41796875-.167969.82031275-.464844 1.11718775s-.699218.464843-1.117187.464843-.820313-.167968-1.117188-.464843-.464843-.699219-.464843-1.11718775c0-.42187525.167968-.82031225.464843-1.11718725s.699219-.464844 1.117188-.464844zm0 0" fill="#cda3ff" stroke="#cda3ff" stroke-miterlimit="10" stroke-width="1.00002" transform="matrix(1 0 0 -1 90.70317 156.09024)"/><path d="m-.00018125-1.57986c.41796825 0 .82031225.164063 1.11718725.460938s.464844.699218.464844 1.117187c0 .421875-.167969.824219-.464844 1.121094s-.699219.460937-1.11718725.460937c-.41796875 0-.82031275-.164062-1.11718775-.460937s-.464844-.699219-.464844-1.121094c0-.417969.167969-.820312.464844-1.117187s.699219-.460938 1.11718775-.460938zm0 0" fill="#cda3ff" stroke="#cda3ff" stroke-miterlimit="10" stroke-width="1.00002" transform="matrix(1 0 0 -1 91.0119 180.04514)"/><path d="m.00050375-1.580346c.41796825 0 .82031225.164062 1.11718725.460937s.464844.699219.464844 1.121094c0 .417969-.167969.820313-.464844 1.117188s-.699219.460937-1.11718725.460937c-.42187475 0-.82031275-.164062-1.11718775-.460937s-.464844-.699219-.464844-1.117188c0-.421875.167969-.824219.464844-1.121094s.695313-.460937 1.11718775-.460937zm0 0" fill="#cda3ff" stroke="#cda3ff" stroke-miterlimit="10" stroke-width="1.00002" transform="matrix(1 0 0 -1 94.99559 198.54856)"/><path d="m.00116-1.582517c.417969 0 .820312.167968 1.117187.464843s.460938.699219.460938 1.11718775c0 .42187525-.164063.82031225-.460938 1.11718725s-.699218.464844-1.117187.464844c-.421875 0-.824219-.167969-1.121094-.464844s-.460937-.695312-.460937-1.11718725c0-.41796875.164062-.82031275.460937-1.11718775s.699219-.464843 1.121094-.464843zm0 0" fill="#cda3ff" stroke="#cda3ff" stroke-miterlimit="10" stroke-width="1.00002" transform="matrix(1 0 0 -1 100.28009 173.03467)"/><path d="m.00014875-1.579359c.41796925 0 .82031225.164063 1.11718725.460938s.464844.699218.464844 1.11718725c0 .42187475-.167969.82421875-.464844 1.12109375s-.699218.460937-1.11718725.460937c-.41796875 0-.82031275-.164062-1.11718775-.460937s-.464843-.699219-.464843-1.12109375c0-.41796925.167968-.82031225.464843-1.11718725s.699219-.460938 1.11718775-.460938zm0 0" fill="#cda3ff" stroke="#cda3ff" stroke-miterlimit="10" stroke-width="1.00002" transform="matrix(1 0 0 -1 102.85532 181.52611)"/><path d="m-.0016775-1.579725c.4218755 0 .8242185.164063 1.1210935.460938s.460938.699218.460938 1.117187c0 .421875-.164063.824219-.460938 1.121094s-.699218.460937-1.1210935.460937c-.4179685 0-.8203125-.164062-1.1171875-.460937s-.460937-.699219-.460937-1.121094c0-.417969.164062-.820312.460937-1.117187s.699219-.460938 1.1171875-.460938zm0 0" fill="#cda3ff" stroke="#cda3ff" stroke-miterlimit="10" stroke-width="1.00002" transform="matrix(1 0 0 -1 103.47824 228.3109)"/><path d="m.00052125-1.580599c.41796875 0 .82031275.164063 1.11718775.460938s.464844.699219.464844 1.1210935c0 .4179685-.167969.8203125-.464844 1.1171875s-.699219.460938-1.11718775.460938c-.42187525 0-.82421825-.164063-1.11718725-.460938-.296875-.296875-.464844-.699219-.464844-1.1171875 0-.4218745.167969-.8242185.464844-1.1210935.292969-.296875.695312-.460938 1.11718725-.460938zm0 0" fill="#cda3ff" stroke="#cda3ff" stroke-miterlimit="10" stroke-width="1.00002" transform="matrix(1 0 0 -1 103.86276 169.99362)"/><path d="m-.0009725-1.57931c.4218745 0 .8242185.164062 1.1210935.460937.292969.296875.460938.699219.460938 1.117188 0 .421875-.167969.824219-.460938 1.121094-.296875.296875-.699219.460937-1.1210935.460937-.4179685 0-.8203125-.164062-1.1171875-.460937s-.460938-.699219-.460938-1.121094c0-.417969.164063-.820313.460938-1.117188s.699219-.460937 1.1171875-.460937zm0 0" fill="#cda3ff" stroke="#cda3ff" stroke-miterlimit="10" stroke-width="1.00002" transform="matrix(1 0 0 -1 106.05566 202.38944)"/><path d="m.00193625-1.58233c.41796875 0 .82031275.167969 1.11718775.464844s.460937.699218.460937 1.11718725c0 .42187475-.164062.82031275-.460937 1.11718775s-.699219.464843-1.11718775.464843c-.42187525 0-.82421925-.167968-1.12109425-.464843s-.460937-.695313-.460937-1.11718775c0-.41796925.164062-.82031225.460937-1.11718725s.699219-.464844 1.12109425-.464844zm0 0" fill="#cda3ff" stroke="#cda3ff" stroke-miterlimit="10" stroke-width="1.00002" transform="matrix(1 0 0 -1 106.06447 167.32392)"/><path d="m-.00094625-1.580111c.42187525 0 .82421825.164062 1.12109325.460937.292969.296875.460938.699219.460938 1.121094 0 .417969-.167969.820313-.460938 1.117188-.296875.296875-.699218.460937-1.12109325.460937-.41796875 0-.82031275-.164062-1.11718775-.460937s-.460937-.699219-.460937-1.117188c0-.421875.164062-.824219.460937-1.121094s.699219-.460937 1.11718775-.460937zm0 0" fill="#cda3ff" stroke="#cda3ff" stroke-miterlimit="10" stroke-width="1.00002" transform="matrix(1 0 0 -1 112.49704 189.59567)"/><path d="m.001835-1.580368c.417969 0 .820312.164063 1.117187.460938s.460938.699219.460938 1.12109375c0 .41796825-.164063.82031225-.460938 1.11718725s-.699218.460938-1.117187.460938c-.421875 0-.824219-.164063-1.121094-.460938s-.460937-.699219-.460937-1.11718725c0-.42187475.164062-.82421875.460937-1.12109375s.699219-.460938 1.121094-.460938zm0 0" fill="#cda3ff" stroke="#cda3ff" stroke-miterlimit="10" stroke-width="1.00002" transform="matrix(1 0 0 -1 114.04504 197.03682)"/><path d="m.0004225-1.580463c.4179685 0 .8203125.164063 1.1171875.460938s.464844.699219.464844 1.12109375c0 .41796825-.167969.82031225-.464844 1.11718725s-.699219.460938-1.1171875.460938c-.4218755 0-.8203125-.164063-1.1171875-.460938s-.464844-.699219-.464844-1.11718725c0-.42187475.167969-.82421875.464844-1.12109375s.695312-.460938 1.1171875-.460938zm0 0" fill="#cda3ff" stroke="#cda3ff" stroke-miterlimit="10" stroke-width="1.00002" transform="matrix(1 0 0 -1 119.72614 162.2086)"/><path d="m-.0004775-1.579578c.4218755 0 .8203125.164063 1.1171875.460938s.464844.699219.464844 1.1171875c0 .4218745-.167969.8242185-.464844 1.1210935s-.695312.460938-1.1171875.460938c-.4179685 0-.8203125-.164063-1.1171875-.460938s-.464844-.699219-.464844-1.1210935c0-.4179685.167969-.8203125.464844-1.1171875s.699219-.460938 1.1171875-.460938zm0 0" fill="#cda3ff" stroke="#cda3ff" stroke-miterlimit="10" stroke-width="1.00002" transform="matrix(1 0 0 -1 123.82079 192.97511)"/><path d="m-.001355-1.580414c.421875 0 .824219.164063 1.121094.460938s.460937.699219.460937 1.1210935c0 .4179685-.164062.8203125-.460937 1.1171875s-.699219.460938-1.121094.460938c-.417969 0-.820313-.164063-1.117188-.460938s-.460937-.699219-.460937-1.1171875c0-.4218745.164062-.8242185.460937-1.1210935s.699219-.460938 1.117188-.460938zm0 0" fill="#cda3ff" stroke="#cda3ff" stroke-miterlimit="10" stroke-width="1.00002" transform="matrix(1 0 0 -1 126.01698 174.69693)"/><path d="m.00116-1.581559c.417969 0 .820312.167969 1.117187.464844s.460938.695313.460938 1.1171875c0 .4179685-.164063.8203125-.460938 1.1171875s-.699218.464844-1.117187.464844c-.421875 0-.824219-.167969-1.121094-.464844s-.460937-.699219-.460937-1.1171875c0-.4218745.164062-.8203125.460937-1.1171875s.699219-.464844 1.121094-.464844zm0 0" fill="#cda3ff" stroke="#cda3ff" stroke-miterlimit="10" stroke-width="1.00002" transform="matrix(1 0 0 -1 128.49884 162.80516)"/><path d="m-.00127-1.58241c.421875 0 .824219.167969 1.121094.464844s.460937.699218.460937 1.11718725c0 .42187475-.164062.82031275-.460937 1.11718775s-.699219.464843-1.121094.464843c-.417969 0-.820313-.167968-1.117188-.464843s-.460937-.695313-.460937-1.11718775c0-.41796925.164062-.82031225.460937-1.11718725s.699219-.464844 1.117188-.464844zm0 0" fill="#cda3ff" stroke="#cda3ff" stroke-miterlimit="10" stroke-width="1.00002" transform="matrix(1 0 0 -1 137.28252 151.91759)"/><path d="m-.00053875-1.58275c.42187475 0 .82421875.167969 1.11718775.464844.296875.296875.464844.699219.464844 1.11718725 0 .42187475-.167969.82421875-.464844 1.11718775-.292969.296875-.695313.464844-1.11718775.464844-.41796825 0-.82031225-.167969-1.11718725-.464844-.296875-.292969-.464844-.695313-.464844-1.11718775 0-.41796825.167969-.82031225.464844-1.11718725s.699219-.464844 1.11718725-.464844zm0 0" fill="#cda3ff" stroke="#cda3ff" stroke-miterlimit="10" stroke-width="1.00002" transform="matrix(1 0 0 -1 147.14507 145.04225)"/><path d="m.00004625-1.580396c.41796875 0 .82031275.164062 1.11718775.460937s.464843.699219.464843 1.121094c0 .417969-.167968.820312-.464843 1.117187s-.699219.460938-1.11718775.460938c-.41796925 0-.82031225-.164063-1.11718725-.460938s-.464844-.699218-.464844-1.117187c0-.421875.167969-.824219.464844-1.121094s.699218-.460937 1.11718725-.460937zm0 0" fill="#cda3ff" stroke="#cda3ff" stroke-miterlimit="10" stroke-width="1.00002" transform="matrix(1 0 0 -1 148.66011 157.17351)"/><path d="m.000255-1.579894c.417969 0 .820313.164063 1.117188.460938s.464843.699219.464843 1.11718725c0 .42187475-.167968.82421875-.464843 1.12109375s-.699219.460938-1.117188.460938c-.421875 0-.820312-.164063-1.117187-.460938s-.464844-.699219-.464844-1.12109375c0-.41796825.167969-.82031225.464844-1.11718725s.695312-.460938 1.117187-.460938zm0 0" fill="#cda3ff" stroke="#cda3ff" stroke-miterlimit="10" stroke-width="1.00002" transform="matrix(1 0 0 -1 152.29662 168.5412)"/><path d="m.00083125-1.579882c.41796875 0 .82031275.164062 1.11718775.460937s.464843.699219.464843 1.1171875c0 .4218755-.167968.8242185-.464843 1.1210935s-.699219.460938-1.11718775.460938c-.42187525 0-.82421925-.164063-1.12109425-.460938-.292968-.296875-.460937-.699218-.460937-1.1210935 0-.4179685.167969-.8203125.460937-1.1171875.296875-.296875.699219-.460937 1.12109425-.460937zm0 0" fill="#cda3ff" stroke="#cda3ff" stroke-miterlimit="10" stroke-width="1.00002" transform="matrix(1 0 0 -1 154.8312 121.99043)"/><path d="m.0010425-1.581299c.4179685 0 .8203125.167969 1.1171875.460938.296875.296875.460937.699218.460937 1.1210935 0 .4179685-.164062.8203125-.460937 1.1171875s-.699219.464844-1.1171875.464844c-.4218755 0-.8242185-.167969-1.1210935-.464844s-.460938-.699219-.460938-1.1171875c0-.4218755.164063-.8242185.460938-1.1210935.296875-.292969.699218-.460938 1.1210935-.460938zm0 0" fill="#cda3ff" stroke="#cda3ff" stroke-miterlimit="10" stroke-width="1.00002" transform="matrix(1 0 0 -1 156.85052 162.64917)"/><path d="m-.00191875-1.579394c.42187475 0 .82421875.164063 1.12109375.460938s.460937.699219.460937 1.11718725c0 .42187475-.164062.82421875-.460937 1.12109375s-.699219.460938-1.12109375.460938c-.41796925 0-.82031225-.164063-1.11718725-.460938s-.460938-.699219-.460938-1.12109375c0-.41796825.164063-.82031225.460938-1.11718725s.699218-.460938 1.11718725-.460938zm0 0" fill="#cda3ff" stroke="#cda3ff" stroke-miterlimit="10" stroke-width="1.00002" transform="matrix(1 0 0 -1 159.8652 121.57295)"/><path d="m.001445-1.579423c.417969 0 .820313.164063 1.117188.460938s.460937.699219.460937 1.1171875c0 .4218745-.164062.8242185-.460937 1.1210935s-.699219.460938-1.117188.460938c-.421875 0-.824219-.164063-1.121094-.460938s-.460937-.699219-.460937-1.1210935c0-.4179685.164062-.8203125.460937-1.1171875s.699219-.460938 1.121094-.460938zm0 0" fill="#cda3ff" stroke="#cda3ff" stroke-miterlimit="10" stroke-width="1.00002" transform="matrix(1 0 0 -1 163.70168 156.86589)"/><path d="m.00119125-1.579771c.41796875 0 .82031275.164062 1.11718775.460937s.460937.699219.460937 1.11718775c0 .42187525-.164062.82421925-.460937 1.12109425s-.699219.460937-1.11718775.460937c-.42187525 0-.82421825-.164062-1.12109325-.460937s-.460938-.699219-.460938-1.12109425c0-.41796875.164063-.82031275.460938-1.11718775s.699218-.460937 1.12109325-.460937zm0 0" fill="#cda3ff" stroke="#cda3ff" stroke-miterlimit="10" stroke-width="1.00002" transform="matrix(1 0 0 -1 164.42459 129.97101)"/><path d="m.00192625-1.582141c.41796875 0 .82031275.167969 1.11718775.464844s.460937.699218.460937 1.117187-.164062.820313-.460937 1.117188-.699219.464843-1.11718775.464843c-.42187525 0-.82421925-.167968-1.12109425-.464843s-.460937-.699219-.460937-1.117188.164062-.820312.460937-1.117187.699219-.464844 1.12109425-.464844zm0 0" fill="#cda3ff" stroke="#cda3ff" stroke-miterlimit="10" stroke-width="1.00002" transform="matrix(1 0 0 -1 174.81448 126.53114)"/><path d="m.001155-1.579251c.417969 0 .820313.164062 1.117188.460937s.460937.699219.460937 1.11718775c0 .42187525-.164062.82421925-.460937 1.12109425s-.699219.460937-1.117188.460937c-.421875 0-.824219-.164062-1.121094-.460937s-.460937-.699219-.460937-1.12109425c0-.41796875.164062-.82031275.460937-1.11718775s.699219-.460937 1.121094-.460937zm0 0" fill="#cda3ff" stroke="#cda3ff" stroke-miterlimit="10" stroke-width="1.00002" transform="matrix(1 0 0 -1 175.57697 160.97153)"/><path d="m-.00043-1.580783c.421875 0 .820313.164063 1.117188.460938s.464843.699219.464843 1.12109375c0 .41796825-.167968.82031225-.464843 1.11718725s-.695313.460938-1.117188.460938c-.417969 0-.820312-.164063-1.117187-.460938s-.464844-.699219-.464844-1.11718725c0-.42187475.167969-.82421875.464844-1.12109375s.699218-.460938 1.117187-.460938zm0 0" fill="#cda3ff" stroke="#cda3ff" stroke-miterlimit="10" stroke-width="1.00002" transform="matrix(1 0 0 -1 175.96918 137.73953)"/><path d="m.0009575-1.581941c.4179685 0 .8203125.167969 1.1171875.464844s.460937.699218.460937 1.117187-.164062.820313-.460937 1.117188-.699219.464843-1.1171875.464843c-.4218755 0-.8242185-.167968-1.1210935-.464843-.292969-.296875-.460938-.699219-.460938-1.117188s.167969-.820312.460938-1.117187c.296875-.296875.699218-.464844 1.1210935-.464844zm0 0" fill="#cda3ff" stroke="#cda3ff" stroke-miterlimit="10" stroke-width="1.00002" transform="matrix(1 0 0 -1 192.52248 123.28134)"/><path d="m-.0018625-1.582045c.4218745 0 .8242185.167969 1.1210935.464844s.460938.699219.460938 1.11718725c0 .41796875-.164063.82031275-.460938 1.11718775s-.699219.464844-1.1210935.464844c-.4179685 0-.8203125-.167969-1.1171875-.464844s-.460938-.699219-.460938-1.11718775c0-.41796825.164063-.82031225.460938-1.11718725s.699219-.464844 1.1171875-.464844zm0 0" fill="#cda3ff" stroke="#cda3ff" stroke-miterlimit="10" stroke-width="1.00002" transform="matrix(1 0 0 -1 192.8378 124.02733)"/><path d="m-.001415-1.579196c.421875 0 .824219.164062 1.121094.460937s.460937.699219.460937 1.11718775c0 .42187525-.164062.82421925-.460937 1.12109425s-.699219.460937-1.121094.460937c-.417969 0-.820313-.164062-1.117188-.460937s-.460937-.699219-.460937-1.12109425c0-.41796875.164062-.82031275.460937-1.11718775s.699219-.460937 1.117188-.460937zm0 0" fill="#cda3ff" stroke="#cda3ff" stroke-miterlimit="10" stroke-width="1.00002" transform="matrix(1 0 0 -1 196.45454 137.11221)"/><path d="m-.00133-1.579803c.421875 0 .824219.164063 1.121094.460938s.460937.699219.460937 1.1171875c0 .4218745-.164062.8242185-.460937 1.1210935s-.699219.460938-1.121094.460938c-.417969 0-.820313-.164063-1.117188-.460938s-.460937-.699219-.460937-1.1210935c0-.4179685.164062-.8203125.460937-1.1171875s.699219-.460938 1.117188-.460938zm0 0" fill="#cda3ff" stroke="#cda3ff" stroke-miterlimit="10" stroke-width="1.00002" transform="matrix(1 0 0 -1 198.50133 127.89676)"/><path d="m-.00120125-1.579889c.42187525 0 .82421925.164063 1.12109425.460938s.460937.699218.460937 1.11718725c0 .42187475-.164062.82421875-.460937 1.12109375s-.699219.460937-1.12109425.460937c-.41796875 0-.82031275-.164062-1.11718775-.460937s-.460937-.699219-.460937-1.12109375c0-.41796925.164062-.82031225.460937-1.11718725s.699219-.460938 1.11718775-.460938zm0 0" fill="#cda3ff" stroke="#cda3ff" stroke-miterlimit="10" stroke-width="1.00002" transform="matrix(1 0 0 -1 198.54417 139.33808)"/><path d="m-.00012625-1.579375c.41796825 0 .82031225.164063 1.11718725.460938s.464844.699218.464844 1.117187c0 .421875-.167969.824219-.464844 1.121094s-.699219.460937-1.11718725.460937c-.41796875 0-.82031275-.164062-1.11718775-.460937s-.464844-.699219-.464844-1.121094c0-.417969.167969-.820312.464844-1.117187s.699219-.460938 1.11718775-.460938zm0 0" fill="#cda3ff" stroke="#cda3ff" stroke-miterlimit="10" stroke-width="1.00002" transform="matrix(1 0 0 -1 199.52747 151.655)"/><path d="m-.00024-1.580306c.417969 0 .820312.164062 1.117187.460937s.464844.699219.464844 1.121094c0 .417969-.167969.820313-.464844 1.117188s-.699218.460937-1.117187.460937-.820313-.164062-1.117188-.460937-.464843-.699219-.464843-1.117188c0-.421875.167968-.824219.464843-1.121094s.699219-.460937 1.117188-.460937zm0 0" fill="#cda3ff" stroke="#cda3ff" stroke-miterlimit="10" stroke-width="1.00002" transform="matrix(1 0 0 -1 199.62524 116.14235)"/><path d="m-.00158625-1.580844c.42187525 0 .82421825.164063 1.12109325.460938s.460938.699219.460938 1.1210935c0 .4179685-.164063.8203125-.460938 1.1171875s-.699218.460938-1.12109325.460938c-.41796875 0-.82031275-.164063-1.11718775-.460938s-.460937-.699219-.460937-1.1171875c0-.4218745.164062-.8242185.460937-1.1210935s.699219-.460938 1.11718775-.460938zm0 0" fill="#cda3ff" stroke="#cda3ff" stroke-miterlimit="10" stroke-width="1.00002" transform="matrix(1 0 0 -1 200.27893 141.22775)"/><path d="m.00108625-1.580408c.41796875 0 .82031275.164063 1.11718775.460938s.460937.699219.460937 1.12109375c0 .41796825-.164062.82031225-.460937 1.11718725s-.699219.460938-1.11718775.460938c-.42187525 0-.82421925-.164063-1.12109425-.460938s-.460937-.699219-.460937-1.11718725c0-.42187475.164062-.82421875.460937-1.12109375s.699219-.460938 1.12109425-.460938zm0 0" fill="#cda3ff" stroke="#cda3ff" stroke-miterlimit="10" stroke-width="1.00002" transform="matrix(1 0 0 -1 200.94032 109.00553)"/><path d="m.00033875-1.581963c.41796825 0 .82031225.167969 1.11718725.464844s.464844.699219.464844 1.11718775c0 .41796825-.167969.82031225-.464844 1.11718725s-.699219.464844-1.11718725.464844c-.42187475 0-.82031275-.167969-1.11718775-.464844s-.464844-.699219-.464844-1.11718725c0-.41796875.167969-.82031275.464844-1.11718775s.695313-.464844 1.11718775-.464844zm0 0" fill="#cda3ff" stroke="#cda3ff" stroke-miterlimit="10" stroke-width="1.00002" transform="matrix(1 0 0 -1 203.35513 120.6446)"/><path d="m.000125-1.582796c.417969 0 .820313.167968 1.117188.464843s.464843.699219.464843 1.117188c0 .421875-.167968.824219-.464843 1.121094-.296875.292968-.699219.460937-1.117188.460937s-.820312-.167969-1.117187-.460937c-.296875-.296875-.464844-.699219-.464844-1.121094 0-.417969.167969-.820313.464844-1.117188s.699218-.464843 1.117187-.464843zm0 0" fill="#cda3ff" stroke="#cda3ff" stroke-miterlimit="10" stroke-width="1.00002" transform="matrix(1 0 0 -1 210.203 141.98361)"/><path d="m.00169375-1.580869c.41796925 0 .82031225.164063 1.11718725.460938s.460938.699219.460938 1.1210935c0 .4179685-.164063.8203125-.460938 1.1171875s-.699218.460938-1.11718725.460938c-.42187475 0-.82421875-.164063-1.12109375-.460938s-.460937-.699219-.460937-1.1171875c0-.4218745.164062-.8242185.460937-1.1210935s.699219-.460938 1.12109375-.460938zm0 0" fill="#cda3ff" stroke="#cda3ff" stroke-miterlimit="10" stroke-width="1.00002" transform="matrix(1 0 0 -1 210.90065 129.61835)"/><path d="m.00027375-1.58241c.41796825 0 .82031225.167969 1.11718725.464844s.464844.699219.464844 1.11718725c0 .42187475-.167969.82031275-.464844 1.11718775s-.699219.464844-1.11718725.464844c-.42187475 0-.82031275-.167969-1.11718775-.464844s-.464844-.695313-.464844-1.11718775c0-.41796825.167969-.82031225.464844-1.11718725s.695313-.464844 1.11718775-.464844zm0 0" fill="#cda3ff" stroke="#cda3ff" stroke-miterlimit="10" stroke-width="1.00002" transform="matrix(1 0 0 -1 225.30832 124.82384)"/><path d="m-.00018625-1.579754c.41796825 0 .82031225.164063 1.11718725.460938s.464844.699219.464844 1.11718725c0 .42187475-.167969.82421875-.464844 1.12109375s-.699219.460938-1.11718725.460938c-.41796875 0-.82031275-.164063-1.11718775-.460938s-.464844-.699219-.464844-1.12109375c0-.41796825.167969-.82031225.464844-1.11718725s.699219-.460938 1.11718775-.460938zm0 0" fill="#cda3ff" stroke="#cda3ff" stroke-miterlimit="10" stroke-width="1.00002" transform="matrix(1 0 0 -1 233.37128 130.60384)"/><path d="m.00071625-1.581922c.41796875 0 .82031275.167968 1.11718775.464843s.464844.699219.464844 1.11718775c0 .41796925-.167969.82031225-.464844 1.11718725s-.699219.464844-1.11718775.464844c-.42187525 0-.82421825-.167969-1.11718725-.464844-.296875-.296875-.464844-.699218-.464844-1.11718725 0-.41796875.167969-.82031275.464844-1.11718775.292969-.296875.695312-.464843 1.11718725-.464843zm0 0" fill="#cda3ff" stroke="#cda3ff" stroke-miterlimit="10" stroke-width="1.00002" transform="matrix(1 0 0 -1 239.69069 105.01964)"/><path d="m.00118875-1.579408c.41796925 0 .82031225.164063 1.11718725.460938s.460938.699219.460938 1.1171875c0 .4218745-.164063.8242185-.460938 1.1210935s-.699218.460938-1.11718725.460938c-.42187475 0-.82421875-.164063-1.12109375-.460938s-.460937-.699219-.460937-1.1210935c0-.4179685.164062-.8203125.460937-1.1171875s.699219-.460938 1.12109375-.460938zm0 0" fill="#cda3ff" stroke="#cda3ff" stroke-miterlimit="10" stroke-width="1.00002" transform="matrix(1 0 0 -1 240.63553 120.69403)"/><path d="m-.00065875-1.582545c.42187475 0 .82421875.167969 1.11718775.464844.296875.296875.464844.699218.464844 1.11718725 0 .42187475-.167969.82421875-.464844 1.11718775-.292969.296875-.695313.464843-1.11718775.464843-.41796825 0-.82031225-.167968-1.11718725-.464843-.296875-.292969-.464844-.695313-.464844-1.11718775 0-.41796925.167969-.82031225.464844-1.11718725s.699219-.464844 1.11718725-.464844zm0 0" fill="#cda3ff" stroke="#cda3ff" stroke-miterlimit="10" stroke-width="1.00002" transform="matrix(1 0 0 -1 241.64519 85.49558)"/><path d="m.00120125-1.581691c.41796875 0 .82031275.167968 1.11718775.464843s.460937.695313.460937 1.117188c0 .417969-.164062.820312-.460937 1.117187s-.699219.464844-1.11718775.464844c-.42187525 0-.82421925-.167969-1.12109425-.464844s-.460937-.699218-.460937-1.117187c0-.421875.164062-.820313.460937-1.117188s.699219-.464843 1.12109425-.464843zm0 0" fill="#cda3ff" stroke="#cda3ff" stroke-miterlimit="10" stroke-width="1.00002" transform="matrix(1 0 0 -1 248.51833 94.90659)"/><path d="m.001385-1.582819c.417969 0 .820312.167969 1.117187.464844s.460938.699219.460938 1.1171875c0 .4218745-.164063.8242185-.460938 1.1210935-.296875.292969-.699218.460938-1.117187.460938-.421875 0-.824219-.167969-1.121094-.460938-.296875-.296875-.460937-.699219-.460937-1.1210935 0-.4179685.164062-.8203125.460937-1.1171875s.699219-.464844 1.121094-.464844zm0 0" fill="#cda3ff" stroke="#cda3ff" stroke-miterlimit="10" stroke-width="1.00002" transform="matrix(1 0 0 -1 253.70174 121.08515)"/><path d="m-.0017975-1.581281c.4218745 0 .8242185.167968 1.1210935.460937.296875.296875.460938.699219.460938 1.121094 0 .417969-.164063.820312-.460938 1.117187s-.699219.464844-1.1210935.464844c-.4179685 0-.8203125-.167969-1.1171875-.464844s-.460938-.699218-.460938-1.117187c0-.421875.164063-.824219.460938-1.121094.296875-.292969.699219-.460937 1.1171875-.460937zm0 0" fill="#cda3ff" stroke="#cda3ff" stroke-miterlimit="10" stroke-width="1.00002" transform="matrix(1 0 0 -1 253.85336 106.8445)"/><path d="m-.001815-1.580275c.421875 0 .824219.164063 1.121094.460938s.460937.699218.460937 1.12109325c0 .41796875-.164062.82031275-.460937 1.11718775s-.699219.460937-1.121094.460937c-.417969 0-.820313-.164062-1.117188-.460937s-.460937-.699219-.460937-1.11718775c0-.42187525.164062-.82421825.460937-1.12109325s.699219-.460938 1.117188-.460938zm0 0" fill="#cda3ff" stroke="#cda3ff" stroke-miterlimit="10" stroke-width="1.00002" transform="matrix(1 0 0 -1 255.32994 109.56035)"/><path d="m.00169-1.579878c.417969 0 .820312.164063 1.117187.460938s.460938.699219.460938 1.1171875c0 .4218745-.164063.8242185-.460938 1.1210935s-.699218.460938-1.117187.460938c-.421875 0-.824219-.164063-1.121094-.460938s-.460937-.699219-.460937-1.1210935c0-.4179685.164062-.8203125.460937-1.1171875s.699219-.460938 1.121094-.460938zm0 0" fill="#cda3ff" stroke="#cda3ff" stroke-miterlimit="10" stroke-width="1.00002" transform="matrix(1 0 0 -1 258.15456 130.22481)"/><path d="m.00057875-1.580549c.41796825 0 .82031225.164063 1.11718725.460938s.464844.699219.464844 1.1210935c0 .4179685-.167969.8203125-.464844 1.1171875s-.699219.460938-1.11718725.460938c-.42187475 0-.82421875-.164063-1.11718775-.460938-.296875-.296875-.464844-.699219-.464844-1.1171875 0-.4218745.167969-.8242185.464844-1.1210935.292969-.296875.695313-.460938 1.11718775-.460938zm0 0" fill="#cda3ff" stroke="#cda3ff" stroke-miterlimit="10" stroke-width="1.00002" transform="matrix(1 0 0 -1 259.10489 88.71242)"/><path d="m-.00186125-1.582316c.42187525 0 .82421925.167969 1.12109425.464844s.460937.699218.460937 1.117187c0 .421875-.164062.820313-.460937 1.117188s-.699219.464843-1.12109425.464843c-.41796875 0-.82031275-.167968-1.11718775-.464843s-.460937-.695313-.460937-1.117188c0-.417969.164062-.820312.460937-1.117187s.699219-.464844 1.11718775-.464844zm0 0" fill="#cda3ff" stroke="#cda3ff" stroke-miterlimit="10" stroke-width="1.00002" transform="matrix(1 0 0 -1 268.73233 83.82784)"/><path d="m.00190375-1.580134c.41796825 0 .82031225.164063 1.11718725.460938s.460938.699218.460938 1.1210935c0 .4179685-.164063.8203125-.460938 1.1171875s-.699219.460937-1.11718725.460937c-.42187475 0-.82421875-.164062-1.12109375-.460937s-.460938-.699219-.460938-1.1171875c0-.4218755.164063-.8242185.460938-1.1210935s.699219-.460938 1.12109375-.460938zm0 0" fill="#cda3ff" stroke="#cda3ff" stroke-miterlimit="10" stroke-width="1.00002" transform="matrix(1 0 0 -1 270.30669 83.47846)"/><path d="m-.00176875-1.579103c.42187475 0 .82421875.164063 1.12109375.460938s.460938.699219.460938 1.1171875c0 .4218745-.164063.8242185-.460938 1.1210935s-.699219.460938-1.12109375.460938c-.41796825 0-.82031225-.164063-1.11718725-.460938s-.460938-.699219-.460938-1.1210935c0-.4179685.164063-.8203125.460938-1.1171875s.699219-.460938 1.11718725-.460938zm0 0" fill="#cda3ff" stroke="#cda3ff" stroke-miterlimit="10" stroke-width="1.00002" transform="matrix(1 0 0 -1 270.99005 105.89746)"/><path d="m-.0007325-1.582201c.4218745 0 .8242185.167969 1.1210935.464844.292969.296875.460938.699218.460938 1.117187s-.167969.820313-.460938 1.117188c-.296875.296875-.699219.464843-1.1210935.464843-.4179685 0-.8203125-.167968-1.1171875-.464843s-.464844-.699219-.464844-1.117188.167969-.820312.464844-1.117187.699219-.464844 1.1171875-.464844zm0 0" fill="#cda3ff" stroke="#cda3ff" stroke-miterlimit="10" stroke-width="1.00002" transform="matrix(1 0 0 -1 284.74292 74.24983)"/><path d="m-.00158875-1.579004c.42187475 0 .82421875.164063 1.12109375.460938s.460937.699218.460937 1.11718725c0 .42187475-.164062.82421875-.460937 1.12109375-.296875.292969-.699219.460937-1.12109375.460937-.41796925 0-.82031225-.167968-1.11718725-.460937-.296875-.296875-.460938-.699219-.460938-1.12109375 0-.41796925.164063-.82031225.460938-1.11718725s.699218-.460938 1.11718725-.460938zm0 0" fill="#cda3ff" stroke="#cda3ff" stroke-miterlimit="10" stroke-width="1.00002" transform="matrix(1 0 0 -1 284.86487 95.22959)"/><path d="m-.000155-1.57927c.417969 0 .820312.164062 1.117187.460937s.464844.699219.464844 1.117188c0 .421875-.167969.824219-.464844 1.121094s-.699218.460937-1.117187.460937-.820313-.164062-1.117188-.460937-.464843-.699219-.464843-1.121094c0-.417969.167968-.820313.464843-1.117188s.699219-.460937 1.117188-.460937zm0 0" fill="#cda3ff" stroke="#cda3ff" stroke-miterlimit="10" stroke-width="1.00002" transform="matrix(1 0 0 -1 287.17203 75.29573)"/><path d="m.00054625-1.581286c.41796875 0 .82031275.167968 1.11718775.460937.296875.296875.464843.699219.464843 1.121094 0 .417969-.167968.820312-.464843 1.117187s-.699219.464844-1.11718775.464844c-.42187525 0-.82421925-.167969-1.11718725-.464844-.296875-.296875-.464844-.699218-.464844-1.117187 0-.421875.167969-.824219.464844-1.121094.292968-.292969.695312-.460937 1.11718725-.460937zm0 0" fill="#cda3ff" stroke="#cda3ff" stroke-miterlimit="10" stroke-width="1.00002" transform="matrix(1 0 0 -1 290.06586 59.48512)"/><path d="m-.0007025-1.58192c.4218755 0 .8242185.167969 1.1171875.464844.296875.296875.464844.699219.464844 1.11718725 0 .41796875-.167969.82031275-.464844 1.11718775-.292969.296875-.695312.464844-1.1171875.464844-.4179685 0-.8203125-.167969-1.1171875-.464844s-.464844-.699219-.464844-1.11718775c0-.41796825.167969-.82031225.464844-1.11718725s.699219-.464844 1.1171875-.464844zm0 0" fill="#cda3ff" stroke="#cda3ff" stroke-miterlimit="10" stroke-width="1.00002" transform="matrix(1 0 0 -1 292.27414 85.94933)"/><path d="m.00185-1.581966c.417969 0 .820313.167968 1.117188.464843s.460937.699219.460937 1.117188-.164062.820312-.460937 1.117187-.699219.464844-1.117188.464844c-.421875 0-.824219-.167969-1.121094-.464844s-.460937-.699218-.460937-1.117187.164062-.820313.460937-1.117188.699219-.464843 1.121094-.464843zm0 0" fill="#cda3ff" stroke="#cda3ff" stroke-miterlimit="10" stroke-width="1.00002" transform="matrix(1 0 0 -1 292.7169 111.39069)"/><path d="m-.00158125-1.581115c.42187525 0 .82421825.167969 1.12109325.460937.296875.296875.460938.699219.460938 1.12109425 0 .41796875-.164063.82031275-.460938 1.11718775s-.699218.460937-1.12109325.460937c-.41796875 0-.82031275-.164062-1.11718775-.460937s-.460937-.699219-.460937-1.11718775c0-.42187525.164062-.82421925.460937-1.12109425.296875-.292968.699219-.460937 1.11718775-.460937zm0 0" fill="#cda3ff" stroke="#cda3ff" stroke-miterlimit="10" stroke-width="1.00002" transform="matrix(1 0 0 -1 294.5758 92.37201)"/><path d="m-.00024125-1.581674c.41796925 0 .82031225.167969 1.11718725.464844s.464844.695313.464844 1.1171875c0 .4179685-.167969.8203125-.464844 1.1171875s-.699218.464844-1.11718725.464844c-.41796875 0-.82031275-.167969-1.11718775-.464844s-.464843-.699219-.464843-1.1171875c0-.4218745.167968-.8203125.464843-1.1171875s.699219-.464844 1.11718775-.464844zm0 0" fill="#cda3ff" stroke="#cda3ff" stroke-miterlimit="10" stroke-width="1.00002" transform="matrix(1 0 0 -1 294.73071 76.53942)"/><path d="m-.00000125-1.579236c.41796825 0 .82031225.164062 1.11718725.460937s.464844.699219.464844 1.11718775c0 .42187525-.167969.82421825-.464844 1.12109325s-.699219.460938-1.11718725.460938c-.41796875 0-.82031275-.164063-1.11718775-.460938s-.464844-.699218-.464844-1.12109325c0-.41796875.167969-.82031275.464844-1.11718775s.699219-.460937 1.11718775-.460937zm0 0" fill="#cda3ff" stroke="#cda3ff" stroke-miterlimit="10" stroke-width="1.00002" transform="matrix(1 0 0 -1 295.44922 66.67467)"/><path d="m-.00075875-1.582306c.42187475 0 .82421875.167969 1.12109375.464844.292969.296875.460938.699218.460938 1.117187 0 .421875-.167969.820313-.460938 1.117188-.296875.296875-.699219.464843-1.12109375.464843-.41796825 0-.82031225-.167968-1.11718725-.464843s-.464844-.695313-.464844-1.117188c0-.417969.167969-.820312.464844-1.117187s.699219-.464844 1.11718725-.464844zm0 0" fill="#cda3ff" stroke="#cda3ff" stroke-miterlimit="10" stroke-width="1.00002" transform="matrix(1 0 0 -1 297.30154 104.51535)"/><path d="m-.0001175-1.582162c.4179685 0 .8203125.167968 1.1171875.464843s.464844.699219.464844 1.11718775c0 .41796925-.167969.82031225-.464844 1.11718725s-.699219.464844-1.1171875.464844-.8203125-.167969-1.1171875-.464844-.464844-.699218-.464844-1.11718725c0-.41796875.167969-.82031275.464844-1.11718775s.699219-.464843 1.1171875-.464843zm0 0" fill="#cda3ff" stroke="#cda3ff" stroke-miterlimit="10" stroke-width="1.00002" transform="matrix(1 0 0 -1 304.41418 85.61315)"/><path d="m-.00027-1.582883c.421875 0 .820312.167969 1.117187.464844s.464844.699219.464844 1.11718775c0 .42187525-.167969.82421825-.464844 1.12109325-.296875.292969-.695312.460938-1.117187.460938-.417969 0-.820313-.167969-1.117188-.460938-.296875-.296875-.464843-.699218-.464843-1.12109325 0-.41796875.167968-.82031275.464843-1.11718775s.699219-.464844 1.117188-.464844zm0 0" fill="#cda3ff" stroke="#cda3ff" stroke-miterlimit="10" stroke-width="1.00002" transform="matrix(1 0 0 -1 306.37527 77.70618)"/><path d="m.00133875-1.582369c.41796925 0 .82031225.167969 1.11718725.464844s.460938.699219.460938 1.1171875c0 .4218745-.164063.8203125-.460938 1.1171875s-.699218.464844-1.11718725.464844c-.42187475 0-.82421875-.167969-1.12109375-.464844s-.460937-.695313-.460937-1.1171875c0-.4179685.164062-.8203125.460937-1.1171875s.699219-.464844 1.12109375-.464844zm0 0" fill="#cda3ff" stroke="#cda3ff" stroke-miterlimit="10" stroke-width="1.00002" transform="matrix(1 0 0 -1 314.04163 70.74185)"/><path d="m.0004725-1.581491c.4179685 0 .8203125.167969 1.1171875.464844.296875.292968.464844.695312.464844 1.117187 0 .417969-.167969.820313-.464844 1.117188s-.699219.464843-1.1171875.464843c-.4218745 0-.8203125-.167968-1.1171875-.464843s-.464844-.699219-.464844-1.117188c0-.421875.167969-.824219.464844-1.117187.296875-.296875.695313-.464844 1.1171875-.464844zm0 0" fill="#cda3ff" stroke="#cda3ff" stroke-miterlimit="10" stroke-width="1.00002" transform="matrix(1 0 0 -1 314.72609 62.59429)"/><path d="m.00023125-1.582077c.41796875 0 .82031275.167968 1.11718775.464843s.464844.699219.464844 1.11718775c0 .41796925-.167969.82031225-.464844 1.11718725s-.699219.464844-1.11718775.464844c-.41796825 0-.82031225-.167969-1.11718725-.464844s-.464844-.699218-.464844-1.11718725c0-.41796875.167969-.82031275.464844-1.11718775s.699219-.464843 1.11718725-.464843zm0 0" fill="#cda3ff" stroke="#cda3ff" stroke-miterlimit="10" stroke-width="1.00002" transform="matrix(1 0 0 -1 314.9568 93.06636)"/><path d="m-.00185-1.580351c.421875 0 .824219.164062 1.121094.460937s.460937.699219.460937 1.121094c0 .417969-.164062.820312-.460937 1.117187s-.699219.460938-1.121094.460938c-.417969 0-.820312-.164063-1.117187-.460938s-.460938-.699218-.460938-1.117187c0-.421875.164063-.824219.460938-1.121094s.699218-.460937 1.117187-.460937zm0 0" fill="#cda3ff" stroke="#cda3ff" stroke-miterlimit="10" stroke-width="1.00002" transform="matrix(1 0 0 -1 315.00185 84.40793)"/><path d="m-.0014075-1.581722c.4218745 0 .8242185.167968 1.1210935.464843s.460938.695313.460938 1.11718775c0 .41796925-.164063.82031225-.460938 1.11718725s-.699219.464844-1.1210935.464844c-.4179685 0-.8203125-.167969-1.1171875-.464844s-.460938-.699218-.460938-1.11718725c0-.42187475.164063-.82031275.460938-1.11718775s.699219-.464843 1.1171875-.464843zm0 0" fill="#cda3ff" stroke="#cda3ff" stroke-miterlimit="10" stroke-width="1.00002" transform="matrix(1 0 0 -1 328.25922 54.55109)"/><path d="m-.00158375-1.58186c.42187475 0 .82421875.167969 1.12109375.464844s.460937.699219.460937 1.11718725c0 .41796875-.164062.82031275-.460937 1.11718775s-.699219.464844-1.12109375.464844c-.41796925 0-.82031225-.167969-1.11718725-.464844s-.460938-.699219-.460938-1.11718775c0-.41796825.164063-.82031225.460938-1.11718725s.699218-.464844 1.11718725-.464844zm0 0" fill="#cda3ff" stroke="#cda3ff" stroke-miterlimit="10" stroke-width="1.00002" transform="matrix(1 0 0 -1 332.22424 62.79314)"/><path d="m.0008275-1.581145c.4179685 0 .8203125.167969 1.1171875.460937.296875.296875.464844.699219.464844 1.12109425 0 .41796875-.167969.82031275-.464844 1.11718775s-.699219.460937-1.1171875.460937c-.4218745 0-.8242185-.164062-1.1210935-.460937-.292969-.296875-.460938-.699219-.460938-1.11718775 0-.42187525.167969-.82421925.460938-1.12109425.296875-.292968.699219-.460937 1.1210935-.460937zm0 0" fill="#cda3ff" stroke="#cda3ff" stroke-miterlimit="10" stroke-width="1.00002" transform="matrix(1 0 0 -1 334.52261 60.77823)"/><path d="m.00010625-1.581218c.41796875 0 .82031275.167969 1.11718775.460938.296875.296875.464844.699219.464844 1.12109375 0 .41796825-.167969.82031225-.464844 1.11718725s-.699219.464844-1.11718775.464844c-.41796825 0-.82031225-.167969-1.11718725-.464844s-.464844-.699219-.464844-1.11718725c0-.42187475.167969-.82421875.464844-1.12109375.296875-.292969.699219-.460938 1.11718725-.460938zm0 0" fill="#cda3ff" stroke="#cda3ff" stroke-miterlimit="10" stroke-width="1.00002" transform="matrix(1 0 0 -1 343.9413 45.16097)"/><path d="m-.0002175-1.580245c.4179685 0 .8203125.164063 1.1171875.460938s.464844.699218.464844 1.12109325c0 .41796875-.167969.82031275-.464844 1.11718775s-.699219.460937-1.1171875.460937-.8203125-.164062-1.1171875-.460937-.464844-.699219-.464844-1.11718775c0-.42187525.167969-.82421825.464844-1.12109325s.699219-.460938 1.1171875-.460938zm0 0" fill="#cda3ff" stroke="#cda3ff" stroke-miterlimit="10" stroke-width="1.00002" transform="matrix(1 0 0 -1 358.38303 55.09163)"/><path d="m-.00021125-1.582293c.41796825 0 .82031225.167969 1.11718725.464844s.464844.699219.464844 1.11718775c0 .42187525-.167969.82031225-.464844 1.11718725s-.699219.464844-1.11718725.464844c-.41796875 0-.82031275-.167969-1.11718775-.464844s-.464844-.695312-.464844-1.11718725c0-.41796875.167969-.82031275.464844-1.11718775s.699219-.464844 1.11718775-.464844zm0 0" fill="#cda3ff" stroke="#cda3ff" stroke-miterlimit="10" stroke-width="1.00002" transform="matrix(1 0 0 -1 358.98068 47.83177)"/><path d="m-.00120875-1.579421c.42187475 0 .82421875.164062 1.12109375.460937s.460938.699219.460938 1.11718775c0 .42187525-.164063.82421925-.460938 1.12109425s-.699219.460937-1.12109375.460937c-.41796825 0-.82031225-.164062-1.11718725-.460937s-.460938-.699219-.460938-1.12109425c0-.41796875.164063-.82031275.460938-1.11718775s.699219-.460937 1.11718725-.460937zm0 0" fill="#cda3ff" stroke="#cda3ff" stroke-miterlimit="10" stroke-width="1.00002" transform="matrix(1 0 0 -1 358.98949 61.69011)"/><path d="m-.0013325-1.58203c.4218755 0 .8242185.167969 1.1210935.464844s.460938.699218.460938 1.11718725c0 .41796875-.164063.82031275-.460938 1.11718775s-.699218.464843-1.1210935.464843c-.4179685 0-.8203125-.167968-1.1171875-.464843s-.460937-.699219-.460937-1.11718775c0-.41796925.164062-.82031225.460937-1.11718725s.699219-.464844 1.1171875-.464844zm0 0" fill="#cda3ff" stroke="#cda3ff" stroke-miterlimit="10" stroke-width="1.00002" transform="matrix(1 0 0 -1 360.77477 77.79297)"/><path d="m.00093375-1.579743c.41796825 0 .82031225.164063 1.11718725.460938s.460938.699219.460938 1.1171875c0 .4218745-.164063.8242185-.460938 1.1210935s-.699219.460938-1.11718725.460938c-.42187475 0-.82421875-.164063-1.12109375-.460938-.292969-.296875-.460938-.699219-.460938-1.1210935 0-.4179685.167969-.8203125.460938-1.1171875.296875-.296875.699219-.460938 1.12109375-.460938zm0 0" fill="#cda3ff" stroke="#cda3ff" stroke-miterlimit="10" stroke-width="1.00002" transform="matrix(1 0 0 -1 364.68266 75.11557)"/><path d="m-.00043-1.580645c.421875 0 .820313.164062 1.117188.460937s.464843.699219.464843 1.12109425c0 .41796875-.167968.82031275-.464843 1.11718775s-.695313.460937-1.117188.460937c-.417969 0-.820312-.164062-1.117187-.460937s-.464844-.699219-.464844-1.11718775c0-.42187525.167969-.82421925.464844-1.12109425s.699218-.460937 1.117187-.460937zm0 0" fill="#cda3ff" stroke="#cda3ff" stroke-miterlimit="10" stroke-width="1.00002" transform="matrix(1 0 0 -1 365.12543 52.37248)"/><path d="m.00162-1.580122c.417969 0 .820313.164062 1.117188.460937s.460937.699219.460937 1.12109375c0 .41796925-.164062.82031225-.460937 1.11718725s-.699219.460938-1.117188.460938c-.421875 0-.824219-.164063-1.121094-.460938s-.460937-.699218-.460937-1.11718725c0-.42187475.164062-.82421875.460937-1.12109375s.699219-.460937 1.121094-.460937zm0 0" fill="#cda3ff" stroke="#cda3ff" stroke-miterlimit="10" stroke-width="1.00002" transform="matrix(1 0 0 -1 367.71713 55.64644)"/><path d="m.0017525-1.582718c.4179685 0 .8203125.167969 1.1171875.464844s.460938.699219.460938 1.11718775c0 .42187525-.164063.82421825-.460938 1.11718725-.296875.296875-.699219.464844-1.1171875.464844-.4218745 0-.8242185-.167969-1.1210935-.464844-.296875-.292969-.460938-.695312-.460938-1.11718725 0-.41796875.164063-.82031275.460938-1.11718775s.699219-.464844 1.1210935-.464844zm0 0" fill="#cda3ff" stroke="#cda3ff" stroke-miterlimit="10" stroke-width="1.00002" transform="matrix(1 0 0 -1 367.72481 63.12822)"/><path d="m-.00156875-1.582689c.42187475 0 .82421875.167969 1.12109375.464844s.460938.699219.460938 1.1171875c0 .4218745-.164063.8242185-.460938 1.1171875-.296875.296875-.699219.464844-1.12109375.464844-.41796825 0-.82031225-.167969-1.11718725-.464844-.296875-.292969-.460938-.695313-.460938-1.1171875 0-.4179685.164063-.8203125.460938-1.1171875s.699219-.464844 1.11718725-.464844zm0 0" fill="#cda3ff" stroke="#cda3ff" stroke-miterlimit="10" stroke-width="1.00002" transform="matrix(1 0 0 -1 369.5211 46.27278)"/><path d="m.00114-1.581864c.417969 0 .820313.167969 1.117188.464844s.460937.699219.460937 1.1171875-.164062.8203125-.460937 1.1171875-.699219.464844-1.117188.464844c-.421875 0-.824219-.167969-1.121094-.464844s-.460937-.699219-.460937-1.1171875.164062-.8203125.460937-1.1171875.699219-.464844 1.121094-.464844zm0 0" fill="#cda3ff" stroke="#cda3ff" stroke-miterlimit="10" stroke-width="1.00002" transform="matrix(1 0 0 -1 376.06136 63.03923)"/><path d="m-.00113-1.581741c.421875 0 .824219.167969 1.121094.464844s.460937.695312.460937 1.117187c0 .417969-.164062.820313-.460937 1.117188s-.699219.464843-1.121094.464843c-.417969 0-.820313-.167968-1.117188-.464843s-.460937-.699219-.460937-1.117188c0-.421875.164062-.820312.460937-1.117187s.699219-.464844 1.117188-.464844zm0 0" fill="#cda3ff" stroke="#cda3ff" stroke-miterlimit="10" stroke-width="1.00002" transform="matrix(1 0 0 -1 381.96988 43.75029)"/><path d="m.0011725-1.581357c.4179685 0 .8203125.167968 1.1171875.464843.296875.292969.460937.695313.460937 1.11718775 0 .41796925-.164062.82031225-.460937 1.11718725s-.699219.464844-1.1171875.464844c-.4218755 0-.8242185-.167969-1.1210935-.464844s-.460938-.699218-.460938-1.11718725c0-.42187475.164063-.82421875.460938-1.11718775.296875-.296875.699218-.464843 1.1210935-.464843zm0 0" fill="#cda3ff" stroke="#cda3ff" stroke-miterlimit="10" stroke-width="1.00002" transform="matrix(1 0 0 -1 383.66289 45.09833)"/><path d="m-.00129375-1.582655c.42187475 0 .82421875.167969 1.12109375.464844s.460937.699218.460937 1.11718725c0 .42187475-.164062.82421875-.460937 1.11718775-.296875.296875-.699219.464843-1.12109375.464843-.41796925 0-.82031225-.167968-1.11718725-.464843-.296875-.292969-.460938-.695313-.460938-1.11718775 0-.41796925.164063-.82031225.460938-1.11718725s.699218-.464844 1.11718725-.464844zm0 0" fill="#cda3ff" stroke="#cda3ff" stroke-miterlimit="10" stroke-width="1.00002" transform="matrix(1 0 0 -1 386.5677 57.21422)"/><path d="m-.00171-1.580065c.421875 0 .824219.164062 1.121094.460937s.460937.699219.460937 1.117188c0 .421875-.164062.824219-.460937 1.121094s-.699219.460937-1.121094.460937c-.417969 0-.820313-.164062-1.117188-.460937s-.460937-.699219-.460937-1.121094c0-.417969.164062-.820313.460937-1.117188s.699219-.460937 1.117188-.460937zm0 0" fill="#cda3ff" stroke="#cda3ff" stroke-miterlimit="10" stroke-width="1.00002" transform="matrix(1 0 0 -1 388.97046 80.06056)"/><path d="m-.00134625-1.581954c.42187525 0 .82421825.167969 1.12109325.464844s.460938.699219.460938 1.1171875-.164063.8203125-.460938 1.1171875-.699218.464844-1.12109325.464844c-.41796875 0-.82031275-.167969-1.11718775-.464844s-.460937-.699219-.460937-1.1171875.164062-.8203125.460937-1.1171875.699219-.464844 1.11718775-.464844zm0 0" fill="#cda3ff" stroke="#cda3ff" stroke-miterlimit="10" stroke-width="1.00002" transform="matrix(1 0 0 -1 390.15369 17.72664)"/><path d="m.00001375-1.581755c.41796925 0 .82031225.167969 1.11718725.464844s.464844.695312.464844 1.11718725c0 .41796875-.167969.82031275-.464844 1.11718775s-.699218.464844-1.11718725.464844c-.41796875 0-.82031275-.167969-1.11718775-.464844s-.464843-.699219-.464843-1.11718775c0-.42187525.167968-.82031225.464843-1.11718725s.699219-.464844 1.11718775-.464844zm0 0" fill="#cda3ff" stroke="#cda3ff" stroke-miterlimit="10" stroke-width="1.00002" transform="matrix(1 0 0 -1 397.27733 33.09012)"/><path d="m55.453125 79.856844 344.75 163.828125" fill="none" stroke="#f55" stroke-linecap="square" stroke-miterlimit="10" stroke-width="1.50002" transform="matrix(1 0 0 -1 0 280.267)"/></g></svg>