<svg height="280.267" viewBox="0 0 424.615 280.267" width="424.615" xmlns="http://www.w3.org/2000/svg" xmlns:xlink="http://www.w3.org/1999/xlink"><defs><g id="a"><path d="m3.0625.09375c1.515625 0 2.421875-1.375 2.421875-3.71875s-.90625-3.71875-2.421875-3.71875-2.421875 1.375-2.421875 3.71875.890625 3.71875 2.421875 3.71875zm0-.59375c-1.125 0-1.78125-1.140625-1.78125-3.125s.671875-3.140625 1.78125-3.140625 1.78125 1.15625 1.78125 3.140625-.671875 3.125-1.78125 3.125zm0 0"/></g><g id="b"><path d="m1.328125.046875c.296875 0 .515625-.21875.515625-.5s-.21875-.515625-.515625-.515625c-.265625 0-.5.234375-.5.515625s.234375.5.5.5zm0 0"/></g><g id="c"><path d="m.8125 0h4.5v-.59375h-3.578125v-.046875l1.796875-2c1.203125-1.34375 1.5625-1.9375 1.5625-2.75 0-1.09375-.875-1.953125-2.09375-1.953125s-2.125.859375-2.125 2.0625h.625c0-.859375.59375-1.484375 1.484375-1.484375.84375 0 1.484375.546875 1.484375 1.375 0 .6875-.375 1.203125-1.296875 2.25l-2.359375 2.65625zm0 0"/></g><g id="d"><path d="m3.046875-7.25h-.6875l-1.71875 1.140625v.6875l1.703125-1.140625h.03125v6.5625h.671875zm0 0"/></g><g id="e"><path d="m2.921875.09375c1.34375 0 2.3125-1.015625 2.3125-2.390625.015625-1.390625-.984375-2.390625-2.25-2.390625-.53125 0-1 .1875-1.328125.453125h-.03125l.296875-2.421875h3.015625v-.59375h-3.578125l-.4375 3.515625.671875.09375c.296875-.265625.796875-.4375 1.296875-.4375.953125 0 1.703125.734375 1.703125 1.796875 0 1.03125-.6875 1.78125-1.671875 1.78125-.828125 0-1.453125-.546875-1.484375-1.3125h-.640625c.03125 1.109375.921875 1.90625 2.125 1.90625zm0 0"/></g><g id="f"><path d="m3.15625.09375c1.359375 0 2.359375-.875 2.359375-2.03125 0-.921875-.5625-1.59375-1.5-1.78125v-.046875c.765625-.234375 1.25-.84375 1.25-1.671875 0-1.03125-.8125-1.90625-2.09375-1.90625-1.203125 0-2.1875.765625-2.203125 1.90625h.640625c.015625-.8125.71875-1.328125 1.5625-1.328125.875 0 1.453125.5625 1.453125 1.359375 0 .84375-.6875 1.390625-1.625 1.390625h-.421875v.59375h.421875c1.15625 0 1.859375.59375 1.859375 1.484375 0 .828125-.703125 1.4375-1.703125 1.4375-.921875 0-1.640625-.515625-1.6875-1.3125h-.671875c.046875 1.125 1.015625 1.90625 2.359375 1.90625zm0 0"/></g><g id="g"><path d="m3.90625.15625c1.375 0 2.03125-.875 2.34375-1.5625h.09375v1.40625h.859375v-10.140625h-.875v3.984375h-.078125c-.3125-.6875-.9375-1.5625-2.328125-1.5625-1.875 0-3.15625 1.59375-3.15625 3.9375 0 2.359375 1.265625 3.9375 3.140625 3.9375zm.109375-.8125c-1.515625 0-2.359375-1.375-2.359375-3.140625 0-1.75.828125-3.109375 2.359375-3.109375 1.484375 0 2.328125 1.28125 2.328125 3.109375s-.859375 3.140625-2.328125 3.140625zm0 0"/></g><g id="h"><path d="m-5.078125-9.671875c-3.171875 0-5.203125 1.828125-5.203125 4.390625s2.03125 4.390625 5.203125 4.390625 5.21875-1.8125 5.21875-4.390625c0-2.5625-2.03125-4.390625-5.21875-4.390625zm0 .90625c2.734375 0 4.34375 1.484375 4.34375 3.484375 0 2.015625-1.625 3.5-4.34375 3.5-2.734375 0-4.34375-1.5-4.34375-3.5s1.625-3.484375 4.34375-3.484375zm0 0"/></g></defs><path d="m.00160375.00048625v-3.50000025" fill="none" stroke="#fff" stroke-linejoin="round" stroke-miterlimit="10" stroke-width=".8" transform="matrix(1 0 0 -1 65.65074 238.84033)"/><use fill="#fff" x="58.502" xlink:href="#a" y="253.137"/><use fill="#fff" x="64.316173" xlink:href="#b" y="253.137"/><use fill="#fff" x="66.688268" xlink:href="#a" y="253.137"/><path d="m-.00108375.00048625v-3.50000025" fill="none" stroke="#fff" stroke-linejoin="round" stroke-miterlimit="10" stroke-width=".8" transform="matrix(1 0 0 -1 132.75499 238.84033)"/><use fill="#fff" x="125.471" xlink:href="#a" y="253.137"/><g fill="#fff"><use x="131.285173" xlink:href="#b" y="253.137"/><use x="133.956146" xlink:href="#c" y="253.137"/></g><path d="m-.000975.00048625v-3.50000025" fill="none" stroke="#fff" stroke-linejoin="round" stroke-miterlimit="10" stroke-width=".8" transform="matrix(1 0 0 -1 199.86035 238.84033)"/><use fill="#fff" x="192.496" xlink:href="#a" y="253.137"/><g fill="#fff"><use x="198.310173" xlink:href="#b" y="253.137"/><path d="m.640625-1.5625h3.375v1.5625h.625v-1.5625h.96875v-.59375h-.96875v-5.09375h-.78125l-3.21875 5.15625zm3.375-.59375h-2.640625v-.046875l2.59375-4.140625h.046875zm0 0" transform="translate(200.981146 253.137)"/></g><path d="m.00023375.00048625v-3.50000025" fill="none" stroke="#fff" stroke-linejoin="round" stroke-miterlimit="10" stroke-width=".8" transform="matrix(1 0 0 -1 266.96461 238.84033)"/><use fill="#fff" x="259.833" xlink:href="#a" y="253.137"/><use fill="#fff" x="265.647173" xlink:href="#b" y="253.137"/><path d="m3.09375.09375c1.375.015625 2.296875-1.078125 2.296875-2.375 0-1.359375-1.015625-2.359375-2.21875-2.359375-.78125 0-1.46875.421875-1.8125 1.0625h-.046875c.015625-2.03125.6875-3.171875 1.875-3.171875.828125 0 1.328125.546875 1.46875 1.3125h.65625c-.140625-1.125-.953125-1.90625-2.125-1.90625-1.671875 0-2.5 1.65625-2.5 4.015625 0 2.546875 1.203125 3.421875 2.40625 3.421875zm0-.59375c-.90625 0-1.578125-.734375-1.65625-1.734375-.0625-.953125.6875-1.8125 1.65625-1.8125.9375 0 1.65625.78125 1.65625 1.765625s-.71875 1.78125-1.65625 1.78125zm0 0" fill="#fff" transform="translate(268.019268 253.137)"/><path d="m.0003525.00048625v-3.50000025" fill="none" stroke="#fff" stroke-linejoin="round" stroke-miterlimit="10" stroke-width=".8" transform="matrix(1 0 0 -1 334.06996 238.84033)"/><use fill="#fff" x="326.909" xlink:href="#a" y="253.137"/><use fill="#fff" x="332.723173" xlink:href="#b" y="253.137"/><path d="m3.046875.09375c1.375 0 2.390625-.84375 2.390625-2 0-.90625-.625-1.6875-1.4375-1.84375v-.046875c.703125-.203125 1.171875-.875 1.1875-1.65625-.015625-1.078125-.9375-1.890625-2.140625-1.890625-1.21875 0-2.140625.8125-2.125 1.890625-.015625.78125.46875 1.453125 1.171875 1.65625v.046875c-.828125.15625-1.4375.9375-1.4375 1.84375 0 1.15625 1 2 2.390625 2zm0-.59375c-1.03125 0-1.75-.59375-1.734375-1.4375-.015625-.875.734375-1.515625 1.734375-1.515625s1.734375.640625 1.75 1.515625c-.015625.84375-.71875 1.4375-1.75 1.4375zm0-3.53125c-.859375 0-1.5-.578125-1.484375-1.375-.015625-.796875.625-1.359375 1.484375-1.359375s1.484375.5625 1.5 1.359375c-.015625.796875-.65625 1.375-1.5 1.375zm0 0" fill="#fff" transform="translate(335.125156 253.137)"/><path d="m.00156125.00048625v-3.50000025" fill="none" stroke="#fff" stroke-linejoin="round" stroke-miterlimit="10" stroke-width=".8" transform="matrix(1 0 0 -1 401.17422 238.84033)"/><g fill="#fff"><use x="394.92" xlink:href="#d" y="253.137"/><use x="398.931939" xlink:href="#b" y="253.137"/><use x="401.304034" xlink:href="#a" y="253.137"/><g><path d="m1.34375 0h3.609375c2.1875 0 3.1875-1.125 3.1875-2.65625 0-1.546875-1.015625-2.46875-2-2.546875v-.078125c.90625-.234375 1.609375-.9375 1.609375-2.203125 0-1.53125-1-2.65625-2.984375-2.65625h-3.421875zm.9375-.828125v-3.90625h2.71875c1.359375 0 2.265625.90625 2.265625 2.078125 0 1.046875-.734375 1.828125-2.3125 1.828125zm0-4.734375v-3.75h2.484375c1.390625 0 2.09375.75 2.09375 1.828125 0 1.109375-.796875 1.921875-2 1.921875zm0 0" transform="translate(197.84 269.734)"/><path d="m3.296875.171875c1.265625 0 2.03125-.703125 2.359375-1.375h.046875v1.203125h.875v-5.171875c0-2.03125-1.53125-2.546875-2.6875-2.546875-1.171875 0-2.375.46875-2.890625 1.703125l.84375.3125c.28125-.65625.96875-1.21875 2.0625-1.21875 1.15625 0 1.796875.640625 1.796875 1.671875v.1875c0 .5625-.71875.578125-1.984375.734375-1.734375.21875-2.9375.703125-2.9375 2.203125 0 1.46875 1.125 2.296875 2.515625 2.296875zm.109375-.8125c-1 0-1.734375-.53125-1.734375-1.453125 0-.90625.75-1.296875 2.046875-1.453125.609375-.078125 1.734375-.21875 1.984375-.46875v1.09375c0 1.25-.890625 2.28125-2.296875 2.28125zm0 0" transform="translate(206.869741 269.734)"/><path d="m2.046875-4.75c0-1.328125.875-2.15625 2.078125-2.15625 1.15625 0 1.921875.78125 1.921875 2.03125v4.875h.875v-4.9375c0-1.796875-1.046875-2.765625-2.578125-2.765625-1.125 0-1.890625.515625-2.25 1.28125h-.078125v-1.1875h-.84375v7.609375h.875zm0 0" transform="translate(214.631636 269.734)"/><use x="222.714328" xlink:href="#g" y="269.734"/><path d="m2.859375 0h.90625l1.796875-6.234375h.09375l1.8125 6.234375h.90625l2.296875-7.609375h-.921875l-1.8125 6.265625h-.0625l-1.78125-6.265625h-.9375l-1.796875 6.28125h-.0625l-1.8125-6.28125h-.921875zm0 0" transform="translate(231.268453 269.734)"/><path d="m1.171875 0h.890625v-7.609375h-.890625zm.453125-8.921875c.359375 0 .671875-.28125.671875-.625 0-.359375-.3125-.640625-.671875-.640625s-.65625.28125-.65625.640625c0 .34375.296875.625.65625.625zm0 0" transform="translate(242.496351 269.734)"/><use x="245.730823" xlink:href="#g" y="269.734"/><path d="m4.15625-7.609375h-1.609375v-1.828125h-.875v1.828125h-1.140625v.765625h1.140625v5.0625c0 1.25.96875 1.890625 1.953125 1.890625.359375 0 .609375-.0625.78125-.125l-.1875-.796875c-.125.03125-.28125.0625-.515625.0625-.59375 0-1.15625-.28125-1.15625-1.234375v-4.859375h1.609375zm0 0" transform="translate(254.284947 269.734)"/></g><path d="m2.046875-4.75c0-1.328125.890625-2.15625 2.109375-2.15625 1.1875 0 1.9375.78125 1.9375 2.03125v4.875h.890625v-4.9375c0-1.8125-1.0625-2.765625-2.609375-2.765625-1.140625 0-1.890625.5-2.25 1.28125h-.078125v-3.71875h-.875v10.140625h.875zm0 0" transform="translate(259.435833 269.734)"/><path d="m4.03125-9.59375c.015625-.0625.046875-.140625.046875-.21875 0-.140625-.140625-.140625-.171875-.140625-.015625 0-.71875.0625-.796875.0625-.234375.015625-.453125.046875-.71875.0625-.359375.03125-.453125.046875-.453125.296875 0 .15625.109375.15625.3125.15625.703125 0 .71875.125.71875.265625 0 .09375-.03125.203125-.046875.25l-2.078125 8.296875c-.0625.21875-.0625.25-.0625.328125 0 .328125.25.375.390625.375.25 0 .4375-.1875.5-.34375l.65625-2.59375c.0625-.3125.15625-.609375.21875-.9375.171875-.59375.171875-.609375.4375-1.03125.265625-.40625.921875-1.265625 2.015625-1.265625.578125 0 .78125.421875.78125 1 0 .796875-.5625 2.359375-.875 3.21875-.125.34375-.203125.53125-.203125.796875 0 .640625.453125 1.15625 1.140625 1.15625 1.328125 0 1.828125-2.109375 1.828125-2.1875s-.0625-.140625-.140625-.140625c-.125 0-.140625.046875-.21875.296875-.328125 1.140625-.859375 1.75-1.4375 1.75-.140625 0-.359375-.015625-.359375-.46875 0-.375.171875-.84375.21875-1 .265625-.6875.90625-2.375.90625-3.203125 0-.875-.5-1.515625-1.59375-1.515625-.8125 0-1.53125.390625-2.125 1.140625zm0 0" transform="translate(271.502 269.734)"/></g><path d="m.000945-.000125h-3.5" fill="none" stroke="#fff" stroke-linejoin="round" stroke-miterlimit="10" stroke-width=".8" transform="matrix(1 0 0 -1 60.01468 238.1405)"/><use fill="#fff" x="30.749" xlink:href="#a" y="241.94"/><use fill="#fff" x="36.563173" xlink:href="#b" y="241.94"/><g fill="#fff"><use x="38.935268" xlink:href="#a" y="241.94"/><use x="45.04832" xlink:href="#e" y="241.94"/></g><path d="m.000945.00144875h-3.5" fill="none" stroke="#fff" stroke-linejoin="round" stroke-miterlimit="10" stroke-width=".8" transform="matrix(1 0 0 -1 60.01468 200.70848)"/><use fill="#fff" x="30.749" xlink:href="#a" y="204.507"/><use fill="#fff" x="36.563173" xlink:href="#b" y="204.507"/><g fill="#fff"><use x="38.397288" xlink:href="#d" y="204.507"/><use x="42.837619" xlink:href="#a" y="204.507"/></g><path d="m.000945.0019525h-3.5" fill="none" stroke="#fff" stroke-linejoin="round" stroke-miterlimit="10" stroke-width=".8" transform="matrix(1 0 0 -1 60.01468 163.27539)"/><use fill="#fff" x="30.749" xlink:href="#a" y="167.076"/><use fill="#fff" x="36.563173" xlink:href="#b" y="167.076"/><g fill="#fff"><use x="38.397288" xlink:href="#d" y="167.076"/><use x="42.837619" xlink:href="#e" y="167.076"/></g><path d="m.000945-.00145h-3.5" fill="none" stroke="#fff" stroke-linejoin="round" stroke-miterlimit="10" stroke-width=".8" transform="matrix(1 0 0 -1 60.01468 125.8423)"/><use fill="#fff" x="30.749" xlink:href="#a" y="129.643"/><g fill="#fff"><use x="36.563173" xlink:href="#b" y="129.643"/><use x="39.234146" xlink:href="#c" y="129.643"/><use x="45.315317" xlink:href="#a" y="129.643"/></g><path d="m.000945.00012375h-3.5" fill="none" stroke="#fff" stroke-linejoin="round" stroke-miterlimit="10" stroke-width=".8" transform="matrix(1 0 0 -1 60.01468 88.41028)"/><use fill="#fff" x="30.749" xlink:href="#a" y="92.212"/><g fill="#fff"><use x="36.563173" xlink:href="#b" y="92.212"/><use x="39.234146" xlink:href="#c" y="92.212"/><use x="45.315317" xlink:href="#e" y="92.212"/></g><path d="m.000945.0006275h-3.5" fill="none" stroke="#fff" stroke-linejoin="round" stroke-miterlimit="10" stroke-width=".8" transform="matrix(1 0 0 -1 60.01468 50.97719)"/><use fill="#fff" x="30.749" xlink:href="#a" y="54.779"/><use fill="#fff" x="36.563173" xlink:href="#b" y="54.779"/><g fill="#fff"><use x="38.935268" xlink:href="#f" y="54.779"/><use x="45.200748" xlink:href="#a" y="54.779"/></g><path d="m.000945-.001675h-3.5" fill="none" stroke="#fff" stroke-linejoin="round" stroke-miterlimit="10" stroke-width=".8" transform="matrix(1 0 0 -1 60.01468 13.5452)"/><use fill="#fff" x="30.749" xlink:href="#a" y="17.347"/><use fill="#fff" x="36.563173" xlink:href="#b" y="17.347"/><g fill="#fff"><use x="38.935268" xlink:href="#f" y="17.347"/><use x="45.200748" xlink:href="#e" y="17.347"/></g><path d="m0-1.34375v-5.765625h-.828125v4.828125h-9.3125v.9375zm0 0" fill="#fff" transform="translate(20.61 150.098)"/><g fill="#fff"><use x="20.61" xlink:href="#h" y="142.642954"/><use x="20.61" xlink:href="#h" y="132.08873"/><path d="m-4.765625-5.265625v4.21875h.828125v-4.21875zm0 0" transform="translate(20.61 121.534505)"/><path d="m-6.984375-9.296875c-1.859375.328125-3.296875 1.859375-3.296875 4.015625 0 2.5625 2.03125 4.390625 5.203125 4.390625 3.1875 0 5.21875-1.828125 5.21875-4.390625 0-2.15625-1.453125-3.6875-3.3125-4.015625v.9375c1.390625.28125 2.4375 1.484375 2.4375 3.078125 0 1.921875-1.515625 3.5-4.34375 3.5-2.8125 0-4.34375-1.578125-4.34375-3.5 0-1.59375 1.0625-2.796875 2.4375-3.078125zm0 0" transform="translate(20.61 115.214802)"/><path d="m-10.140625-1.359375v.96875l10.140625-3.6875v-1l-10.140625-3.6875v.96875l8.9375 3.171875v.09375zm0 0" transform="translate(20.61 105.090167)"/></g><path d="m76.261719 262.540437.375-20.796875.390625-17.449218.402344-1.101563.421874-.800781.429688-5.9375.449219-27.964844.464843-.34375.480469-10.722656.5-.328125.515625-.113281.53125-12.945313.554688-.199219.574218-.183593.589844-14.835938.613282-.589844.636718-23.90625.660156-.066406.679688-55.363281.707031-9.167969.730469-.605469.757812-.222656.78125-.324219.8125-.316406.839844-.308594.871094-.152343.902344-.101563.933594-.234375.964843-.328125 1-.488281 1.035157-.621094 1.074218-.722656 1.113282-.816406 1.148437-.273438 1.191406.195313 1.234375-.199219 1.277344-.402344 1.320312-.292969 1.371094-.269531 1.417969-.257812 1.46875-.261719 1.519531-.378906 1.574219-.28125 1.632813-.105469 1.6875.003906 1.75.132813 1.808593.269531 1.875.160156 1.941407.117188 2.011718.1875 2.082032.113281 2.15625.023437 2.230468.066407 2.3125-.082032 2.390625-.078125h2.480469l2.566406-.066406 2.65625-.019531 2.753906.097656 2.847657.207031 2.953125.238282 3.054687.128906 3.164063.195312 3.273437.347657 3.394531.34375 3.511719.433593 3.640625.40625 3.765625.445313 3.902344.609375 4.039063.621094 4.179687.691406 4.332031.847656 4.484375.921875 4.644531.910156 4.808594.964844 4.980469 1.019531 5.15625 1.027344 5.339844 1.121094 5.527343 1.230469 5.726563 1.285156 5.929687 1.320312 6.140626 1.359375 6.355468 1.398438 6.582032 1.621094 6.816406 1.761718 7.058594 1.816407 7.3125 1.996093 7.566406 2.003907 7.835937 2.109375 8.117188 2.160156 8.40625 2.28125 8.699219 2.476562 9.011718 2.53125 9.332032 2.601563 9.664062 2.6875 10.003906 2.777344 10.359375 3.011718 10.730469 3.1875 11.109375 3.242188 11.503906 3.496094" style="fill:none;stroke-width:1.50002;stroke-linecap:square;stroke-linejoin:round;stroke:#8be9fd;stroke-miterlimit:10" transform="matrix(1 0 0 -1 0 280.267)"/><path d="m60.015625 41.427156v231.644531" fill="none" stroke="#fff" stroke-linecap="square" stroke-miterlimit="10" stroke-width=".8" transform="matrix(1 0 0 -1 0 280.267)"/><path d="m417.417969 41.427156v231.644531" fill="none" stroke="#fff" stroke-linecap="square" stroke-miterlimit="10" stroke-width=".8" transform="matrix(1 0 0 -1 0 280.267)"/><path d="m60.015625 41.427156h357.402344" fill="none" stroke="#fff" stroke-linecap="square" stroke-miterlimit="10" stroke-width=".8" transform="matrix(1 0 0 -1 0 280.267)"/><path d="m60.015625 273.071687h357.402344" fill="none" stroke="#fff" stroke-linecap="square" stroke-miterlimit="10" stroke-width=".8" transform="matrix(1 0 0 -1 0 280.267)"/></svg>