<svg height="280.267" viewBox="0 0 424.641 280.267" width="424.641" xmlns="http://www.w3.org/2000/svg" xmlns:xlink="http://www.w3.org/1999/xlink"><defs><g id="a"><path d="m3.0625.09375c1.515625 0 2.421875-1.375 2.421875-3.71875s-.90625-3.71875-2.421875-3.71875-2.421875 1.375-2.421875 3.71875.890625 3.71875 2.421875 3.71875zm0-.59375c-1.125 0-1.78125-1.140625-1.78125-3.125s.671875-3.140625 1.78125-3.140625 1.78125 1.15625 1.78125 3.140625-.671875 3.125-1.78125 3.125zm0 0"/></g><g id="b"><path d="m3.046875-7.25h-.6875l-1.71875 1.140625v.6875l1.703125-1.140625h.03125v6.5625h.671875zm0 0"/></g><g id="c"><path d="m.8125 0h4.5v-.59375h-3.578125v-.046875l1.796875-2c1.203125-1.34375 1.5625-1.9375 1.5625-2.75 0-1.09375-.875-1.953125-2.09375-1.953125s-2.125.859375-2.125 2.0625h.625c0-.859375.59375-1.484375 1.484375-1.484375.84375 0 1.484375.546875 1.484375 1.375 0 .6875-.375 1.203125-1.296875 2.25l-2.359375 2.65625zm0 0"/></g><g id="d"><path d="m3.15625.09375c1.359375 0 2.359375-.875 2.359375-2.03125 0-.921875-.5625-1.59375-1.5-1.78125v-.046875c.765625-.234375 1.25-.84375 1.25-1.671875 0-1.03125-.8125-1.90625-2.09375-1.90625-1.203125 0-2.1875.765625-2.203125 1.90625h.640625c.015625-.8125.71875-1.328125 1.5625-1.328125.875 0 1.453125.5625 1.453125 1.359375 0 .84375-.6875 1.390625-1.625 1.390625h-.421875v.59375h.421875c1.15625 0 1.859375.59375 1.859375 1.484375 0 .828125-.703125 1.4375-1.703125 1.4375-.921875 0-1.640625-.515625-1.6875-1.3125h-.671875c.046875 1.125 1.015625 1.90625 2.359375 1.90625zm0 0"/></g><g id="e"><path d="m2.34375.125c.90625 0 1.46875-.5 1.6875-.984375h.046875v.859375h.625v-3.6875c0-1.46875-1.09375-1.828125-1.921875-1.828125-.84375 0-1.6875.328125-2.0625 1.21875l.59375.21875c.203125-.46875.6875-.875 1.484375-.875.828125 0 1.28125.453125 1.28125 1.203125v.125c0 .421875-.515625.421875-1.421875.53125-1.234375.15625-2.09375.5-2.09375 1.578125 0 1.046875.796875 1.640625 1.78125 1.640625zm.09375-.578125c-.71875 0-1.25-.375-1.25-1.03125 0-.671875.546875-.9375 1.46875-1.046875.4375-.0625 1.234375-.15625 1.421875-.34375v.796875c0 .890625-.640625 1.625-1.640625 1.625zm0 0"/></g><g id="f"><path d="m2.96875-5.4375h-1.140625v-1.296875h-.640625v1.296875h-.8125v.546875h.8125v3.625c0 .890625.703125 1.34375 1.40625 1.34375.25 0 .4375-.046875.546875-.09375l-.125-.5625c-.09375.015625-.203125.046875-.375.046875-.421875 0-.8125-.203125-.8125-.890625v-3.46875h1.140625zm0 0"/></g><g id="g"><path d="m.828125 0h.640625v-3.515625c0-.796875.609375-1.390625 1.46875-1.390625.15625 0 .3125.03125.375.03125v-.640625c-.09375 0-.234375 0-.328125 0-.6875 0-1.28125.359375-1.5.90625h-.046875v-.828125h-.609375zm0 0"/></g><g id="h"><path d="m4.28125-2.078125c0 1-.75 1.53125-1.484375 1.53125-.78125 0-1.328125-.5625-1.328125-1.40625v-3.484375h-.640625v3.515625c0 1.296875.75 2 1.796875 2 .796875 0 1.359375-.421875 1.609375-.984375h.046875v.90625h.640625v-5.4375h-.640625zm0 0"/></g><g id="i"><path d="m3.03125.109375c1.09375 0 1.828125-.59375 2.0625-1.265625l-.59375-.203125c-.203125.484375-.703125.890625-1.46875.890625-1.109375 0-1.8125-.8125-1.84375-2.0625h4.046875v-.3125c0-1.8125-1.125-2.671875-2.296875-2.671875-1.40625 0-2.390625 1.1875-2.390625 2.828125 0 1.65625.96875 2.796875 2.484375 2.796875zm-1.84375-3.203125c.0625-1 .75-1.84375 1.75-1.84375.96875 0 1.65625.796875 1.65625 1.84375zm0 0"/></g><g id="j"><path d="m2.90625 2.15625c1.28125 0 2.25-.640625 2.25-2.015625v-5.578125h-.625v1.03125h-.0625c-.21875-.484375-.671875-1.109375-1.671875-1.109375-1.34375 0-2.25 1.125-2.25 2.78125 0 1.671875.9375 2.671875 2.25 2.671875.96875 0 1.453125-.5625 1.65625-1.0625h.0625v1.234375c0 1-.640625 1.484375-1.609375 1.484375-.9375 0-1.375-.453125-1.609375-.875l-.515625.34375c.3125.625 1.015625 1.09375 2.125 1.09375zm-.046875-2.796875c-1.078125 0-1.671875-.859375-1.671875-2.109375 0-1.21875.59375-2.1875 1.671875-2.1875 1.0625 0 1.671875.921875 1.671875 2.1875 0 1.3125-.625 2.109375-1.671875 2.109375zm0 0"/></g><g id="k"><path d="m4.484375-4.25c-.265625-.78125-.84375-1.265625-1.84375-1.265625-1.09375 0-1.890625.625-1.890625 1.53125 0 .71875.4375 1.21875 1.390625 1.453125l.890625.203125c.59375.140625.875.453125.875.890625 0 .5625-.53125.984375-1.375.984375-.734375 0-1.203125-.34375-1.359375-.984375l-.609375.15625c.203125.90625.921875 1.390625 1.984375 1.390625 1.1875 0 2.015625-.65625 2.015625-1.578125 0-.71875-.453125-1.21875-1.359375-1.4375l-.828125-.203125c-.671875-.171875-.984375-.4375-.984375-.90625 0-.546875.515625-.9375 1.25-.9375s1.09375.390625 1.265625.875zm0 0"/></g><g id="l"><path d="m.84375 0h.625v-5.4375h-.625zm.3125-6.375c.265625 0 .484375-.203125.484375-.453125s-.21875-.453125-.484375-.453125c-.25 0-.46875.203125-.46875.453125s.21875.453125.46875.453125zm0 0"/></g><g id="m"><path d="m2.953125.109375c1.40625 0 2.390625-1.140625 2.390625-2.796875 0-1.671875-.984375-2.828125-2.390625-2.828125-1.421875 0-2.40625 1.15625-2.40625 2.828125 0 1.65625.984375 2.796875 2.40625 2.796875zm0-.578125c-1.140625 0-1.765625-1-1.765625-2.21875s.625-2.25 1.765625-2.25c1.125 0 1.75 1.03125 1.75 2.25s-.625 2.21875-1.75 2.21875zm0 0"/></g><g id="n"><path d="m1.46875-3.40625c0-.9375.609375-1.53125 1.46875-1.53125.84375 0 1.375.5625 1.375 1.453125v3.484375h.640625v-3.515625c0-1.296875-.75-2-1.859375-2-.796875 0-1.34375.375-1.59375.9375h-.0625v-.859375h-.609375v5.4375h.640625zm0 0"/></g><g id="o"><path d="m3.0625-5.4375h-1.203125v-.671875c0-.5625.3125-.875.859375-.875.21875 0 .34375.03125.4375.078125l.1875-.5625c-.140625-.046875-.34375-.125-.671875-.125-.75 0-1.4375.484375-1.4375 1.359375v.796875h-.84375v.546875h.84375v4.890625h.625v-4.890625h1.203125zm0 0"/></g><g id="p"><path d="m2.953125.109375c1.140625 0 1.9375-.71875 2.078125-1.703125h-.640625c-.140625.703125-.71875 1.125-1.4375 1.125-1.0625 0-1.765625-.921875-1.765625-2.25 0-1.3125.71875-2.21875 1.765625-2.21875.78125 0 1.296875.5 1.4375 1.109375h.640625c-.15625-1-1-1.6875-2.078125-1.6875-1.4375 0-2.40625 1.1875-2.40625 2.828125 0 1.609375.953125 2.796875 2.40625 2.796875zm0 0"/></g><g id="q"><path d="m2.515625-3.828125c.0625-.234375.171875-.640625.171875-.703125 0-.1875-.140625-.296875-.328125-.296875-.03125 0-.328125.015625-.421875.40625l-1.578125 6.3125c-.03125.125-.03125.15625-.03125.171875 0 .15625.125.296875.296875.296875.234375 0 .375-.203125.390625-.234375.046875-.09375.1875-.65625.59375-2.34375.359375.296875.84375.34375 1.0625.34375.765625 0 1.1875-.5 1.453125-.796875.09375.484375.5.796875.984375.796875.375 0 .625-.25.796875-.609375.1875-.390625.328125-1.046875.328125-1.078125 0-.109375-.09375-.109375-.125-.109375-.109375 0-.125.046875-.15625.203125-.1875.703125-.375 1.34375-.828125 1.34375-.296875 0-.328125-.28125-.328125-.5 0-.234375.125-.75.21875-1.125l.3125-1.1875c.03125-.15625.140625-.578125.171875-.734375.0625-.25.171875-.671875.171875-.734375 0-.203125-.15625-.296875-.3125-.296875-.0625 0-.34375.015625-.4375.390625l-.5 2.03125c-.140625.546875-.25 1-.28125 1.109375-.015625.0625-.546875 1.046875-1.421875 1.046875-.546875 0-.8125-.359375-.8125-.9375 0-.328125.078125-.625.15625-.9375zm0 0"/></g><g id="r"><path d="m2.59375-5.59375c0-.203125-.140625-.328125-.328125-.328125-.25 0-.484375.234375-.484375.46875 0 .171875.125.328125.328125.328125.25 0 .484375-.21875.484375-.46875zm.125 4.3125c0-.046875-.015625-.109375-.109375-.109375s-.109375.046875-.140625.15625c-.21875.734375-.578125 1.109375-.921875 1.109375-.140625 0-.21875-.078125-.21875-.296875s.078125-.40625.140625-.578125c.15625-.4375.15625-.453125.28125-.734375.140625-.375.34375-.890625.421875-1.140625.078125-.171875.078125-.25.078125-.328125 0-.515625-.40625-.765625-.765625-.765625-.875 0-1.21875 1.28125-1.21875 1.390625 0 .078125.0625.109375.125.109375.09375 0 .109375-.0625.140625-.171875.1875-.640625.53125-1.09375.921875-1.09375.09375 0 .21875.015625.21875.28125 0 .21875-.09375.453125-.171875.65625l-.640625 1.671875c-.0625.171875-.109375.3125-.109375.46875 0 .421875.3125.75.765625.75.875 0 1.203125-1.28125 1.203125-1.375zm0 0"/></g></defs><path d="m.0003975.00048625v-3.50000025" fill="none" stroke="#fff" stroke-linejoin="round" stroke-miterlimit="10" stroke-width=".8" transform="matrix(1 0 0 -1 55.33554 238.84033)"/><use fill="#fff" x="52.278" xlink:href="#a" y="253.137"/><path d="m.0012375.00048625v-3.50000025" fill="none" stroke="#fff" stroke-linejoin="round" stroke-miterlimit="10" stroke-width=".8" transform="matrix(1 0 0 -1 170.30345 238.84033)"/><use fill="#fff" x="168.081" xlink:href="#b" y="253.137"/><path d="m.0009775.00048625v-3.50000025" fill="none" stroke="#fff" stroke-linejoin="round" stroke-miterlimit="10" stroke-width=".8" transform="matrix(1 0 0 -1 285.27246 238.84033)"/><use fill="#fff" x="282.228" xlink:href="#c" y="253.137"/><path d="m.0018175.00048625v-3.50000025" fill="none" stroke="#fff" stroke-linejoin="round" stroke-miterlimit="10" stroke-width=".8" transform="matrix(1 0 0 -1 400.24037 238.84033)"/><use fill="#fff" x="397.102" xlink:href="#d" y="253.137"/><path d="m6.796875-5.859375c-.453125.09375-.625.4375-.625.703125 0 .34375.265625.46875.46875.46875.4375 0 .734375-.375.734375-.765625 0-.59375-.6875-.875-1.296875-.875-.875 0-1.359375.859375-1.484375 1.140625-.328125-1.078125-1.21875-1.140625-1.484375-1.140625-1.453125 0-2.234375 1.875-2.234375 2.203125 0 .046875.0625.125.15625.125.109375 0 .140625-.09375.171875-.140625.484375-1.59375 1.453125-1.890625 1.859375-1.890625.65625 0 .78125.59375.78125.9375 0 .3125-.078125.640625-.265625 1.328125l-.484375 1.96875c-.203125.859375-.625 1.65625-1.390625 1.65625-.0625 0-.421875 0-.734375-.1875.515625-.109375.640625-.53125.640625-.703125 0-.28125-.21875-.453125-.484375-.453125-.34375 0-.71875.296875-.71875.75 0 .609375.671875.875 1.28125.875.6875 0 1.1875-.546875 1.484375-1.125.234375.84375.9375 1.125 1.46875 1.125 1.46875 0 2.25-1.875 2.25-2.1875 0-.078125-.0625-.140625-.15625-.140625-.125 0-.140625.078125-.171875.1875-.390625 1.265625-1.234375 1.859375-1.875 1.859375-.5 0-.765625-.375-.765625-.96875 0-.3125.046875-.546875.28125-1.484375l.5-1.953125c.21875-.859375.703125-1.484375 1.359375-1.484375.03125 0 .4375 0 .734375.171875zm0 0" fill="#fff" transform="translate(223.785 265.695)"/><path d="m.00123125.00048625h-3.50000025" fill="none" stroke="#fff" stroke-linejoin="round" stroke-miterlimit="10" stroke-width=".8" transform="matrix(1 0 0 -1 38.11205 238.84033)"/><use fill="#fff" x="24.749" xlink:href="#a" y="242.639"/><path d="m.00123125-.001535h-3.50000025" fill="none" stroke="#fff" stroke-linejoin="round" stroke-miterlimit="10" stroke-width=".8" transform="matrix(1 0 0 -1 38.11205 166.45159)"/><use fill="#fff" x="24.749" xlink:href="#b" y="170.252"/><path d="m.00123125.00034h-3.50000025" fill="none" stroke="#fff" stroke-linejoin="round" stroke-miterlimit="10" stroke-width=".8" transform="matrix(1 0 0 -1 38.11205 94.06284)"/><use fill="#fff" x="24.749" xlink:href="#c" y="97.864"/><path d="m.00123125-.00059125h-3.50000025" fill="none" stroke="#fff" stroke-linejoin="round" stroke-miterlimit="10" stroke-width=".8" transform="matrix(1 0 0 -1 38.11205 21.67519)"/><use fill="#fff" x="24.749" xlink:href="#d" y="25.476"/><path d="m1.609375-3.765625c.546875.375 1.03125.9375 1.03125 1.640625 0 .171875-.03125.859375-.6875 1.078125.015625-.046875.015625-.109375.015625-.140625 0-.4375-.375-.71875-.703125-.71875s-.453125.265625-.453125.484375c0 .234375.171875.734375.875.734375.734375 0 1.234375-.625 1.234375-1.4375 0-1.4375-1.3125-2.875-2.90625-3.28125l-5.59375-1.40625c-.078125-.015625-.15625-.046875-.25-.046875-.203125 0-.359375.171875-.359375.390625 0 .125.0625.4375.5.546875l4.203125 1.0625c.265625.0625.296875.0625.453125.1875.40625.28125.890625.75.890625 1.4375 0 .8125-.796875.875-1.171875.875-.828125 0-1.921875-.375-2.96875-.765625-.40625-.15625-.609375-.25-.890625-.25-.609375 0-1.15625.4375-1.15625 1.140625 0 1.3125 2.078125 1.84375 2.203125 1.84375.046875 0 .125-.046875.125-.15625 0-.125-.0625-.140625-.265625-.203125-1.203125-.34375-1.765625-.890625-1.765625-1.4375 0-.140625 0-.375.46875-.375.375 0 .78125.15625 1.328125.375 1.875.703125 2.359375.703125 2.703125.703125 1.359375 0 1.671875-.984375 1.671875-1.703125 0-.40625-.125-.921875-.65625-1.4375l.015625-.015625c.84375.21875 1.40625.359375 2.109375.875zm0 0" fill="#fff" transform="translate(17.959 126.703)"/><path d="m38.113281 41.427156v231.644531" fill="none" stroke="#fff" stroke-linecap="square" stroke-miterlimit="10" stroke-width=".8" transform="matrix(1 0 0 -1 0 280.267)"/><path d="m417.445312 41.427156v231.644531" fill="none" stroke="#fff" stroke-linecap="square" stroke-miterlimit="10" stroke-width=".8" transform="matrix(1 0 0 -1 0 280.267)"/><path d="m38.113281 41.427156h379.332031" fill="none" stroke="#fff" stroke-linecap="square" stroke-miterlimit="10" stroke-width=".8" transform="matrix(1 0 0 -1 0 280.267)"/><path d="m38.113281 273.071687h379.332031" fill="none" stroke="#fff" stroke-linecap="square" stroke-miterlimit="10" stroke-width=".8" transform="matrix(1 0 0 -1 0 280.267)"/><path d="m45.113281 220.614656h191.019531c1.332032 0 2 .667969 2 2.003906v43.453125c0 1.332032-.667968 2-2 2h-191.019531c-1.335937 0-2-.667968-2-2v-43.453125c0-1.335937.664063-2.003906 2-2.003906zm0 0" fill="none" stroke="#fff" stroke-miterlimit="10" stroke-opacity=".7" stroke-width="1.00002" transform="matrix(1 0 0 -1 0 280.267)"/><path d="m.00123125-1.5802c.41796875 0 .82031275.164063 1.11718775.460938s.460937.699218.460937 1.12109325c0 .41796875-.164062.82031275-.460937 1.11718775s-.699219.460937-1.11718775.460937c-.42187525 0-.82421925-.164062-1.12109425-.460937s-.460937-.699219-.460937-1.11718775c0-.42187525.164062-.82421825.460937-1.12109325s.699219-.460938 1.12109425-.460938zm0 0" fill="#cda3ff" stroke="#cda3ff" stroke-linejoin="round" stroke-miterlimit="10" stroke-width="1.00002" transform="matrix(1 0 0 -1 57.11205 21.1698)"/><g fill="#fff"><path d="m3.09375 0c2.171875 0 3.421875-1.359375 3.421875-3.640625 0-2.25-1.234375-3.609375-3.296875-3.609375h-2.25v7.25zm-1.46875-.59375v-6.0625h1.546875c1.765625 0 2.703125 1.140625 2.703125 3.015625 0 1.890625-.953125 3.046875-2.828125 3.046875zm0 0" transform="translate(75.111 23.798)"/><use x="82.257173" xlink:href="#e" y="23.798"/><use x="87.80136" xlink:href="#f" y="23.798"/><use x="91.370959" xlink:href="#e" y="23.798"/></g><path d="m3.609375 2.625c0-.046875 0-.0625-.1875-.25-1.359375-1.375-1.703125-3.4375-1.703125-5.09375 0-1.90625.40625-3.796875 1.75-5.171875.140625-.125.140625-.140625.140625-.1875 0-.0625-.046875-.09375-.109375-.09375-.109375 0-1.09375.734375-1.734375 2.125-.5625 1.1875-.6875 2.40625-.6875 3.328125 0 .84375.125 2.15625.71875 3.390625.65625 1.34375 1.59375 2.046875 1.703125 2.046875.0625 0 .109375-.03125.109375-.09375zm0 0" fill="#fff" transform="translate(99.717 23.798)"/><path d="m3.640625-3.296875c.0625-.28125.3125-1.28125 1.078125-1.28125.0625 0 .3125 0 .546875.140625-.296875.046875-.515625.328125-.515625.59375 0 .171875.109375.375.40625.375.25 0 .59375-.203125.59375-.625 0-.578125-.640625-.734375-1.015625-.734375-.640625 0-1.015625.578125-1.140625.84375-.28125-.734375-.875-.84375-1.1875-.84375-1.125 0-1.75 1.421875-1.75 1.6875 0 .109375.109375.109375.125.109375.09375 0 .125-.015625.140625-.125.375-1.15625 1.09375-1.421875 1.46875-1.421875.203125 0 .59375.09375.59375.734375 0 .328125-.1875 1.0625-.59375 2.59375-.171875.671875-.5625 1.125-1.03125 1.125-.078125 0-.328125 0-.546875-.140625.265625-.046875.5-.28125.5-.578125s-.234375-.390625-.390625-.390625c-.328125 0-.609375.28125-.609375.640625 0 .5.546875.71875 1.03125.71875.71875 0 1.109375-.765625 1.140625-.828125.140625.390625.53125.828125 1.1875.828125 1.109375 0 1.734375-1.40625 1.734375-1.6875 0-.109375-.09375-.109375-.125-.109375-.09375 0-.125.046875-.140625.125-.359375 1.171875-1.109375 1.421875-1.453125 1.421875-.421875 0-.59375-.34375-.59375-.71875 0-.234375.0625-.46875.171875-.953125zm0 0" fill="#fff" transform="translate(103.959 23.798)"/><use fill="#fff" x="110.194" xlink:href="#r" y="25.957"/><path d="m2.21875-.015625c0-.71875-.28125-1.140625-.703125-1.140625-.359375 0-.578125.265625-.578125.578125 0 .296875.21875.578125.578125.578125.125 0 .265625-.046875.375-.140625.046875-.015625.046875-.03125.0625-.03125s.015625.015625.015625.15625c0 .8125-.375 1.46875-.734375 1.828125-.125.125-.125.140625-.125.171875 0 .078125.0625.125.109375.125.125 0 1-.84375 1-2.125zm0 0" fill="#fff" transform="translate(113.846 23.798)"/><path d="m5.296875-4.15625c.046875-.15625.046875-.171875.046875-.25 0-.203125-.15625-.296875-.3125-.296875-.109375 0-.28125.0625-.390625.234375-.015625.046875-.109375.390625-.140625.59375-.078125.28125-.15625.578125-.21875.859375l-.5 1.96875c-.046875.15625-.515625.921875-1.234375.921875-.546875 0-.671875-.46875-.671875-.875 0-.5.1875-1.1875.5625-2.140625.171875-.453125.21875-.5625.21875-.78125 0-.5-.359375-.90625-.90625-.90625-1.03125 0-1.4375 1.59375-1.4375 1.6875 0 .109375.109375.109375.140625.109375.109375 0 .109375-.015625.171875-.203125.296875-1.015625.734375-1.34375 1.09375-1.34375.09375 0 .28125 0 .28125.34375 0 .28125-.109375.5625-.1875.765625-.4375 1.15625-.640625 1.78125-.640625 2.296875 0 .96875.6875 1.296875 1.34375 1.296875.421875 0 .78125-.1875 1.09375-.5-.140625.578125-.265625 1.109375-.703125 1.6875-.28125.359375-.703125.6875-1.203125.6875-.15625 0-.640625-.03125-.828125-.46875.171875 0 .3125 0 .46875-.125.109375-.09375.21875-.234375.21875-.453125 0-.328125-.296875-.375-.40625-.375-.25 0-.609375.171875-.609375.703125 0 .546875.484375.953125 1.15625.953125 1.125 0 2.25-.984375 2.546875-2.21875zm0 0" fill="#fff" transform="translate(118.698368 23.798)"/><use fill="#fff" x="124.043" xlink:href="#r" y="25.957"/><path d="m3.15625-2.71875c0-.859375-.125-2.171875-.71875-3.40625-.65625-1.34375-1.59375-2.046875-1.703125-2.046875-.0625 0-.109375.03125-.109375.09375 0 .046875 0 .0625.203125.265625 1.0625 1.078125 1.6875 2.8125 1.6875 5.09375 0 1.859375-.40625 3.78125-1.75 5.15625-.140625.125-.140625.140625-.140625.1875 0 .0625.046875.09375.109375.09375.109375 0 1.09375-.734375 1.734375-2.125.546875-1.1875.6875-2.40625.6875-3.3125zm0 0" fill="#fff" transform="translate(127.694 23.798)"/><path d="m47.113281 244.872469h20" style="fill:none;stroke-width:1.50002;stroke-linecap:square;stroke-linejoin:round;stroke:#50ea7b;stroke-miterlimit:10" transform="matrix(1 0 0 -1 0 280.267)"/><path d="m.53125-6.65625h2.296875v6.65625h.65625v-6.65625h2.296875v-.59375h-5.25zm0 0" fill="#fff" transform="translate(75.111 38.896)"/><g fill="#fff"><use x="80.844476" xlink:href="#g" y="38.896"/><use x="84.396143" xlink:href="#h" y="38.896"/><use x="90.141575" xlink:href="#i" y="38.896"/></g><use fill="#fff" x="98.725351" xlink:href="#g" y="38.896"/><g fill="#fff"><use x="102.107653" xlink:href="#i" y="38.896"/><use x="107.891939" xlink:href="#j" y="38.896"/><use x="113.878465" xlink:href="#g" y="38.896"/></g><g fill="#fff"><use x="117.260768" xlink:href="#i" y="38.896"/><use x="123.045054" xlink:href="#k" y="38.896"/><use x="128.153875" xlink:href="#k" y="38.896"/><use x="133.262696" xlink:href="#l" y="38.896"/><use x="135.573023" xlink:href="#m" y="38.896"/><use x="141.459923" xlink:href="#n" y="38.896"/></g><g fill="#fff"><use x="150.042703" xlink:href="#o" y="38.896"/><use x="153.53858" xlink:href="#h" y="38.896"/><use x="159.284011" xlink:href="#n" y="38.896"/><use x="165.057338" xlink:href="#p" y="38.896"/><use x="170.601525" xlink:href="#f" y="38.896"/><use x="174.171124" xlink:href="#l" y="38.896"/><use x="176.481451" xlink:href="#m" y="38.896"/><use x="182.368352" xlink:href="#n" y="38.896"/></g><use fill="#fff" x="190.94" xlink:href="#q" y="38.896"/><path d="m47.113281 230.196687h20" style="fill:none;stroke-width:1.50002;stroke-linecap:square;stroke-linejoin:round;stroke:#f55;stroke-miterlimit:10" transform="matrix(1 0 0 -1 0 280.267)"/><g fill="#fff"><path d="m.96875 0h4.265625v-.59375h-3.609375v-2.734375h3.328125v-.59375h-3.328125v-2.734375h3.546875v-.59375h-4.203125zm0 0" transform="translate(75.111 53.574)"/><use x="81.022807" xlink:href="#k" y="53.574"/><use x="86.131628" xlink:href="#f" y="53.574"/><use x="89.701228" xlink:href="#l" y="53.574"/><path d="m.828125 0h.640625v-3.484375c0-.84375.5625-1.453125 1.3125-1.453125.734375 0 1.171875.5 1.171875 1.234375v3.703125h.640625v-3.578125c0-.78125.46875-1.359375 1.296875-1.359375.71875 0 1.203125.4375 1.203125 1.296875v3.640625h.625v-3.640625c0-1.21875-.625-1.875-1.640625-1.875-.78125 0-1.359375.390625-1.609375 1h-.046875c-.234375-.625-.71875-1-1.46875-1-.703125 0-1.234375.34375-1.453125.90625h-.0625v-.828125h-.609375zm0 0" transform="translate(92.011555 53.574)"/><use x="100.559465" xlink:href="#e" y="53.574"/><use x="106.103652" xlink:href="#f" y="53.574"/></g><g fill="#fff"><use x="109.613476" xlink:href="#i" y="53.574"/><path d="m2.796875.109375c.984375 0 1.4375-.625 1.65625-1.125h.078125v1.015625h.625v-7.25h-.640625v2.84375h-.0625c-.203125-.484375-.65625-1.109375-1.65625-1.109375-1.34375 0-2.25 1.140625-2.25 2.8125 0 1.6875.90625 2.8125 2.25 2.8125zm.0625-.578125c-1.078125 0-1.671875-.984375-1.671875-2.25 0-1.25.59375-2.21875 1.671875-2.21875 1.0625 0 1.671875.921875 1.671875 2.21875 0 1.3125-.609375 2.25-1.671875 2.25zm0 0" transform="translate(115.397762 53.574)"/></g><use fill="#fff" x="124.317278" xlink:href="#g" y="53.574"/><g fill="#fff"><use x="127.69958" xlink:href="#i" y="53.574"/><use x="133.483866" xlink:href="#j" y="53.574"/><use x="139.470392" xlink:href="#g" y="53.574"/></g><g fill="#fff"><use x="142.852695" xlink:href="#i" y="53.574"/><use x="148.636981" xlink:href="#k" y="53.574"/><use x="153.745802" xlink:href="#k" y="53.574"/><use x="158.854623" xlink:href="#l" y="53.574"/><use x="161.16495" xlink:href="#m" y="53.574"/><use x="167.05185" xlink:href="#n" y="53.574"/></g><g fill="#fff"><use x="175.624668" xlink:href="#o" y="53.574"/><use x="179.120544" xlink:href="#h" y="53.574"/><use x="184.865975" xlink:href="#n" y="53.574"/><use x="190.639302" xlink:href="#p" y="53.574"/><use x="196.183489" xlink:href="#f" y="53.574"/><use x="199.753089" xlink:href="#l" y="53.574"/><use x="202.063416" xlink:href="#m" y="53.574"/><use x="207.950316" xlink:href="#n" y="53.574"/></g><path d="m2.765625-6.828125 2.703125 1.21875.125-.21875-2.828125-1.59375-2.8125 1.59375.109375.21875zm0 0" fill="#fff" transform="translate(217.345 53.167)"/><use fill="#fff" x="216.523" xlink:href="#q" y="53.574"/><g stroke-linejoin="round"><path d="m55.355469 77.645906 19.515625 24.445313 6.539062 7.878906 5.589844 6.488281 5.023438 5.589844 4.65625 4.949219 4.34375 4.382812 4.125 3.9375 3.925781 3.527344 3.765625 3.175781 3.640625 2.859375 3.496093 2.542969 3.414063 2.289062 3.359375 2.0625 3.261719 1.8125 3.1875 1.589844 3.101562 1.371094 3.109375 1.199219 3.058594 1.011718 3.027344.832032 3.015625.664062 3.011719.5 3 .335938 3.019531.175781 3.046875.019531 3.0625-.144531 3.0625-.300781 3.1875-.472657 3.234375-.644531 3.308593-.824219 3.402344-1.015625 3.523438-1.214843 3.660156-1.4375 3.839844-1.679688 4.039062-1.945312 4.339844-2.265625 4.703125-2.644532 5.269531-3.148437 6.183594-3.890625 8.582031-5.605469 14.390625-9.402344 6.339844-3.933593 5.359375-3.140625 4.78125-2.617188 4.414063-2.234375 4.101562-1.90625 3.933594-1.648437 3.742187-1.394532 3.601563-1.175781 3.484375-.976562 3.421875-.789063 3.332031-.605469 3.269531-.429687 3.214844-.265625 3.175781-.097656 3.140625.0625 3.121094.21875 3.085938.378906 3.097656.539062 3.085937.703125 3.085938.863282 3.09375 1.035156 3.101562 1.207031 3.074219 1.363281 3.132812 1.570313 3.117188 1.738281 3.164062 1.949219 3.128907 2.121094 3.136719 2.316406 3.136718 2.515625 3.121094 2.710937 3.105469 2.914063 3.074219 3.101562 3.039062 3.292969 3.023438 3.519531 2.941406 3.667969 2.9375 3.910156 2.875 4.105469 2.828125 4.316406 2.796875 4.5625 2.738281 4.777344 2.683594 5.003906 2.65625 5.289063 2.617187 5.578125 2.5625 5.828125 2.550782 6.214844 2.5 6.511718 2.464843 6.855469 2.457031 7.328125 2.433594 7.761719 2.40625 8.214844 1.136719 4.082031" fill="none" stroke="#50ea7b" stroke-linecap="square" stroke-miterlimit="10" stroke-width="1.50002" transform="matrix(1 0 0 -1 0 280.267)"/><path d="m-.000125-1.579129c.417969 0 .820313.164063 1.117188.460938s.464843.699219.464843 1.11718725c0 .42187475-.167968.82421875-.464843 1.12109375s-.699219.460938-1.117188.460938-.820312-.164063-1.117187-.460938-.464844-.699219-.464844-1.12109375c0-.41796825.167969-.82031225.464844-1.11718725s.699218-.460938 1.117187-.460938zm0 0" fill="#cda3ff" stroke="#cda3ff" stroke-miterlimit="10" stroke-width="1.00002" transform="matrix(1 0 0 -1 57.4845 208.18259)"/><path d="m-.00121625-1.580455c.42187525 0 .82421925.164062 1.12109425.460937s.460937.699219.460937 1.12109425c0 .41796875-.164062.82031275-.460937 1.11718775s-.699219.460937-1.12109425.460937c-.41796875 0-.82031275-.164062-1.11718775-.460937s-.460937-.699219-.460937-1.11718775c0-.42187525.164062-.82421925.460937-1.12109425s.699219-.460937 1.11718775-.460937zm0 0" fill="#cda3ff" stroke="#cda3ff" stroke-miterlimit="10" stroke-width="1.00002" transform="matrix(1 0 0 -1 58.43481 219.84142)"/><path d="m.00031625-1.580474c.41796875 0 .82031275.164063 1.11718775.460938s.464843.699218.464843 1.1210935c0 .4179685-.167968.8203125-.464843 1.1171875s-.699219.460937-1.11718775.460937c-.42187525 0-.82031225-.164062-1.11718725-.460937s-.464844-.699219-.464844-1.1171875c0-.4218755.167969-.8242185.464844-1.1210935s.695312-.460938 1.11718725-.460938zm0 0" fill="#cda3ff" stroke="#cda3ff" stroke-miterlimit="10" stroke-width="1.00002" transform="matrix(1 0 0 -1 70.56609 199.54062)"/><path d="m-.00140125-1.578994c.42187525 0 .82421825.164063 1.12109325.460938s.460938.699219.460938 1.11718725c0 .42187475-.164063.82421875-.460938 1.12109375-.296875.292969-.699218.460938-1.12109325.460938-.41796875 0-.82031275-.167969-1.11718775-.460938-.296875-.296875-.460937-.699219-.460937-1.12109375 0-.41796825.164062-.82031225.460937-1.11718725s.699219-.460938 1.11718775-.460938zm0 0" fill="#cda3ff" stroke="#cda3ff" stroke-miterlimit="10" stroke-width="1.00002" transform="matrix(1 0 0 -1 72.07562 218.44835)"/><path d="m-.00025625-1.582305c.42187525 0 .82031225.167969 1.11718725.464844s.464844.699218.464844 1.11718725c0 .42187475-.167969.82031275-.464844 1.11718775s-.695312.464843-1.11718725.464843c-.41796875 0-.82031275-.167968-1.11718775-.464843s-.464844-.695313-.464844-1.11718775c0-.41796925.167969-.82031225.464844-1.11718725s.699219-.464844 1.11718775-.464844zm0 0" fill="#cda3ff" stroke="#cda3ff" stroke-miterlimit="10" stroke-width="1.00002" transform="matrix(1 0 0 -1 77.7776 189.83957)"/><path d="m.0019-1.581519c.417969 0 .820313.167969 1.117188.464844.296875.292969.460937.695313.460937 1.1171875 0 .4179685-.164062.8203125-.460937 1.1171875s-.699219.464844-1.117188.464844c-.421875 0-.824219-.167969-1.121094-.464844s-.460937-.699219-.460937-1.1171875c0-.4218745.164062-.8242185.460937-1.1171875.296875-.296875.699219-.464844 1.121094-.464844zm0 0" fill="#cda3ff" stroke="#cda3ff" stroke-miterlimit="10" stroke-width="1.00002" transform="matrix(1 0 0 -1 81.1856 163.9302)"/><path d="m-.00023375-1.580181c.41796875 0 .82031275.164062 1.11718775.460937s.464844.699219.464844 1.121094c0 .417969-.167969.820312-.464844 1.117187s-.699219.460938-1.11718775.460938c-.41796825 0-.82031225-.164063-1.11718725-.460938s-.464844-.699218-.464844-1.117187c0-.421875.167969-.824219.464844-1.121094s.699219-.460937 1.11718725-.460937zm0 0" fill="#cda3ff" stroke="#cda3ff" stroke-miterlimit="10" stroke-width="1.00002" transform="matrix(1 0 0 -1 84.53539 192.62685)"/><path d="m.00016375-1.582425c.41796925 0 .82031225.167969 1.11718725.464844s.464844.699218.464844 1.11718725c0 .42187475-.167969.82031275-.464844 1.11718775s-.699218.464843-1.11718725.464843c-.41796875 0-.82031275-.167968-1.11718775-.464843s-.464843-.695313-.464843-1.11718775c0-.41796925.167968-.82031225.464843-1.11718725s.699219-.464844 1.11718775-.464844zm0 0" fill="#cda3ff" stroke="#cda3ff" stroke-miterlimit="10" stroke-width="1.00002" transform="matrix(1 0 0 -1 92.65218 151.77695)"/><path d="m-.0015625-1.5799c.4218745 0 .8242185.164062 1.1210935.460937s.460938.699219.460938 1.117188c0 .421875-.164063.824219-.460938 1.121094s-.699219.460937-1.1210935.460937c-.4179685 0-.8203125-.164062-1.1171875-.460937s-.460938-.699219-.460938-1.121094c0-.417969.164063-.820313.460938-1.117188s.699219-.460937 1.1171875-.460937zm0 0" fill="#cda3ff" stroke="#cda3ff" stroke-miterlimit="10" stroke-width="1.00002" transform="matrix(1 0 0 -1 93.2125 158.2326)"/><path d="m-.001645-1.579085c.421875 0 .824219.164062 1.121094.460937s.460937.699219.460937 1.117188c0 .421875-.164062.824219-.460937 1.121094-.296875.292968-.699219.460937-1.121094.460937-.417969 0-.820312-.167969-1.117187-.460937-.296875-.296875-.460938-.699219-.460938-1.121094 0-.417969.164063-.820313.460938-1.117188s.699218-.460937 1.117187-.460937zm0 0" fill="#cda3ff" stroke="#cda3ff" stroke-miterlimit="10" stroke-width="1.00002" transform="matrix(1 0 0 -1 99.89227 164.65529)"/><path d="m.0003525-1.579968c.4179685 0 .8203125.164063 1.1171875.460938s.464844.699219.464844 1.1171875c0 .4218745-.167969.8242185-.464844 1.1210935s-.699219.460938-1.1171875.460938c-.4218745 0-.8203125-.164063-1.1171875-.460938s-.464844-.699219-.464844-1.1210935c0-.4179685.167969-.8203125.464844-1.1171875s.695313-.460938 1.1171875-.460938zm0 0" fill="#cda3ff" stroke="#cda3ff" stroke-miterlimit="10" stroke-width="1.00002" transform="matrix(1 0 0 -1 106.63246 180.75597)"/><path d="m-.00128-1.582824c.421875 0 .824219.167969 1.121094.464844s.460937.699219.460937 1.1171875c0 .4218745-.164062.8242185-.460937 1.1210935-.296875.292969-.699219.460938-1.121094.460938-.417969 0-.820313-.167969-1.117188-.460938-.296875-.296875-.460937-.699219-.460937-1.1210935 0-.4179685.164062-.8203125.460937-1.1171875s.699219-.464844 1.117188-.464844zm0 0" fill="#cda3ff" stroke="#cda3ff" stroke-miterlimit="10" stroke-width="1.00002" transform="matrix(1 0 0 -1 109.90753 168.72577)"/><path d="m-.00179-1.581563c.421875 0 .824219.167969 1.121094.464844s.460937.695313.460937 1.11718775c0 .41796825-.164062.82031225-.460937 1.11718725s-.699219.464844-1.121094.464844c-.417969 0-.820312-.167969-1.117187-.464844s-.460938-.699219-.460938-1.11718725c0-.42187475.164063-.82031275.460938-1.11718775s.699218-.464844 1.117187-.464844zm0 0" fill="#cda3ff" stroke="#cda3ff" stroke-miterlimit="10" stroke-width="1.00002" transform="matrix(1 0 0 -1 111.84554 123.645)"/><path d="m-.00096875-1.58038c.42187475 0 .82421875.164063 1.12109375.460938.292969.296875.460938.699218.460938 1.12109325 0 .41796875-.167969.82031275-.460938 1.11718775-.296875.296875-.699219.460937-1.12109375.460937-.41796825 0-.82031225-.164062-1.11718725-.460937s-.460938-.699219-.460938-1.11718775c0-.42187525.164063-.82421825.460938-1.12109325s.699219-.460938 1.11718725-.460938zm0 0" fill="#cda3ff" stroke="#cda3ff" stroke-miterlimit="10" stroke-width="1.00002" transform="matrix(1 0 0 -1 113.2705 110.48212)"/><path d="m.0012-1.58175c.417969 0 .820312.167969 1.117187.464844s.460938.695312.460938 1.11718725c0 .41796875-.164063.82031275-.460938 1.11718775s-.699218.464844-1.117187.464844c-.421875 0-.824219-.167969-1.121094-.464844s-.460937-.699219-.460937-1.11718775c0-.42187525.164062-.82031225.460937-1.11718725s.699219-.464844 1.121094-.464844zm0 0" fill="#cda3ff" stroke="#cda3ff" stroke-miterlimit="10" stroke-width="1.00002" transform="matrix(1 0 0 -1 115.0613 137.16825)"/><path d="m-.00162-1.582094c.421875 0 .824219.167969 1.121094.464844s.460937.699219.460937 1.1171875-.164062.8203125-.460937 1.1171875-.699219.464844-1.121094.464844c-.417969 0-.820313-.167969-1.117188-.464844s-.460937-.699219-.460937-1.1171875.164062-.8203125.460937-1.1171875.699219-.464844 1.117188-.464844zm0 0" fill="#cda3ff" stroke="#cda3ff" stroke-miterlimit="10" stroke-width="1.00002" transform="matrix(1 0 0 -1 117.06412 176.3515)"/><path d="m.00007875-1.579085c.41796825 0 .82031225.164062 1.11718725.460937s.464844.699219.464844 1.117188c0 .421875-.167969.824219-.464844 1.121094-.296875.292968-.699219.460937-1.11718725.460937-.41796875 0-.82031275-.167969-1.11718775-.460937-.296875-.296875-.464844-.699219-.464844-1.121094 0-.417969.167969-.820313.464844-1.117188s.699219-.460937 1.11718775-.460937zm0 0" fill="#cda3ff" stroke="#cda3ff" stroke-miterlimit="10" stroke-width="1.00002" transform="matrix(1 0 0 -1 118.26164 163.81154)"/><path d="m-.0002-1.579208c.417969 0 .820312.164063 1.117187.460938s.464844.699219.464844 1.1171875c0 .4218745-.167969.8242185-.464844 1.1210935s-.699218.460938-1.117187.460938-.820313-.164063-1.117188-.460938-.464843-.699219-.464843-1.1210935c0-.4179685.167968-.8203125.464843-1.1171875s.699219-.460938 1.117188-.460938zm0 0" fill="#cda3ff" stroke="#cda3ff" stroke-miterlimit="10" stroke-width="1.00002" transform="matrix(1 0 0 -1 120.53145 136.44423)"/><path d="m.0007775-1.579951c.4179685 0 .8203125.164062 1.1171875.460937s.464844.699219.464844 1.11718775c0 .42187525-.167969.82421825-.464844 1.12109325s-.699219.460938-1.1171875.460938c-.4218755 0-.8242185-.164063-1.1210935-.460938-.292969-.296875-.460938-.699218-.460938-1.12109325 0-.41796875.167969-.82031275.460938-1.11718775.296875-.296875.699218-.460937 1.1210935-.460937zm0 0" fill="#cda3ff" stroke="#cda3ff" stroke-miterlimit="10" stroke-width="1.00002" transform="matrix(1 0 0 -1 121.36641 154.47083)"/><path d="m.00087125-1.581392c.41796875 0 .82031275.167968 1.11718775.464843.296875.292969.460937.695313.460937 1.11718775 0 .41796925-.164062.82031225-.460937 1.11718725s-.699219.464844-1.11718775.464844c-.42187525 0-.82421925-.167969-1.12109425-.464844-.292968-.296875-.460937-.699218-.460937-1.11718725 0-.42187475.167969-.82421875.460937-1.11718775.296875-.296875.699219-.464843 1.12109425-.464843zm0 0" fill="#cda3ff" stroke="#cda3ff" stroke-miterlimit="10" stroke-width="1.00002" transform="matrix(1 0 0 -1 123.51866 117.86392)"/><path d="m.0016375-1.580545c.4179685 0 .8203125.164062 1.1171875.460937s.460938.699219.460938 1.12109425c0 .41796875-.164063.82031275-.460938 1.11718775s-.699219.460937-1.1171875.460937c-.4218745 0-.8242185-.164062-1.1210935-.460937s-.460938-.699219-.460938-1.11718775c0-.42187525.164063-.82421925.460938-1.12109425s.699219-.460937 1.1210935-.460937zm0 0" fill="#cda3ff" stroke="#cda3ff" stroke-miterlimit="10" stroke-width="1.00002" transform="matrix(1 0 0 -1 129.86555 125.90383)"/><path d="m-.0017825-1.581492c.4218755 0 .8242185.167968 1.1210935.464843.296875.292969.460938.695313.460938 1.11718775 0 .41796925-.164063.82031225-.460938 1.11718725s-.699218.464844-1.1210935.464844c-.4179685 0-.8203125-.167969-1.1171875-.464844s-.460937-.699218-.460937-1.11718725c0-.42187475.164062-.82421875.460937-1.11718775.296875-.296875.699219-.464843 1.1171875-.464843zm0 0" fill="#cda3ff" stroke="#cda3ff" stroke-miterlimit="10" stroke-width="1.00002" transform="matrix(1 0 0 -1 139.99397 128.98882)"/><path d="m-.00022625-1.581713c.41796925 0 .82031225.167969 1.11718725.464844s.464844.695313.464844 1.11718775c0 .41796825-.167969.82031225-.464844 1.11718725s-.699218.464844-1.11718725.464844c-.41796875 0-.82031275-.167969-1.11718775-.464844s-.464843-.699219-.464843-1.11718725c0-.42187475.167968-.82031275.464843-1.11718775s.699219-.464844 1.11718775-.464844zm0 0" fill="#cda3ff" stroke="#cda3ff" stroke-miterlimit="10" stroke-width="1.00002" transform="matrix(1 0 0 -1 142.59007 102.6136)"/><path d="m.00134125-1.582804c.41796875 0 .82031275.167969 1.11718775.464844s.460937.699219.460937 1.1171875c0 .4218755-.164062.8242185-.460937 1.1210935-.296875.292969-.699219.460938-1.11718775.460938-.42187525 0-.82421925-.167969-1.12109425-.460938-.296875-.296875-.460937-.699218-.460937-1.1210935 0-.4179685.164062-.8203125.460937-1.1171875s.699219-.464844 1.12109425-.464844zm0 0" fill="#cda3ff" stroke="#cda3ff" stroke-miterlimit="10" stroke-width="1.00002" transform="matrix(1 0 0 -1 142.83069 93.00704)"/><path d="m-.00106625-1.579022c.42187525 0 .82421925.164062 1.12109425.460937s.460937.699219.460937 1.1171875c0 .4218755-.164062.8242185-.460937 1.1210935-.296875.292969-.699219.460938-1.12109425.460938-.41796875 0-.82031275-.167969-1.11718775-.460938-.296875-.296875-.460937-.699218-.460937-1.1210935 0-.4179685.164062-.8203125.460937-1.1171875s.699219-.460937 1.11718775-.460937zm0 0" fill="#cda3ff" stroke="#cda3ff" stroke-miterlimit="10" stroke-width="1.00002" transform="matrix(1 0 0 -1 169.55966 130.52254)"/><path d="m.00189375-1.581476c.41796825 0 .82031225.167968 1.11718725.464843.296875.292969.460938.695313.460938 1.117188 0 .417969-.164063.820312-.460938 1.117187s-.699219.464844-1.11718725.464844c-.42187475 0-.82421875-.167969-1.12109375-.464844s-.460938-.699218-.460938-1.117187c0-.421875.164063-.824219.460938-1.117188.296875-.296875.699219-.464843 1.12109375-.464843zm0 0" fill="#cda3ff" stroke="#cda3ff" stroke-miterlimit="10" stroke-width="1.00002" transform="matrix(1 0 0 -1 176.15045 92.07868)"/><path d="m-.001325-1.579805c.421875 0 .824219.164062 1.121094.460937s.460937.699219.460937 1.117188c0 .421875-.164062.824219-.460937 1.121094s-.699219.460937-1.121094.460937c-.417969 0-.820313-.164062-1.117188-.460937s-.460937-.699219-.460937-1.121094c0-.417969.164062-.820313.460937-1.117188s.699219-.460937 1.117188-.460937zm0 0" fill="#cda3ff" stroke="#cda3ff" stroke-miterlimit="10" stroke-width="1.00002" transform="matrix(1 0 0 -1 180.4857 118.18582)"/><path d="m.00133875-1.579158c.41796925 0 .82031225.164063 1.11718725.460938s.460938.699219.460938 1.1171875c0 .4218745-.164063.8242185-.460938 1.1210935s-.699218.460938-1.11718725.460938c-.42187475 0-.82421875-.164063-1.12109375-.460938s-.460937-.699219-.460937-1.1210935c0-.4179685.164062-.8203125.460937-1.1171875s.699219-.460938 1.12109375-.460938zm0 0" fill="#cda3ff" stroke="#cda3ff" stroke-miterlimit="10" stroke-width="1.00002" transform="matrix(1 0 0 -1 180.76038 168.03803)"/><path d="m-.0009775-1.58104c.4218745 0 .8242185.164062 1.1210935.460937s.460938.699219.460938 1.12109425c0 .41796875-.164063.82031275-.460938 1.11718775s-.699219.460937-1.1210935.460937c-.4179685 0-.8203125-.164062-1.1171875-.460937s-.460938-.699219-.460938-1.11718775c0-.42187525.164063-.82421925.460938-1.12109425s.699219-.460937 1.1171875-.460937zm0 0" fill="#cda3ff" stroke="#cda3ff" stroke-miterlimit="10" stroke-width="1.00002" transform="matrix(1 0 0 -1 181.07129 126.63771)"/><path d="m.0013-1.581356c.417969 0 .820313.167969 1.117188.464844.296875.292968.460937.695312.460937 1.117187 0 .417969-.164062.820313-.460937 1.117188s-.699219.464843-1.117188.464843c-.421875 0-.824219-.167968-1.121094-.464843s-.460937-.699219-.460937-1.117188c0-.421875.164062-.824219.460937-1.117187.296875-.296875.699219-.464844 1.121094-.464844zm0 0" fill="#cda3ff" stroke="#cda3ff" stroke-miterlimit="10" stroke-width="1.00002" transform="matrix(1 0 0 -1 184.8737 111.1413)"/><path d="m.00172875-1.581775c.41796825 0 .82031225.167969 1.11718725.464844s.460938.695312.460938 1.11718725c0 .41796875-.164063.82031275-.460938 1.11718775s-.699219.464844-1.11718725.464844c-.42187475 0-.82421875-.167969-1.12109375-.464844s-.460938-.699219-.460938-1.11718775c0-.42187525.164063-.82031225.460938-1.11718725s.699219-.464844 1.12109375-.464844zm0 0" fill="#cda3ff" stroke="#cda3ff" stroke-miterlimit="10" stroke-width="1.00002" transform="matrix(1 0 0 -1 188.66624 107.12135)"/><path d="m.00109375-1.581511c.41796825 0 .82031225.167968 1.11718725.464843.296875.292969.460938.695313.460938 1.117188 0 .417969-.164063.820312-.460938 1.117187s-.699219.464844-1.11718725.464844c-.42187475 0-.82421875-.167969-1.12109375-.464844s-.460938-.699218-.460938-1.117187c0-.421875.164063-.824219.460938-1.117188.296875-.296875.699219-.464843 1.12109375-.464843zm0 0" fill="#cda3ff" stroke="#cda3ff" stroke-miterlimit="10" stroke-width="1.00002" transform="matrix(1 0 0 -1 190.8075 127.40677)"/><path d="m-.0014975-1.581216c.4218755 0 .8242185.167968 1.1210935.460937.296875.296875.460938.699219.460938 1.121094 0 .417969-.164063.820312-.460938 1.117187s-.699218.464844-1.1210935.464844c-.4179685 0-.8203125-.167969-1.1171875-.464844s-.460937-.699218-.460937-1.117187c0-.421875.164062-.824219.460937-1.121094.296875-.292969.699219-.460937 1.1171875-.460937zm0 0" fill="#cda3ff" stroke="#cda3ff" stroke-miterlimit="10" stroke-width="1.00002" transform="matrix(1 0 0 -1 192.22806 177.98519)"/><path d="m-.00089-1.579616c.421875 0 .824219.164062 1.121094.460937.292969.296875.460937.699219.460937 1.11718775 0 .42187525-.167968.82421825-.460937 1.12109325-.296875.296875-.699219.460938-1.121094.460938-.417969 0-.820312-.164063-1.117187-.460938s-.460938-.699218-.460938-1.12109325c0-.41796875.164063-.82031275.460938-1.11718775s.699218-.460937 1.117187-.460937zm0 0" fill="#cda3ff" stroke="#cda3ff" stroke-miterlimit="10" stroke-width="1.00002" transform="matrix(1 0 0 -1 193.81339 161.20554)"/><path d="m-.0005525-1.57963c.4218745 0 .8242185.164062 1.1171875.460937.296875.296875.464844.699219.464844 1.117188 0 .421875-.167969.824219-.464844 1.121094-.292969.296875-.695313.460937-1.1171875.460937-.4179685 0-.8203125-.164062-1.1171875-.460937s-.464844-.699219-.464844-1.121094c0-.417969.167969-.820313.464844-1.117188s.699219-.460937 1.1171875-.460937zm0 0" fill="#cda3ff" stroke="#cda3ff" stroke-miterlimit="10" stroke-width="1.00002" transform="matrix(1 0 0 -1 194.96149 130.13912)"/><path d="m.0014075-1.580506c.4179685 0 .8203125.164062 1.1171875.460937s.460938.699219.460938 1.121094c0 .417969-.164063.820313-.460938 1.117188s-.699219.460937-1.1171875.460937c-.4218745 0-.8242185-.164062-1.1210935-.460937s-.460938-.699219-.460938-1.117188c0-.421875.164063-.824219.460938-1.121094s.699219-.460937 1.1210935-.460937zm0 0" fill="#cda3ff" stroke="#cda3ff" stroke-miterlimit="10" stroke-width="1.00002" transform="matrix(1 0 0 -1 196.20953 130.01715)"/><path d="m-.00158875-1.582778c.42187475 0 .82421875.167969 1.12109375.464844s.460938.699219.460938 1.11718775c0 .42187525-.164063.82421825-.460938 1.12109325-.296875.292969-.699219.460938-1.12109375.460938-.41796825 0-.82031225-.167969-1.11718725-.460938-.296875-.296875-.460938-.699218-.460938-1.12109325 0-.41796875.164063-.82031275.460938-1.11718775s.699219-.464844 1.11718725-.464844zm0 0" fill="#cda3ff" stroke="#cda3ff" stroke-miterlimit="10" stroke-width="1.00002" transform="matrix(1 0 0 -1 199.08362 114.78441)"/><path d="m-.0001625-1.582029c.4179685 0 .8203125.167969 1.1171875.464844s.464844.699219.464844 1.1171875-.167969.8203125-.464844 1.1171875-.699219.464844-1.1171875.464844-.8203125-.167969-1.1171875-.464844-.464844-.699219-.464844-1.1171875.167969-.8203125.464844-1.1171875.699219-.464844 1.1171875-.464844zm0 0" fill="#cda3ff" stroke="#cda3ff" stroke-miterlimit="10" stroke-width="1.00002" transform="matrix(1 0 0 -1 204.2736 163.67969)"/><path d="m-.000685-1.581099c.421875 0 .824219.167969 1.117188.460938.296875.296875.464843.699218.464843 1.1210935 0 .4179685-.167968.8203125-.464843 1.1171875-.292969.296875-.695313.460937-1.117188.460937-.417969 0-.820312-.164062-1.117187-.460937s-.464844-.699219-.464844-1.1171875c0-.4218755.167969-.8242185.464844-1.1210935.296875-.292969.699218-.460938 1.117187-.460938zm0 0" fill="#cda3ff" stroke="#cda3ff" stroke-miterlimit="10" stroke-width="1.00002" transform="matrix(1 0 0 -1 205.29756 131.18062)"/><path d="m.001145-1.581251c.417969 0 .820313.167968 1.117188.460937.296875.296875.460937.699219.460937 1.121094 0 .417969-.164062.820312-.460937 1.117187s-.699219.464844-1.117188.464844c-.421875 0-.824219-.167969-1.121094-.464844s-.460937-.699218-.460937-1.117187c0-.421875.164062-.824219.460937-1.121094.296875-.292969.699219-.460937 1.121094-.460937zm0 0" fill="#cda3ff" stroke="#cda3ff" stroke-miterlimit="10" stroke-width="1.00002" transform="matrix(1 0 0 -1 205.76448 128.93828)"/><path d="m.00175875-1.580245c.41796825 0 .82031225.164062 1.11718725.460937s.460938.699219.460938 1.12109425c0 .41796875-.164063.82031275-.460938 1.11718775s-.699219.460937-1.11718725.460937c-.42187475 0-.82421875-.164062-1.12109375-.460937s-.460938-.699219-.460938-1.11718775c0-.42187525.164063-.82421925.460938-1.12109425s.699219-.460937 1.12109375-.460937zm0 0" fill="#cda3ff" stroke="#cda3ff" stroke-miterlimit="10" stroke-width="1.00002" transform="matrix(1 0 0 -1 205.97871 122.43538)"/><path d="m-.00133-1.582828c.421875 0 .824219.167969 1.121094.464844s.460937.699219.460937 1.11718775c0 .42187525-.164062.82421825-.460937 1.12109325-.296875.292969-.699219.460938-1.121094.460938-.417969 0-.820312-.167969-1.117187-.460938-.296875-.296875-.460938-.699218-.460938-1.12109325 0-.41796875.164063-.82031275.460938-1.11718775s.699218-.464844 1.117187-.464844zm0 0" fill="#cda3ff" stroke="#cda3ff" stroke-miterlimit="10" stroke-width="1.00002" transform="matrix(1 0 0 -1 218.34508 119.78436)"/><path d="m.00044375-1.582301c.41796825 0 .82031225.167968 1.11718725.464843s.464844.699219.464844 1.117188c0 .421875-.167969.820312-.464844 1.117187s-.699219.464844-1.11718725.464844c-.42187475 0-.82031275-.167969-1.11718775-.464844s-.464844-.695312-.464844-1.117187c0-.417969.167969-.820313.464844-1.117188s.695313-.464843 1.11718775-.464843zm0 0" fill="#cda3ff" stroke="#cda3ff" stroke-miterlimit="10" stroke-width="1.00002" transform="matrix(1 0 0 -1 223.55815 152.15598)"/><path d="m-.00035625-1.58111c.42187525 0 .82031225.167969 1.11718725.460937.296875.296875.464844.699219.464844 1.12109425 0 .41796875-.167969.82031275-.464844 1.11718775s-.695312.460937-1.11718725.460937c-.41796875 0-.82031275-.164062-1.11718775-.460937s-.464844-.699219-.464844-1.11718775c0-.42187525.167969-.82421925.464844-1.12109425.296875-.292968.699219-.460937 1.11718775-.460937zm0 0" fill="#cda3ff" stroke="#cda3ff" stroke-miterlimit="10" stroke-width="1.00002" transform="matrix(1 0 0 -1 227.0277 158.73139)"/><path d="m-.00123375-1.580244c.42187475 0 .82421875.164063 1.12109375.460938s.460937.699218.460937 1.1210935c0 .4179685-.164062.8203125-.460937 1.1171875s-.699219.460937-1.12109375.460937c-.41796925 0-.82031225-.164062-1.11718725-.460937s-.460938-.699219-.460938-1.1171875c0-.4218755.164063-.8242185.460938-1.1210935s.699218-.460938 1.11718725-.460938zm0 0" fill="#cda3ff" stroke="#cda3ff" stroke-miterlimit="10" stroke-width="1.00002" transform="matrix(1 0 0 -1 228.66139 179.2596)"/><path d="m-.0008875-1.581247c.4218745 0 .8242185.167968 1.1210935.460937.292969.296875.460938.699219.460938 1.12109375 0 .41796925-.167969.82031225-.460938 1.11718725-.296875.296875-.699219.464844-1.1210935.464844-.4179685 0-.8203125-.167969-1.1171875-.464844s-.460938-.699218-.460938-1.11718725c0-.42187475.164063-.82421875.460938-1.12109375.296875-.292969.699219-.460937 1.1171875-.460937zm0 0" fill="#cda3ff" stroke="#cda3ff" stroke-miterlimit="10" stroke-width="1.00002" transform="matrix(1 0 0 -1 231.3212 129.53594)"/><path d="m-.00189625-1.58172c.42187525 0 .82421825.167969 1.12109325.464844s.460938.695312.460938 1.11718725c0 .41796875-.164063.82031275-.460938 1.11718775s-.699218.464843-1.12109325.464843c-.41796875 0-.82031275-.167968-1.11718775-.464843s-.460937-.699219-.460937-1.11718775c0-.42187525.164062-.82031225.460937-1.11718725s.699219-.464844 1.11718775-.464844zm0 0" fill="#cda3ff" stroke="#cda3ff" stroke-miterlimit="10" stroke-width="1.00002" transform="matrix(1 0 0 -1 232.84174 167.35578)"/><path d="m.00079375-1.581706c.41796825 0 .82031225.167968 1.11718725.464843s.464844.695313.464844 1.117188c0 .417969-.167969.820312-.464844 1.117187s-.699219.464844-1.11718725.464844c-.42187475 0-.82421875-.167969-1.12109375-.464844-.292969-.296875-.460938-.699218-.460938-1.117187 0-.421875.167969-.820313.460938-1.117188.296875-.296875.699219-.464843 1.12109375-.464843zm0 0" fill="#cda3ff" stroke="#cda3ff" stroke-miterlimit="10" stroke-width="1.00002" transform="matrix(1 0 0 -1 232.8703 168.7972)"/><path d="m-.00130875-1.579636c.42187475 0 .82421875.164062 1.12109375.460937s.460938.699219.460938 1.11718775c0 .42187525-.164063.82421825-.460938 1.12109325s-.699219.460938-1.12109375.460938c-.41796825 0-.82031225-.164063-1.11718725-.460938s-.460938-.699218-.460938-1.12109325c0-.41796875.164063-.82031275.460938-1.11718775s.699219-.460937 1.11718725-.460937zm0 0" fill="#cda3ff" stroke="#cda3ff" stroke-miterlimit="10" stroke-width="1.00002" transform="matrix(1 0 0 -1 235.27084 121.23677)"/><path d="m-.001555-1.580733c.421875 0 .824219.164063 1.121094.460938s.460937.699219.460937 1.12109375c0 .41796825-.164062.82031225-.460937 1.11718725s-.699219.460938-1.121094.460938c-.417969 0-.820312-.164063-1.117187-.460938s-.460938-.699219-.460938-1.11718725c0-.42187475.164063-.82421875.460938-1.12109375s.699218-.460938 1.117187-.460938zm0 0" fill="#cda3ff" stroke="#cda3ff" stroke-miterlimit="10" stroke-width="1.00002" transform="matrix(1 0 0 -1 236.20468 169.05208)"/><path d="m-.0002375-1.57963c.4179685 0 .8203125.164062 1.1171875.460937s.464844.699219.464844 1.117188c0 .421875-.167969.824219-.464844 1.121094s-.699219.460937-1.1171875.460937-.8203125-.164062-1.1171875-.460937-.464844-.699219-.464844-1.121094c0-.417969.167969-.820313.464844-1.117188s.699219-.460937 1.1171875-.460937zm0 0" fill="#cda3ff" stroke="#cda3ff" stroke-miterlimit="10" stroke-width="1.00002" transform="matrix(1 0 0 -1 237.4143 160.04537)"/><path d="m-.000655-1.582857c.421875 0 .824219.167968 1.117188.464843.296875.296875.464843.699219.464843 1.11718775 0 .42187525-.167968.82421925-.464843 1.12109425-.292969.292968-.695313.460937-1.117188.460937-.417969 0-.820312-.167969-1.117187-.460937-.296875-.296875-.464844-.699219-.464844-1.12109425 0-.41796875.167969-.82031275.464844-1.11718775s.699218-.464843 1.117187-.464843zm0 0" fill="#cda3ff" stroke="#cda3ff" stroke-miterlimit="10" stroke-width="1.00002" transform="matrix(1 0 0 -1 241.61003 145.75308)"/><path d="m.00004625-1.582835c.41796875 0 .82031275.167969 1.11718775.464844s.464843.699219.464843 1.11718725c0 .42187475-.167968.82421875-.464843 1.12109375-.296875.292969-.699219.460938-1.11718775.460938-.41796925 0-.82031225-.167969-1.11718725-.460938-.296875-.296875-.464844-.699219-.464844-1.12109375 0-.41796825.167969-.82031225.464844-1.11718725s.699218-.464844 1.11718725-.464844zm0 0" fill="#cda3ff" stroke="#cda3ff" stroke-miterlimit="10" stroke-width="1.00002" transform="matrix(1 0 0 -1 243.37886 214.15154)"/><path d="m-.000575-1.580175c.421875 0 .824219.164063 1.117188.460938.296875.296875.464843.699218.464843 1.12109325 0 .41796875-.167968.82031275-.464843 1.11718775-.292969.296875-.695313.460937-1.117188.460937-.417969 0-.820312-.164062-1.117187-.460937s-.464844-.699219-.464844-1.11718775c0-.42187525.167969-.82421825.464844-1.12109325s.699218-.460938 1.117187-.460938zm0 0" fill="#cda3ff" stroke="#cda3ff" stroke-miterlimit="10" stroke-width="1.00002" transform="matrix(1 0 0 -1 244.0787 193.7167)"/><path d="m-.00024125-1.579726c.41796825 0 .82031225.164062 1.11718725.460937s.464844.699219.464844 1.11718775c0 .42187525-.167969.82421925-.464844 1.12109425s-.699219.460937-1.11718725.460937c-.41796875 0-.82031275-.164062-1.11718775-.460937s-.464844-.699219-.464844-1.12109425c0-.41796875.167969-.82031275.464844-1.11718775s.699219-.460937 1.11718775-.460937zm0 0" fill="#cda3ff" stroke="#cda3ff" stroke-miterlimit="10" stroke-width="1.00002" transform="matrix(1 0 0 -1 246.66821 142.70543)"/><path d="m-.00153625-1.580478c.42187525 0 .82421825.164063 1.12109325.460938s.460938.699219.460938 1.12109375c0 .41796825-.164063.82031225-.460938 1.11718725s-.699218.460938-1.12109325.460938c-.41796875 0-.82031275-.164063-1.11718775-.460938s-.460937-.699219-.460937-1.11718725c0-.42187475.164062-.82421875.460937-1.12109375s.699219-.460938 1.11718775-.460938zm0 0" fill="#cda3ff" stroke="#cda3ff" stroke-miterlimit="10" stroke-width="1.00002" transform="matrix(1 0 0 -1 252.49763 150.88046)"/><path d="m-.00105125-1.579621c.42187525 0 .82421925.164062 1.12109425.460937s.460937.699219.460937 1.11718775c0 .42187525-.164062.82421825-.460937 1.12109325s-.699219.460938-1.12109425.460938c-.41796875 0-.82031275-.164063-1.11718775-.460938s-.460937-.699218-.460937-1.12109325c0-.41796875.164062-.82031275.460937-1.11718775s.699219-.460937 1.11718775-.460937zm0 0" fill="#cda3ff" stroke="#cda3ff" stroke-miterlimit="10" stroke-width="1.00002" transform="matrix(1 0 0 -1 252.66902 180.06491)"/><path d="m.00164875-1.581904c.41796925 0 .82031225.167969 1.11718725.464844s.460938.699219.460938 1.1171875-.164063.8203125-.460938 1.1171875-.699218.464844-1.11718725.464844c-.42187475 0-.82421875-.167969-1.12109375-.464844s-.460937-.699219-.460937-1.1171875.164062-.8203125.460937-1.1171875.699219-.464844 1.12109375-.464844zm0 0" fill="#cda3ff" stroke="#cda3ff" stroke-miterlimit="10" stroke-width="1.00002" transform="matrix(1 0 0 -1 260.79132 181.75794)"/><path d="m-.0003025-1.581831c.4218755 0 .8203125.167969 1.1171875.464844s.464844.699218.464844 1.117187-.167969.820313-.464844 1.117188-.695312.464843-1.1171875.464843c-.4179685 0-.8203125-.167968-1.1171875-.464843s-.464844-.699219-.464844-1.117188.167969-.820312.464844-1.117187.699219-.464844 1.1171875-.464844zm0 0" fill="#cda3ff" stroke="#cda3ff" stroke-miterlimit="10" stroke-width="1.00002" transform="matrix(1 0 0 -1 261.33624 179.5002)"/><path d="m.000065-1.579771c.417969 0 .820313.164062 1.117188.460937s.464843.699219.464843 1.11718775c0 .42187525-.167968.82421825-.464843 1.12109325s-.699219.460938-1.117188.460938-.820312-.164063-1.117187-.460938-.464844-.699218-.464844-1.12109325c0-.41796875.167969-.82031275.464844-1.11718775s.699218-.460937 1.117187-.460937zm0 0" fill="#cda3ff" stroke="#cda3ff" stroke-miterlimit="10" stroke-width="1.00002" transform="matrix(1 0 0 -1 261.35931 138.90851)"/><path d="m.00028625-1.579205c.41796875 0 .82031275.164062 1.11718775.460937s.464843.699219.464843 1.117188c0 .421875-.167968.824219-.464843 1.121094s-.699219.460937-1.11718775.460937c-.42187525 0-.82031225-.164062-1.11718725-.460937s-.464844-.699219-.464844-1.121094c0-.417969.167969-.820313.464844-1.117188s.695312-.460937 1.11718725-.460937zm0 0" fill="#cda3ff" stroke="#cda3ff" stroke-miterlimit="10" stroke-width="1.00002" transform="matrix(1 0 0 -1 262.53487 184.15517)"/><path d="m.0006525-1.582746c.4179685 0 .8203125.167968 1.1171875.464843s.464844.699219.464844 1.117188c0 .421875-.167969.824219-.464844 1.117187-.296875.296875-.699219.464844-1.1171875.464844-.4218745 0-.8242185-.167969-1.1171875-.464844-.296875-.292968-.464844-.695312-.464844-1.117187 0-.417969.167969-.820313.464844-1.117188.292969-.296875.695313-.464843 1.1171875-.464843zm0 0" fill="#cda3ff" stroke="#cda3ff" stroke-miterlimit="10" stroke-width="1.00002" transform="matrix(1 0 0 -1 263.50716 135.29616)"/><path d="m-.00001875-1.581408c.41796875 0 .82031275.167969 1.11718775.464844.296875.292969.464843.695313.464843 1.11718775 0 .41796825-.167968.82031225-.464843 1.11718725s-.699219.464844-1.11718775.464844c-.41796925 0-.82031225-.167969-1.11718725-.464844s-.464844-.699219-.464844-1.11718725c0-.42187475.167969-.82421875.464844-1.11718775.296875-.296875.699218-.464844 1.11718725-.464844zm0 0" fill="#cda3ff" stroke="#cda3ff" stroke-miterlimit="10" stroke-width="1.00002" transform="matrix(1 0 0 -1 267.3008 174.44203)"/><path d="m.00045375-1.581879c.41796925 0 .82031225.167969 1.11718725.464844s.464844.699219.464844 1.1171875-.167969.8203125-.464844 1.1171875-.699218.464844-1.11718725.464844c-.42187475 0-.82031275-.167969-1.11718775-.464844s-.464843-.699219-.464843-1.1171875.167968-.8203125.464843-1.1171875.695313-.464844 1.11718775-.464844zm0 0" fill="#cda3ff" stroke="#cda3ff" stroke-miterlimit="10" stroke-width="1.00002" transform="matrix(1 0 0 -1 268.80814 146.71109)"/><path d="m-.00016625-1.58165c.41796925 0 .82031225.167969 1.11718725.464844s.464844.695312.464844 1.11718725c0 .41796875-.167969.82031275-.464844 1.11718775s-.699218.464843-1.11718725.464843c-.41796875 0-.82031275-.167968-1.11718775-.464843s-.464843-.699219-.464843-1.11718775c0-.42187525.167968-.82031225.464843-1.11718725s.699219-.464844 1.11718775-.464844zm0 0" fill="#cda3ff" stroke="#cda3ff" stroke-miterlimit="10" stroke-width="1.00002" transform="matrix(1 0 0 -1 270.52751 192.8246)"/><path d="m-.00189-1.58124c.421875 0 .824219.167969 1.121094.460937.296875.296875.460937.699219.460937 1.12109425 0 .41796875-.164062.82031275-.460937 1.11718775s-.699219.464843-1.121094.464843c-.417969 0-.820313-.167968-1.117188-.464843s-.460937-.699219-.460937-1.11718775c0-.42187525.164062-.82421925.460937-1.12109425.296875-.292968.699219-.460937 1.117188-.460937zm0 0" fill="#cda3ff" stroke="#cda3ff" stroke-miterlimit="10" stroke-width="1.00002" transform="matrix(1 0 0 -1 270.87689 157.82501)"/><path d="m-.00146125-1.582414c.42187525 0 .82421925.167969 1.12109425.464844s.460937.699219.460937 1.1171875c0 .4218745-.164062.8203125-.460937 1.1171875s-.699219.464844-1.12109425.464844c-.41796875 0-.82031275-.167969-1.11718775-.464844s-.460937-.695313-.460937-1.1171875c0-.4179685.164062-.8203125.460937-1.1171875s.699219-.464844 1.11718775-.464844zm0 0" fill="#cda3ff" stroke="#cda3ff" stroke-miterlimit="10" stroke-width="1.00002" transform="matrix(1 0 0 -1 275.23193 180.94493)"/><path d="m-.0006-1.581768c.421875 0 .824219.167969 1.117187.464844.296875.296875.464844.695313.464844 1.11718775 0 .41796825-.167969.82031225-.464844 1.11718725-.292968.296875-.695312.464844-1.117187.464844-.417969 0-.820313-.167969-1.117188-.464844s-.464843-.699219-.464843-1.11718725c0-.42187475.167968-.82031275.464843-1.11718775s.699219-.464844 1.117188-.464844zm0 0" fill="#cda3ff" stroke="#cda3ff" stroke-miterlimit="10" stroke-width="1.00002" transform="matrix(1 0 0 -1 275.2506 173.12917)"/><path d="m.00081125-1.581292c.41796875 0 .82031275.167968 1.11718775.460937.296875.296875.464844.699219.464844 1.12109375 0 .41796925-.167969.82031225-.464844 1.11718725s-.699219.464844-1.11718775.464844c-.42187525 0-.82421825-.167969-1.12109325-.464844-.292969-.296875-.460938-.699218-.460938-1.11718725 0-.42187475.167969-.82421875.460938-1.12109375.296875-.292969.699218-.460937 1.12109325-.460937zm0 0" fill="#cda3ff" stroke="#cda3ff" stroke-miterlimit="10" stroke-width="1.00002" transform="matrix(1 0 0 -1 279.45622 181.89527)"/><path d="m.00073125-1.582696c.41796875 0 .82031275.167969 1.11718775.464844s.464844.699218.464844 1.117187c0 .421875-.167969.824219-.464844 1.117188-.296875.296875-.699219.464843-1.11718775.464843-.42187525 0-.82421825-.167968-1.12109325-.464843-.292969-.292969-.460938-.695313-.460938-1.117188 0-.417969.167969-.820312.460938-1.117187.296875-.296875.699218-.464844 1.12109325-.464844zm0 0" fill="#cda3ff" stroke="#cda3ff" stroke-miterlimit="10" stroke-width="1.00002" transform="matrix(1 0 0 -1 285.36255 159.07746)"/><path d="m-.0011775-1.580717c.4218755 0 .8242185.164062 1.1210935.460937s.460938.699219.460938 1.12109375c0 .41796925-.164063.82031225-.460938 1.11718725s-.699218.460938-1.1210935.460938c-.4179685 0-.8203125-.164063-1.1171875-.460938s-.460937-.699218-.460937-1.11718725c0-.42187475.164062-.82421875.460937-1.12109375s.699219-.460937 1.1171875-.460937zm0 0" fill="#cda3ff" stroke="#cda3ff" stroke-miterlimit="10" stroke-width="1.00002" transform="matrix(1 0 0 -1 291.25899 170.59897)"/><path d="m.001025-1.58256c.417969 0 .820312.167969 1.117187.464844s.460938.699218.460938 1.11718725c0 .42187475-.164063.82421875-.460938 1.11718775-.296875.296875-.699218.464843-1.117187.464843-.421875 0-.824219-.167968-1.121094-.464843-.296875-.292969-.460937-.695313-.460937-1.11718775 0-.41796925.164062-.82031225.460937-1.11718725s.699219-.464844 1.121094-.464844zm0 0" fill="#cda3ff" stroke="#cda3ff" stroke-miterlimit="10" stroke-width="1.00002" transform="matrix(1 0 0 -1 292.17085 225.32369)"/><path d="m-.000995-1.58272c.421875 0 .824219.167969 1.121094.464844s.460937.699218.460937 1.11718725c0 .42187475-.164062.82421875-.460937 1.11718775-.296875.296875-.699219.464843-1.121094.464843-.417969 0-.820312-.167968-1.117187-.464843-.296875-.292969-.460938-.695313-.460938-1.11718775 0-.41796925.164063-.82031225.460938-1.11718725s.699218-.464844 1.117187-.464844zm0 0" fill="#cda3ff" stroke="#cda3ff" stroke-miterlimit="10" stroke-width="1.00002" transform="matrix(1 0 0 -1 295.98537 185.85478)"/><path d="m-.00070375-1.582701c.42187475 0 .82421875.167968 1.11718775.464843.296875.296875.464843.699219.464843 1.117188 0 .421875-.167968.824219-.464843 1.117187-.292969.296875-.695313.464844-1.11718775.464844-.41796925 0-.82031225-.167969-1.11718725-.464844-.296875-.292968-.464844-.695312-.464844-1.117187 0-.417969.167969-.820313.464844-1.117188s.699218-.464843 1.11718725-.464843zm0 0" fill="#cda3ff" stroke="#cda3ff" stroke-miterlimit="10" stroke-width="1.00002" transform="matrix(1 0 0 -1 301.87961 204.74933)"/><path d="m.00056875-1.581645c.41796925 0 .82031225.167969 1.11718725.464844s.464844.695312.464844 1.11718725c0 .41796875-.167969.82031275-.464844 1.11718775s-.699218.464843-1.11718725.464843c-.42187475 0-.82421875-.167968-1.11718775-.464843-.296875-.296875-.464843-.699219-.464843-1.11718775 0-.42187525.167968-.82031225.464843-1.11718725.292969-.296875.695313-.464844 1.11718775-.464844zm0 0" fill="#cda3ff" stroke="#cda3ff" stroke-miterlimit="10" stroke-width="1.00002" transform="matrix(1 0 0 -1 308.01115 192.68398)"/><path d="m-.00127-1.581359c.421875 0 .824219.167969 1.121094.464844.296875.292969.460937.695313.460937 1.1171875 0 .4179685-.164062.8203125-.460937 1.1171875s-.699219.464844-1.121094.464844c-.417969 0-.820312-.167969-1.117187-.464844s-.460938-.699219-.460938-1.1171875c0-.4218745.164063-.8242185.460938-1.1171875.296875-.296875.699218-.464844 1.117187-.464844zm0 0" fill="#cda3ff" stroke="#cda3ff" stroke-miterlimit="10" stroke-width="1.00002" transform="matrix(1 0 0 -1 308.28252 168.49286)"/><path d="m-.001555-1.579879c.421875 0 .824219.164063 1.121094.460938s.460937.699218.460937 1.11718725c0 .42187475-.164062.82421875-.460937 1.12109375s-.699219.460937-1.121094.460937c-.417969 0-.820312-.164062-1.117187-.460937s-.460938-.699219-.460938-1.12109375c0-.41796925.164063-.82031225.460938-1.11718725s.699218-.460938 1.117187-.460938zm0 0" fill="#cda3ff" stroke="#cda3ff" stroke-miterlimit="10" stroke-width="1.00002" transform="matrix(1 0 0 -1 320.01718 187.96309)"/><path d="m.001495-1.582308c.417969 0 .820313.167969 1.117188.464844s.460937.699219.460937 1.11718775c0 .42187525-.164062.82031225-.460937 1.11718725s-.699219.464844-1.117188.464844c-.421875 0-.824219-.167969-1.121094-.464844s-.460937-.695312-.460937-1.11718725c0-.41796875.164062-.82031275.460937-1.11718775s.699219-.464844 1.121094-.464844zm0 0" fill="#cda3ff" stroke="#cda3ff" stroke-miterlimit="10" stroke-width="1.00002" transform="matrix(1 0 0 -1 320.13913 169.50363)"/><path d="m-.0007525-1.580171c.4218745 0 .8242185.164062 1.1210935.460937.292969.296875.460938.699219.460938 1.121094 0 .417969-.167969.820312-.460938 1.117187-.296875.296875-.699219.460938-1.1210935.460938-.4179685 0-.8203125-.164063-1.1171875-.460938s-.464844-.699218-.464844-1.117187c0-.421875.167969-.824219.464844-1.121094s.699219-.460937 1.1171875-.460937zm0 0" fill="#cda3ff" stroke="#cda3ff" stroke-miterlimit="10" stroke-width="1.00002" transform="matrix(1 0 0 -1 324.14919 164.97061)"/><path d="m-.00138375-1.582564c.42187475 0 .82421875.167969 1.12109375.464844s.460938.699219.460938 1.1171875c0 .4218745-.164063.8242185-.460938 1.1171875-.296875.296875-.699219.464844-1.12109375.464844-.41796825 0-.82031225-.167969-1.11718725-.464844-.296875-.292969-.460938-.695313-.460938-1.1171875 0-.4179685.164063-.8203125.460938-1.1171875s.699219-.464844 1.11718725-.464844zm0 0" fill="#cda3ff" stroke="#cda3ff" stroke-miterlimit="10" stroke-width="1.00002" transform="matrix(1 0 0 -1 326.53654 169.13228)"/><path d="m-.0010075-1.582171c.4218745 0 .8242185.167969 1.1210935.464844s.460938.699218.460938 1.117187-.164063.820313-.460938 1.117188-.699219.464843-1.1210935.464843c-.4179685 0-.8203125-.167968-1.1171875-.464843s-.460938-.699219-.460938-1.117188.164063-.820312.460938-1.117187.699219-.464844 1.1171875-.464844zm0 0" fill="#cda3ff" stroke="#cda3ff" stroke-miterlimit="10" stroke-width="1.00002" transform="matrix(1 0 0 -1 334.75882 170.93736)"/><path d="m.000365-1.580944c.417969 0 .820313.164063 1.117188.460938s.464843.699219.464843 1.1210935c0 .4179685-.167968.8203125-.464843 1.1171875s-.699219.460938-1.117188.460938c-.421875 0-.820312-.164063-1.117187-.460938s-.464844-.699219-.464844-1.1171875c0-.4218745.167969-.8242185.464844-1.1210935s.695312-.460938 1.117187-.460938zm0 0" fill="#cda3ff" stroke="#cda3ff" stroke-miterlimit="10" stroke-width="1.00002" transform="matrix(1 0 0 -1 341.67151 152.0714)"/><path d="m.0017875-1.579614c.4179685 0 .8203125.164063 1.1171875.460938s.460938.699219.460938 1.11718725c0 .42187475-.164063.82421875-.460938 1.12109375s-.699219.460938-1.1171875.460938c-.4218745 0-.8242185-.164063-1.1210935-.460938s-.460938-.699219-.460938-1.12109375c0-.41796825.164063-.82031225.460938-1.11718725s.699219-.460938 1.1210935-.460938zm0 0" fill="#cda3ff" stroke="#cda3ff" stroke-miterlimit="10" stroke-width="1.00002" transform="matrix(1 0 0 -1 346.33415 151.07273)"/><path d="m.00065375-1.58148c.41796925 0 .82031225.167969 1.11718725.464844.296875.292969.464844.695312.464844 1.11718725 0 .41796875-.167969.82031275-.464844 1.11718775s-.699218.464844-1.11718725.464844c-.42187475 0-.82421875-.167969-1.11718775-.464844-.296875-.296875-.464843-.699219-.464843-1.11718775 0-.42187525.167968-.82421825.464843-1.11718725.292969-.296875.695313-.464844 1.11718775-.464844zm0 0" fill="#cda3ff" stroke="#cda3ff" stroke-miterlimit="10" stroke-width="1.00002" transform="matrix(1 0 0 -1 346.93294 157.98102)"/><path d="m.0004775-1.581104c.4179685 0 .8203125.167969 1.1171875.460938.296875.296875.464844.699218.464844 1.1210935 0 .4179685-.167969.8203125-.464844 1.1171875s-.699219.460937-1.1171875.460937c-.4218755 0-.8203125-.164062-1.1171875-.460937s-.464844-.699219-.464844-1.1171875c0-.4218755.167969-.8242185.464844-1.1210935.296875-.292969.695312-.460938 1.1171875-.460938zm0 0" fill="#cda3ff" stroke="#cda3ff" stroke-miterlimit="10" stroke-width="1.00002" transform="matrix(1 0 0 -1 352.30421 149.75874)"/><path d="m.00181125-1.582407c.41796875 0 .82031275.167968 1.11718775.464843s.460937.699219.460937 1.11718775c0 .42187525-.164062.82031225-.460937 1.11718725s-.699219.464844-1.11718775.464844c-.42187525 0-.82421825-.167969-1.12109325-.464844s-.460938-.695312-.460938-1.11718725c0-.41796875.164063-.82031275.460938-1.11718775s.699218-.464843 1.12109325-.464843zm0 0" fill="#cda3ff" stroke="#cda3ff" stroke-miterlimit="10" stroke-width="1.00002" transform="matrix(1 0 0 -1 352.98647 143.19103)"/><path d="m-.0002775-1.580012c.4218755 0 .8203125.164062 1.1171875.460937s.464844.699219.464844 1.1171875c0 .4218755-.167969.8242185-.464844 1.1210935s-.695312.460938-1.1171875.460938c-.4179685 0-.8203125-.164063-1.1171875-.460938s-.464844-.699218-.464844-1.1210935c0-.4179685.167969-.8203125.464844-1.1171875s.699219-.460937 1.1171875-.460937zm0 0" fill="#cda3ff" stroke="#cda3ff" stroke-miterlimit="10" stroke-width="1.00002" transform="matrix(1 0 0 -1 353.94559 120.52155)"/><path d="m.00143-1.579861c.417969 0 .820313.164062 1.117188.460937s.460937.699219.460937 1.11718775c0 .42187525-.164062.82421925-.460937 1.12109425s-.699219.460937-1.117188.460937c-.421875 0-.824219-.164062-1.121094-.460937s-.460937-.699219-.460937-1.12109425c0-.41796875.164062-.82031275.460937-1.11718775s.699219-.460937 1.121094-.460937zm0 0" fill="#cda3ff" stroke="#cda3ff" stroke-miterlimit="10" stroke-width="1.00002" transform="matrix(1 0 0 -1 354.12357 123.22092)"/><path d="m.00142-1.581714c.417969 0 .820312.167969 1.117187.464844s.460938.695312.460938 1.1171875c0 .4179685-.164063.8203125-.460938 1.1171875s-.699218.464844-1.117187.464844c-.421875 0-.824219-.167969-1.121094-.464844s-.460937-.699219-.460937-1.1171875c0-.4218755.164062-.8203125.460937-1.1171875s.699219-.464844 1.121094-.464844zm0 0" fill="#cda3ff" stroke="#cda3ff" stroke-miterlimit="10" stroke-width="1.00002" transform="matrix(1 0 0 -1 363.90483 188.57063)"/><path d="m.00104875-1.581319c.41796925 0 .82031225.167969 1.11718725.464844.296875.292969.460938.695312.460938 1.1171875 0 .4179685-.164063.8203125-.460938 1.1171875s-.699218.464844-1.11718725.464844c-.42187475 0-.82421875-.167969-1.12109375-.464844s-.460937-.699219-.460937-1.1171875c0-.4218755.164062-.8242185.460937-1.1171875.296875-.296875.699219-.464844 1.12109375-.464844zm0 0" fill="#cda3ff" stroke="#cda3ff" stroke-miterlimit="10" stroke-width="1.00002" transform="matrix(1 0 0 -1 364.19817 151.7429)"/><path d="m-.000705-1.581907c.421875 0 .824219.167968 1.117187.464843.296875.296875.464844.699219.464844 1.11718775 0 .41796925-.167969.82031225-.464844 1.11718725-.292968.296875-.695312.464844-1.117187.464844-.417969 0-.820313-.167969-1.117188-.464844s-.464843-.699218-.464843-1.11718725c0-.41796875.167968-.82031275.464843-1.11718775s.699219-.464843 1.117188-.464843zm0 0" fill="#cda3ff" stroke="#cda3ff" stroke-miterlimit="10" stroke-width="1.00002" transform="matrix(1 0 0 -1 367.36008 144.00403)"/><path d="m-.00099625-1.58064c.42187525 0 .82421825.164062 1.12109325.460937s.460938.699219.460938 1.12109425c0 .41796875-.164063.82031275-.460938 1.11718775s-.699218.460937-1.12109325.460937c-.41796875 0-.82031275-.164062-1.11718775-.460937s-.460937-.699219-.460937-1.11718775c0-.42187525.164062-.82421925.460937-1.12109425s.699219-.460937 1.11718775-.460937zm0 0" fill="#cda3ff" stroke="#cda3ff" stroke-miterlimit="10" stroke-width="1.00002" transform="matrix(1 0 0 -1 372.09084 157.57561)"/><path d="m-.00115625-1.579404c.42187525 0 .82421925.164063 1.12109425.460938s.460937.699218.460937 1.11718725c0 .42187475-.164062.82421875-.460937 1.12109375s-.699219.460937-1.12109425.460937c-.41796875 0-.82031275-.164062-1.11718775-.460937s-.460937-.699219-.460937-1.12109375c0-.41796925.164062-.82031225.460937-1.11718725s.699219-.460938 1.11718775-.460938zm0 0" fill="#cda3ff" stroke="#cda3ff" stroke-miterlimit="10" stroke-width="1.00002" transform="matrix(1 0 0 -1 374.966 119.60419)"/><path d="m.0018475-1.58223c.4179685 0 .8203125.167969 1.1171875.464844s.460937.699218.460937 1.11718725c0 .41796875-.164062.82031275-.460937 1.11718775s-.699219.464843-1.1171875.464843c-.4218755 0-.8242185-.167968-1.1210935-.464843s-.460938-.699219-.460938-1.11718775c0-.41796925.164063-.82031225.460938-1.11718725s.699218-.464844 1.1210935-.464844zm0 0" fill="#cda3ff" stroke="#cda3ff" stroke-miterlimit="10" stroke-width="1.00002" transform="matrix(1 0 0 -1 378.70909 90.82402)"/><path d="m-.001615-1.58142c.421875 0 .824219.167969 1.121094.464844.296875.292969.460937.695312.460937 1.11718725 0 .41796875-.164062.82031275-.460937 1.11718775s-.699219.464844-1.121094.464844c-.417969 0-.820313-.167969-1.117188-.464844s-.460937-.699219-.460937-1.11718775c0-.42187525.164062-.82421825.460937-1.11718725.296875-.296875.699219-.464844 1.117188-.464844zm0 0" fill="#cda3ff" stroke="#cda3ff" stroke-miterlimit="10" stroke-width="1.00002" transform="matrix(1 0 0 -1 382.64224 105.76233)"/><path d="m-.0009175-1.582109c.4218745 0 .8242185.167969 1.1210935.464844.292969.296875.460938.699219.460938 1.1171875s-.167969.8203125-.460938 1.1171875c-.296875.296875-.699219.464844-1.1210935.464844-.4179685 0-.8203125-.167969-1.1171875-.464844s-.460938-.699219-.460938-1.1171875.164063-.8203125.460938-1.1171875.699219-.464844 1.1171875-.464844zm0 0" fill="#cda3ff" stroke="#cda3ff" stroke-miterlimit="10" stroke-width="1.00002" transform="matrix(1 0 0 -1 385.28998 24.77336)"/><path d="m.00171375-1.582625c.41796825 0 .82031225.167969 1.11718725.464844s.460938.699219.460938 1.11718725c0 .42187475-.164063.82421875-.460938 1.11718775-.296875.296875-.699219.464844-1.11718725.464844-.42187475 0-.82421875-.167969-1.12109375-.464844-.296875-.292969-.460938-.695313-.460938-1.11718775 0-.41796825.164063-.82031225.460938-1.11718725s.699219-.464844 1.12109375-.464844zm0 0" fill="#cda3ff" stroke="#cda3ff" stroke-miterlimit="10" stroke-width="1.00002" transform="matrix(1 0 0 -1 388.86938 60.02675)"/><path d="m.0008425-1.581216c.4179685 0 .8203125.167968 1.1171875.460937.296875.296875.464844.699219.464844 1.121094 0 .417969-.167969.820312-.464844 1.117187s-.699219.464844-1.1171875.464844c-.4218755 0-.8242185-.167969-1.1210935-.464844-.292969-.296875-.460938-.699218-.460938-1.117187 0-.421875.167969-.824219.460938-1.121094.296875-.292969.699218-.460937 1.1210935-.460937zm0 0" fill="#cda3ff" stroke="#cda3ff" stroke-miterlimit="10" stroke-width="1.00002" transform="matrix(1 0 0 -1 390.81947 64.82894)"/><path d="m.00094375-1.580476c.41796825 0 .82031225.164062 1.11718725.460937s.460938.699219.460938 1.121094c0 .417969-.164063.820312-.460938 1.117187s-.699219.460938-1.11718725.460938c-.42187475 0-.82421875-.164063-1.12109375-.460938-.292969-.296875-.460938-.699218-.460938-1.117187 0-.421875.167969-.824219.460938-1.121094.296875-.296875.699219-.460937 1.12109375-.460937zm0 0" fill="#cda3ff" stroke="#cda3ff" stroke-miterlimit="10" stroke-width="1.00002" transform="matrix(1 0 0 -1 392.05765 65.48593)"/><path d="m.000305-1.580717c.417969 0 .820313.164062 1.117188.460937s.464843.699219.464843 1.12109375c0 .41796925-.167968.82031225-.464843 1.11718725s-.699219.460938-1.117188.460938c-.421875 0-.820312-.164063-1.117187-.460938s-.464844-.699218-.464844-1.11718725c0-.42187475.167969-.82421875.464844-1.12109375s.695312-.460937 1.117187-.460937zm0 0" fill="#cda3ff" stroke="#cda3ff" stroke-miterlimit="10" stroke-width="1.00002" transform="matrix(1 0 0 -1 394.51532 75.03647)"/><path d="m55.355469 68.11075 1.984375.3125 1.25.863281 1.453125.808594.640625.402344 1.082031 1.617187 1.207031 1.519531 3.265625 3.65625 1.632813 1.496094 2.171875 1.753906 2.167969 1.769532.636718 1.144531 1.636719 3.410156 2.691406 5.164063 1.464844 2.621093.621094.835938.394531.5 1.789062 2.152344 2.871094 3.171875 4.324219 4.828125 1.363281 1.757812 1.53125 2.238281 4.6875 8.546875.828125 1.339844 1.34375 1.898438 2.96875 2.765625 1.066407.933593.773437.710938 1.582031 1.714844.574219.472656 1.972656.988281 2.65625 1.316406 3.371094 2.046875 1.265625.621094 4.800781 2.234375 1.664063 1.015625 1.105468.632813.234376.3125 4.730468 6.863281.355469.425781 1.835937 2.183594 1.945313 2.355469 1.261719 1.429687 1.222656 1.71875.503906.910156 1.089844 2.25 1.664062 3.917969 1.003907 2.460938 1.238281 2.277343 1.082031 1.613282 1.625 2.511718 1.789063.839844.882812.375 1.976563.816406 1.53125.789063.976562.484375 1.535157-.234375 5.097656-3.3125 2.722656.210937h1.542969l.15625-.121093.539062-2.066407.863281-3.558593.976563-3.351563.773437-2.199219.207032-.242187.796875-.507813 2.035156-.234375 1.820313-.074218 1.570312.449218 1.148438.191407.742187.058593 1.105469-.863281.65625-.546875 1.125-1.195312 1.121094-1.015625 1.195312-.910157 1.394531-.859375.707031-.304687 2.089844-.660156 3.203125-.988282 1.558594-.730468 2.761719-.941407 8.652344-2.695312 1.136718.011719 3.742188.160156 1.257812-.125 2.644532-.519531.734374-.085938 1.460938-.457031 1.347656-.910156 1.746094-.640625.671875-.105469.359375-.101563.703125-.722656 6.683594-8.855469 2.121093-1.65625 1.09375-.898437.886719-1.359375 2.316407-3.917969.523437-.5625 1.554687-.992187 2.0625-1.113282 6.082032-3.152343 3.046875-1.507813 1.289062-.394531 3.128907-1.175781 1.242187-.265625 2.265625-.527344 1.183594-.277344 1.273437-.234375.472657-.203125 1.859374-.761719 2.585938-.5 1.355469-.441406 6.578125.03125 1.605468.214844.914063-.214844 2.636719-.707031 3.828125-.527344 2.613281-1.570312 1.773438-1.097657 2.777343-2.070312 1.660157-1.4375.964843-1.015625 1.058594-1.40625 1.308594-1.667969.578125-.664062 1.972656-1.863282 1.273438-1.40625.625-.675781 1.53125-1.464844 1.652343-1.097656.28125-.121094 2.6875-1.128906 1.949219-.816406 2.910156-.675781.550782-.066407 1.105468.128907 2.441406.226562.429688.105469 2.015625.765625.265625.175781 2.046875 2.109375 3.96875 4.046875.878906.980469 1.804688 1.117187 2.675781 1.808594 3.339844 2.074219.542968.464844 1.394532 1.390625 3.265625 1.984375.878906.949218 1.941406 2.136719 2.070313 1.394531 1.246094.886719.601562.632813.832031 1.105468 1.175781 2.671875 1.378907 2.722657 1.796875 3.183593 2.894531 4.757813 2.597656 2.382812 1.605469.550782 3.023438.441406 3.199218.132812 1.085938-.007812 2.15625.023437 1.207031.316407 2.582031.242187 2.648438 1.65625 1.328125.871094 1.714843 1.578125.816407.808594 2.832031 6.101562.878906 1.71875 2.234375 6.074219 1.175781 4.132812 1.734376 6.5 1 3.488282 1.152343 3.726562 1.808594 5.324219 5.292969 15.273437 1.382812 4.671875.5 1.523438.292969.523437 1.644531 2.960938 1.757813 3.199219 1.476562 2.113281 1.273438 2.101562 1.164062 2.242188.464844.804687 1.3125 1.242188 1.160156 1.324219.402344.378906 1.617187.703125 1.316407.742187.898437.488282.667969.113281" fill="none" stroke="#f55" stroke-linecap="square" stroke-miterlimit="10" stroke-width="1.50002" transform="matrix(1 0 0 -1 0 280.267)"/></g></svg>