<svg height="280.267" viewBox="0 0 424.586 280.267" width="424.586" xmlns="http://www.w3.org/2000/svg" xmlns:xlink="http://www.w3.org/1999/xlink"><defs><g id="a"><path d="m3.0625.09375c1.515625 0 2.421875-1.375 2.421875-3.71875s-.90625-3.71875-2.421875-3.71875-2.421875 1.375-2.421875 3.71875.890625 3.71875 2.421875 3.71875zm0-.59375c-1.125 0-1.78125-1.140625-1.78125-3.125s.671875-3.140625 1.78125-3.140625 1.78125 1.15625 1.78125 3.140625-.671875 3.125-1.78125 3.125zm0 0"/></g><g id="b"><path d="m1.328125.046875c.296875 0 .515625-.21875.515625-.5s-.21875-.515625-.515625-.515625c-.265625 0-.5.234375-.5.515625s.234375.5.5.5zm0 0"/></g><g id="c"><path d="m.8125 0h4.5v-.59375h-3.578125v-.046875l1.796875-2c1.203125-1.34375 1.5625-1.9375 1.5625-2.75 0-1.09375-.875-1.953125-2.09375-1.953125s-2.125.859375-2.125 2.0625h.625c0-.859375.59375-1.484375 1.484375-1.484375.84375 0 1.484375.546875 1.484375 1.375 0 .6875-.375 1.203125-1.296875 2.25l-2.359375 2.65625zm0 0"/></g><g id="d"><path d="m.640625-1.5625h3.375v1.5625h.625v-1.5625h.96875v-.59375h-.96875v-5.09375h-.78125l-3.21875 5.15625zm3.375-.59375h-2.640625v-.046875l2.59375-4.140625h.046875zm0 0"/></g><g id="e"><path d="m3.046875-7.25h-.6875l-1.71875 1.140625v.6875l1.703125-1.140625h.03125v6.5625h.671875zm0 0"/></g><g id="f"><path d="m2.921875.09375c1.34375 0 2.3125-1.015625 2.3125-2.390625.015625-1.390625-.984375-2.390625-2.25-2.390625-.53125 0-1 .1875-1.328125.453125h-.03125l.296875-2.421875h3.015625v-.59375h-3.578125l-.4375 3.515625.671875.09375c.296875-.265625.796875-.4375 1.296875-.4375.953125 0 1.703125.734375 1.703125 1.796875 0 1.03125-.6875 1.78125-1.671875 1.78125-.828125 0-1.453125-.546875-1.484375-1.3125h-.640625c.03125 1.109375.921875 1.90625 2.125 1.90625zm0 0"/></g><g id="g"><path d="m3.15625.09375c1.359375 0 2.359375-.875 2.359375-2.03125 0-.921875-.5625-1.59375-1.5-1.78125v-.046875c.765625-.234375 1.25-.84375 1.25-1.671875 0-1.03125-.8125-1.90625-2.09375-1.90625-1.203125 0-2.1875.765625-2.203125 1.90625h.640625c.015625-.8125.71875-1.328125 1.5625-1.328125.875 0 1.453125.5625 1.453125 1.359375 0 .84375-.6875 1.390625-1.625 1.390625h-.421875v.59375h.421875c1.15625 0 1.859375.59375 1.859375 1.484375 0 .828125-.703125 1.4375-1.703125 1.4375-.921875 0-1.640625-.515625-1.6875-1.3125h-.671875c.046875 1.125 1.015625 1.90625 2.359375 1.90625zm0 0"/></g><g id="h"><path d="m3.90625.15625c1.375 0 2.03125-.875 2.34375-1.5625h.09375v1.40625h.859375v-10.140625h-.875v3.984375h-.078125c-.3125-.6875-.9375-1.5625-2.328125-1.5625-1.875 0-3.15625 1.59375-3.15625 3.9375 0 2.359375 1.265625 3.9375 3.140625 3.9375zm.109375-.8125c-1.515625 0-2.359375-1.375-2.359375-3.140625 0-1.75.828125-3.109375 2.359375-3.109375 1.484375 0 2.328125 1.28125 2.328125 3.109375s-.859375 3.140625-2.328125 3.140625zm0 0"/></g><g id="i"><path d="m0-1.34375v-5.984375h-.828125v5.046875h-3.828125v-4.640625h-.84375v4.640625h-3.8125v-4.953125h-.828125v5.890625zm0 0"/></g><g id="j"><path d="m0-1.171875v-.890625h-7.609375v.890625zm-8.921875-.453125c0-.359375-.28125-.671875-.625-.671875-.359375 0-.640625.3125-.640625.671875s.28125.65625.640625.65625c.34375 0 .625-.296875.625-.65625zm0 0"/></g></defs><path d="m-.00118125.00048625v-3.50000025" fill="none" stroke="#fff" stroke-linejoin="round" stroke-miterlimit="10" stroke-width=".8" transform="matrix(1 0 0 -1 82.0129 238.84033)"/><use fill="#fff" x="71.808" xlink:href="#a" y="253.137"/><use fill="#fff" x="77.622173" xlink:href="#b" y="253.137"/><g fill="#fff"><use x="79.994268" xlink:href="#a" y="253.137"/><use x="86.10732" xlink:href="#a" y="253.137"/></g><path d="m.0003375.00048625v-3.50000025" fill="none" stroke="#fff" stroke-linejoin="round" stroke-miterlimit="10" stroke-width=".8" transform="matrix(1 0 0 -1 145.8981 238.84033)"/><use fill="#fff" x="135.708" xlink:href="#a" y="253.137"/><use fill="#fff" x="141.522173" xlink:href="#b" y="253.137"/><g fill="#fff"><use x="143.894268" xlink:href="#a" y="253.137"/><use x="150.00732" xlink:href="#c" y="253.137"/></g><path d="m-.00098.00048625v-3.50000025" fill="none" stroke="#fff" stroke-linejoin="round" stroke-miterlimit="10" stroke-width=".8" transform="matrix(1 0 0 -1 209.78223 238.84033)"/><use fill="#fff" x="199.512" xlink:href="#a" y="253.137"/><use fill="#fff" x="205.326173" xlink:href="#b" y="253.137"/><g fill="#fff"><use x="207.698268" xlink:href="#a" y="253.137"/><use x="213.81132" xlink:href="#d" y="253.137"/></g><path d="m.00051875.00048625v-3.50000025" fill="none" stroke="#fff" stroke-linejoin="round" stroke-miterlimit="10" stroke-width=".8" transform="matrix(1 0 0 -1 273.66745 238.84033)"/><use fill="#fff" x="263.479" xlink:href="#a" y="253.137"/><use fill="#fff" x="269.293173" xlink:href="#b" y="253.137"/><g fill="#fff"><use x="271.665268" xlink:href="#a" y="253.137"/><path d="m3.09375.09375c1.375.015625 2.296875-1.078125 2.296875-2.375 0-1.359375-1.015625-2.359375-2.21875-2.359375-.78125 0-1.46875.421875-1.8125 1.0625h-.046875c.015625-2.03125.6875-3.171875 1.875-3.171875.828125 0 1.328125.546875 1.46875 1.3125h.65625c-.140625-1.125-.953125-1.90625-2.125-1.90625-1.671875 0-2.5 1.65625-2.5 4.015625 0 2.546875 1.203125 3.421875 2.40625 3.421875zm0-.59375c-.90625 0-1.578125-.734375-1.65625-1.734375-.0625-.953125.6875-1.8125 1.65625-1.8125.9375 0 1.65625.78125 1.65625 1.765625s-.71875 1.78125-1.65625 1.78125zm0 0" transform="translate(277.77832 253.137)"/></g><path d="m-.00188875.00048625v-3.50000025" fill="none" stroke="#fff" stroke-linejoin="round" stroke-miterlimit="10" stroke-width=".8" transform="matrix(1 0 0 -1 337.55267 238.84033)"/><use fill="#fff" x="327.353" xlink:href="#a" y="253.137"/><use fill="#fff" x="333.167173" xlink:href="#b" y="253.137"/><g fill="#fff"><use x="335.539268" xlink:href="#a" y="253.137"/><path d="m3.046875.09375c1.375 0 2.390625-.84375 2.390625-2 0-.90625-.625-1.6875-1.4375-1.84375v-.046875c.703125-.203125 1.171875-.875 1.1875-1.65625-.015625-1.078125-.9375-1.890625-2.140625-1.890625-1.21875 0-2.140625.8125-2.125 1.890625-.015625.78125.46875 1.453125 1.171875 1.65625v.046875c-.828125.15625-1.4375.9375-1.4375 1.84375 0 1.15625 1 2 2.390625 2zm0-.59375c-1.03125 0-1.75-.59375-1.734375-1.4375-.015625-.875.734375-1.515625 1.734375-1.515625s1.734375.640625 1.75 1.515625c-.015625.84375-.71875 1.4375-1.75 1.4375zm0-3.53125c-.859375 0-1.5-.578125-1.484375-1.375-.015625-.796875.625-1.359375 1.484375-1.359375s1.484375.5625 1.5 1.359375c-.015625.796875-.65625 1.375-1.5 1.375zm0 0" transform="translate(341.65232 253.137)"/></g><path d="m.0007.00048625v-3.50000025" fill="none" stroke="#fff" stroke-linejoin="round" stroke-miterlimit="10" stroke-width=".8" transform="matrix(1 0 0 -1 401.4368 238.84033)"/><g fill="#fff"><use x="392.333" xlink:href="#a" y="253.137"/><use x="398.147173" xlink:href="#b" y="253.137"/><g><use x="399.981288" xlink:href="#e" y="253.137"/><use x="404.421619" xlink:href="#a" y="253.137"/></g><g><path d="m1.34375 0h3.609375c2.1875 0 3.1875-1.125 3.1875-2.65625 0-1.546875-1.015625-2.46875-2-2.546875v-.078125c.90625-.234375 1.609375-.9375 1.609375-2.203125 0-1.53125-1-2.65625-2.984375-2.65625h-3.421875zm.9375-.828125v-3.90625h2.71875c1.359375 0 2.265625.90625 2.265625 2.078125 0 1.046875-.734375 1.828125-2.3125 1.828125zm0-4.734375v-3.75h2.484375c1.390625 0 2.09375.75 2.09375 1.828125 0 1.109375-.796875 1.921875-2 1.921875zm0 0" transform="translate(201.007 269.734)"/><path d="m3.296875.171875c1.265625 0 2.03125-.703125 2.359375-1.375h.046875v1.203125h.875v-5.171875c0-2.03125-1.53125-2.546875-2.6875-2.546875-1.171875 0-2.375.46875-2.890625 1.703125l.84375.3125c.28125-.65625.96875-1.21875 2.0625-1.21875 1.15625 0 1.796875.640625 1.796875 1.671875v.1875c0 .5625-.71875.578125-1.984375.734375-1.734375.21875-2.9375.703125-2.9375 2.203125 0 1.46875 1.125 2.296875 2.515625 2.296875zm.109375-.8125c-1 0-1.734375-.53125-1.734375-1.453125 0-.90625.75-1.296875 2.046875-1.453125.609375-.078125 1.734375-.21875 1.984375-.46875v1.09375c0 1.25-.890625 2.28125-2.296875 2.28125zm0 0" transform="translate(210.036741 269.734)"/><path d="m2.046875-4.75c0-1.328125.875-2.15625 2.078125-2.15625 1.15625 0 1.921875.78125 1.921875 2.03125v4.875h.875v-4.9375c0-1.796875-1.046875-2.765625-2.578125-2.765625-1.125 0-1.890625.515625-2.25 1.28125h-.078125v-1.1875h-.84375v7.609375h.875zm0 0" transform="translate(217.798636 269.734)"/><use x="225.881328" xlink:href="#h" y="269.734"/><path d="m2.859375 0h.90625l1.796875-6.234375h.09375l1.8125 6.234375h.90625l2.296875-7.609375h-.921875l-1.8125 6.265625h-.0625l-1.78125-6.265625h-.9375l-1.796875 6.28125h-.0625l-1.8125-6.28125h-.921875zm0 0" transform="translate(234.435453 269.734)"/><path d="m1.171875 0h.890625v-7.609375h-.890625zm.453125-8.921875c.359375 0 .671875-.28125.671875-.625 0-.359375-.3125-.640625-.671875-.640625s-.65625.28125-.65625.640625c0 .34375.296875.625.65625.625zm0 0" transform="translate(245.663351 269.734)"/><use x="248.897823" xlink:href="#h" y="269.734"/><path d="m4.15625-7.609375h-1.609375v-1.828125h-.875v1.828125h-1.140625v.765625h1.140625v5.0625c0 1.25.96875 1.890625 1.953125 1.890625.359375 0 .609375-.0625.78125-.125l-.1875-.796875c-.125.03125-.28125.0625-.515625.0625-.59375 0-1.15625-.28125-1.15625-1.234375v-4.859375h1.609375zm0 0" transform="translate(257.451947 269.734)"/></g><path d="m2.046875-4.75c0-1.328125.890625-2.15625 2.109375-2.15625 1.1875 0 1.9375.78125 1.9375 2.03125v4.875h.890625v-4.9375c0-1.8125-1.0625-2.765625-2.609375-2.765625-1.140625 0-1.890625.5-2.25 1.28125h-.078125v-3.71875h-.875v10.140625h.875zm0 0" transform="translate(262.602833 269.734)"/><path d="m4.03125-9.59375c.015625-.0625.046875-.140625.046875-.21875 0-.140625-.140625-.140625-.171875-.140625-.015625 0-.71875.0625-.796875.0625-.234375.015625-.453125.046875-.71875.0625-.359375.03125-.453125.046875-.453125.296875 0 .15625.109375.15625.3125.15625.703125 0 .71875.125.71875.265625 0 .09375-.03125.203125-.046875.25l-2.078125 8.296875c-.0625.21875-.0625.25-.0625.328125 0 .328125.25.375.390625.375.25 0 .4375-.1875.5-.34375l.65625-2.59375c.0625-.3125.15625-.609375.21875-.9375.171875-.59375.171875-.609375.4375-1.03125.265625-.40625.921875-1.265625 2.015625-1.265625.578125 0 .78125.421875.78125 1 0 .796875-.5625 2.359375-.875 3.21875-.125.34375-.203125.53125-.203125.796875 0 .640625.453125 1.15625 1.140625 1.15625 1.328125 0 1.828125-2.109375 1.828125-2.1875s-.0625-.140625-.140625-.140625c-.125 0-.140625.046875-.21875.296875-.328125 1.140625-.859375 1.75-1.4375 1.75-.140625 0-.359375-.015625-.359375-.46875 0-.375.171875-.84375.21875-1 .265625-.6875.90625-2.375.90625-3.203125 0-.875-.5-1.515625-1.59375-1.515625-.8125 0-1.53125.390625-2.125 1.140625zm0 0" transform="translate(274.669 269.734)"/></g><path d="m.00086625-.0016h-3.50000025" fill="none" stroke="#fff" stroke-linejoin="round" stroke-miterlimit="10" stroke-width=".8" transform="matrix(1 0 0 -1 66.37804 228.3109)"/><use fill="#fff" x="30.749" xlink:href="#a" y="232.111"/><use fill="#fff" x="36.563173" xlink:href="#b" y="232.111"/><g fill="#fff"><use x="38.935268" xlink:href="#a" y="232.111"/><use x="45.04832" xlink:href="#a" y="232.111"/><use x="51.161371" xlink:href="#a" y="232.111"/></g><path d="m.00086625.00111875h-3.50000025" fill="none" stroke="#fff" stroke-linejoin="round" stroke-miterlimit="10" stroke-width=".8" transform="matrix(1 0 0 -1 66.37804 201.64565)"/><use fill="#fff" x="30.749" xlink:href="#a" y="205.446"/><use fill="#fff" x="36.563173" xlink:href="#b" y="205.446"/><g fill="#fff"><use x="38.935268" xlink:href="#a" y="205.446"/><use x="45.04832" xlink:href="#a" y="205.446"/><use x="51.161371" xlink:href="#f" y="205.446"/></g><path d="m.00086625.00101125h-3.50000025" fill="none" stroke="#fff" stroke-linejoin="round" stroke-miterlimit="10" stroke-width=".8" transform="matrix(1 0 0 -1 66.37804 174.98148)"/><use fill="#fff" x="30.749" xlink:href="#a" y="178.781"/><use fill="#fff" x="36.563173" xlink:href="#b" y="178.781"/><g fill="#fff"><use x="38.935268" xlink:href="#a" y="178.781"/><use x="45.04832" xlink:href="#e" y="178.781"/><use x="49.488651" xlink:href="#a" y="178.781"/></g><path d="m.00086625-.00018625h-3.50000025" fill="none" stroke="#fff" stroke-linejoin="round" stroke-miterlimit="10" stroke-width=".8" transform="matrix(1 0 0 -1 66.37804 148.31622)"/><use fill="#fff" x="30.749" xlink:href="#a" y="152.117"/><use fill="#fff" x="36.563173" xlink:href="#b" y="152.117"/><g fill="#fff"><use x="38.935268" xlink:href="#a" y="152.117"/><use x="45.04832" xlink:href="#e" y="152.117"/><use x="49.488651" xlink:href="#f" y="152.117"/></g><path d="m.00086625-.00028375h-3.50000025" fill="none" stroke="#fff" stroke-linejoin="round" stroke-miterlimit="10" stroke-width=".8" transform="matrix(1 0 0 -1 66.37804 121.65206)"/><use fill="#fff" x="30.749" xlink:href="#a" y="125.452"/><use fill="#fff" x="36.563173" xlink:href="#b" y="125.452"/><g fill="#fff"><use x="38.935268" xlink:href="#a" y="125.452"/><use x="45.04832" xlink:href="#c" y="125.452"/><use x="51.129491" xlink:href="#a" y="125.452"/></g><path d="m.00086625-.00148125h-3.50000025" fill="none" stroke="#fff" stroke-linejoin="round" stroke-miterlimit="10" stroke-width=".8" transform="matrix(1 0 0 -1 66.37804 94.9868)"/><use fill="#fff" x="30.749" xlink:href="#a" y="98.788"/><use fill="#fff" x="36.563173" xlink:href="#b" y="98.788"/><g fill="#fff"><use x="38.935268" xlink:href="#a" y="98.788"/><use x="45.04832" xlink:href="#c" y="98.788"/><use x="51.129491" xlink:href="#f" y="98.788"/></g><path d="m.00086625.0012075h-3.50000025" fill="none" stroke="#fff" stroke-linejoin="round" stroke-miterlimit="10" stroke-width=".8" transform="matrix(1 0 0 -1 66.37804 68.32152)"/><use fill="#fff" x="30.749" xlink:href="#a" y="72.123"/><use fill="#fff" x="36.563173" xlink:href="#b" y="72.123"/><g fill="#fff"><use x="38.935268" xlink:href="#a" y="72.123"/><use x="45.04832" xlink:href="#g" y="72.123"/><use x="51.313799" xlink:href="#a" y="72.123"/></g><path d="m.00086625.00113h-3.50000025" fill="none" stroke="#fff" stroke-linejoin="round" stroke-miterlimit="10" stroke-width=".8" transform="matrix(1 0 0 -1 66.37804 41.65738)"/><use fill="#fff" x="30.749" xlink:href="#a" y="45.459"/><use fill="#fff" x="36.563173" xlink:href="#b" y="45.459"/><g fill="#fff"><use x="38.935268" xlink:href="#a" y="45.459"/><use x="45.04832" xlink:href="#g" y="45.459"/><use x="51.313799" xlink:href="#f" y="45.459"/></g><path d="m.00086625-.0000875h-3.50000025" fill="none" stroke="#fff" stroke-linejoin="round" stroke-miterlimit="10" stroke-width=".8" transform="matrix(1 0 0 -1 66.37804 14.9921)"/><use fill="#fff" x="30.749" xlink:href="#a" y="18.795"/><use fill="#fff" x="36.563173" xlink:href="#b" y="18.795"/><g fill="#fff"><use x="38.935268" xlink:href="#a" y="18.795"/><use x="45.04832" xlink:href="#d" y="18.795"/><use x="51.288892" xlink:href="#a" y="18.795"/></g><g fill="#fff"><use x="17.906" xlink:href="#i" y="170.848"/><path d="m0-1.171875v-.875h-4.875c-1.1875 0-2.03125-.78125-2.03125-1.84375 0-1.046875.703125-1.640625 1.734375-1.640625h5.171875v-.90625h-5.015625c-1.09375 0-1.890625-.65625-1.890625-1.8125 0-1 .609375-1.671875 1.8125-1.671875h5.09375v-.890625h-5.09375c-1.703125 0-2.609375.875-2.609375 2.296875 0 1.109375.53125 1.90625 1.375 2.25v.0625c-.859375.34375-1.375 1.015625-1.375 2.0625 0 1 .46875 1.734375 1.265625 2.046875v.078125h-1.171875v.84375zm0 0" transform="translate(17.906 162.571435)"/><path d="m2.859375-1.15625v-.875h-4.265625v-.078125c.6875-.3125 1.5625-.96875 1.5625-2.34375 0-1.859375-1.578125-3.140625-3.9375-3.140625s-3.9375 1.265625-3.9375 3.15625c0 1.390625.875 2.015625 1.5625 2.328125v.109375h-1.453125v.84375zm-6.65625-.859375c-1.828125 0-3.109375-.84375-3.109375-2.328125 0-1.53125 1.359375-2.359375 3.109375-2.359375 1.765625 0 3.140625.84375 3.140625 2.359375 0 1.46875-1.3125 2.328125-3.140625 2.328125zm0 0" transform="translate(17.906 150.604308)"/><use x="17.906" xlink:href="#j" y="142.248241"/><path d="m0-1.171875v-.875h-4.921875c-1.125 0-1.9375-.859375-1.9375-2.0625 0-.21875.03125-.4375.046875-.53125h-.890625c-.015625.125-.015625.328125-.015625.46875 0 .96875.515625 1.78125 1.28125 2.078125v.078125h-1.171875v.84375zm0 0" transform="translate(17.906 139.01377)"/><use x="17.906" xlink:href="#j" y="134.041414"/><path d="m.15625-4.140625c0-1.578125-1-2.703125-2.375-2.90625v.890625c.96875.203125 1.5625 1.015625 1.5625 2.015625 0 1.5-1.296875 2.484375-3.140625 2.484375s-3.109375-1.015625-3.109375-2.484375c0-1.078125.6875-1.8125 1.5625-2v-.890625c-1.421875.203125-2.375 1.375-2.375 2.90625 0 2 1.65625 3.359375 3.953125 3.359375 2.265625 0 3.921875-1.328125 3.921875-3.375zm0 0" transform="translate(17.906 130.806943)"/><path d="m.171875-3.296875c0-1.265625-.703125-2.03125-1.375-2.359375v-.046875h1.203125v-.875h-5.171875c-2.03125 0-2.546875 1.53125-2.546875 2.6875 0 1.171875.46875 2.375 1.703125 2.890625l.3125-.84375c-.65625-.28125-1.21875-.96875-1.21875-2.0625 0-1.15625.640625-1.796875 1.671875-1.796875h.1875c.5625 0 .578125.71875.734375 1.984375.21875 1.734375.703125 2.9375 2.203125 2.9375 1.46875 0 2.296875-1.125 2.296875-2.515625zm-.8125-.109375c0 1-.53125 1.734375-1.453125 1.734375-.90625 0-1.296875-.75-1.453125-2.046875-.078125-.609375-.21875-1.734375-.46875-1.984375h1.09375c1.25 0 2.28125.890625 2.28125 2.296875zm0 0" transform="translate(17.906 123.045048)"/><path d="m-10.140625-2.046875v.875h10.140625v-.875zm0 0" transform="translate(17.906 115.283153)"/></g><g fill="#fff"><path d="m-10.140625-2.28125v.9375h10.140625v-.9375zm0 0" transform="translate(17.906 108.154483)"/><path d="m-10.140625-1.34375h10.140625v-.875h-8.1875v-.078125l8.1875-3.421875v-.84375l-8.1875-3.421875v-.078125h8.1875v-.875h-10.140625v1.0625l8.828125 3.6875v.09375l-8.828125 3.671875zm0 0" transform="translate(17.906 104.53366)"/><path d="m-7.609375-6.859375v-.890625c-1.546875.0625-2.6875 1.390625-2.6875 3.28125 0 1.875 1.125 3.3125 2.765625 3.3125 1.296875 0 2.125-.921875 2.59375-2.5l.359375-1.21875c.359375-1.265625.828125-2.125 1.875-2.125 1.21875 0 2.03125 1.109375 2.03125 2.625 0 1.375-.65625 2.4375-1.859375 2.53125v.953125c1.59375-.109375 2.703125-1.40625 2.703125-3.484375 0-2.203125-1.234375-3.515625-2.875-3.515625-1.671875 0-2.34375 1.46875-2.71875 2.75l-.296875 1.078125c-.28125.984375-.78125 2.015625-1.859375 2.015625s-1.875-.96875-1.875-2.390625c0-1.34375.71875-2.3125 1.84375-2.421875zm0 0" transform="translate(17.906 92.249921)"/><use x="17.906" xlink:href="#i" y="83.472633"/></g><path d="m82.332031 51.9545h.167969l.035156.015625.035156.128906.085938.367188.046875.179687.046875.167969.054688.15625.058593.15625.058594.144531.066406.125.070313.113281.074218.097657.082032.082031.085937.070312.09375.0625.101563.050782.105468.046875.117188.039062.121094.03125.132812.03125.140625.023438.152344.023437.164063.019531.175781.015625.1875.015625.199219.011719.214843.011719.230469.007812.25.011719.265625.007813.28125.011718.308594.007813.324219.007812.351562.296875.375.789063.40625.882812.429688.835938.464843.757812.496094.714844.535156.726563.570313 1.035156.613281 1.132812.660156 1.121094.703125 1.070313.757813.972656.808593.851562.871094.738282.929688.671875 1 .617187 1.070312.578125 1.148438 1.917969 1.234375 3.246094 1.320312 3.503906 1.414063 3.9375 1.519531 3.882812 1.628906 3.527344 1.746094 3.121094 1.875 3.898437 2.003906 4.417969 2.15625 3.835938 2.308594 2.792968 2.472656 2.917969 2.65625 2.761719 2.84375 2.914062 3.050781 3.554688 3.273438 3.160156 3.507812 3.332031 3.765626 2.964844 4.03125 2.578125 4.324218 1.910156 4.640625 1.851563 4.972657 2.660156 5.332031 4.191406 5.71875 4.460938 6.132812 4.347656 6.574219 4.347656 7.046875 5.933594 7.558594 5.429688 8.105469 5.425781 8.691406 4.960937 9.320312 4.910157 9.992188 6.570312 10.714844 8.242188 11.488281 7.328125 12.320312 7.039062 13.207031 7.765625 14.164063 9.417969 15.1875 8.414062 16.285156 8.757813 17.464844 7.566406 18.722656 4.929688 20.078125 2.9375 21.527344 2.886718" style="fill:none;stroke-width:1.50002;stroke-linecap:square;stroke-linejoin:round;stroke:#8be9fd;stroke-miterlimit:10" transform="matrix(1 0 0 -1 0 280.267)"/><path d="m66.378906 41.427156v231.644531" fill="none" stroke="#fff" stroke-linecap="square" stroke-miterlimit="10" stroke-width=".8" transform="matrix(1 0 0 -1 0 280.267)"/><path d="m417.390625 41.427156v231.644531" fill="none" stroke="#fff" stroke-linecap="square" stroke-miterlimit="10" stroke-width=".8" transform="matrix(1 0 0 -1 0 280.267)"/><path d="m66.378906 41.427156h351.011719" fill="none" stroke="#fff" stroke-linecap="square" stroke-miterlimit="10" stroke-width=".8" transform="matrix(1 0 0 -1 0 280.267)"/><path d="m66.378906 273.071687h351.011719" fill="none" stroke="#fff" stroke-linecap="square" stroke-miterlimit="10" stroke-width=".8" transform="matrix(1 0 0 -1 0 280.267)"/></svg>