<svg height="280.267" viewBox="0 0 424.641 280.267" width="424.641" xmlns="http://www.w3.org/2000/svg" xmlns:xlink="http://www.w3.org/1999/xlink"><defs><g id="a"><path d="m3.0625.09375c1.515625 0 2.421875-1.375 2.421875-3.71875s-.90625-3.71875-2.421875-3.71875-2.421875 1.375-2.421875 3.71875.890625 3.71875 2.421875 3.71875zm0-.59375c-1.125 0-1.78125-1.140625-1.78125-3.125s.671875-3.140625 1.78125-3.140625 1.78125 1.15625 1.78125 3.140625-.671875 3.125-1.78125 3.125zm0 0"/></g><g id="b"><path d="m3.046875-7.25h-.6875l-1.71875 1.140625v.6875l1.703125-1.140625h.03125v6.5625h.671875zm0 0"/></g><g id="c"><path d="m.8125 0h4.5v-.59375h-3.578125v-.046875l1.796875-2c1.203125-1.34375 1.5625-1.9375 1.5625-2.75 0-1.09375-.875-1.953125-2.09375-1.953125s-2.125.859375-2.125 2.0625h.625c0-.859375.59375-1.484375 1.484375-1.484375.84375 0 1.484375.546875 1.484375 1.375 0 .6875-.375 1.203125-1.296875 2.25l-2.359375 2.65625zm0 0"/></g><g id="d"><path d="m3.15625.09375c1.359375 0 2.359375-.875 2.359375-2.03125 0-.921875-.5625-1.59375-1.5-1.78125v-.046875c.765625-.234375 1.25-.84375 1.25-1.671875 0-1.03125-.8125-1.90625-2.09375-1.90625-1.203125 0-2.1875.765625-2.203125 1.90625h.640625c.015625-.8125.71875-1.328125 1.5625-1.328125.875 0 1.453125.5625 1.453125 1.359375 0 .84375-.6875 1.390625-1.625 1.390625h-.421875v.59375h.421875c1.15625 0 1.859375.59375 1.859375 1.484375 0 .828125-.703125 1.4375-1.703125 1.4375-.921875 0-1.640625-.515625-1.6875-1.3125h-.671875c.046875 1.125 1.015625 1.90625 2.359375 1.90625zm0 0"/></g><g id="e"><path d="m2.34375.125c.90625 0 1.46875-.5 1.6875-.984375h.046875v.859375h.625v-3.6875c0-1.46875-1.09375-1.828125-1.921875-1.828125-.84375 0-1.6875.328125-2.0625 1.21875l.59375.21875c.203125-.46875.6875-.875 1.484375-.875.828125 0 1.28125.453125 1.28125 1.203125v.125c0 .421875-.515625.421875-1.421875.53125-1.234375.15625-2.09375.5-2.09375 1.578125 0 1.046875.796875 1.640625 1.78125 1.640625zm.09375-.578125c-.71875 0-1.25-.375-1.25-1.03125 0-.671875.546875-.9375 1.46875-1.046875.4375-.0625 1.234375-.15625 1.421875-.34375v.796875c0 .890625-.640625 1.625-1.640625 1.625zm0 0"/></g><g id="f"><path d="m2.96875-5.4375h-1.140625v-1.296875h-.640625v1.296875h-.8125v.546875h.8125v3.625c0 .890625.703125 1.34375 1.40625 1.34375.25 0 .4375-.046875.546875-.09375l-.125-.5625c-.09375.015625-.203125.046875-.375.046875-.421875 0-.8125-.203125-.8125-.890625v-3.46875h1.140625zm0 0"/></g><g id="g"><path d="m.828125 0h.640625v-3.515625c0-.796875.609375-1.390625 1.46875-1.390625.15625 0 .3125.03125.375.03125v-.640625c-.09375 0-.234375 0-.328125 0-.6875 0-1.28125.359375-1.5.90625h-.046875v-.828125h-.609375zm0 0"/></g><g id="h"><path d="m4.28125-2.078125c0 1-.75 1.53125-1.484375 1.53125-.78125 0-1.328125-.5625-1.328125-1.40625v-3.484375h-.640625v3.515625c0 1.296875.75 2 1.796875 2 .796875 0 1.359375-.421875 1.609375-.984375h.046875v.90625h.640625v-5.4375h-.640625zm0 0"/></g><g id="i"><path d="m3.03125.109375c1.09375 0 1.828125-.59375 2.0625-1.265625l-.59375-.203125c-.203125.484375-.703125.890625-1.46875.890625-1.109375 0-1.8125-.8125-1.84375-2.0625h4.046875v-.3125c0-1.8125-1.125-2.671875-2.296875-2.671875-1.40625 0-2.390625 1.1875-2.390625 2.828125 0 1.65625.96875 2.796875 2.484375 2.796875zm-1.84375-3.203125c.0625-1 .75-1.84375 1.75-1.84375.96875 0 1.65625.796875 1.65625 1.84375zm0 0"/></g><g id="j"><path d="m2.90625 2.15625c1.28125 0 2.25-.640625 2.25-2.015625v-5.578125h-.625v1.03125h-.0625c-.21875-.484375-.671875-1.109375-1.671875-1.109375-1.34375 0-2.25 1.125-2.25 2.78125 0 1.671875.9375 2.671875 2.25 2.671875.96875 0 1.453125-.5625 1.65625-1.0625h.0625v1.234375c0 1-.640625 1.484375-1.609375 1.484375-.9375 0-1.375-.453125-1.609375-.875l-.515625.34375c.3125.625 1.015625 1.09375 2.125 1.09375zm-.046875-2.796875c-1.078125 0-1.671875-.859375-1.671875-2.109375 0-1.21875.59375-2.1875 1.671875-2.1875 1.0625 0 1.671875.921875 1.671875 2.1875 0 1.3125-.625 2.109375-1.671875 2.109375zm0 0"/></g><g id="k"><path d="m4.484375-4.25c-.265625-.78125-.84375-1.265625-1.84375-1.265625-1.09375 0-1.890625.625-1.890625 1.53125 0 .71875.4375 1.21875 1.390625 1.453125l.890625.203125c.59375.140625.875.453125.875.890625 0 .5625-.53125.984375-1.375.984375-.734375 0-1.203125-.34375-1.359375-.984375l-.609375.15625c.203125.90625.921875 1.390625 1.984375 1.390625 1.1875 0 2.015625-.65625 2.015625-1.578125 0-.71875-.453125-1.21875-1.359375-1.4375l-.828125-.203125c-.671875-.171875-.984375-.4375-.984375-.90625 0-.546875.515625-.9375 1.25-.9375s1.09375.390625 1.265625.875zm0 0"/></g><g id="l"><path d="m.84375 0h.625v-5.4375h-.625zm.3125-6.375c.265625 0 .484375-.203125.484375-.453125s-.21875-.453125-.484375-.453125c-.25 0-.46875.203125-.46875.453125s.21875.453125.46875.453125zm0 0"/></g><g id="m"><path d="m2.953125.109375c1.40625 0 2.390625-1.140625 2.390625-2.796875 0-1.671875-.984375-2.828125-2.390625-2.828125-1.421875 0-2.40625 1.15625-2.40625 2.828125 0 1.65625.984375 2.796875 2.40625 2.796875zm0-.578125c-1.140625 0-1.765625-1-1.765625-2.21875s.625-2.25 1.765625-2.25c1.125 0 1.75 1.03125 1.75 2.25s-.625 2.21875-1.75 2.21875zm0 0"/></g><g id="n"><path d="m1.46875-3.40625c0-.9375.609375-1.53125 1.46875-1.53125.84375 0 1.375.5625 1.375 1.453125v3.484375h.640625v-3.515625c0-1.296875-.75-2-1.859375-2-.796875 0-1.34375.375-1.59375.9375h-.0625v-.859375h-.609375v5.4375h.640625zm0 0"/></g><g id="o"><path d="m3.0625-5.4375h-1.203125v-.671875c0-.5625.3125-.875.859375-.875.21875 0 .34375.03125.4375.078125l.1875-.5625c-.140625-.046875-.34375-.125-.671875-.125-.75 0-1.4375.484375-1.4375 1.359375v.796875h-.84375v.546875h.84375v4.890625h.625v-4.890625h1.203125zm0 0"/></g><g id="p"><path d="m2.953125.109375c1.140625 0 1.9375-.71875 2.078125-1.703125h-.640625c-.140625.703125-.71875 1.125-1.4375 1.125-1.0625 0-1.765625-.921875-1.765625-2.25 0-1.3125.71875-2.21875 1.765625-2.21875.78125 0 1.296875.5 1.4375 1.109375h.640625c-.15625-1-1-1.6875-2.078125-1.6875-1.4375 0-2.40625 1.1875-2.40625 2.828125 0 1.609375.953125 2.796875 2.40625 2.796875zm0 0"/></g><g id="q"><path d="m2.515625-3.828125c.0625-.234375.171875-.640625.171875-.703125 0-.1875-.140625-.296875-.328125-.296875-.03125 0-.328125.015625-.421875.40625l-1.578125 6.3125c-.03125.125-.03125.15625-.03125.171875 0 .15625.125.296875.296875.296875.234375 0 .375-.203125.390625-.234375.046875-.09375.1875-.65625.59375-2.34375.359375.296875.84375.34375 1.0625.34375.765625 0 1.1875-.5 1.453125-.796875.09375.484375.5.796875.984375.796875.375 0 .625-.25.796875-.609375.1875-.390625.328125-1.046875.328125-1.078125 0-.109375-.09375-.109375-.125-.109375-.109375 0-.125.046875-.15625.203125-.1875.703125-.375 1.34375-.828125 1.34375-.296875 0-.328125-.28125-.328125-.5 0-.234375.125-.75.21875-1.125l.3125-1.1875c.03125-.15625.140625-.578125.171875-.734375.0625-.25.171875-.671875.171875-.734375 0-.203125-.15625-.296875-.3125-.296875-.0625 0-.34375.015625-.4375.390625l-.5 2.03125c-.140625.546875-.25 1-.28125 1.109375-.015625.0625-.546875 1.046875-1.421875 1.046875-.546875 0-.8125-.359375-.8125-.9375 0-.328125.078125-.625.15625-.9375zm0 0"/></g><g id="r"><path d="m2.59375-5.59375c0-.203125-.140625-.328125-.328125-.328125-.25 0-.484375.234375-.484375.46875 0 .171875.125.328125.328125.328125.25 0 .484375-.21875.484375-.46875zm.125 4.3125c0-.046875-.015625-.109375-.109375-.109375s-.109375.046875-.140625.15625c-.21875.734375-.578125 1.109375-.921875 1.109375-.140625 0-.21875-.078125-.21875-.296875s.078125-.40625.140625-.578125c.15625-.4375.15625-.453125.28125-.734375.140625-.375.34375-.890625.421875-1.140625.078125-.171875.078125-.25.078125-.328125 0-.515625-.40625-.765625-.765625-.765625-.875 0-1.21875 1.28125-1.21875 1.390625 0 .078125.0625.109375.125.109375.09375 0 .109375-.0625.140625-.171875.1875-.640625.53125-1.09375.921875-1.09375.09375 0 .21875.015625.21875.28125 0 .21875-.09375.453125-.171875.65625l-.640625 1.671875c-.0625.171875-.109375.3125-.109375.46875 0 .421875.3125.75.765625.75.875 0 1.203125-1.28125 1.203125-1.375zm0 0"/></g></defs><path d="m-.000565.00048625v-3.50000025" fill="none" stroke="#fff" stroke-linejoin="round" stroke-miterlimit="10" stroke-width=".8" transform="matrix(1 0 0 -1 55.20369 238.84033)"/><use fill="#fff" x="52.146" xlink:href="#a" y="253.137"/><path d="m-.0007175.00048625v-3.50000025" fill="none" stroke="#fff" stroke-linejoin="round" stroke-miterlimit="10" stroke-width=".8" transform="matrix(1 0 0 -1 171.16478 238.84033)"/><use fill="#fff" x="168.942" xlink:href="#b" y="253.137"/><path d="m-.00089.00048625v-3.50000025" fill="none" stroke="#fff" stroke-linejoin="round" stroke-miterlimit="10" stroke-width=".8" transform="matrix(1 0 0 -1 287.12589 238.84033)"/><use fill="#fff" x="284.082" xlink:href="#c" y="253.137"/><path d="m.00178375.00048625v-3.50000025" fill="none" stroke="#fff" stroke-linejoin="round" stroke-miterlimit="10" stroke-width=".8" transform="matrix(1 0 0 -1 403.08806 238.84033)"/><use fill="#fff" x="399.95" xlink:href="#d" y="253.137"/><path d="m6.796875-5.859375c-.453125.09375-.625.4375-.625.703125 0 .34375.265625.46875.46875.46875.4375 0 .734375-.375.734375-.765625 0-.59375-.6875-.875-1.296875-.875-.875 0-1.359375.859375-1.484375 1.140625-.328125-1.078125-1.21875-1.140625-1.484375-1.140625-1.453125 0-2.234375 1.875-2.234375 2.203125 0 .046875.0625.125.15625.125.109375 0 .140625-.09375.171875-.140625.484375-1.59375 1.453125-1.890625 1.859375-1.890625.65625 0 .78125.59375.78125.9375 0 .3125-.078125.640625-.265625 1.328125l-.484375 1.96875c-.203125.859375-.625 1.65625-1.390625 1.65625-.0625 0-.421875 0-.734375-.1875.515625-.109375.640625-.53125.640625-.703125 0-.28125-.21875-.453125-.484375-.453125-.34375 0-.71875.296875-.71875.75 0 .609375.671875.875 1.28125.875.6875 0 1.1875-.546875 1.484375-1.125.234375.84375.9375 1.125 1.46875 1.125 1.46875 0 2.25-1.875 2.25-2.1875 0-.078125-.0625-.140625-.15625-.140625-.125 0-.140625.078125-.171875.1875-.390625 1.265625-1.234375 1.859375-1.875 1.859375-.5 0-.765625-.375-.765625-.96875 0-.3125.046875-.546875.28125-1.484375l.5-1.953125c.21875-.859375.703125-1.484375 1.359375-1.484375.03125 0 .4375 0 .734375.171875zm0 0" fill="#fff" transform="translate(223.785 265.695)"/><path d="m.00123125-.0004h-3.50000025" fill="none" stroke="#fff" stroke-linejoin="round" stroke-miterlimit="10" stroke-width=".8" transform="matrix(1 0 0 -1 38.11205 226.6871)"/><use fill="#fff" x="24.749" xlink:href="#a" y="230.487"/><path d="m.00123125-.00053h-3.50000025" fill="none" stroke="#fff" stroke-linejoin="round" stroke-miterlimit="10" stroke-width=".8" transform="matrix(1 0 0 -1 38.11205 159.56197)"/><use fill="#fff" x="24.749" xlink:href="#b" y="163.363"/><path d="m.00123125.00043h-3.50000025" fill="none" stroke="#fff" stroke-linejoin="round" stroke-miterlimit="10" stroke-width=".8" transform="matrix(1 0 0 -1 38.11205 92.43793)"/><use fill="#fff" x="24.749" xlink:href="#c" y="96.238"/><path d="m.00123125.0003h-3.50000025" fill="none" stroke="#fff" stroke-linejoin="round" stroke-miterlimit="10" stroke-width=".8" transform="matrix(1 0 0 -1 38.11205 25.3128)"/><use fill="#fff" x="24.749" xlink:href="#d" y="29.115"/><path d="m1.609375-3.765625c.546875.375 1.03125.9375 1.03125 1.640625 0 .171875-.03125.859375-.6875 1.078125.015625-.046875.015625-.109375.015625-.140625 0-.4375-.375-.71875-.703125-.71875s-.453125.265625-.453125.484375c0 .234375.171875.734375.875.734375.734375 0 1.234375-.625 1.234375-1.4375 0-1.4375-1.3125-2.875-2.90625-3.28125l-5.59375-1.40625c-.078125-.015625-.15625-.046875-.25-.046875-.203125 0-.359375.171875-.359375.390625 0 .125.0625.4375.5.546875l4.203125 1.0625c.265625.0625.296875.0625.453125.1875.40625.28125.890625.75.890625 1.4375 0 .8125-.796875.875-1.171875.875-.828125 0-1.921875-.375-2.96875-.765625-.40625-.15625-.609375-.25-.890625-.25-.609375 0-1.15625.4375-1.15625 1.140625 0 1.3125 2.078125 1.84375 2.203125 1.84375.046875 0 .125-.046875.125-.15625 0-.125-.0625-.140625-.265625-.203125-1.203125-.34375-1.765625-.890625-1.765625-1.4375 0-.140625 0-.375.46875-.375.375 0 .78125.15625 1.328125.375 1.875.703125 2.359375.703125 2.703125.703125 1.359375 0 1.671875-.984375 1.671875-1.703125 0-.40625-.125-.921875-.65625-1.4375l.015625-.015625c.84375.21875 1.40625.359375 2.109375.875zm0 0" fill="#fff" transform="translate(17.959 126.703)"/><path d="m38.113281 41.427156v231.644531" fill="none" stroke="#fff" stroke-linecap="square" stroke-miterlimit="10" stroke-width=".8" transform="matrix(1 0 0 -1 0 280.267)"/><path d="m417.445312 41.427156v231.644531" fill="none" stroke="#fff" stroke-linecap="square" stroke-miterlimit="10" stroke-width=".8" transform="matrix(1 0 0 -1 0 280.267)"/><path d="m38.113281 41.427156h379.332031" fill="none" stroke="#fff" stroke-linecap="square" stroke-miterlimit="10" stroke-width=".8" transform="matrix(1 0 0 -1 0 280.267)"/><path d="m38.113281 273.071687h379.332031" fill="none" stroke="#fff" stroke-linecap="square" stroke-miterlimit="10" stroke-width=".8" transform="matrix(1 0 0 -1 0 280.267)"/><path d="m45.113281 220.614656h191.019531c1.332032 0 2 .667969 2 2.003906v43.453125c0 1.332032-.667968 2-2 2h-191.019531c-1.335937 0-2-.667968-2-2v-43.453125c0-1.335937.664063-2.003906 2-2.003906zm0 0" fill="none" stroke="#fff" stroke-miterlimit="10" stroke-opacity=".7" stroke-width="1.00002" transform="matrix(1 0 0 -1 0 280.267)"/><path d="m.00123125-1.5802c.41796875 0 .82031275.164063 1.11718775.460938s.460937.699218.460937 1.12109325c0 .41796875-.164062.82031275-.460937 1.11718775s-.699219.460937-1.11718775.460937c-.42187525 0-.82421925-.164062-1.12109425-.460937s-.460937-.699219-.460937-1.11718775c0-.42187525.164062-.82421825.460937-1.12109325s.699219-.460938 1.12109425-.460938zm0 0" fill="#cda3ff" stroke="#cda3ff" stroke-linejoin="round" stroke-miterlimit="10" stroke-width="1.00002" transform="matrix(1 0 0 -1 57.11205 21.1698)"/><g fill="#fff"><path d="m3.09375 0c2.171875 0 3.421875-1.359375 3.421875-3.640625 0-2.25-1.234375-3.609375-3.296875-3.609375h-2.25v7.25zm-1.46875-.59375v-6.0625h1.546875c1.765625 0 2.703125 1.140625 2.703125 3.015625 0 1.890625-.953125 3.046875-2.828125 3.046875zm0 0" transform="translate(75.111 23.798)"/><use x="82.257173" xlink:href="#e" y="23.798"/><use x="87.80136" xlink:href="#f" y="23.798"/><use x="91.370959" xlink:href="#e" y="23.798"/></g><path d="m3.609375 2.625c0-.046875 0-.0625-.1875-.25-1.359375-1.375-1.703125-3.4375-1.703125-5.09375 0-1.90625.40625-3.796875 1.75-5.171875.140625-.125.140625-.140625.140625-.1875 0-.0625-.046875-.09375-.109375-.09375-.109375 0-1.09375.734375-1.734375 2.125-.5625 1.1875-.6875 2.40625-.6875 3.328125 0 .84375.125 2.15625.71875 3.390625.65625 1.34375 1.59375 2.046875 1.703125 2.046875.0625 0 .109375-.03125.109375-.09375zm0 0" fill="#fff" transform="translate(99.717 23.798)"/><path d="m3.640625-3.296875c.0625-.28125.3125-1.28125 1.078125-1.28125.0625 0 .3125 0 .546875.140625-.296875.046875-.515625.328125-.515625.59375 0 .171875.109375.375.40625.375.25 0 .59375-.203125.59375-.625 0-.578125-.640625-.734375-1.015625-.734375-.640625 0-1.015625.578125-1.140625.84375-.28125-.734375-.875-.84375-1.1875-.84375-1.125 0-1.75 1.421875-1.75 1.6875 0 .109375.109375.109375.125.109375.09375 0 .125-.015625.140625-.125.375-1.15625 1.09375-1.421875 1.46875-1.421875.203125 0 .59375.09375.59375.734375 0 .328125-.1875 1.0625-.59375 2.59375-.171875.671875-.5625 1.125-1.03125 1.125-.078125 0-.328125 0-.546875-.140625.265625-.046875.5-.28125.5-.578125s-.234375-.390625-.390625-.390625c-.328125 0-.609375.28125-.609375.640625 0 .5.546875.71875 1.03125.71875.71875 0 1.109375-.765625 1.140625-.828125.140625.390625.53125.828125 1.1875.828125 1.109375 0 1.734375-1.40625 1.734375-1.6875 0-.109375-.09375-.109375-.125-.109375-.09375 0-.125.046875-.140625.125-.359375 1.171875-1.109375 1.421875-1.453125 1.421875-.421875 0-.59375-.34375-.59375-.71875 0-.234375.0625-.46875.171875-.953125zm0 0" fill="#fff" transform="translate(103.959 23.798)"/><use fill="#fff" x="110.194" xlink:href="#r" y="25.957"/><path d="m2.21875-.015625c0-.71875-.28125-1.140625-.703125-1.140625-.359375 0-.578125.265625-.578125.578125 0 .296875.21875.578125.578125.578125.125 0 .265625-.046875.375-.140625.046875-.015625.046875-.03125.0625-.03125s.015625.015625.015625.15625c0 .8125-.375 1.46875-.734375 1.828125-.125.125-.125.140625-.125.171875 0 .078125.0625.125.109375.125.125 0 1-.84375 1-2.125zm0 0" fill="#fff" transform="translate(113.846 23.798)"/><path d="m5.296875-4.15625c.046875-.15625.046875-.171875.046875-.25 0-.203125-.15625-.296875-.3125-.296875-.109375 0-.28125.0625-.390625.234375-.015625.046875-.109375.390625-.140625.59375-.078125.28125-.15625.578125-.21875.859375l-.5 1.96875c-.046875.15625-.515625.921875-1.234375.921875-.546875 0-.671875-.46875-.671875-.875 0-.5.1875-1.1875.5625-2.140625.171875-.453125.21875-.5625.21875-.78125 0-.5-.359375-.90625-.90625-.90625-1.03125 0-1.4375 1.59375-1.4375 1.6875 0 .109375.109375.109375.140625.109375.109375 0 .109375-.015625.171875-.203125.296875-1.015625.734375-1.34375 1.09375-1.34375.09375 0 .28125 0 .28125.34375 0 .28125-.109375.5625-.1875.765625-.4375 1.15625-.640625 1.78125-.640625 2.296875 0 .96875.6875 1.296875 1.34375 1.296875.421875 0 .78125-.1875 1.09375-.5-.140625.578125-.265625 1.109375-.703125 1.6875-.28125.359375-.703125.6875-1.203125.6875-.15625 0-.640625-.03125-.828125-.46875.171875 0 .3125 0 .46875-.125.109375-.09375.21875-.234375.21875-.453125 0-.328125-.296875-.375-.40625-.375-.25 0-.609375.171875-.609375.703125 0 .546875.484375.953125 1.15625.953125 1.125 0 2.25-.984375 2.546875-2.21875zm0 0" fill="#fff" transform="translate(118.698368 23.798)"/><use fill="#fff" x="124.043" xlink:href="#r" y="25.957"/><path d="m3.15625-2.71875c0-.859375-.125-2.171875-.71875-3.40625-.65625-1.34375-1.59375-2.046875-1.703125-2.046875-.0625 0-.109375.03125-.109375.09375 0 .046875 0 .0625.203125.265625 1.0625 1.078125 1.6875 2.8125 1.6875 5.09375 0 1.859375-.40625 3.78125-1.75 5.15625-.140625.125-.140625.140625-.140625.1875 0 .0625.046875.09375.109375.09375.109375 0 1.09375-.734375 1.734375-2.125.546875-1.1875.6875-2.40625.6875-3.3125zm0 0" fill="#fff" transform="translate(127.694 23.798)"/><path d="m47.113281 244.872469h20" style="fill:none;stroke-width:1.50002;stroke-linecap:square;stroke-linejoin:round;stroke:#50ea7b;stroke-miterlimit:10" transform="matrix(1 0 0 -1 0 280.267)"/><path d="m.53125-6.65625h2.296875v6.65625h.65625v-6.65625h2.296875v-.59375h-5.25zm0 0" fill="#fff" transform="translate(75.111 38.896)"/><g fill="#fff"><use x="80.844476" xlink:href="#g" y="38.896"/><use x="84.396143" xlink:href="#h" y="38.896"/><use x="90.141575" xlink:href="#i" y="38.896"/></g><use fill="#fff" x="98.725351" xlink:href="#g" y="38.896"/><g fill="#fff"><use x="102.107653" xlink:href="#i" y="38.896"/><use x="107.891939" xlink:href="#j" y="38.896"/><use x="113.878465" xlink:href="#g" y="38.896"/></g><g fill="#fff"><use x="117.260768" xlink:href="#i" y="38.896"/><use x="123.045054" xlink:href="#k" y="38.896"/><use x="128.153875" xlink:href="#k" y="38.896"/><use x="133.262696" xlink:href="#l" y="38.896"/><use x="135.573023" xlink:href="#m" y="38.896"/><use x="141.459923" xlink:href="#n" y="38.896"/></g><g fill="#fff"><use x="150.042703" xlink:href="#o" y="38.896"/><use x="153.53858" xlink:href="#h" y="38.896"/><use x="159.284011" xlink:href="#n" y="38.896"/><use x="165.057338" xlink:href="#p" y="38.896"/><use x="170.601525" xlink:href="#f" y="38.896"/><use x="174.171124" xlink:href="#l" y="38.896"/><use x="176.481451" xlink:href="#m" y="38.896"/><use x="182.368352" xlink:href="#n" y="38.896"/></g><use fill="#fff" x="190.94" xlink:href="#q" y="38.896"/><path d="m47.113281 230.196687h20" style="fill:none;stroke-width:1.50002;stroke-linecap:square;stroke-linejoin:round;stroke:#f55;stroke-miterlimit:10" transform="matrix(1 0 0 -1 0 280.267)"/><g fill="#fff"><path d="m.96875 0h4.265625v-.59375h-3.609375v-2.734375h3.328125v-.59375h-3.328125v-2.734375h3.546875v-.59375h-4.203125zm0 0" transform="translate(75.111 53.574)"/><use x="81.022807" xlink:href="#k" y="53.574"/><use x="86.131628" xlink:href="#f" y="53.574"/><use x="89.701228" xlink:href="#l" y="53.574"/><path d="m.828125 0h.640625v-3.484375c0-.84375.5625-1.453125 1.3125-1.453125.734375 0 1.171875.5 1.171875 1.234375v3.703125h.640625v-3.578125c0-.78125.46875-1.359375 1.296875-1.359375.71875 0 1.203125.4375 1.203125 1.296875v3.640625h.625v-3.640625c0-1.21875-.625-1.875-1.640625-1.875-.78125 0-1.359375.390625-1.609375 1h-.046875c-.234375-.625-.71875-1-1.46875-1-.703125 0-1.234375.34375-1.453125.90625h-.0625v-.828125h-.609375zm0 0" transform="translate(92.011555 53.574)"/><use x="100.559465" xlink:href="#e" y="53.574"/><use x="106.103652" xlink:href="#f" y="53.574"/></g><g fill="#fff"><use x="109.613476" xlink:href="#i" y="53.574"/><path d="m2.796875.109375c.984375 0 1.4375-.625 1.65625-1.125h.078125v1.015625h.625v-7.25h-.640625v2.84375h-.0625c-.203125-.484375-.65625-1.109375-1.65625-1.109375-1.34375 0-2.25 1.140625-2.25 2.8125 0 1.6875.90625 2.8125 2.25 2.8125zm.0625-.578125c-1.078125 0-1.671875-.984375-1.671875-2.25 0-1.25.59375-2.21875 1.671875-2.21875 1.0625 0 1.671875.921875 1.671875 2.21875 0 1.3125-.609375 2.25-1.671875 2.25zm0 0" transform="translate(115.397762 53.574)"/></g><use fill="#fff" x="124.317278" xlink:href="#g" y="53.574"/><g fill="#fff"><use x="127.69958" xlink:href="#i" y="53.574"/><use x="133.483866" xlink:href="#j" y="53.574"/><use x="139.470392" xlink:href="#g" y="53.574"/></g><g fill="#fff"><use x="142.852695" xlink:href="#i" y="53.574"/><use x="148.636981" xlink:href="#k" y="53.574"/><use x="153.745802" xlink:href="#k" y="53.574"/><use x="158.854623" xlink:href="#l" y="53.574"/><use x="161.16495" xlink:href="#m" y="53.574"/><use x="167.05185" xlink:href="#n" y="53.574"/></g><g fill="#fff"><use x="175.624668" xlink:href="#o" y="53.574"/><use x="179.120544" xlink:href="#h" y="53.574"/><use x="184.865975" xlink:href="#n" y="53.574"/><use x="190.639302" xlink:href="#p" y="53.574"/><use x="196.183489" xlink:href="#f" y="53.574"/><use x="199.753089" xlink:href="#l" y="53.574"/><use x="202.063416" xlink:href="#m" y="53.574"/><use x="207.950316" xlink:href="#n" y="53.574"/></g><path d="m2.765625-6.828125 2.703125 1.21875.125-.21875-2.828125-1.59375-2.8125 1.59375.109375.21875zm0 0" fill="#fff" transform="translate(217.345 53.167)"/><use fill="#fff" x="216.523" xlink:href="#q" y="53.574"/><g stroke-linejoin="round"><path d="m55.355469 87.317781 19.113281 22.023438 7.039062 7.804687 6.019532 6.414063 5.242187 5.339843 4.390625 4.269532 3.757813 3.488281 5.058593 4.4375 3.882813 3.179687 3.792969 2.917969 3.867187 2.761719 2.46875 1.648437 4.152344 2.5625 3.667969 2.042969 3.429687 1.714844 2.765625 1.25 3.285156 1.316406 1.738282.625 4.410156 1.363281 3.601562.871094 2.996094.566406 3.359375.453125 3.164063.261719 3.222656.101563 2.628906-.039063 3.671875-.230469 3.183594-.367187 3.648437-.601563 4.539063-1.007812 4.097656-1.144531 3.445313-1.125 3.871094-1.425782 3.945312-1.625 4.378906-1.980468 4.613282-2.269532 5.144531-2.714843 5.578125-3.125 7.207031-4.234375 25.4375-15.152344 5.726563-3.117188 5.171874-2.621093 4.144532-1.949219 4.183594-1.8125 4.558593-1.773438 3.625-1.25 2.921875-.894531 4.355469-1.144531 3.5625-.757813 3.902344-.632812 3.609375-.402344 3.535156-.214844 2.742188-.039062 3.964843.136719 2.96875.257812 3.386719.457031 3.308594.617188 3.429687.824219 3.433594 1.007812 3.4375 1.199219 3.433594 1.390625 2.378906 1.078125 4.046875 2.050781 3.382812 1.929688 3.386719 2.128906 3.222657 2.21875 2.976562 2.226562 3.925781 3.195313 3.15625 2.796875 3.117188 2.976562 3.324219 3.414063 3.042968 3.363281 2.59375 3.054688 2.902344 3.648437 3.144531 4.234375 2.917969 4.21875 2.574219 3.972656 3.078125 5.085938 2.964844 5.277344 2.460937 4.683593 2.226563 4.492188 3.242187 7.03125 2.382813 5.5625 2.59375 6.464844 2.6875 7.199218 2.558593 7.371094 1.121094 3.394531" fill="none" stroke="#50ea7b" stroke-linecap="square" stroke-miterlimit="10" stroke-width="1.50002" transform="matrix(1 0 0 -1 0 280.267)"/><path d="m.0009625-1.58261c.4179685 0 .8203125.167969 1.1171875.464844s.460937.699219.460937 1.11718725c0 .42187475-.164062.82421875-.460937 1.11718775-.296875.296875-.699219.464844-1.1171875.464844-.4218755 0-.8242185-.167969-1.1210935-.464844-.292969-.292969-.460938-.695313-.460938-1.11718775 0-.41796825.167969-.82031225.460938-1.11718725.296875-.296875.699218-.464844 1.1210935-.464844zm0 0" fill="#cda3ff" stroke="#cda3ff" stroke-miterlimit="10" stroke-width="1.00002" transform="matrix(1 0 0 -1 59.94435 175.01114)"/><path d="m.001195-1.58186c.417969 0 .820313.167969 1.117188.464844s.460937.699218.460937 1.11718725c0 .41796875-.164062.82031275-.460937 1.11718775s-.699219.464843-1.117188.464843c-.421875 0-.824219-.167968-1.121094-.464843s-.460937-.699219-.460937-1.11718775c0-.41796925.164062-.82031225.460937-1.11718725s.699219-.464844 1.121094-.464844zm0 0" fill="#cda3ff" stroke="#cda3ff" stroke-miterlimit="10" stroke-width="1.00002" transform="matrix(1 0 0 -1 60.45193 194.94939)"/><path d="m-.0004925-1.57982c.4218755 0 .8203125.164062 1.1171875.460937s.464844.699219.464844 1.117188c0 .421875-.167969.824219-.464844 1.121094s-.695312.460937-1.1171875.460937c-.4179685 0-.8203125-.164062-1.1171875-.460937s-.464844-.699219-.464844-1.121094c0-.417969.167969-.820313.464844-1.117188s.699219-.460937 1.1171875-.460937zm0 0" fill="#cda3ff" stroke="#cda3ff" stroke-miterlimit="10" stroke-width="1.00002" transform="matrix(1 0 0 -1 67.52393 164.42018)"/><path d="m-.00089625-1.58225c.42187525 0 .82421925.167969 1.12109425.464844.292968.296875.460937.699219.460937 1.11718725 0 .41796875-.167969.82031275-.460937 1.11718775-.296875.296875-.699219.464844-1.12109425.464844-.41796875 0-.82031275-.167969-1.11718775-.464844s-.460937-.699219-.460937-1.11718775c0-.41796825.164062-.82031225.460937-1.11718725s.699219-.464844 1.11718775-.464844zm0 0" fill="#cda3ff" stroke="#cda3ff" stroke-miterlimit="10" stroke-width="1.00002" transform="matrix(1 0 0 -1 79.77824 156.7615)"/><path d="m.00043-1.579511c.417969 0 .820313.164062 1.117188.460937s.464843.699219.464843 1.11718775c0 .42187525-.167968.82421925-.464843 1.12109425s-.699219.460937-1.117188.460937c-.421875 0-.820312-.164062-1.117187-.460937s-.464844-.699219-.464844-1.12109425c0-.41796875.167969-.82031275.464844-1.11718775s.695312-.460937 1.117187-.460937zm0 0" fill="#cda3ff" stroke="#cda3ff" stroke-miterlimit="10" stroke-width="1.00002" transform="matrix(1 0 0 -1 81.65582 179.00252)"/><path d="m.00027625-1.579038c.41796875 0 .82031275.164063 1.11718775.460938s.464843.699219.464843 1.1171875c0 .4218745-.167968.8242185-.464843 1.1210935-.296875.292969-.699219.460938-1.11718775.460938-.42187525 0-.82031225-.167969-1.11718725-.460938-.296875-.296875-.464844-.699219-.464844-1.1210935 0-.4179685.167969-.8203125.464844-1.1171875s.695312-.460938 1.11718725-.460938zm0 0" fill="#cda3ff" stroke="#cda3ff" stroke-miterlimit="10" stroke-width="1.00002" transform="matrix(1 0 0 -1 83.44113 157.47565)"/><path d="m-.00013125-1.581674c.41796925 0 .82031225.167969 1.11718725.464844s.464844.695313.464844 1.1171875c0 .4179685-.167969.8203125-.464844 1.1171875s-.699218.464844-1.11718725.464844c-.41796875 0-.82031275-.167969-1.11718775-.464844s-.464843-.699219-.464843-1.1171875c0-.4218745.167968-.8203125.464843-1.1171875s.699219-.464844 1.11718775-.464844zm0 0" fill="#cda3ff" stroke="#cda3ff" stroke-miterlimit="10" stroke-width="1.00002" transform="matrix(1 0 0 -1 87.3556 162.03942)"/><path d="m.00043125-1.580962c.41796875 0 .82031275.164062 1.11718775.460937s.464844.699219.464844 1.12109375c0 .41796925-.167969.82031225-.464844 1.11718725s-.699219.460938-1.11718775.460938c-.42187525 0-.82031225-.164063-1.11718725-.460938s-.464844-.699218-.464844-1.11718725c0-.42187475.167969-.82421875.464844-1.12109375s.695312-.460937 1.11718725-.460937zm0 0" fill="#cda3ff" stroke="#cda3ff" stroke-miterlimit="10" stroke-width="1.00002" transform="matrix(1 0 0 -1 91.61285 170.3331)"/><path d="m.00194875-1.58096c.41796925 0 .82031225.164062 1.11718725.460937s.460938.699219.460938 1.12109425c0 .41796875-.164063.82031275-.460938 1.11718775s-.699218.460937-1.11718725.460937c-.42187475 0-.82421875-.164062-1.12109375-.460937s-.460937-.699219-.460937-1.11718775c0-.42187525.164062-.82421925.460937-1.12109425s.699219-.460937 1.12109375-.460937zm0 0" fill="#cda3ff" stroke="#cda3ff" stroke-miterlimit="10" stroke-width="1.00002" transform="matrix(1 0 0 -1 96.07227 179.20029)"/><path d="m.00157375-1.579294c.41796925 0 .82031225.164063 1.11718725.460938s.460938.699218.460938 1.11718725c0 .42187475-.164063.82421875-.460938 1.12109375s-.699218.460937-1.11718725.460937c-.42187475 0-.82421875-.164062-1.12109375-.460937s-.460937-.699219-.460937-1.12109375c0-.41796925.164062-.82031225.460937-1.11718725s.699219-.460938 1.12109375-.460938zm0 0" fill="#cda3ff" stroke="#cda3ff" stroke-miterlimit="10" stroke-width="1.00002" transform="matrix(1 0 0 -1 97.52577 166.32305)"/><path d="m-.00137375-1.582749c.42187475 0 .82421875.167969 1.12109375.464844s.460938.699219.460938 1.1171875c0 .4218745-.164063.8242185-.460938 1.1171875-.296875.296875-.699219.464844-1.12109375.464844-.41796825 0-.82031225-.167969-1.11718725-.464844-.296875-.292969-.460938-.695313-.460938-1.1171875 0-.4179685.164063-.8203125.460938-1.1171875s.699219-.464844 1.11718725-.464844zm0 0" fill="#cda3ff" stroke="#cda3ff" stroke-miterlimit="10" stroke-width="1.00002" transform="matrix(1 0 0 -1 107.75528 145.42897)"/><path d="m-.00131-1.582171c.421875 0 .824219.167968 1.121094.464843s.460937.699219.460937 1.117188-.164062.820312-.460937 1.117187-.699219.464844-1.121094.464844c-.417969 0-.820312-.167969-1.117187-.464844s-.460938-.699218-.460938-1.117187.164063-.820313.460938-1.117188.699218-.464843 1.117187-.464843zm0 0" fill="#cda3ff" stroke="#cda3ff" stroke-miterlimit="10" stroke-width="1.00002" transform="matrix(1 0 0 -1 111.87631 172.06236)"/><path d="m.00013875-1.580595c.41796925 0 .82031225.164062 1.11718725.460937s.464844.699219.464844 1.12109425c0 .41796875-.167969.82031275-.464844 1.11718775s-.699218.460937-1.11718725.460937c-.41796875 0-.82031275-.164062-1.11718775-.460937s-.464843-.699219-.464843-1.11718775c0-.42187525.167968-.82421925.464843-1.12109425s.699219-.460937 1.11718775-.460937zm0 0" fill="#cda3ff" stroke="#cda3ff" stroke-miterlimit="10" stroke-width="1.00002" transform="matrix(1 0 0 -1 114.32408 132.02878)"/><path d="m.00182625-1.579318c.41796875 0 .82031275.164063 1.11718775.460938s.460937.699219.460937 1.1171875c0 .4218745-.164062.8242185-.460937 1.1210935s-.699219.460938-1.11718775.460938c-.42187525 0-.82421825-.164063-1.12109325-.460938s-.460938-.699219-.460938-1.1210935c0-.4179685.164063-.8203125.460938-1.1171875s.699218-.460938 1.12109325-.460938zm0 0" fill="#cda3ff" stroke="#cda3ff" stroke-miterlimit="10" stroke-width="1.00002" transform="matrix(1 0 0 -1 114.78333 165.44412)"/><path d="m.0002025-1.58206c.4179685 0 .8203125.167969 1.1171875.464844s.464844.699218.464844 1.11718725c0 .41796875-.167969.82031275-.464844 1.11718775s-.699219.464843-1.1171875.464843-.8203125-.167968-1.1171875-.464843-.464844-.699219-.464844-1.11718775c0-.41796925.167969-.82031225.464844-1.11718725s.699219-.464844 1.1171875-.464844zm0 0" fill="#cda3ff" stroke="#cda3ff" stroke-miterlimit="10" stroke-width="1.00002" transform="matrix(1 0 0 -1 118.16386 131.69919)"/><path d="m.00069375-1.579328c.41796825 0 .82031225.164063 1.11718725.460938s.464844.699219.464844 1.1171875c0 .4218745-.167969.8242185-.464844 1.1210935s-.699219.460938-1.11718725.460938c-.42187475 0-.82421875-.164063-1.11718775-.460938-.296875-.296875-.464844-.699219-.464844-1.1210935 0-.4179685.167969-.8203125.464844-1.1171875.292969-.296875.695313-.460938 1.11718775-.460938zm0 0" fill="#cda3ff" stroke="#cda3ff" stroke-miterlimit="10" stroke-width="1.00002" transform="matrix(1 0 0 -1 118.9329 145.60036)"/><path d="m-.001425-1.579845c.421875 0 .824219.164062 1.121094.460937s.460937.699219.460937 1.117188c0 .421875-.164062.824219-.460937 1.121094s-.699219.460937-1.121094.460937c-.417969 0-.820312-.164062-1.117187-.460937s-.460938-.699219-.460938-1.121094c0-.417969.164063-.820313.460938-1.117188s.699218-.460937 1.117187-.460937zm0 0" fill="#cda3ff" stroke="#cda3ff" stroke-miterlimit="10" stroke-width="1.00002" transform="matrix(1 0 0 -1 120.1733 161.74828)"/><path d="m.001735-1.58025c.417969 0 .820312.164062 1.117187.460937s.460938.699219.460938 1.12109425c0 .41796875-.164063.82031275-.460938 1.11718775s-.699218.460937-1.117187.460937c-.421875 0-.824219-.164062-1.121094-.460937s-.460937-.699219-.460937-1.11718775c0-.42187525.164062-.82421925.460937-1.12109425s.699219-.460937 1.121094-.460937zm0 0" fill="#cda3ff" stroke="#cda3ff" stroke-miterlimit="10" stroke-width="1.00002" transform="matrix(1 0 0 -1 122.20139 111.951)"/><path d="m-.00046125-1.581515c.42187525 0 .82031225.167969 1.11718725.464844.296875.292969.464844.695312.464844 1.11718725 0 .41796875-.167969.82031275-.464844 1.11718775s-.695312.464844-1.11718725.464844c-.41796875 0-.82031275-.167969-1.11718775-.464844s-.464844-.699219-.464844-1.11718775c0-.42187525.167969-.82421825.464844-1.11718725.296875-.296875.699219-.464844 1.11718775-.464844zm0 0" fill="#cda3ff" stroke="#cda3ff" stroke-miterlimit="10" stroke-width="1.00002" transform="matrix(1 0 0 -1 122.73093 136.59036)"/><path d="m-.00138625-1.581164c.42187525 0 .82421825.167969 1.12109325.460938.296875.296875.460938.699218.460938 1.1210935 0 .4179685-.164063.8203125-.460938 1.1171875s-.699218.460937-1.12109325.460937c-.41796875 0-.82031275-.164062-1.11718775-.460937s-.460937-.699219-.460937-1.1171875c0-.4218755.164062-.8242185.460937-1.1210935.296875-.292969.699219-.460938 1.11718775-.460938zm0 0" fill="#cda3ff" stroke="#cda3ff" stroke-miterlimit="10" stroke-width="1.00002" transform="matrix(1 0 0 -1 128.09123 107.25868)"/><path d="m-.00029375-1.580787c.42187475 0 .82031275.164062 1.11718775.460937s.464844.699219.464844 1.12109375c0 .41796925-.167969.82031225-.464844 1.11718725s-.695313.460938-1.11718775.460938c-.41796825 0-.82031225-.164063-1.11718725-.460938s-.464844-.699218-.464844-1.11718725c0-.42187475.167969-.82421875.464844-1.12109375s.699219-.460937 1.11718725-.460937zm0 0" fill="#cda3ff" stroke="#cda3ff" stroke-miterlimit="10" stroke-width="1.00002" transform="matrix(1 0 0 -1 128.16045 154.9114)"/><path d="m-.00140625-1.581071c.42187525 0 .82421825.167968 1.12109325.460937.296875.296875.460938.699219.460938 1.121094 0 .417969-.164063.820312-.460938 1.117187s-.699218.460938-1.12109325.460938c-.41796875 0-.82031275-.164063-1.11718775-.460938s-.460937-.699218-.460937-1.117187c0-.421875.164062-.824219.460937-1.121094.296875-.292969.699219-.460937 1.11718775-.460937zm0 0" fill="#cda3ff" stroke="#cda3ff" stroke-miterlimit="10" stroke-width="1.00002" transform="matrix(1 0 0 -1 128.3725 114.78221)"/><path d="m.0006875-1.581331c.4179685 0 .8203125.167969 1.1171875.464844.296875.292968.464844.695312.464844 1.117187 0 .417969-.167969.820313-.464844 1.117188s-.699219.464843-1.1171875.464843c-.4218755 0-.8242185-.167968-1.1171875-.464843-.296875-.296875-.464844-.699219-.464844-1.117188 0-.421875.167969-.824219.464844-1.117187.292969-.296875.695312-.464844 1.1171875-.464844zm0 0" fill="#cda3ff" stroke="#cda3ff" stroke-miterlimit="10" stroke-width="1.00002" transform="matrix(1 0 0 -1 128.39775 113.53195)"/><path d="m-.00131625-1.581419c.42187525 0 .82421825.167969 1.12109325.464844.296875.292969.460938.695312.460938 1.1171875 0 .4179685-.164063.8203125-.460938 1.1171875s-.699218.464844-1.12109325.464844c-.41796875 0-.82031275-.167969-1.11718775-.464844s-.460937-.699219-.460937-1.1171875c0-.4218755.164062-.8242185.460937-1.1171875.296875-.296875.699219-.464844 1.11718775-.464844zm0 0" fill="#cda3ff" stroke="#cda3ff" stroke-miterlimit="10" stroke-width="1.00002" transform="matrix(1 0 0 -1 131.96616 106.4303)"/><path d="m.0016-1.582016c.417969 0 .820312.167968 1.117187.464843s.460938.699219.460938 1.117188-.164063.820312-.460938 1.117187-.699218.464844-1.117187.464844c-.421875 0-.824219-.167969-1.121094-.464844s-.460937-.699218-.460937-1.117187.164062-.820313.460937-1.117188.699219-.464843 1.121094-.464843zm0 0" fill="#cda3ff" stroke="#cda3ff" stroke-miterlimit="10" stroke-width="1.00002" transform="matrix(1 0 0 -1 132.1859 135.67189)"/><path d="m-.00189-1.57942c.421875 0 .824219.164063 1.121094.460938s.460937.699218.460937 1.117187c0 .421875-.164062.824219-.460937 1.121094s-.699219.460937-1.121094.460937c-.417969 0-.820313-.164062-1.117188-.460937s-.460937-.699219-.460937-1.121094c0-.417969.164062-.820312.460937-1.117187s.699219-.460938 1.117188-.460938zm0 0" fill="#cda3ff" stroke="#cda3ff" stroke-miterlimit="10" stroke-width="1.00002" transform="matrix(1 0 0 -1 139.28314 110.13933)"/><path d="m-.000045-1.579511c.417969 0 .820313.164062 1.117188.460937s.464843.699219.464843 1.11718775c0 .42187525-.167968.82421925-.464843 1.12109425s-.699219.460937-1.117188.460937-.820312-.164062-1.117187-.460937-.464844-.699219-.464844-1.12109425c0-.41796875.167969-.82031275.464844-1.11718775s.699218-.460937 1.117187-.460937zm0 0" fill="#cda3ff" stroke="#cda3ff" stroke-miterlimit="10" stroke-width="1.00002" transform="matrix(1 0 0 -1 147.14067 131.22127)"/><path d="m.00165875-1.581931c.41796925 0 .82031225.167969 1.11718725.464844s.460938.699218.460938 1.117187-.164063.820313-.460938 1.117188-.699218.464843-1.11718725.464843c-.42187475 0-.82421875-.167968-1.12109375-.464843s-.460937-.699219-.460937-1.117188.164062-.820312.460937-1.117187.699219-.464844 1.12109375-.464844zm0 0" fill="#cda3ff" stroke="#cda3ff" stroke-miterlimit="10" stroke-width="1.00002" transform="matrix(1 0 0 -1 155.44756 104.0001)"/><path d="m.0011275-1.579316c.4179685 0 .8203125.164062 1.1171875.460937s.460937.699219.460937 1.11718775c0 .42187525-.164062.82421925-.460937 1.12109425s-.699219.460937-1.1171875.460937c-.4218755 0-.8242185-.164062-1.1210935-.460937s-.460938-.699219-.460938-1.12109425c0-.41796875.164063-.82031275.460938-1.11718775s.699218-.460937 1.1210935-.460937zm0 0" fill="#cda3ff" stroke="#cda3ff" stroke-miterlimit="10" stroke-width="1.00002" transform="matrix(1 0 0 -1 160.86606 137.89334)"/><path d="m.00184375-1.582503c.41796925 0 .82031225.167969 1.11718725.464844s.460938.699219.460938 1.11718775c0 .42187525-.164063.82031225-.460938 1.11718725s-.699218.464844-1.11718725.464844c-.42187475 0-.82421875-.167969-1.12109375-.464844s-.460937-.695312-.460937-1.11718725c0-.41796875.164062-.82031275.460937-1.11718775s.699219-.464844 1.12109375-.464844zm0 0" fill="#cda3ff" stroke="#cda3ff" stroke-miterlimit="10" stroke-width="1.00002" transform="matrix(1 0 0 -1 161.36925 98.30031)"/><path d="m.00163375-1.5819c.41796825 0 .82031225.167969 1.11718725.464844s.460938.699218.460938 1.11718725c0 .41796875-.164063.82031275-.460938 1.11718775s-.699219.464843-1.11718725.464843c-.42187475 0-.82421875-.167968-1.12109375-.464843s-.460938-.699219-.460938-1.11718775c0-.41796925.164063-.82031225.460938-1.11718725s.699219-.464844 1.12109375-.464844zm0 0" fill="#cda3ff" stroke="#cda3ff" stroke-miterlimit="10" stroke-width="1.00002" transform="matrix(1 0 0 -1 168.46321 87.9181)"/><path d="m-.00151375-1.57974c.42187475 0 .82421875.164062 1.12109375.460937s.460937.699219.460937 1.117188c0 .421875-.164062.824219-.460937 1.121094s-.699219.460937-1.12109375.460937c-.41796925 0-.82031225-.164062-1.11718725-.460937s-.460938-.699219-.460938-1.121094c0-.417969.164063-.820313.460938-1.117188s.699218-.460937 1.11718725-.460937zm0 0" fill="#cda3ff" stroke="#cda3ff" stroke-miterlimit="10" stroke-width="1.00002" transform="matrix(1 0 0 -1 184.94292 141.54526)"/><path d="m-.00082125-1.581038c.42187525 0 .82421825.164063 1.12109325.460938.292969.296875.460938.699219.460938 1.12109375 0 .41796825-.167969.82031225-.460938 1.11718725-.296875.296875-.699218.460938-1.12109325.460938-.41796875 0-.82031275-.164063-1.11718775-.460938s-.464844-.699219-.464844-1.11718725c0-.42187475.167969-.82421875.464844-1.12109375s.699219-.460938 1.11718775-.460938zm0 0" fill="#cda3ff" stroke="#cda3ff" stroke-miterlimit="10" stroke-width="1.00002" transform="matrix(1 0 0 -1 188.57504 155.34865)"/><path d="m-.0003525-1.578981c.4218745 0 .8203125.164062 1.1171875.460937s.464844.699219.464844 1.11718775c0 .42187525-.167969.82421925-.464844 1.12109425-.296875.292968-.695313.460937-1.1171875.460937-.4179685 0-.8203125-.167969-1.1171875-.460937-.296875-.296875-.464844-.699219-.464844-1.12109425 0-.41796875.167969-.82031275.464844-1.11718775s.699219-.460937 1.1171875-.460937zm0 0" fill="#cda3ff" stroke="#cda3ff" stroke-miterlimit="10" stroke-width="1.00002" transform="matrix(1 0 0 -1 189.83629 153.2843)"/><path d="m-.00013625-1.58044c.41796825 0 .82031225.164062 1.11718725.460937s.464844.699219.464844 1.12109425c0 .41796875-.167969.82031275-.464844 1.11718775s-.699219.460937-1.11718725.460937c-.41796875 0-.82031275-.164062-1.11718775-.460937s-.464844-.699219-.464844-1.11718775c0-.42187525.167969-.82421925.464844-1.12109425s.699219-.460937 1.11718775-.460937zm0 0" fill="#cda3ff" stroke="#cda3ff" stroke-miterlimit="10" stroke-width="1.00002" transform="matrix(1 0 0 -1 191.99623 124.98206)"/><path d="m.00143125-1.582088c.41796875 0 .82031275.167969 1.11718775.464844s.460937.699219.460937 1.11718775c0 .41796825-.164062.82031225-.460937 1.11718725s-.699219.464844-1.11718775.464844c-.42187525 0-.82421825-.167969-1.12109325-.464844s-.460938-.699219-.460938-1.11718725c0-.41796875.164063-.82031275.460938-1.11718775s.699218-.464844 1.12109325-.464844zm0 0" fill="#cda3ff" stroke="#cda3ff" stroke-miterlimit="10" stroke-width="1.00002" transform="matrix(1 0 0 -1 192.79935 129.6601)"/><path d="m.00097875-1.581789c.41796925 0 .82031225.167969 1.11718725.464844s.460938.695312.460938 1.1171875c0 .4179685-.164063.8203125-.460938 1.1171875s-.699218.464844-1.11718725.464844c-.42187475 0-.82421875-.167969-1.12109375-.464844s-.460937-.699219-.460937-1.1171875c0-.4218755.164062-.8203125.460937-1.1171875s.699219-.464844 1.12109375-.464844zm0 0" fill="#cda3ff" stroke="#cda3ff" stroke-miterlimit="10" stroke-width="1.00002" transform="matrix(1 0 0 -1 199.66699 124.96118)"/><path d="m.0000775-1.580074c.4179685 0 .8203125.164063 1.1171875.460938s.464844.699218.464844 1.11718725c0 .42187475-.167969.82421875-.464844 1.12109375s-.699219.460937-1.1171875.460937-.8203125-.164062-1.1171875-.460937-.464844-.699219-.464844-1.12109375c0-.41796925.167969-.82031225.464844-1.11718725s.699219-.460938 1.1171875-.460938zm0 0" fill="#cda3ff" stroke="#cda3ff" stroke-miterlimit="10" stroke-width="1.00002" transform="matrix(1 0 0 -1 203.30461 125.13477)"/><path d="m-.00079125-1.582192c.42187525 0 .82421925.167968 1.12109425.464843.292968.296875.460937.699219.460937 1.11718775 0 .41796925-.167969.82031225-.460937 1.11718725-.296875.296875-.699219.464844-1.12109425.464844-.41796875 0-.82031275-.167969-1.11718775-.464844s-.464843-.699218-.464843-1.11718725c0-.41796875.167968-.82031275.464843-1.11718775s.699219-.464843 1.11718775-.464843zm0 0" fill="#cda3ff" stroke="#cda3ff" stroke-miterlimit="10" stroke-width="1.00002" transform="matrix(1 0 0 -1 215.10626 122.48812)"/><path d="m-.0009375-1.58245c.4218755 0 .8242185.167969 1.1210935.464844.292969.296875.460938.699219.460938 1.11718725 0 .42187475-.167969.82031275-.460938 1.11718775-.296875.296875-.699218.464844-1.1210935.464844-.4179685 0-.8203125-.167969-1.1171875-.464844s-.460937-.695313-.460937-1.11718775c0-.41796825.164062-.82031225.460937-1.11718725s.699219-.464844 1.1171875-.464844zm0 0" fill="#cda3ff" stroke="#cda3ff" stroke-miterlimit="10" stroke-width="1.00002" transform="matrix(1 0 0 -1 215.415 167.2613)"/><path d="m-.00145375-1.58053c.42187475 0 .82421875.164062 1.12109375.460937s.460937.699219.460937 1.12109425c0 .41796875-.164062.82031275-.460937 1.11718775s-.699219.460937-1.12109375.460937c-.41796925 0-.82031225-.164062-1.11718725-.460937s-.460938-.699219-.460938-1.11718775c0-.42187525.164063-.82421925.460938-1.12109425s.699218-.460937 1.11718725-.460937zm0 0" fill="#cda3ff" stroke="#cda3ff" stroke-miterlimit="10" stroke-width="1.00002" transform="matrix(1 0 0 -1 217.88036 128.57572)"/><path d="m-.00052-1.579386c.421875 0 .824219.164062 1.117188.460937.296875.296875.464843.699219.464843 1.11718775 0 .42187525-.167968.82421825-.464843 1.12109325-.292969.296875-.695313.460938-1.117188.460938-.417969 0-.820312-.164063-1.117187-.460938s-.464844-.699218-.464844-1.12109325c0-.41796875.167969-.82031275.464844-1.11718775s.699218-.460937 1.117187-.460937zm0 0" fill="#cda3ff" stroke="#cda3ff" stroke-miterlimit="10" stroke-width="1.00002" transform="matrix(1 0 0 -1 221.00052 93.42452)"/><path d="m.0000375-1.581675c.4179685 0 .8203125.167969 1.1171875.464844s.464844.695312.464844 1.11718725c0 .41796875-.167969.82031275-.464844 1.11718775s-.699219.464844-1.1171875.464844-.8203125-.167969-1.1171875-.464844-.464844-.699219-.464844-1.11718775c0-.42187525.167969-.82031225.464844-1.11718725s.699219-.464844 1.1171875-.464844zm0 0" fill="#cda3ff" stroke="#cda3ff" stroke-miterlimit="10" stroke-width="1.00002" transform="matrix(1 0 0 -1 225.3984 142.37145)"/><path d="m-.000965-1.580583c.421875 0 .824219.164063 1.121094.460938.292968.296875.460937.699219.460937 1.12109375 0 .41796825-.167969.82031225-.460937 1.11718725-.296875.296875-.699219.460938-1.121094.460938-.417969 0-.820313-.164063-1.117188-.460938s-.460937-.699219-.460937-1.11718725c0-.42187475.164062-.82421875.460937-1.12109375s.699219-.460938 1.117188-.460938zm0 0" fill="#cda3ff" stroke="#cda3ff" stroke-miterlimit="10" stroke-width="1.00002" transform="matrix(1 0 0 -1 226.67284 143.14598)"/><path d="m-.00018375-1.579585c.41796875 0 .82031275.164062 1.11718775.460937s.464844.699219.464844 1.117188c0 .421875-.167969.824219-.464844 1.121094s-.699219.460937-1.11718775.460937c-.41796825 0-.82031225-.164062-1.11718725-.460937s-.464844-.699219-.464844-1.121094c0-.417969.167969-.820313.464844-1.117188s.699219-.460937 1.11718725-.460937zm0 0" fill="#cda3ff" stroke="#cda3ff" stroke-miterlimit="10" stroke-width="1.00002" transform="matrix(1 0 0 -1 232.87909 133.93604)"/><path d="m.0004075-1.581696c.4179685 0 .8203125.167969 1.1171875.464844s.464844.695312.464844 1.117187c0 .417969-.167969.820313-.464844 1.117188s-.699219.464843-1.1171875.464843c-.4218755 0-.8203125-.167968-1.1171875-.464843s-.464844-.699219-.464844-1.117188c0-.421875.167969-.820312.464844-1.117187s.695312-.464844 1.1171875-.464844zm0 0" fill="#cda3ff" stroke="#cda3ff" stroke-miterlimit="10" stroke-width="1.00002" transform="matrix(1 0 0 -1 233.86678 132.20346)"/><path d="m-.00019875-1.579922c.41796875 0 .82031275.164062 1.11718775.460937s.464844.699219.464844 1.1171875c0 .4218755-.167969.8242185-.464844 1.1210935s-.699219.460938-1.11718775.460938c-.41796825 0-.82031225-.164063-1.11718725-.460938s-.464844-.699218-.464844-1.1210935c0-.4179685.167969-.8203125.464844-1.1171875s.699219-.460937 1.11718725-.460937zm0 0" fill="#cda3ff" stroke="#cda3ff" stroke-miterlimit="10" stroke-width="1.00002" transform="matrix(1 0 0 -1 234.14473 118.05289)"/><path d="m-.001555-1.582883c.421875 0 .824219.167969 1.121094.464844s.460937.699219.460937 1.11718775c0 .42187525-.164062.82421825-.460937 1.12109325-.296875.292969-.699219.460938-1.121094.460938-.417969 0-.820312-.167969-1.117187-.460938-.296875-.296875-.460938-.699218-.460938-1.12109325 0-.41796875.164063-.82031275.460938-1.11718775s.699218-.464844 1.117187-.464844zm0 0" fill="#cda3ff" stroke="#cda3ff" stroke-miterlimit="10" stroke-width="1.00002" transform="matrix(1 0 0 -1 236.20468 115.70618)"/><path d="m-.00113-1.579134c.421875 0 .824219.164063 1.121094.460938s.460937.699218.460937 1.11718725c0 .42187475-.164062.82421875-.460937 1.12109375s-.699219.460937-1.121094.460937c-.417969 0-.820313-.164062-1.117188-.460937s-.460937-.699219-.460937-1.12109375c0-.41796925.164062-.82031225.460937-1.11718725s.699219-.460938 1.117188-.460938zm0 0" fill="#cda3ff" stroke="#cda3ff" stroke-miterlimit="10" stroke-width="1.00002" transform="matrix(1 0 0 -1 250.37613 112.47946)"/><path d="m.0013325-1.579538c.4179685 0 .8203125.164063 1.1171875.460938s.460937.699219.460937 1.1171875c0 .4218745-.164062.8242185-.460937 1.1210935s-.699219.460938-1.1171875.460938c-.4218755 0-.8242185-.164063-1.1210935-.460938s-.460938-.699219-.460938-1.1210935c0-.4179685.164063-.8203125.460938-1.1171875s.699218-.460938 1.1210935-.460938zm0 0" fill="#cda3ff" stroke="#cda3ff" stroke-miterlimit="10" stroke-width="1.00002" transform="matrix(1 0 0 -1 258.13148 137.9439)"/><path d="m-.0006225-1.58189c.4218745 0 .8242185.167969 1.1171875.464844.296875.296875.464844.699218.464844 1.11718725 0 .41796875-.167969.82031275-.464844 1.11718775-.292969.296875-.695313.464843-1.1171875.464843-.4179685 0-.8203125-.167968-1.1171875-.464843s-.464844-.699219-.464844-1.11718775c0-.41796925.167969-.82031225.464844-1.11718725s.699219-.464844 1.1171875-.464844zm0 0" fill="#cda3ff" stroke="#cda3ff" stroke-miterlimit="10" stroke-width="1.00002" transform="matrix(1 0 0 -1 258.14906 145.76186)"/><path d="m.00004375-1.580685c.41796925 0 .82031225.164062 1.11718725.460937s.464844.699219.464844 1.12109425c0 .41796875-.167969.82031275-.464844 1.11718775s-.699218.460937-1.11718725.460937c-.41796875 0-.82031275-.164062-1.11718775-.460937s-.464843-.699219-.464843-1.11718775c0-.42187525.167968-.82421925.464843-1.12109425s.699219-.460937 1.11718775-.460937zm0 0" fill="#cda3ff" stroke="#cda3ff" stroke-miterlimit="10" stroke-width="1.00002" transform="matrix(1 0 0 -1 262.0273 152.93494)"/><path d="m-.0000625-1.579861c.4179685 0 .8203125.164062 1.1171875.460937s.464844.699219.464844 1.11718775c0 .42187525-.167969.82421925-.464844 1.12109425s-.699219.460937-1.1171875.460937-.8203125-.164062-1.1171875-.460937-.464844-.699219-.464844-1.12109425c0-.41796875.167969-.82031275.464844-1.11718775s.699219-.460937 1.1171875-.460937zm0 0" fill="#cda3ff" stroke="#cda3ff" stroke-miterlimit="10" stroke-width="1.00002" transform="matrix(1 0 0 -1 262.61725 207.87717)"/><path d="m.00088375-1.579986c.41796925 0 .82031225.164062 1.11718725.460937s.460938.699219.460938 1.11718775c0 .42187525-.164063.82421925-.460938 1.12109425s-.699218.460937-1.11718725.460937c-.42187475 0-.82421875-.164062-1.12109375-.460937-.292969-.296875-.460937-.699219-.460937-1.12109425 0-.41796875.167968-.82031275.460937-1.11718775.296875-.296875.699219-.460937 1.12109375-.460937zm0 0" fill="#cda3ff" stroke="#cda3ff" stroke-miterlimit="10" stroke-width="1.00002" transform="matrix(1 0 0 -1 263.55771 160.73642)"/><path d="m-.0006675-1.581887c.4218745 0 .8242185.167968 1.1171875.464843.296875.296875.464844.699219.464844 1.11718775 0 .41796925-.167969.82031225-.464844 1.11718725-.292969.296875-.695313.464844-1.1171875.464844-.4179685 0-.8203125-.167969-1.1171875-.464844s-.464844-.699218-.464844-1.11718725c0-.41796875.167969-.82031275.464844-1.11718775s.699219-.464843 1.1171875-.464843zm0 0" fill="#cda3ff" stroke="#cda3ff" stroke-miterlimit="10" stroke-width="1.00002" transform="matrix(1 0 0 -1 280.94598 183.69155)"/><path d="m.00144375-1.580274c.41796925 0 .82031225.164063 1.11718725.460938s.460938.699218.460938 1.1210935c0 .4179685-.164063.8203125-.460938 1.1171875s-.699218.460937-1.11718725.460937c-.42187475 0-.82421875-.164062-1.12109375-.460937s-.460937-.699219-.460937-1.1171875c0-.4218755.164062-.8242185.460937-1.1210935s.699219-.460938 1.12109375-.460938zm0 0" fill="#cda3ff" stroke="#cda3ff" stroke-miterlimit="10" stroke-width="1.00002" transform="matrix(1 0 0 -1 285.9009 195.44707)"/><path d="m-.00042625-1.579736c.42187525 0 .82031225.164062 1.11718725.460937s.464844.699219.464844 1.11718775c0 .42187525-.167969.82421925-.464844 1.12109425s-.695312.460937-1.11718725.460937c-.41796875 0-.82031275-.164062-1.11718775-.460937s-.464843-.699219-.464843-1.12109425c0-.41796875.167968-.82031275.464843-1.11718775s.699219-.460937 1.11718775-.460937zm0 0" fill="#cda3ff" stroke="#cda3ff" stroke-miterlimit="10" stroke-width="1.00002" transform="matrix(1 0 0 -1 289.37152 180.14292)"/><path d="m.00165-1.581088c.417969 0 .820312.167969 1.117187.460938.296875.296875.460938.699219.460938 1.12109375 0 .41796825-.164063.82031225-.460938 1.11718725s-.699218.460938-1.117187.460938c-.421875 0-.824219-.164063-1.121094-.460938s-.460937-.699219-.460937-1.11718725c0-.42187475.164062-.82421875.460937-1.12109375.296875-.292969.699219-.460938 1.121094-.460938zm0 0" fill="#cda3ff" stroke="#cda3ff" stroke-miterlimit="10" stroke-width="1.00002" transform="matrix(1 0 0 -1 290.31085 160.3486)"/><path d="m.0011325-1.580398c.4179685 0 .8203125.164063 1.1171875.460938s.460937.699219.460937 1.12109375c0 .41796825-.164062.82031225-.460937 1.11718725s-.699219.460938-1.1171875.460938c-.4218755 0-.8242185-.164063-1.1210935-.460938s-.460938-.699219-.460938-1.11718725c0-.42187475.164063-.82421875.460938-1.12109375s.699218-.460938 1.1210935-.460938zm0 0" fill="#cda3ff" stroke="#cda3ff" stroke-miterlimit="10" stroke-width="1.00002" transform="matrix(1 0 0 -1 293.16293 138.34929)"/><path d="m-.00079-1.580546c.421875 0 .824219.164062 1.121094.460937.292969.296875.460937.699219.460937 1.121094 0 .417969-.167968.820313-.460937 1.117188-.296875.296875-.699219.460937-1.121094.460937-.417969 0-.820312-.164062-1.117187-.460937s-.464844-.699219-.464844-1.117188c0-.421875.167969-.824219.464844-1.121094s.699218-.460937 1.117187-.460937zm0 0" fill="#cda3ff" stroke="#cda3ff" stroke-miterlimit="10" stroke-width="1.00002" transform="matrix(1 0 0 -1 299.09454 173.86086)"/><path d="m-.00093375-1.581134c.42187475 0 .82421875.167969 1.12109375.460938.292969.296875.460937.699218.460937 1.1210935 0 .4179685-.167968.8203125-.460937 1.1171875-.296875.296875-.699219.460937-1.12109375.460937-.41796925 0-.82031225-.164062-1.11718725-.460937s-.460938-.699219-.460938-1.1171875c0-.4218755.164063-.8242185.460938-1.1210935.296875-.292969.699218-.460938 1.11718725-.460938zm0 0" fill="#cda3ff" stroke="#cda3ff" stroke-miterlimit="10" stroke-width="1.00002" transform="matrix(1 0 0 -1 300.31734 138.00871)"/><path d="m.000165-1.581056c.417969 0 .820312.167968 1.117187.460937.296875.296875.464844.699219.464844 1.121094 0 .417969-.167969.820312-.464844 1.117187s-.699218.460938-1.117187.460938-.820313-.164063-1.117188-.460938-.464843-.699218-.464843-1.117187c0-.421875.167968-.824219.464843-1.121094.296875-.292969.699219-.460937 1.117188-.460937zm0 0" fill="#cda3ff" stroke="#cda3ff" stroke-miterlimit="10" stroke-width="1.00002" transform="matrix(1 0 0 -1 300.70296 181.7041)"/><path d="m-.001445-1.581739c.421875 0 .824219.167969 1.121094.464844s.460937.695313.460937 1.1171875c0 .4179685-.164062.8203125-.460937 1.1171875s-.699219.464844-1.121094.464844c-.417969 0-.820312-.167969-1.117187-.464844s-.460938-.699219-.460938-1.1171875c0-.4218745.164063-.8203125.460938-1.1171875s.699218-.464844 1.117187-.464844zm0 0" fill="#cda3ff" stroke="#cda3ff" stroke-miterlimit="10" stroke-width="1.00002" transform="matrix(1 0 0 -1 302.07957 175.55498)"/><path d="m.00119125-1.581879c.41796875 0 .82031275.167969 1.11718775.464844s.460937.699219.460937 1.1171875-.164062.8203125-.460937 1.1171875-.699219.464844-1.11718775.464844c-.42187525 0-.82421925-.167969-1.12109425-.464844s-.460937-.699219-.460937-1.1171875.164062-.8203125.460937-1.1171875.699219-.464844 1.12109425-.464844zm0 0" fill="#cda3ff" stroke="#cda3ff" stroke-miterlimit="10" stroke-width="1.00002" transform="matrix(1 0 0 -1 306.08084 155.92984)"/><path d="m-.0017525-1.579141c.4218745 0 .8242185.164062 1.1210935.460937s.460938.699219.460938 1.11718775c0 .42187525-.164063.82421925-.460938 1.12109425s-.699219.460937-1.1210935.460937c-.4179685 0-.8203125-.164062-1.1171875-.460937s-.460938-.699219-.460938-1.12109425c0-.41796875.164063-.82031275.460938-1.11718775s.699219-.460937 1.1171875-.460937zm0 0" fill="#cda3ff" stroke="#cda3ff" stroke-miterlimit="10" stroke-width="1.00002" transform="matrix(1 0 0 -1 307.61894 150.97164)"/><path d="m-.00065125-1.580504c.42187525 0 .82421925.164063 1.11718725.460938.296875.296875.464844.699219.464844 1.1210935 0 .4179685-.167969.8203125-.464844 1.1171875-.292968.296875-.695312.460938-1.11718725.460938-.41796875 0-.82031275-.164063-1.11718775-.460938s-.464843-.699219-.464843-1.1171875c0-.4218745.167968-.8242185.464843-1.1210935s.699219-.460938 1.11718775-.460938zm0 0" fill="#cda3ff" stroke="#cda3ff" stroke-miterlimit="10" stroke-width="1.00002" transform="matrix(1 0 0 -1 308.35612 167.66559)"/><path d="m-.00167375-1.580048c.42187475 0 .82421875.164063 1.12109375.460938s.460938.699219.460938 1.1171875c0 .4218745-.164063.8242185-.460938 1.1210935s-.699219.460938-1.12109375.460938c-.41796825 0-.82031225-.164063-1.11718725-.460938s-.460938-.699219-.460938-1.1210935c0-.4179685.164063-.8203125.460938-1.1171875s.699219-.460938 1.11718725-.460938zm0 0" fill="#cda3ff" stroke="#cda3ff" stroke-miterlimit="10" stroke-width="1.00002" transform="matrix(1 0 0 -1 311.03683 193.56839)"/><path d="m.0007625-1.579226c.4179685 0 .8203125.164062 1.1171875.460937s.464844.699219.464844 1.11718775c0 .42187525-.167969.82421925-.464844 1.12109425s-.699219.460937-1.1171875.460937c-.4218745 0-.8242185-.164062-1.1210935-.460937-.292969-.296875-.460938-.699219-.460938-1.12109425 0-.41796875.167969-.82031275.460938-1.11718775.296875-.296875.699219-.460937 1.1210935-.460937zm0 0" fill="#cda3ff" stroke="#cda3ff" stroke-miterlimit="10" stroke-width="1.00002" transform="matrix(1 0 0 -1 311.2258 153.58093)"/><path d="m.00038375-1.579173c.41796925 0 .82031225.164063 1.11718725.460938s.464844.699219.464844 1.1171875c0 .4218745-.167969.8242185-.464844 1.1210935s-.699218.460938-1.11718725.460938c-.42187475 0-.82031275-.164063-1.11718775-.460938s-.464843-.699219-.464843-1.1210935c0-.4179685.167968-.8203125.464843-1.1171875s.695313-.460938 1.11718775-.460938zm0 0" fill="#cda3ff" stroke="#cda3ff" stroke-miterlimit="10" stroke-width="1.00002" transform="matrix(1 0 0 -1 312.43321 176.83489)"/><path d="m-.0002425-1.579526c.4218745 0 .8203125.164062 1.1171875.460937s.464844.699219.464844 1.11718775c0 .42187525-.167969.82421825-.464844 1.12109325s-.695313.460938-1.1171875.460938c-.4179685 0-.8203125-.164063-1.1171875-.460938s-.464844-.699218-.464844-1.12109325c0-.41796875.167969-.82031275.464844-1.11718775s.699219-.460937 1.1171875-.460937zm0 0" fill="#cda3ff" stroke="#cda3ff" stroke-miterlimit="10" stroke-width="1.00002" transform="matrix(1 0 0 -1 313.27368 167.95563)"/><path d="m-.000525-1.578993c.421875 0 .824219.164063 1.117187.460938.296875.296875.464844.699219.464844 1.1171875 0 .4218745-.167969.8242185-.464844 1.1210935-.292968.292969-.695312.460938-1.117187.460938-.417969 0-.820313-.167969-1.117188-.460938-.296875-.296875-.464843-.699219-.464843-1.1210935 0-.4179685.167968-.8203125.464843-1.1171875s.699219-.460938 1.117188-.460938zm0 0" fill="#cda3ff" stroke="#cda3ff" stroke-miterlimit="10" stroke-width="1.00002" transform="matrix(1 0 0 -1 315.8599 133.33507)"/><path d="m.00020125-1.578991c.41796875 0 .82031275.164062 1.11718775.460937s.464844.699219.464844 1.11718775c0 .42187525-.167969.82421825-.464844 1.12109325-.296875.292969-.699219.460938-1.11718775.460938-.41796825 0-.82031225-.167969-1.11718725-.460938-.296875-.296875-.464844-.699218-.464844-1.12109325 0-.41796875.167969-.82031275.464844-1.11718775s.699219-.460937 1.11718725-.460937zm0 0" fill="#cda3ff" stroke="#cda3ff" stroke-miterlimit="10" stroke-width="1.00002" transform="matrix(1 0 0 -1 317.76933 161.94054)"/><path d="m.00141875-1.579326c.41796825 0 .82031225.164062 1.11718725.460937s.460938.699219.460938 1.11718775c0 .42187525-.164063.82421825-.460938 1.12109325s-.699219.460938-1.11718725.460938c-.42187475 0-.82421875-.164063-1.12109375-.460938s-.460938-.699218-.460938-1.12109325c0-.41796875.164063-.82031275.460938-1.11718775s.699219-.460937 1.12109375-.460937zm0 0" fill="#cda3ff" stroke="#cda3ff" stroke-miterlimit="10" stroke-width="1.00002" transform="matrix(1 0 0 -1 327.6978 154.92458)"/><path d="m.00088875-1.581786c.41796925 0 .82031225.167968 1.11718725.464843s.460938.695313.460938 1.117188c0 .417969-.164063.820312-.460938 1.117187s-.699218.464844-1.11718725.464844c-.42187475 0-.82421875-.167969-1.12109375-.464844-.292969-.296875-.460937-.699218-.460937-1.117187 0-.421875.167968-.820313.460937-1.117188.296875-.296875.699219-.464843 1.12109375-.464843zm0 0" fill="#cda3ff" stroke="#cda3ff" stroke-miterlimit="10" stroke-width="1.00002" transform="matrix(1 0 0 -1 331.32333 124.32837)"/><path d="m.0016375-1.582822c.4179685 0 .8203125.167968 1.1171875.464843s.460938.699219.460938 1.11718775c0 .42187525-.164063.82421925-.460938 1.12109425-.296875.292968-.699219.460937-1.1171875.460937-.4218745 0-.8242185-.167969-1.1210935-.460937-.296875-.296875-.460938-.699219-.460938-1.12109425 0-.41796875.164063-.82031275.460938-1.11718775s.699219-.464843 1.1210935-.464843zm0 0" fill="#cda3ff" stroke="#cda3ff" stroke-miterlimit="10" stroke-width="1.00002" transform="matrix(1 0 0 -1 338.5843 140.33124)"/><path d="m.00106875-1.579037c.41796925 0 .82031225.164062 1.11718725.460937s.460938.699219.460938 1.1171875c0 .4218755-.164063.8242185-.460938 1.1210935-.296875.292969-.699218.460938-1.11718725.460938-.42187475 0-.82421875-.167969-1.12109375-.460938-.296875-.296875-.460937-.699218-.460937-1.1210935 0-.4179685.164062-.8203125.460937-1.1171875s.699219-.460937 1.12109375-.460937zm0 0" fill="#cda3ff" stroke="#cda3ff" stroke-miterlimit="10" stroke-width="1.00002" transform="matrix(1 0 0 -1 344.07315 196.8819)"/><path d="m.001055-1.57933c.417969 0 .820313.164062 1.117188.460937s.460937.699219.460937 1.117188c0 .421875-.164062.824219-.460937 1.121094s-.699219.460937-1.117188.460937c-.421875 0-.824219-.164062-1.121094-.460937s-.460937-.699219-.460937-1.121094c0-.417969.164062-.820313.460937-1.117188s.699219-.460937 1.121094-.460937zm0 0" fill="#cda3ff" stroke="#cda3ff" stroke-miterlimit="10" stroke-width="1.00002" transform="matrix(1 0 0 -1 346.35832 154.32692)"/><path d="m-.00194875-1.581599c.42187475 0 .82421875.167969 1.12109375.464844s.460938.695312.460938 1.1171875c0 .4179685-.164063.8203125-.460938 1.1171875s-.699219.464844-1.12109375.464844c-.41796825 0-.82031225-.167969-1.11718725-.464844s-.460938-.699219-.460938-1.1171875c0-.4218755.164063-.8203125.460938-1.1171875s.699219-.464844 1.11718725-.464844zm0 0" fill="#cda3ff" stroke="#cda3ff" stroke-miterlimit="10" stroke-width="1.00002" transform="matrix(1 0 0 -1 350.70898 167.80512)"/><path d="m.00135375-1.580533c.41796925 0 .82031225.164063 1.11718725.460938s.460938.699219.460938 1.12109375c0 .41796825-.164063.82031225-.460938 1.11718725s-.699218.460938-1.11718725.460938c-.42187475 0-.82421875-.164063-1.12109375-.460938s-.460937-.699219-.460937-1.11718725c0-.42187475.164062-.82421875.460937-1.12109375s.699219-.460938 1.12109375-.460938zm0 0" fill="#cda3ff" stroke="#cda3ff" stroke-miterlimit="10" stroke-width="1.00002" transform="matrix(1 0 0 -1 350.77599 155.45853)"/><path d="m-.00149375-1.581343c.42187475 0 .82421875.167969 1.12109375.464844.296875.292969.460937.695313.460937 1.11718775 0 .41796825-.164062.82031225-.460937 1.11718725s-.699219.464844-1.12109375.464844c-.41796925 0-.82031225-.167969-1.11718725-.464844s-.460938-.699219-.460938-1.11718725c0-.42187475.164063-.82421875.460938-1.11718775.296875-.296875.699218-.464844 1.11718725-.464844zm0 0" fill="#cda3ff" stroke="#cda3ff" stroke-miterlimit="10" stroke-width="1.00002" transform="matrix(1 0 0 -1 353.6929 141.36397)"/><path d="m.00004875-1.579169c.41796825 0 .82031225.164063 1.11718725.460938s.464844.699219.464844 1.11718725c0 .42187475-.167969.82421875-.464844 1.12109375s-.699219.460938-1.11718725.460938c-.41796875 0-.82031275-.164063-1.11718775-.460938s-.464844-.699219-.464844-1.12109375c0-.41796825.167969-.82031225.464844-1.11718725s.699219-.460938 1.11718775-.460938zm0 0" fill="#cda3ff" stroke="#cda3ff" stroke-miterlimit="10" stroke-width="1.00002" transform="matrix(1 0 0 -1 357.16792 139.1513)"/><path d="m-.000945-1.579358c.421875 0 .824219.164063 1.121094.460938.292968.296875.460937.699219.460937 1.1171875 0 .4218745-.167969.8242185-.460937 1.1210935-.296875.296875-.699219.460938-1.121094.460938-.417969 0-.820313-.164063-1.117188-.460938s-.460937-.699219-.460937-1.1210935c0-.4179685.164062-.8203125.460937-1.1171875s.699219-.460938 1.117188-.460938zm0 0" fill="#cda3ff" stroke="#cda3ff" stroke-miterlimit="10" stroke-width="1.00002" transform="matrix(1 0 0 -1 357.70407 115.41283)"/><path d="m.0012625-1.580641c.4179685 0 .8203125.164062 1.1171875.460937s.460937.699219.460937 1.121094c0 .417969-.164062.820312-.460937 1.117187s-.699219.460938-1.1171875.460938c-.4218755 0-.8242185-.164063-1.1210935-.460938s-.460938-.699218-.460938-1.117187c0-.421875.164063-.824219.460938-1.121094s.699218-.460937 1.1210935-.460937zm0 0" fill="#cda3ff" stroke="#cda3ff" stroke-miterlimit="10" stroke-width="1.00002" transform="matrix(1 0 0 -1 357.9128 128.40764)"/><path d="m.00036125-1.579845c.41796875 0 .82031275.164062 1.11718775.460937s.464844.699219.464844 1.117188c0 .421875-.167969.824219-.464844 1.121094s-.699219.460937-1.11718775.460937c-.42187525 0-.82031225-.164062-1.11718725-.460937s-.464844-.699219-.464844-1.121094c0-.417969.167969-.820313.464844-1.117188s.695312-.460937 1.11718725-.460937zm0 0" fill="#cda3ff" stroke="#cda3ff" stroke-miterlimit="10" stroke-width="1.00002" transform="matrix(1 0 0 -1 360.42542 151.68578)"/><path d="m-.00112875-1.582779c.42187475 0 .82421875.167969 1.12109375.464844s.460938.699219.460938 1.1171875c0 .4218755-.164063.8242185-.460938 1.1210935-.296875.292969-.699219.460938-1.12109375.460938-.41796825 0-.82031225-.167969-1.11718725-.460938-.296875-.296875-.460938-.699218-.460938-1.1210935 0-.4179685.164063-.8203125.460938-1.1171875s.699219-.464844 1.11718725-.464844zm0 0" fill="#cda3ff" stroke="#cda3ff" stroke-miterlimit="10" stroke-width="1.00002" transform="matrix(1 0 0 -1 363.70816 152.39769)"/><path d="m.00177375-1.580032c.41796925 0 .82031225.164062 1.11718725.460937s.460938.699219.460938 1.1171875c0 .4218755-.164063.8242185-.460938 1.1210935s-.699218.460938-1.11718725.460938c-.42187475 0-.82421875-.164063-1.12109375-.460938s-.460937-.699218-.460937-1.1210935c0-.4179685.164062-.8203125.460937-1.1171875s.699219-.460937 1.12109375-.460937zm0 0" fill="#cda3ff" stroke="#cda3ff" stroke-miterlimit="10" stroke-width="1.00002" transform="matrix(1 0 0 -1 365.93182 128.05278)"/><path d="m-.0003375-1.580172c.4218755 0 .8203125.164062 1.1171875.460937s.464844.699219.464844 1.12109375c0 .41796925-.167969.82031225-.464844 1.11718725s-.695312.460938-1.1171875.460938c-.4179685 0-.8203125-.164063-1.1171875-.460938s-.464844-.699218-.464844-1.11718725c0-.42187475.167969-.82421875.464844-1.12109375s.699219-.460937 1.1171875-.460937zm0 0" fill="#cda3ff" stroke="#cda3ff" stroke-miterlimit="10" stroke-width="1.00002" transform="matrix(1 0 0 -1 368.50815 127.99014)"/><path d="m.00034375-1.579316c.41796925 0 .82031225.164062 1.11718725.460937s.464844.699219.464844 1.11718775c0 .42187525-.167969.82421825-.464844 1.12109325s-.699218.460938-1.11718725.460938c-.42187475 0-.82031275-.164063-1.11718775-.460938s-.464843-.699218-.464843-1.12109325c0-.41796875.167968-.82031275.464843-1.11718775s.695313-.460937 1.11718775-.460937zm0 0" fill="#cda3ff" stroke="#cda3ff" stroke-miterlimit="10" stroke-width="1.00002" transform="matrix(1 0 0 -1 371.9645 99.33084)"/><path d="m.0010675-1.580075c.4179685 0 .8203125.164063 1.1171875.460938s.460938.699218.460938 1.117187c0 .421875-.164063.824219-.460938 1.121094s-.699219.460937-1.1171875.460937c-.4218745 0-.8242185-.164062-1.1210935-.460937s-.460938-.699219-.460938-1.121094c0-.417969.164063-.820312.460938-1.117187s.699219-.460938 1.1210935-.460938zm0 0" fill="#cda3ff" stroke="#cda3ff" stroke-miterlimit="10" stroke-width="1.00002" transform="matrix(1 0 0 -1 372.11612 115.5293)"/><path d="m-.00187375-1.579286c.42187475 0 .82421875.164062 1.12109375.460937s.460937.699219.460937 1.11718775c0 .42187525-.164062.82421925-.460937 1.12109425s-.699219.460937-1.12109375.460937c-.41796925 0-.82031225-.164062-1.11718725-.460937s-.460938-.699219-.460938-1.12109425c0-.41796875.164063-.82031275.460938-1.11718775s.699218-.460937 1.11718725-.460937zm0 0" fill="#cda3ff" stroke="#cda3ff" stroke-miterlimit="10" stroke-width="1.00002" transform="matrix(1 0 0 -1 373.44328 140.14337)"/><path d="m.00163625-1.582718c.41796875 0 .82031275.167969 1.11718775.464844s.460937.699219.460937 1.11718775c0 .42187525-.164062.82421825-.460937 1.11718725-.296875.296875-.699219.464844-1.11718775.464844-.42187525 0-.82421825-.167969-1.12109325-.464844-.296875-.292969-.460938-.695312-.460938-1.11718725 0-.41796875.164063-.82031275.460938-1.11718775s.699218-.464844 1.12109325-.464844zm0 0" fill="#cda3ff" stroke="#cda3ff" stroke-miterlimit="10" stroke-width="1.00002" transform="matrix(1 0 0 -1 376.40852 119.28447)"/><path d="m-.000195-1.580244c.417969 0 .820312.164063 1.117187.460938s.464844.699219.464844 1.1210935c0 .4179685-.167969.8203125-.464844 1.1171875s-.699218.460938-1.117187.460938-.820313-.164063-1.117188-.460938-.464843-.699219-.464843-1.1171875c0-.4218745.167968-.8242185.464843-1.1210935s.699219-.460938 1.117188-.460938zm0 0" fill="#cda3ff" stroke="#cda3ff" stroke-miterlimit="10" stroke-width="1.00002" transform="matrix(1 0 0 -1 376.60957 121.6971)"/><path d="m.0006225-1.58208c.4179685 0 .8203125.167969 1.1171875.464844s.464844.699219.464844 1.11718725c0 .41796875-.167969.82031275-.464844 1.11718775s-.699219.464844-1.1171875.464844c-.4218755 0-.8242185-.167969-1.1171875-.464844-.296875-.296875-.464844-.699219-.464844-1.11718775 0-.41796825.167969-.82031225.464844-1.11718725.292969-.296875.695312-.464844 1.1171875-.464844zm0 0" fill="#cda3ff" stroke="#cda3ff" stroke-miterlimit="10" stroke-width="1.00002" transform="matrix(1 0 0 -1 378.35094 102.91792)"/><path d="m.00041-1.581476c.417969 0 .820313.167968 1.117188.464843.296875.292969.464843.695313.464843 1.117188 0 .417969-.167968.820312-.464843 1.117187s-.699219.464844-1.117188.464844c-.421875 0-.820312-.167969-1.117187-.464844s-.464844-.699218-.464844-1.117187c0-.421875.167969-.824219.464844-1.117188.296875-.296875.695312-.464843 1.117187-.464843zm0 0" fill="#cda3ff" stroke="#cda3ff" stroke-miterlimit="10" stroke-width="1.00002" transform="matrix(1 0 0 -1 386.21834 63.85993)"/><path d="m.000335-1.580516c.417969 0 .820313.164062 1.117188.460937s.464843.699219.464843 1.121094c0 .417969-.167968.820312-.464843 1.117187s-.699219.460938-1.117188.460938c-.421875 0-.820312-.164063-1.117187-.460938s-.464844-.699218-.464844-1.117187c0-.421875.167969-.824219.464844-1.121094s.695312-.460937 1.117187-.460937zm0 0" fill="#cda3ff" stroke="#cda3ff" stroke-miterlimit="10" stroke-width="1.00002" transform="matrix(1 0 0 -1 391.42154 99.82964)"/><path d="m-.00007375-1.581957c.41796875 0 .82031275.167968 1.11718775.464843s.464844.699219.464844 1.11718775c0 .41796925-.167969.82031225-.464844 1.11718725s-.699219.464844-1.11718775.464844c-.41796825 0-.82031225-.167969-1.11718725-.464844s-.464844-.699218-.464844-1.11718725c0-.41796875.167969-.82031275.464844-1.11718775s.699219-.464843 1.11718725-.464843zm0 0" fill="#cda3ff" stroke="#cda3ff" stroke-miterlimit="10" stroke-width="1.00002" transform="matrix(1 0 0 -1 394.59773 74.97273)"/><path d="m.00002625-1.581786c.41796875 0 .82031275.167969 1.11718775.464844s.464844.695312.464844 1.117187c0 .417969-.167969.820313-.464844 1.117188s-.699219.464843-1.11718775.464843c-.41796825 0-.82031225-.167968-1.11718725-.464843s-.464844-.699219-.464844-1.117188c0-.421875.167969-.820312.464844-1.117187s.699219-.464844 1.11718725-.464844zm0 0" fill="#cda3ff" stroke="#cda3ff" stroke-miterlimit="10" stroke-width="1.00002" transform="matrix(1 0 0 -1 395.94138 68.45337)"/><path d="m.00076-1.581954c.417969 0 .820312.167969 1.117187.464844s.464844.699219.464844 1.1171875-.167969.8203125-.464844 1.1171875-.699218.464844-1.117187.464844c-.421875 0-.824219-.167969-1.121094-.464844-.292969-.296875-.460937-.699219-.460937-1.1171875s.167968-.8203125.460937-1.1171875c.296875-.296875.699219-.464844 1.121094-.464844zm0 0" fill="#cda3ff" stroke="#cda3ff" stroke-miterlimit="10" stroke-width="1.00002" transform="matrix(1 0 0 -1 396.37424 17.72664)"/><path d="m-.00047125-1.579633c.42187525 0 .82031225.164063 1.11718725.460938s.464844.699219.464844 1.1171875c0 .4218745-.167969.8242185-.464844 1.1210935s-.695312.460938-1.11718725.460938c-.41796875 0-.82031275-.164063-1.11718775-.460938s-.464844-.699219-.464844-1.1210935c0-.4179685.167969-.8203125.464844-1.1171875s.699219-.460938 1.11718775-.460938zm0 0" fill="#cda3ff" stroke="#cda3ff" stroke-miterlimit="10" stroke-width="1.00002" transform="matrix(1 0 0 -1 397.10594 54.77193)"/><path d="m-.000995-1.581957c.421875 0 .824219.167968 1.121094.464843s.460937.699219.460937 1.11718775c0 .41796925-.164062.82031225-.460937 1.11718725s-.699219.464844-1.121094.464844c-.417969 0-.820312-.167969-1.117187-.464844s-.460938-.699218-.460938-1.11718725c0-.41796875.164063-.82031275.460938-1.11718775s.699218-.464843 1.117187-.464843zm0 0" fill="#cda3ff" stroke="#cda3ff" stroke-miterlimit="10" stroke-width="1.00002" transform="matrix(1 0 0 -1 400.20412 46.47273)"/><path d="m55.355469 51.9545 1.261719 13.570312 1.046874 9.804688 1.808594 14.152344 1.785156 10.914062.964844 4.773438 1.425782 5.8125.453124 1.550781 1.507813 4.269531 1.113281 2.355469.921875 1.488281.835938 1.027344 1.167969.980469.765624.386718.554688.164063 1.464844.039062.894531-.230468 1.140625-.511719 1.519531-.996094 1.757813-1.46875 2.171875-2.082031 4.402343-4.277344 1.828126-1.53125 1.378906-.988281 1.550781-.90625 1.59375-.679688 1.574219-.398437 1.300781-.117188 1.046875.050782.949219.15625 1.152343.335937 1.253907.542969 1.503906.886719 1.417969 1.074218.046875.035157 1.945312 1.828125 1.21875 1.339843 1.964844 2.433594 1.558594 2.160156 2.253906 3.433594 2.574219 4.265625 2.753906 4.859375 9.796875 17.644531 2.824219 4.625 1.335937 2.042969 2.742188 3.863281 1.503906 1.90625 2.101563 2.382813 1.796874 1.757812 1.738282 1.453125 2.964844 1.898438 1.445312.65625 1.632812.527344 2.1875.363281 1.796876.007812 1.449218-.171875 1.597656-.367187 1.558594-.53125 1.585938-.703125 2.179687-1.203125 1.96875-1.300781 2.121094-1.59375 2.992187-2.507813 3.480469-3.167969 8-7.378906 3.082031-2.550781 2.480469-1.828125 1.96875-1.28125 2.128907-1.1875 1.488281-.703125 1.730469-.679688 1.214843-.386718 2.15625-.492188 1.667969-.21875 1.695312-.070312 1.777344.078125 1.976563.265625 1.34375.277343 2.472656.707032 2.292969.84375 2.621094 1.148437 4.441406 2.207031 5.25 2.625 2.75 1.199219 1.972656.71875 2.023438.582031 2.046874.394532 1.269532.140625 1.9375.035156 1.582031-.144531 1.914063-.386719 1.558593-.5 1.75-.761719.566407-.289062 2.144531-1.3125 1.914062-1.441407 1.773438-1.5625 1.652343-1.636718 1.167969-1.257813 2.835938-3.386719 2.261719-2.988281 2.9375-4.175781 3.945312-5.933594 6.019531-9.078125 2.496094-3.507812 2.210937-2.882813.609376-.75 2.929687-3.269531 1.417969-1.363281 2.039062-1.691407 2.441406-1.558593 1.550782-.714844 1.472656-.476563 1.261719-.253906 1.191406-.101562 1.496094.046875 1.863281.335937 1.429688.449219 1.515624.648437 1.207032.636719 1.480468.90625 2.054688 1.464844 2.355469 1.917969 2.488281 2.199218 6.4375 5.828125 2.722656 2.207032 1.734375 1.25 2.125 1.324218 1.9375.988282 1.300781.542968 1.707032.558594 1.671875.386719 1.917969.253906 1.957031.078125 2.054687-.074219 2.074219-.203125 6.773437-.792968 2.1875-.066407 1.910157.101563 1.113281.140625 2.226562.472656 1.667969.542969 1.136719.453125 2.277344 1.136719 1.648437.992187 2.75 1.945313 1.976563 1.605468 2.882812 2.617188 2.445313 2.480469 2.238281 2.519531 2.054688 2.582031 1.957031 2.75 1.832031 2.898438 1.484375 2.605468 2.082031 4.082032 2.039063 4.480468 1.925781 4.609375 6.953125 17.117188 1.433594 2.9375 1.222656 2.191406 1.515625 2.328125 2.234375 2.90625 1.492187 2.03125.441407.699219 1.199219 2.292969.96875 2.476562.410156 1.265625.738281 2.675781.96875 4.359375.476563 2.519532 1.285156 8.050781 2.8125 20.078125.820312 3.742187.328125.695313.40625-.039063.472657-1.660156.242187-1.683594" fill="none" stroke="#f55" stroke-linecap="square" stroke-miterlimit="10" stroke-width="1.50002" transform="matrix(1 0 0 -1 0 280.267)"/></g></svg>