<svg height="280.105" viewBox="0 0 424.641 280.105" width="424.641" xmlns="http://www.w3.org/2000/svg" xmlns:xlink="http://www.w3.org/1999/xlink"><defs><g id="a"><path d="m3.0625.09375c1.515625 0 2.421875-1.375 2.421875-3.71875s-.90625-3.71875-2.421875-3.71875-2.421875 1.375-2.421875 3.71875.890625 3.71875 2.421875 3.71875zm0-.59375c-1.125 0-1.78125-1.140625-1.78125-3.125s.671875-3.140625 1.78125-3.140625 1.78125 1.15625 1.78125 3.140625-.671875 3.125-1.78125 3.125zm0 0"/></g><g id="b"><path d="m3.046875-7.25h-.6875l-1.71875 1.140625v.6875l1.703125-1.140625h.03125v6.5625h.671875zm0 0"/></g><g id="c"><path d="m.8125 0h4.5v-.59375h-3.578125v-.046875l1.796875-2c1.203125-1.34375 1.5625-1.9375 1.5625-2.75 0-1.09375-.875-1.953125-2.09375-1.953125s-2.125.859375-2.125 2.0625h.625c0-.859375.59375-1.484375 1.484375-1.484375.84375 0 1.484375.546875 1.484375 1.375 0 .6875-.375 1.203125-1.296875 2.25l-2.359375 2.65625zm0 0"/></g><g id="d"><path d="m3.15625.09375c1.359375 0 2.359375-.875 2.359375-2.03125 0-.921875-.5625-1.59375-1.5-1.78125v-.046875c.765625-.234375 1.25-.84375 1.25-1.671875 0-1.03125-.8125-1.90625-2.09375-1.90625-1.203125 0-2.1875.765625-2.203125 1.90625h.640625c.015625-.8125.71875-1.328125 1.5625-1.328125.875 0 1.453125.5625 1.453125 1.359375 0 .84375-.6875 1.390625-1.625 1.390625h-.421875v.59375h.421875c1.15625 0 1.859375.59375 1.859375 1.484375 0 .828125-.703125 1.4375-1.703125 1.4375-.921875 0-1.640625-.515625-1.6875-1.3125h-.671875c.046875 1.125 1.015625 1.90625 2.359375 1.90625zm0 0"/></g><g id="e"><path d="m2.34375.125c.90625 0 1.46875-.5 1.6875-.984375h.046875v.859375h.625v-3.6875c0-1.46875-1.09375-1.828125-1.921875-1.828125-.84375 0-1.6875.328125-2.0625 1.21875l.59375.21875c.203125-.46875.6875-.875 1.484375-.875.828125 0 1.28125.453125 1.28125 1.203125v.125c0 .421875-.515625.421875-1.421875.53125-1.234375.15625-2.09375.5-2.09375 1.578125 0 1.046875.796875 1.640625 1.78125 1.640625zm.09375-.578125c-.71875 0-1.25-.375-1.25-1.03125 0-.671875.546875-.9375 1.46875-1.046875.4375-.0625 1.234375-.15625 1.421875-.34375v.796875c0 .890625-.640625 1.625-1.640625 1.625zm0 0"/></g><g id="f"><path d="m2.96875-5.4375h-1.140625v-1.296875h-.640625v1.296875h-.8125v.546875h.8125v3.625c0 .890625.703125 1.34375 1.40625 1.34375.25 0 .4375-.046875.546875-.09375l-.125-.5625c-.09375.015625-.203125.046875-.375.046875-.421875 0-.8125-.203125-.8125-.890625v-3.46875h1.140625zm0 0"/></g><g id="g"><path d="m.828125 0h.640625v-3.515625c0-.796875.609375-1.390625 1.46875-1.390625.15625 0 .3125.03125.375.03125v-.640625c-.09375 0-.234375 0-.328125 0-.6875 0-1.28125.359375-1.5.90625h-.046875v-.828125h-.609375zm0 0"/></g><g id="h"><path d="m4.28125-2.078125c0 1-.75 1.53125-1.484375 1.53125-.78125 0-1.328125-.5625-1.328125-1.40625v-3.484375h-.640625v3.515625c0 1.296875.75 2 1.796875 2 .796875 0 1.359375-.421875 1.609375-.984375h.046875v.90625h.640625v-5.4375h-.640625zm0 0"/></g><g id="i"><path d="m3.03125.109375c1.09375 0 1.828125-.59375 2.0625-1.265625l-.59375-.203125c-.203125.484375-.703125.890625-1.46875.890625-1.109375 0-1.8125-.8125-1.84375-2.0625h4.046875v-.3125c0-1.8125-1.125-2.671875-2.296875-2.671875-1.40625 0-2.390625 1.1875-2.390625 2.828125 0 1.65625.96875 2.796875 2.484375 2.796875zm-1.84375-3.203125c.0625-1 .75-1.84375 1.75-1.84375.96875 0 1.65625.796875 1.65625 1.84375zm0 0"/></g><g id="j"><path d="m2.90625 2.15625c1.28125 0 2.25-.640625 2.25-2.015625v-5.578125h-.625v1.03125h-.0625c-.21875-.484375-.671875-1.109375-1.671875-1.109375-1.34375 0-2.25 1.125-2.25 2.78125 0 1.671875.9375 2.671875 2.25 2.671875.96875 0 1.453125-.5625 1.65625-1.0625h.0625v1.234375c0 1-.640625 1.484375-1.609375 1.484375-.9375 0-1.375-.453125-1.609375-.875l-.515625.34375c.3125.625 1.015625 1.09375 2.125 1.09375zm-.046875-2.796875c-1.078125 0-1.671875-.859375-1.671875-2.109375 0-1.21875.59375-2.1875 1.671875-2.1875 1.0625 0 1.671875.921875 1.671875 2.1875 0 1.3125-.625 2.109375-1.671875 2.109375zm0 0"/></g><g id="k"><path d="m4.484375-4.25c-.265625-.78125-.84375-1.265625-1.84375-1.265625-1.09375 0-1.890625.625-1.890625 1.53125 0 .71875.4375 1.21875 1.390625 1.453125l.890625.203125c.59375.140625.875.453125.875.890625 0 .5625-.53125.984375-1.375.984375-.734375 0-1.203125-.34375-1.359375-.984375l-.609375.15625c.203125.90625.921875 1.390625 1.984375 1.390625 1.1875 0 2.015625-.65625 2.015625-1.578125 0-.71875-.453125-1.21875-1.359375-1.4375l-.828125-.203125c-.671875-.171875-.984375-.4375-.984375-.90625 0-.546875.515625-.9375 1.25-.9375s1.09375.390625 1.265625.875zm0 0"/></g><g id="l"><path d="m.84375 0h.625v-5.4375h-.625zm.3125-6.375c.265625 0 .484375-.203125.484375-.453125s-.21875-.453125-.484375-.453125c-.25 0-.46875.203125-.46875.453125s.21875.453125.46875.453125zm0 0"/></g><g id="m"><path d="m2.953125.109375c1.40625 0 2.390625-1.140625 2.390625-2.796875 0-1.671875-.984375-2.828125-2.390625-2.828125-1.421875 0-2.40625 1.15625-2.40625 2.828125 0 1.65625.984375 2.796875 2.40625 2.796875zm0-.578125c-1.140625 0-1.765625-1-1.765625-2.21875s.625-2.25 1.765625-2.25c1.125 0 1.75 1.03125 1.75 2.25s-.625 2.21875-1.75 2.21875zm0 0"/></g><g id="n"><path d="m1.46875-3.40625c0-.9375.609375-1.53125 1.46875-1.53125.84375 0 1.375.5625 1.375 1.453125v3.484375h.640625v-3.515625c0-1.296875-.75-2-1.859375-2-.796875 0-1.34375.375-1.59375.9375h-.0625v-.859375h-.609375v5.4375h.640625zm0 0"/></g><g id="o"><path d="m3.0625-5.4375h-1.203125v-.671875c0-.5625.3125-.875.859375-.875.21875 0 .34375.03125.4375.078125l.1875-.5625c-.140625-.046875-.34375-.125-.671875-.125-.75 0-1.4375.484375-1.4375 1.359375v.796875h-.84375v.546875h.84375v4.890625h.625v-4.890625h1.203125zm0 0"/></g><g id="p"><path d="m2.953125.109375c1.140625 0 1.9375-.71875 2.078125-1.703125h-.640625c-.140625.703125-.71875 1.125-1.4375 1.125-1.0625 0-1.765625-.921875-1.765625-2.25 0-1.3125.71875-2.21875 1.765625-2.21875.78125 0 1.296875.5 1.4375 1.109375h.640625c-.15625-1-1-1.6875-2.078125-1.6875-1.4375 0-2.40625 1.1875-2.40625 2.828125 0 1.609375.953125 2.796875 2.40625 2.796875zm0 0"/></g><g id="q"><path d="m2.515625-3.828125c.0625-.234375.171875-.640625.171875-.703125 0-.1875-.140625-.296875-.328125-.296875-.03125 0-.328125.015625-.421875.40625l-1.578125 6.3125c-.03125.125-.03125.15625-.03125.171875 0 .15625.125.296875.296875.296875.234375 0 .375-.203125.390625-.234375.046875-.09375.1875-.65625.59375-2.34375.359375.296875.84375.34375 1.0625.34375.765625 0 1.1875-.5 1.453125-.796875.09375.484375.5.796875.984375.796875.375 0 .625-.25.796875-.609375.1875-.390625.328125-1.046875.328125-1.078125 0-.109375-.09375-.109375-.125-.109375-.109375 0-.125.046875-.15625.203125-.1875.703125-.375 1.34375-.828125 1.34375-.296875 0-.328125-.28125-.328125-.5 0-.234375.125-.75.21875-1.125l.3125-1.1875c.03125-.15625.140625-.578125.171875-.734375.0625-.25.171875-.671875.171875-.734375 0-.203125-.15625-.296875-.3125-.296875-.0625 0-.34375.015625-.4375.390625l-.5 2.03125c-.140625.546875-.25 1-.28125 1.109375-.015625.0625-.546875 1.046875-1.421875 1.046875-.546875 0-.8125-.359375-.8125-.9375 0-.328125.078125-.625.15625-.9375zm0 0"/></g><g id="r"><path d="m2.59375-5.59375c0-.203125-.140625-.328125-.328125-.328125-.25 0-.484375.234375-.484375.46875 0 .171875.125.328125.328125.328125.25 0 .484375-.21875.484375-.46875zm.125 4.3125c0-.046875-.015625-.109375-.109375-.109375s-.109375.046875-.140625.15625c-.21875.734375-.578125 1.109375-.921875 1.109375-.140625 0-.21875-.078125-.21875-.296875s.078125-.40625.140625-.578125c.15625-.4375.15625-.453125.28125-.734375.140625-.375.34375-.890625.421875-1.140625.078125-.171875.078125-.25.078125-.328125 0-.515625-.40625-.765625-.765625-.765625-.875 0-1.21875 1.28125-1.21875 1.390625 0 .078125.0625.109375.125.109375.09375 0 .109375-.0625.140625-.171875.1875-.640625.53125-1.09375.921875-1.09375.09375 0 .21875.015625.21875.28125 0 .21875-.09375.453125-.171875.65625l-.640625 1.671875c-.0625.171875-.109375.3125-.109375.46875 0 .421875.3125.75.765625.75.875 0 1.203125-1.28125 1.203125-1.375zm0 0"/></g></defs><path d="m.00175625-.0013575v-3.4999995" fill="none" stroke="#fff" stroke-linejoin="round" stroke-miterlimit="10" stroke-width=".8" transform="matrix(1 0 0 -1 55.31465 238.67833)"/><use fill="#fff" x="52.257" xlink:href="#a" y="252.975"/><path d="m.0001375-.0013575v-3.4999995" fill="none" stroke="#fff" stroke-linejoin="round" stroke-miterlimit="10" stroke-width=".8" transform="matrix(1 0 0 -1 170.5858 238.67833)"/><use fill="#fff" x="168.363" xlink:href="#b" y="252.975"/><path d="m.001345-.0013575v-3.4999995" fill="none" stroke="#fff" stroke-linejoin="round" stroke-miterlimit="10" stroke-width=".8" transform="matrix(1 0 0 -1 285.85803 238.67833)"/><use fill="#fff" x="282.814" xlink:href="#c" y="252.975"/><path d="m-.00137375-.0013575v-3.4999995" fill="none" stroke="#fff" stroke-linejoin="round" stroke-miterlimit="10" stroke-width=".8" transform="matrix(1 0 0 -1 401.13028 238.67833)"/><use fill="#fff" x="397.992" xlink:href="#d" y="252.975"/><path d="m6.796875-5.859375c-.453125.09375-.625.4375-.625.703125 0 .34375.265625.46875.46875.46875.4375 0 .734375-.375.734375-.765625 0-.59375-.6875-.875-1.296875-.875-.875 0-1.359375.859375-1.484375 1.140625-.328125-1.078125-1.21875-1.140625-1.484375-1.140625-1.453125 0-2.234375 1.875-2.234375 2.203125 0 .046875.0625.125.15625.125.109375 0 .140625-.09375.171875-.140625.484375-1.59375 1.453125-1.890625 1.859375-1.890625.65625 0 .78125.59375.78125.9375 0 .3125-.078125.640625-.265625 1.328125l-.484375 1.96875c-.203125.859375-.625 1.65625-1.390625 1.65625-.0625 0-.421875 0-.734375-.1875.515625-.109375.640625-.53125.640625-.703125 0-.28125-.21875-.453125-.484375-.453125-.34375 0-.71875.296875-.71875.75 0 .609375.671875.875 1.28125.875.6875 0 1.1875-.546875 1.484375-1.125.234375.84375.9375 1.125 1.46875 1.125 1.46875 0 2.25-1.875 2.25-2.1875 0-.078125-.0625-.140625-.15625-.140625-.125 0-.140625.078125-.171875.1875-.390625 1.265625-1.234375 1.859375-1.875 1.859375-.5 0-.765625-.375-.765625-.96875 0-.3125.046875-.546875.28125-1.484375l.5-1.953125c.21875-.859375.703125-1.484375 1.359375-1.484375.03125 0 .4375 0 .734375.171875zm0 0" fill="#fff" transform="translate(223.785 265.533)"/><path d="m.00123125-.00156625h-3.50000025" fill="none" stroke="#fff" stroke-linejoin="round" stroke-miterlimit="10" stroke-width=".8" transform="matrix(1 0 0 -1 38.11205 203.75234)"/><use fill="#fff" x="24.749" xlink:href="#a" y="207.552"/><path d="m.00123125.00017h-3.50000025" fill="none" stroke="#fff" stroke-linejoin="round" stroke-miterlimit="10" stroke-width=".8" transform="matrix(1 0 0 -1 38.11205 139.50017)"/><use fill="#fff" x="24.749" xlink:href="#b" y="143.3"/><path d="m.00123125.00080625h-3.50000025" fill="none" stroke="#fff" stroke-linejoin="round" stroke-miterlimit="10" stroke-width=".8" transform="matrix(1 0 0 -1 38.11205 75.2469)"/><use fill="#fff" x="24.749" xlink:href="#c" y="79.049"/><path d="m.00123125-.00135375h-3.50000025" fill="none" stroke="#fff" stroke-linejoin="round" stroke-miterlimit="10" stroke-width=".8" transform="matrix(1 0 0 -1 38.11205 10.99474)"/><use fill="#fff" x="24.749" xlink:href="#d" y="14.797"/><path d="m1.609375-3.765625c.546875.375 1.03125.9375 1.03125 1.640625 0 .171875-.03125.859375-.6875 1.078125.015625-.046875.015625-.109375.015625-.140625 0-.4375-.375-.71875-.703125-.71875s-.453125.265625-.453125.484375c0 .234375.171875.734375.875.734375.734375 0 1.234375-.625 1.234375-1.4375 0-1.4375-1.3125-2.875-2.90625-3.28125l-5.59375-1.40625c-.078125-.015625-.15625-.046875-.25-.046875-.203125 0-.359375.171875-.359375.390625 0 .125.0625.4375.5.546875l4.203125 1.0625c.265625.0625.296875.0625.453125.1875.40625.28125.890625.75.890625 1.4375 0 .8125-.796875.875-1.171875.875-.828125 0-1.921875-.375-2.96875-.765625-.40625-.15625-.609375-.25-.890625-.25-.609375 0-1.15625.4375-1.15625 1.140625 0 1.3125 2.078125 1.84375 2.203125 1.84375.046875 0 .125-.046875.125-.15625 0-.125-.0625-.140625-.265625-.203125-1.203125-.34375-1.765625-.890625-1.765625-1.4375 0-.140625 0-.375.46875-.375.375 0 .78125.15625 1.328125.375 1.875.703125 2.359375.703125 2.703125.703125 1.359375 0 1.671875-.984375 1.671875-1.703125 0-.40625-.125-.921875-.65625-1.4375l.015625-.015625c.84375.21875 1.40625.359375 2.109375.875zm0 0" fill="#fff" transform="translate(17.959 128.52)"/><path d="m38.113281 41.425313v227.683593" fill="none" stroke="#fff" stroke-linecap="square" stroke-miterlimit="10" stroke-width=".8" transform="matrix(1 0 0 -1 0 280.105)"/><path d="m417.445312 41.425313v227.683593" fill="none" stroke="#fff" stroke-linecap="square" stroke-miterlimit="10" stroke-width=".8" transform="matrix(1 0 0 -1 0 280.105)"/><path d="m38.113281 41.425313h379.332031" fill="none" stroke="#fff" stroke-linecap="square" stroke-miterlimit="10" stroke-width=".8" transform="matrix(1 0 0 -1 0 280.105)"/><path d="m38.113281 269.108906h379.332031" fill="none" stroke="#fff" stroke-linecap="square" stroke-miterlimit="10" stroke-width=".8" transform="matrix(1 0 0 -1 0 280.105)"/><path d="m132.269531 216.655781h191.019531c1.335938 0 2 .667969 2 2v43.453125c0 1.335938-.664062 2-2 2h-191.019531c-1.335937 0-2-.664062-2-2v-43.453125c0-1.332031.664063-2 2-2zm0 0" fill="none" stroke="#fff" stroke-miterlimit="10" stroke-opacity=".7" stroke-width="1.00002" transform="matrix(1 0 0 -1 0 280.105)"/><path d="m.00072125-1.579535c.41796875 0 .82031275.164063 1.11718775.460938s.464843.699218.464843 1.117187c0 .421875-.167968.824219-.464843 1.121094s-.699219.460937-1.11718775.460937c-.42187525 0-.82421925-.164062-1.11718725-.460937-.296875-.296875-.464844-.699219-.464844-1.121094 0-.417969.167969-.820312.464844-1.117187.292968-.296875.695312-.460938 1.11718725-.460938zm0 0" fill="#cda3ff" stroke="#cda3ff" stroke-linejoin="round" stroke-miterlimit="10" stroke-width="1.00002" transform="matrix(1 0 0 -1 144.26881 24.96734)"/><g fill="#fff"><path d="m3.09375 0c2.171875 0 3.421875-1.359375 3.421875-3.640625 0-2.25-1.234375-3.609375-3.296875-3.609375h-2.25v7.25zm-1.46875-.59375v-6.0625h1.546875c1.765625 0 2.703125 1.140625 2.703125 3.015625 0 1.890625-.953125 3.046875-2.828125 3.046875zm0 0" transform="translate(162.267 27.596)"/><use x="169.413173" xlink:href="#e" y="27.596"/><use x="174.95736" xlink:href="#f" y="27.596"/><use x="178.526959" xlink:href="#e" y="27.596"/></g><path d="m3.609375 2.625c0-.046875 0-.0625-.1875-.25-1.359375-1.375-1.703125-3.4375-1.703125-5.09375 0-1.90625.40625-3.796875 1.75-5.171875.140625-.125.140625-.140625.140625-.1875 0-.0625-.046875-.09375-.109375-.09375-.109375 0-1.09375.734375-1.734375 2.125-.5625 1.1875-.6875 2.40625-.6875 3.328125 0 .84375.125 2.15625.71875 3.390625.65625 1.34375 1.59375 2.046875 1.703125 2.046875.0625 0 .109375-.03125.109375-.09375zm0 0" fill="#fff" transform="translate(186.873 27.596)"/><path d="m3.640625-3.296875c.0625-.28125.3125-1.28125 1.078125-1.28125.0625 0 .3125 0 .546875.140625-.296875.046875-.515625.328125-.515625.59375 0 .171875.109375.375.40625.375.25 0 .59375-.203125.59375-.625 0-.578125-.640625-.734375-1.015625-.734375-.640625 0-1.015625.578125-1.140625.84375-.28125-.734375-.875-.84375-1.1875-.84375-1.125 0-1.75 1.421875-1.75 1.6875 0 .109375.109375.109375.125.109375.09375 0 .125-.015625.140625-.125.375-1.15625 1.09375-1.421875 1.46875-1.421875.203125 0 .59375.09375.59375.734375 0 .328125-.1875 1.0625-.59375 2.59375-.171875.671875-.5625 1.125-1.03125 1.125-.078125 0-.328125 0-.546875-.140625.265625-.046875.5-.28125.5-.578125s-.234375-.390625-.390625-.390625c-.328125 0-.609375.28125-.609375.640625 0 .5.546875.71875 1.03125.71875.71875 0 1.109375-.765625 1.140625-.828125.140625.390625.53125.828125 1.1875.828125 1.109375 0 1.734375-1.40625 1.734375-1.6875 0-.109375-.09375-.109375-.125-.109375-.09375 0-.125.046875-.140625.125-.359375 1.171875-1.109375 1.421875-1.453125 1.421875-.421875 0-.59375-.34375-.59375-.71875 0-.234375.0625-.46875.171875-.953125zm0 0" fill="#fff" transform="translate(191.115 27.596)"/><use fill="#fff" x="197.35" xlink:href="#r" y="29.755"/><path d="m2.21875-.015625c0-.71875-.28125-1.140625-.703125-1.140625-.359375 0-.578125.265625-.578125.578125 0 .296875.21875.578125.578125.578125.125 0 .265625-.046875.375-.140625.046875-.015625.046875-.03125.0625-.03125s.015625.015625.015625.15625c0 .8125-.375 1.46875-.734375 1.828125-.125.125-.125.140625-.125.171875 0 .078125.0625.125.109375.125.125 0 1-.84375 1-2.125zm0 0" fill="#fff" transform="translate(201.001 27.596)"/><path d="m5.296875-4.15625c.046875-.15625.046875-.171875.046875-.25 0-.203125-.15625-.296875-.3125-.296875-.109375 0-.28125.0625-.390625.234375-.015625.046875-.109375.390625-.140625.59375-.078125.28125-.15625.578125-.21875.859375l-.5 1.96875c-.046875.15625-.515625.921875-1.234375.921875-.546875 0-.671875-.46875-.671875-.875 0-.5.1875-1.1875.5625-2.140625.171875-.453125.21875-.5625.21875-.78125 0-.5-.359375-.90625-.90625-.90625-1.03125 0-1.4375 1.59375-1.4375 1.6875 0 .109375.109375.109375.140625.109375.109375 0 .109375-.015625.171875-.203125.296875-1.015625.734375-1.34375 1.09375-1.34375.09375 0 .28125 0 .28125.34375 0 .28125-.109375.5625-.1875.765625-.4375 1.15625-.640625 1.78125-.640625 2.296875 0 .96875.6875 1.296875 1.34375 1.296875.421875 0 .78125-.1875 1.09375-.5-.140625.578125-.265625 1.109375-.703125 1.6875-.28125.359375-.703125.6875-1.203125.6875-.15625 0-.640625-.03125-.828125-.46875.171875 0 .3125 0 .46875-.125.109375-.09375.21875-.234375.21875-.453125 0-.328125-.296875-.375-.40625-.375-.25 0-.609375.171875-.609375.703125 0 .546875.484375.953125 1.15625.953125 1.125 0 2.25-.984375 2.546875-2.21875zm0 0" fill="#fff" transform="translate(205.853368 27.596)"/><use fill="#fff" x="211.198" xlink:href="#r" y="29.755"/><path d="m3.15625-2.71875c0-.859375-.125-2.171875-.71875-3.40625-.65625-1.34375-1.59375-2.046875-1.703125-2.046875-.0625 0-.109375.03125-.109375.09375 0 .046875 0 .0625.203125.265625 1.0625 1.078125 1.6875 2.8125 1.6875 5.09375 0 1.859375-.40625 3.78125-1.75 5.15625-.140625.125-.140625.140625-.140625.1875 0 .0625.046875.09375.109375.09375.109375 0 1.09375-.734375 1.734375-2.125.546875-1.1875.6875-2.40625.6875-3.3125zm0 0" fill="#fff" transform="translate(214.85 27.596)"/><path d="m134.269531 240.913594h20" style="fill:none;stroke-width:1.50002;stroke-linecap:square;stroke-linejoin:round;stroke:#50ea7b;stroke-miterlimit:10" transform="matrix(1 0 0 -1 0 280.105)"/><path d="m.53125-6.65625h2.296875v6.65625h.65625v-6.65625h2.296875v-.59375h-5.25zm0 0" fill="#fff" transform="translate(162.267 42.694)"/><g fill="#fff"><use x="168.000476" xlink:href="#g" y="42.694"/><use x="171.552143" xlink:href="#h" y="42.694"/><use x="177.297575" xlink:href="#i" y="42.694"/></g><use fill="#fff" x="185.881351" xlink:href="#g" y="42.694"/><g fill="#fff"><use x="189.263653" xlink:href="#i" y="42.694"/><use x="195.047939" xlink:href="#j" y="42.694"/><use x="201.034465" xlink:href="#g" y="42.694"/></g><g fill="#fff"><use x="204.416768" xlink:href="#i" y="42.694"/><use x="210.201054" xlink:href="#k" y="42.694"/><use x="215.309875" xlink:href="#k" y="42.694"/><use x="220.418696" xlink:href="#l" y="42.694"/><use x="222.729023" xlink:href="#m" y="42.694"/><use x="228.615923" xlink:href="#n" y="42.694"/></g><g fill="#fff"><use x="237.198703" xlink:href="#o" y="42.694"/><use x="240.69458" xlink:href="#h" y="42.694"/><use x="246.440011" xlink:href="#n" y="42.694"/><use x="252.213338" xlink:href="#p" y="42.694"/><use x="257.757525" xlink:href="#f" y="42.694"/><use x="261.327124" xlink:href="#l" y="42.694"/><use x="263.637451" xlink:href="#m" y="42.694"/><use x="269.524352" xlink:href="#n" y="42.694"/></g><use fill="#fff" x="278.095" xlink:href="#q" y="42.694"/><path d="m134.269531 226.237813h20" style="fill:none;stroke-width:1.50002;stroke-linecap:square;stroke-linejoin:round;stroke:#f55;stroke-miterlimit:10" transform="matrix(1 0 0 -1 0 280.105)"/><g fill="#fff"><path d="m.96875 0h4.265625v-.59375h-3.609375v-2.734375h3.328125v-.59375h-3.328125v-2.734375h3.546875v-.59375h-4.203125zm0 0" transform="translate(162.267 57.371)"/><use x="168.178807" xlink:href="#k" y="57.371"/><use x="173.287628" xlink:href="#f" y="57.371"/><use x="176.857228" xlink:href="#l" y="57.371"/><path d="m.828125 0h.640625v-3.484375c0-.84375.5625-1.453125 1.3125-1.453125.734375 0 1.171875.5 1.171875 1.234375v3.703125h.640625v-3.578125c0-.78125.46875-1.359375 1.296875-1.359375.71875 0 1.203125.4375 1.203125 1.296875v3.640625h.625v-3.640625c0-1.21875-.625-1.875-1.640625-1.875-.78125 0-1.359375.390625-1.609375 1h-.046875c-.234375-.625-.71875-1-1.46875-1-.703125 0-1.234375.34375-1.453125.90625h-.0625v-.828125h-.609375zm0 0" transform="translate(179.167555 57.371)"/><use x="187.715465" xlink:href="#e" y="57.371"/><use x="193.259652" xlink:href="#f" y="57.371"/></g><g fill="#fff"><use x="196.769476" xlink:href="#i" y="57.371"/><path d="m2.796875.109375c.984375 0 1.4375-.625 1.65625-1.125h.078125v1.015625h.625v-7.25h-.640625v2.84375h-.0625c-.203125-.484375-.65625-1.109375-1.65625-1.109375-1.34375 0-2.25 1.140625-2.25 2.8125 0 1.6875.90625 2.8125 2.25 2.8125zm.0625-.578125c-1.078125 0-1.671875-.984375-1.671875-2.25 0-1.25.59375-2.21875 1.671875-2.21875 1.0625 0 1.671875.921875 1.671875 2.21875 0 1.3125-.609375 2.25-1.671875 2.25zm0 0" transform="translate(202.553762 57.371)"/></g><use fill="#fff" x="211.463315" xlink:href="#g" y="57.371"/><g fill="#fff"><use x="214.845618" xlink:href="#i" y="57.371"/><use x="220.629903" xlink:href="#j" y="57.371"/><use x="226.61643" xlink:href="#g" y="57.371"/></g><g fill="#fff"><use x="229.998732" xlink:href="#i" y="57.371"/><use x="235.783018" xlink:href="#k" y="57.371"/><use x="240.891839" xlink:href="#k" y="57.371"/><use x="246.00066" xlink:href="#l" y="57.371"/><use x="248.310987" xlink:href="#m" y="57.371"/><use x="254.197888" xlink:href="#n" y="57.371"/></g><g fill="#fff"><use x="262.780668" xlink:href="#o" y="57.371"/><use x="266.276544" xlink:href="#h" y="57.371"/><use x="272.021975" xlink:href="#n" y="57.371"/><use x="277.795302" xlink:href="#p" y="57.371"/><use x="283.339489" xlink:href="#f" y="57.371"/><use x="286.909089" xlink:href="#l" y="57.371"/><use x="289.219416" xlink:href="#m" y="57.371"/><use x="295.106316" xlink:href="#n" y="57.371"/></g><path d="m2.765625-6.828125 2.703125 1.21875.125-.21875-2.828125-1.59375-2.8125 1.59375.109375.21875zm0 0" fill="#fff" transform="translate(304.501 56.964)"/><use fill="#fff" x="303.678" xlink:href="#q" y="57.371"/><g stroke-linejoin="round"><path d="m55.453125 220.687031 5.640625-9.269531 5.433594-8.640625 5.382812-8.277344 5.851563-8.679687 5.402343-7.71875 4.691407-6.476563 5.816406-7.730468 5.328125-6.796875 5.769531-7.046875 5.089844-5.953125 5.144531-5.761719 4.332032-4.652344 4.96875-5.109375 5.054687-4.957031 5.21875-4.859375 4.222656-3.738281 5.429688-4.554688 4.527343-3.574219 4.984376-3.714843 4.394531-3.070313 4.878906-3.195312 4.390625-2.671875 3.984375-2.269532 4.671875-2.460937 2.886719-1.414063 4.980469-2.253906 3.648437-1.5 4.367187-1.625 4.683594-1.535156 3.996094-1.144531 4.203125-1.035157 4.070313-.839843 4.445312-.738282 4.042969-.5 3.253906-.289062 4.839844-.242188 4.367187-.023437 4.152344.148437 4.089844.308594 4.292968.5 4.105469.644531 4.039063.789063 4.238281 1.003906 3.484375.953125 4.882812 1.53125 4.371094 1.566406 3.882813 1.550782 4.074219 1.78125 4.339843 2.074218 3.523438 1.816407 4.738281 2.632812 3.867188 2.308594 4.785156 3.058594 4.65625 3.191406 3.9375 2.863281 4.203125 3.214844 5.378906 4.371094 4.152344 3.5625 5.261719 4.757812 4.832031 4.601563 4.472656 4.460937 4.957031 5.171875 5.453125 5.960938 4.523438 5.167968 5.398437 6.421875 4.777344 5.917969 5.371094 6.917969 5.410156 7.25 5.160156 7.179687 5.335938 7.695313 4.699218 7.003906 6.066407 9.359375 5.984375 9.578125 3.457031 5.695313" fill="none" stroke="#50ea7b" stroke-linecap="square" stroke-miterlimit="10" stroke-width="1.50002" transform="matrix(1 0 0 -1 0 280.105)"/><path d="m.00124875-1.581815c.41796925 0 .82031225.167969 1.11718725.464844s.460938.699219.460938 1.11718725c0 .41796875-.164063.82031275-.460938 1.11718775s-.699218.464844-1.11718725.464844c-.42187475 0-.82421875-.167969-1.12109375-.464844s-.460937-.699219-.460937-1.11718775c0-.41796825.164062-.82031225.460937-1.11718725s.699219-.464844 1.12109375-.464844zm0 0" fill="#cda3ff" stroke="#cda3ff" stroke-miterlimit="10" stroke-width="1.00002" transform="matrix(1 0 0 -1 55.35422 47.55881)"/><path d="m.00186375-1.581462c.41796825 0 .82031225.167968 1.11718725.464843.296875.292969.460938.695313.460938 1.11718775 0 .41796925-.164063.82031225-.460938 1.11718725s-.699219.464844-1.11718725.464844c-.42187475 0-.82421875-.167969-1.12109375-.464844s-.460938-.699218-.460938-1.11718725c0-.42187475.164063-.82421875.460938-1.11718775.296875-.296875.699219-.464843 1.12109375-.464843zm0 0" fill="#cda3ff" stroke="#cda3ff" stroke-miterlimit="10" stroke-width="1.00002" transform="matrix(1 0 0 -1 56.30673 75.05135)"/><path d="m-.00177125-1.579756c.42187525 0 .82421825.164062 1.12109325.460937s.460938.699219.460938 1.11718775c0 .42187525-.164063.82421925-.460938 1.12109425s-.699218.460937-1.12109325.460937c-.41796875 0-.82031275-.164062-1.11718775-.460937s-.460937-.699219-.460937-1.12109425c0-.41796875.164062-.82031275.460937-1.11718775s.699219-.460937 1.11718775-.460937zm0 0" fill="#cda3ff" stroke="#cda3ff" stroke-miterlimit="10" stroke-width="1.00002" transform="matrix(1 0 0 -1 61.63849 66.3929)"/><path d="m-.00029125-1.579174c.42187525 0 .82031225.164063 1.11718725.460938s.464844.699219.464844 1.11718725c0 .42187475-.167969.82421875-.464844 1.12109375s-.695312.460938-1.11718725.460938c-.41796875 0-.82031275-.164063-1.11718775-.460938s-.464844-.699219-.464844-1.12109375c0-.41796825.167969-.82031225.464844-1.11718725s.699219-.460938 1.11718775-.460938zm0 0" fill="#cda3ff" stroke="#cda3ff" stroke-miterlimit="10" stroke-width="1.00002" transform="matrix(1 0 0 -1 62.01201 55.16692)"/><path d="m-.00094375-1.582639c.42187475 0 .82421875.167969 1.12109375.464844.292969.296875.460937.699219.460937 1.1171875 0 .4218745-.167968.8242185-.460937 1.1171875-.296875.296875-.699219.464844-1.12109375.464844-.41796925 0-.82031225-.167969-1.11718725-.464844-.296875-.292969-.460938-.695313-.460938-1.1171875 0-.4179685.164063-.8203125.460938-1.1171875s.699218-.464844 1.11718725-.464844zm0 0" fill="#cda3ff" stroke="#cda3ff" stroke-miterlimit="10" stroke-width="1.00002" transform="matrix(1 0 0 -1 64.7861 68.61658)"/><path d="m-.0000275-1.581405c.4179685 0 .8203125.167969 1.1171875.464844.296875.292969.464844.695312.464844 1.11718725 0 .41796875-.167969.82031275-.464844 1.11718775s-.699219.464844-1.1171875.464844-.8203125-.167969-1.1171875-.464844-.464844-.699219-.464844-1.11718775c0-.42187525.167969-.82421825.464844-1.11718725.296875-.296875.699219-.464844 1.1171875-.464844zm0 0" fill="#cda3ff" stroke="#cda3ff" stroke-miterlimit="10" stroke-width="1.00002" transform="matrix(1 0 0 -1 68.82034 60.62172)"/><path d="m.00114375-1.582556c.41796925 0 .82031225.167969 1.11718725.464844s.460938.699218.460938 1.117187c0 .421875-.164063.824219-.460938 1.117188-.296875.296875-.699218.464843-1.11718725.464843-.42187475 0-.82421875-.167968-1.12109375-.464843-.296875-.292969-.460937-.695313-.460937-1.117188 0-.417969.164062-.820312.460937-1.117187s.699219-.464844 1.12109375-.464844zm0 0" fill="#cda3ff" stroke="#cda3ff" stroke-miterlimit="10" stroke-width="1.00002" transform="matrix(1 0 0 -1 72.5887 84.79635)"/><path d="m.00088125-1.579239c.41796875 0 .82031275.164063 1.11718775.460938s.460937.699219.460937 1.11718725c0 .42187475-.164062.82421875-.460937 1.12109375s-.699219.460938-1.11718775.460938c-.42187525 0-.82421925-.164063-1.12109425-.460938-.292968-.296875-.460937-.699219-.460937-1.12109375 0-.41796825.167969-.82031225.460937-1.11718725.296875-.296875.699219-.460938 1.12109425-.460938zm0 0" fill="#cda3ff" stroke="#cda3ff" stroke-miterlimit="10" stroke-width="1.00002" transform="matrix(1 0 0 -1 73.76865 86.83873)"/><path d="m-.00169375-1.58175c.42187475 0 .82421875.167969 1.12109375.464844s.460937.695312.460937 1.11718725c0 .41796875-.164062.82031275-.460937 1.11718775s-.699219.464844-1.12109375.464844c-.41796925 0-.82031225-.167969-1.11718725-.464844s-.460938-.699219-.460938-1.11718775c0-.42187525.164063-.82031225.460938-1.11718725s.699218-.464844 1.11718725-.464844zm0 0" fill="#cda3ff" stroke="#cda3ff" stroke-miterlimit="10" stroke-width="1.00002" transform="matrix(1 0 0 -1 84.72435 118.98075)"/><path d="m-.00074625-1.580453c.42187525 0 .82421825.164063 1.12109325.460938.292969.296875.460938.699219.460938 1.12109375 0 .41796825-.167969.82031225-.460938 1.11718725-.296875.296875-.699218.460938-1.12109325.460938-.41796875 0-.82031275-.164063-1.11718775-.460938s-.464844-.699219-.464844-1.11718725c0-.42187475.167969-.82421875.464844-1.12109375s.699219-.460938 1.11718775-.460938zm0 0" fill="#cda3ff" stroke="#cda3ff" stroke-miterlimit="10" stroke-width="1.00002" transform="matrix(1 0 0 -1 87.24684 114.67736)"/><path d="m-.00017125-1.58273c.41796925 0 .82031225.167969 1.11718725.464844s.464844.699219.464844 1.11718725c0 .42187475-.167969.82421875-.464844 1.11718775-.296875.296875-.699218.464844-1.11718725.464844-.41796875 0-.82031275-.167969-1.11718775-.464844-.296875-.292969-.464843-.695313-.464843-1.11718775 0-.41796825.167968-.82031225.464843-1.11718725s.699219-.464844 1.11718775-.464844zm0 0" fill="#cda3ff" stroke="#cda3ff" stroke-miterlimit="10" stroke-width="1.00002" transform="matrix(1 0 0 -1 89.32439 119.32352)"/><path d="m-.000045-1.580059c.417969 0 .820312.164063 1.117187.460938s.464844.699219.464844 1.11718725c0 .42187475-.167969.82421875-.464844 1.12109375s-.699218.460938-1.117187.460938-.820313-.164063-1.117188-.460938-.464843-.699219-.464843-1.12109375c0-.41796825.167968-.82031225.464843-1.11718725s.699219-.460938 1.117188-.460938zm0 0" fill="#cda3ff" stroke="#cda3ff" stroke-miterlimit="10" stroke-width="1.00002" transform="matrix(1 0 0 -1 90.70317 79.43166)"/><path d="m-.00018125-1.581276c.41796825 0 .82031225.167968 1.11718725.460937.296875.296875.464844.699219.464844 1.121094 0 .417969-.167969.820312-.464844 1.117187s-.699219.464844-1.11718725.464844c-.41796875 0-.82031275-.167969-1.11718775-.464844s-.464844-.699218-.464844-1.117187c0-.421875.167969-.824219.464844-1.121094.296875-.292969.699219-.460937 1.11718775-.460937zm0 0" fill="#cda3ff" stroke="#cda3ff" stroke-miterlimit="10" stroke-width="1.00002" transform="matrix(1 0 0 -1 91.0119 108.07888)"/><path d="m.00050375-1.579811c.41796825 0 .82031225.164062 1.11718725.460937s.464844.699219.464844 1.11718775c0 .42187525-.167969.82421925-.464844 1.12109425s-.699219.460937-1.11718725.460937c-.42187475 0-.82031275-.164062-1.11718775-.460937s-.464844-.699219-.464844-1.12109425c0-.41796875.167969-.82031275.464844-1.11718775s.695313-.460937 1.11718775-.460937zm0 0" fill="#cda3ff" stroke="#cda3ff" stroke-miterlimit="10" stroke-width="1.00002" transform="matrix(1 0 0 -1 94.99559 137.18972)"/><path d="m.00116-1.579704c.417969 0 .820312.164063 1.117187.460938s.460938.699219.460938 1.11718725c0 .42187475-.164063.82421875-.460938 1.12109375s-.699218.460938-1.117187.460938c-.421875 0-.824219-.164063-1.121094-.460938s-.460937-.699219-.460937-1.12109375c0-.41796825.164062-.82031225.460937-1.11718725s.699219-.460938 1.121094-.460938zm0 0" fill="#cda3ff" stroke="#cda3ff" stroke-miterlimit="10" stroke-width="1.00002" transform="matrix(1 0 0 -1 100.28009 116.91639)"/><path d="m.00014875-1.581476c.41796925 0 .82031225.167968 1.11718725.464843.296875.292969.464844.695313.464844 1.117188 0 .417969-.167969.820312-.464844 1.117187s-.699218.464844-1.11718725.464844c-.41796875 0-.82031275-.167969-1.11718775-.464844s-.464843-.699218-.464843-1.117187c0-.421875.167968-.824219.464843-1.117188.296875-.296875.699219-.464843 1.11718775-.464843zm0 0" fill="#cda3ff" stroke="#cda3ff" stroke-miterlimit="10" stroke-width="1.00002" transform="matrix(1 0 0 -1 102.85532 131.45368)"/><path d="m-.0016775-1.582715c.4218755 0 .8242185.167969 1.1210935.464844s.460938.699218.460938 1.11718725c0 .42187475-.164063.82421875-.460938 1.11718775-.296875.296875-.699218.464843-1.1210935.464843-.4179685 0-.8203125-.167968-1.1171875-.464843-.296875-.292969-.460937-.695313-.460937-1.11718775 0-.41796925.164062-.82031225.460937-1.11718725s.699219-.464844 1.1171875-.464844zm0 0" fill="#cda3ff" stroke="#cda3ff" stroke-miterlimit="10" stroke-width="1.00002" transform="matrix(1 0 0 -1 103.47824 187.37041)"/><path d="m.00052125-1.580641c.41796875 0 .82031275.164062 1.11718775.460937s.464844.699219.464844 1.121094c0 .417969-.167969.820313-.464844 1.117188s-.699219.460937-1.11718775.460937c-.42187525 0-.82421825-.164062-1.11718725-.460937-.296875-.296875-.464844-.699219-.464844-1.117188 0-.421875.167969-.824219.464844-1.121094.292969-.296875.695312-.460937 1.11718725-.460937zm0 0" fill="#cda3ff" stroke="#cda3ff" stroke-miterlimit="10" stroke-width="1.00002" transform="matrix(1 0 0 -1 103.86276 119.72014)"/><path d="m-.0009725-1.58108c.4218745 0 .8242185.167969 1.1210935.460938.292969.296875.460938.699218.460938 1.12109325 0 .41796875-.167969.82031275-.460938 1.11718775-.296875.296875-.699219.460937-1.1210935.460937-.4179685 0-.8203125-.164062-1.1171875-.460937s-.460938-.699219-.460938-1.11718775c0-.42187525.164063-.82421825.460938-1.12109325.296875-.292969.699219-.460938 1.1171875-.460938zm0 0" fill="#cda3ff" stroke="#cda3ff" stroke-miterlimit="10" stroke-width="1.00002" transform="matrix(1 0 0 -1 106.05566 161.51267)"/><path d="m.00193625-1.579297c.41796875 0 .82031275.164062 1.11718775.460937s.460937.699219.460937 1.1171875c0 .4218755-.164062.8242185-.460937 1.1210935s-.699219.460938-1.11718775.460938c-.42187525 0-.82421925-.164063-1.12109425-.460938s-.460937-.699218-.460937-1.1210935c0-.4179685.164062-.8203125.460937-1.1171875s.699219-.460937 1.12109425-.460937zm0 0" fill="#cda3ff" stroke="#cda3ff" stroke-miterlimit="10" stroke-width="1.00002" transform="matrix(1 0 0 -1 106.06447 120.44414)"/><path d="m-.00094625-1.579192c.42187525 0 .82421825.164062 1.12109325.460937.292969.296875.460938.699219.460938 1.1171875 0 .4218755-.167969.8242185-.460938 1.1210935-.296875.296875-.699218.460938-1.12109325.460938-.41796875 0-.82031275-.164063-1.11718775-.460938s-.460937-.699218-.460937-1.1210935c0-.4179685.164062-.8203125.460937-1.1171875s.699219-.460937 1.11718775-.460937zm0 0" fill="#cda3ff" stroke="#cda3ff" stroke-miterlimit="10" stroke-width="1.00002" transform="matrix(1 0 0 -1 112.49704 157.52237)"/><path d="m.001835-1.5821c.417969 0 .820312.167969 1.117187.464844s.460938.699219.460938 1.11718725c0 .41796875-.164063.82031275-.460938 1.11718775s-.699218.464844-1.117187.464844c-.421875 0-.824219-.167969-1.121094-.464844s-.460937-.699219-.460937-1.11718775c0-.41796825.164062-.82031225.460937-1.11718725s.699219-.464844 1.121094-.464844zm0 0" fill="#cda3ff" stroke="#cda3ff" stroke-miterlimit="10" stroke-width="1.00002" transform="matrix(1 0 0 -1 114.04504 168.82415)"/><path d="m.0004225-1.579933c.4179685 0 .8203125.164063 1.1171875.460938s.464844.699219.464844 1.1171875c0 .4218745-.167969.8242185-.464844 1.1210935s-.699219.460938-1.1171875.460938c-.4218755 0-.8203125-.164063-1.1171875-.460938s-.464844-.699219-.464844-1.1210935c0-.4179685.167969-.8203125.464844-1.1171875s.695312-.460938 1.1171875-.460938zm0 0" fill="#cda3ff" stroke="#cda3ff" stroke-miterlimit="10" stroke-width="1.00002" transform="matrix(1 0 0 -1 119.72614 137.30288)"/><path d="m-.0004775-1.580607c.4218755 0 .8203125.164062 1.1171875.460937s.464844.699219.464844 1.12109375c0 .41796925-.167969.82031225-.464844 1.11718725s-.695312.460938-1.1171875.460938c-.4179685 0-.8203125-.164063-1.1171875-.460938s-.464844-.699218-.464844-1.11718725c0-.42187475.167969-.82421875.464844-1.12109375s.699219-.460937 1.1171875-.460937zm0 0" fill="#cda3ff" stroke="#cda3ff" stroke-miterlimit="10" stroke-width="1.00002" transform="matrix(1 0 0 -1 123.82079 179.84908)"/><path d="m-.001355-1.582544c.421875 0 .824219.167969 1.121094.464844s.460937.699219.460937 1.1171875c0 .4218755-.164062.8242185-.460937 1.1171875-.296875.296875-.699219.464844-1.121094.464844-.417969 0-.820313-.167969-1.117188-.464844-.296875-.292969-.460937-.695312-.460937-1.1171875 0-.4179685.164062-.8203125.460937-1.1171875s.699219-.464844 1.117188-.464844zm0 0" fill="#cda3ff" stroke="#cda3ff" stroke-miterlimit="10" stroke-width="1.00002" transform="matrix(1 0 0 -1 126.01698 161.85105)"/><path d="m.00116-1.579878c.417969 0 .820312.164063 1.117187.460938s.460938.699219.460938 1.1171875c0 .4218745-.164063.8242185-.460938 1.1210935s-.699218.460938-1.117187.460938c-.421875 0-.824219-.164063-1.121094-.460938s-.460937-.699219-.460937-1.1210935c0-.4179685.164062-.8203125.460937-1.1171875s.699219-.460938 1.121094-.460938zm0 0" fill="#cda3ff" stroke="#cda3ff" stroke-miterlimit="10" stroke-width="1.00002" transform="matrix(1 0 0 -1 128.49884 151.72481)"/><path d="m-.00127-1.581949c.421875 0 .824219.167969 1.121094.464844s.460937.699219.460937 1.1171875-.164062.8203125-.460937 1.1171875-.699219.464844-1.121094.464844c-.417969 0-.820313-.167969-1.117188-.464844s-.460937-.699219-.460937-1.1171875.164062-.8203125.460937-1.1171875.699219-.464844 1.117188-.464844zm0 0" fill="#cda3ff" stroke="#cda3ff" stroke-miterlimit="10" stroke-width="1.00002" transform="matrix(1 0 0 -1 137.28252 151.96102)"/><path d="m-.00053875-1.58052c.42187475 0 .82421875.164063 1.11718775.460938.296875.296875.464844.699218.464844 1.12109325 0 .41796875-.167969.82031275-.464844 1.11718775-.292969.296875-.695313.460937-1.11718775.460937-.41796825 0-.82031225-.164062-1.11718725-.460937s-.464844-.699219-.464844-1.11718775c0-.42187525.167969-.82421825.464844-1.12109325s.699219-.460938 1.11718725-.460938zm0 0" fill="#cda3ff" stroke="#cda3ff" stroke-miterlimit="10" stroke-width="1.00002" transform="matrix(1 0 0 -1 147.14507 157.60698)"/><path d="m.00004625-1.580175c.41796875 0 .82031275.164063 1.11718775.460938s.464843.699218.464843 1.12109325c0 .41796875-.167968.82031275-.464843 1.11718775s-.699219.460937-1.11718775.460937c-.41796925 0-.82031225-.164062-1.11718725-.460937s-.464844-.699219-.464844-1.11718775c0-.42187525.167969-.82421825.464844-1.12109325s.699218-.460938 1.11718725-.460938zm0 0" fill="#cda3ff" stroke="#cda3ff" stroke-miterlimit="10" stroke-width="1.00002" transform="matrix(1 0 0 -1 148.66011 173.8417)"/><path d="m.000255-1.581786c.417969 0 .820313.167969 1.117188.464844s.464843.695312.464843 1.117187c0 .417969-.167968.820313-.464843 1.117188s-.699219.464843-1.117188.464843c-.421875 0-.820312-.167968-1.117187-.464843s-.464844-.699219-.464844-1.117188c0-.421875.167969-.820312.464844-1.117187s.695312-.464844 1.117187-.464844zm0 0" fill="#cda3ff" stroke="#cda3ff" stroke-miterlimit="10" stroke-width="1.00002" transform="matrix(1 0 0 -1 152.29662 191.92212)"/><path d="m.00083125-1.579035c.41796875 0 .82031275.164062 1.11718775.460937s.464843.699219.464843 1.117188c0 .421875-.167968.824219-.464843 1.121094-.296875.292968-.699219.460937-1.11718775.460937-.42187525 0-.82421925-.167969-1.12109425-.460937-.292968-.296875-.460937-.699219-.460937-1.121094 0-.417969.167969-.820313.460937-1.117188.296875-.296875.699219-.460937 1.12109425-.460937zm0 0" fill="#cda3ff" stroke="#cda3ff" stroke-miterlimit="10" stroke-width="1.00002" transform="matrix(1 0 0 -1 154.8312 140.62409)"/><path d="m.0010425-1.581312c.4179685 0 .8203125.167968 1.1171875.464843.296875.292969.460937.695313.460937 1.11718775 0 .41796925-.164062.82031225-.460937 1.11718725s-.699219.464844-1.1171875.464844c-.4218755 0-.8242185-.167969-1.1210935-.464844s-.460938-.699218-.460938-1.11718725c0-.42187475.164063-.82421875.460938-1.11718775.296875-.296875.699218-.464843 1.1210935-.464843zm0 0" fill="#cda3ff" stroke="#cda3ff" stroke-miterlimit="10" stroke-width="1.00002" transform="matrix(1 0 0 -1 156.85052 190.8015)"/><path d="m-.00191875-1.580666c.42187475 0 .82421875.164062 1.12109375.460937s.460937.699219.460937 1.121094c0 .417969-.164062.820313-.460937 1.117188s-.699219.460937-1.12109375.460937c-.41796925 0-.82031225-.164062-1.11718725-.460937s-.460938-.699219-.460938-1.117188c0-.421875.164063-.824219.460938-1.121094s.699218-.460937 1.11718725-.460937zm0 0" fill="#cda3ff" stroke="#cda3ff" stroke-miterlimit="10" stroke-width="1.00002" transform="matrix(1 0 0 -1 159.8652 146.39199)"/><path d="m.001445-1.580681c.417969 0 .820313.164062 1.117188.460937s.460937.699219.460937 1.121094c0 .417969-.164062.820313-.460937 1.117188s-.699219.460937-1.117188.460937c-.421875 0-.824219-.164062-1.121094-.460937s-.460937-.699219-.460937-1.117188c0-.421875.164062-.824219.460937-1.121094s.699219-.460937 1.121094-.460937zm0 0" fill="#cda3ff" stroke="#cda3ff" stroke-miterlimit="10" stroke-width="1.00002" transform="matrix(1 0 0 -1 163.70168 192.3451)"/><path d="m.00119125-1.579375c.41796875 0 .82031275.164063 1.11718775.460938s.460937.699218.460937 1.117187c0 .421875-.164062.824219-.460937 1.121094s-.699219.460937-1.11718775.460937c-.42187525 0-.82421825-.164062-1.12109325-.460937s-.460938-.699219-.460938-1.121094c0-.417969.164063-.820312.460938-1.117187s.699218-.460938 1.12109325-.460938zm0 0" fill="#cda3ff" stroke="#cda3ff" stroke-miterlimit="10" stroke-width="1.00002" transform="matrix(1 0 0 -1 164.42459 161.68625)"/><path d="m.00192625-1.579032c.41796875 0 .82031275.164062 1.11718775.460937s.460937.699219.460937 1.1171875c0 .4218755-.164062.8242185-.460937 1.1210935-.296875.292969-.699219.460938-1.11718775.460938-.42187525 0-.82421925-.167969-1.12109425-.460938-.296875-.296875-.460937-.699218-.460937-1.1210935 0-.4179685.164062-.8203125.460937-1.1171875s.699219-.460937 1.12109425-.460937zm0 0" fill="#cda3ff" stroke="#cda3ff" stroke-miterlimit="10" stroke-width="1.00002" transform="matrix(1 0 0 -1 174.81448 169.33503)"/><path d="m.001155-1.581307c.417969 0 .820313.167968 1.117188.464843.296875.292969.460937.695313.460937 1.11718775 0 .41796925-.164062.82031225-.460937 1.11718725s-.699219.464844-1.117188.464844c-.421875 0-.824219-.167969-1.121094-.464844s-.460937-.699218-.460937-1.11718725c0-.42187475.164062-.82421875.460937-1.11718775.296875-.296875.699219-.464843 1.121094-.464843zm0 0" fill="#cda3ff" stroke="#cda3ff" stroke-miterlimit="10" stroke-width="1.00002" transform="matrix(1 0 0 -1 175.57697 210.50463)"/><path d="m-.00043-1.5803c.421875 0 .820313.164063 1.117188.460938s.464843.699218.464843 1.12109325c0 .41796875-.167968.82031275-.464843 1.11718775s-.695313.460937-1.117188.460937c-.417969 0-.820312-.164062-1.117187-.460937s-.464844-.699219-.464844-1.11718775c0-.42187525.167969-.82421825.464844-1.12109325s.699218-.460938 1.117187-.460938zm0 0" fill="#cda3ff" stroke="#cda3ff" stroke-miterlimit="10" stroke-width="1.00002" transform="matrix(1 0 0 -1 175.96918 183.70095)"/><path d="m.0009575-1.580805c.4179685 0 .8203125.164063 1.1171875.460938s.460937.699218.460937 1.12109325c0 .41796875-.164062.82031275-.460937 1.11718775s-.699219.460937-1.1171875.460937c-.4218755 0-.8242185-.164062-1.1210935-.460937-.292969-.296875-.460938-.699219-.460938-1.11718775 0-.42187525.167969-.82421825.460938-1.12109325.296875-.296875.699218-.460938 1.1210935-.460938zm0 0" fill="#cda3ff" stroke="#cda3ff" stroke-miterlimit="10" stroke-width="1.00002" transform="matrix(1 0 0 -1 192.52248 183.02857)"/><path d="m-.0018625-1.580185c.4218745 0 .8242185.164062 1.1210935.460937s.460938.699219.460938 1.12109425c0 .41796875-.164063.82031275-.460938 1.11718775s-.699219.460937-1.1210935.460937c-.4179685 0-.8203125-.164062-1.1171875-.460937s-.460938-.699219-.460938-1.11718775c0-.42187525.164063-.82421925.460938-1.12109425s.699219-.460937 1.1171875-.460937zm0 0" fill="#cda3ff" stroke="#cda3ff" stroke-miterlimit="10" stroke-width="1.00002" transform="matrix(1 0 0 -1 192.8378 184.18544)"/><path d="m-.001415-1.582632c.421875 0 .824219.167968 1.121094.464843s.460937.699219.460937 1.11718775c0 .42187525-.164062.82421925-.460937 1.11718725-.296875.296875-.699219.464844-1.121094.464844-.417969 0-.820313-.167969-1.117188-.464844-.296875-.292968-.460937-.695312-.460937-1.11718725 0-.41796875.164062-.82031275.460937-1.11718775s.699219-.464843 1.117188-.464843zm0 0" fill="#cda3ff" stroke="#cda3ff" stroke-miterlimit="10" stroke-width="1.00002" transform="matrix(1 0 0 -1 196.45454 202.70643)"/><path d="m-.00133-1.582008c.421875 0 .824219.167969 1.121094.464844s.460937.699219.460937 1.11718775c0 .41796825-.164062.82031225-.460937 1.11718725s-.699219.464844-1.121094.464844c-.417969 0-.820313-.167969-1.117188-.464844s-.460937-.699219-.460937-1.11718725c0-.41796875.164062-.82031275.460937-1.11718775s.699219-.464844 1.117188-.464844zm0 0" fill="#cda3ff" stroke="#cda3ff" stroke-miterlimit="10" stroke-width="1.00002" transform="matrix(1 0 0 -1 198.50133 193.66018)"/><path d="m-.00120125-1.582574c.42187525 0 .82421925.167969 1.12109425.464844s.460937.699219.460937 1.1171875c0 .4218755-.164062.8242185-.460937 1.1171875-.296875.296875-.699219.464844-1.12109425.464844-.41796875 0-.82031275-.167969-1.11718775-.464844-.296875-.292969-.460937-.695312-.460937-1.1171875 0-.4179685.164062-.8203125.460937-1.1171875s.699219-.464844 1.11718775-.464844zm0 0" fill="#cda3ff" stroke="#cda3ff" stroke-miterlimit="10" stroke-width="1.00002" transform="matrix(1 0 0 -1 198.54417 207.10102)"/><path d="m-.00012625-1.57957c.41796825 0 .82031225.164063 1.11718725.460938s.464844.699218.464844 1.117187c0 .421875-.167969.824219-.464844 1.121094s-.699219.460937-1.11718725.460937c-.41796875 0-.82031275-.164062-1.11718775-.460937s-.464844-.699219-.464844-1.121094c0-.417969.167969-.820312.464844-1.117187s.699219-.460938 1.11718775-.460938zm0 0" fill="#cda3ff" stroke="#cda3ff" stroke-miterlimit="10" stroke-width="1.00002" transform="matrix(1 0 0 -1 199.52747 222.35793)"/><path d="m-.00024-1.579986c.417969 0 .820312.164062 1.117187.460937s.464844.699219.464844 1.11718775c0 .42187525-.167969.82421925-.464844 1.12109425s-.699218.460937-1.117187.460937-.820313-.164062-1.117188-.460937-.464843-.699219-.464843-1.12109425c0-.41796875.167968-.82031275.464843-1.11718775s.699219-.460937 1.117188-.460937zm0 0" fill="#cda3ff" stroke="#cda3ff" stroke-miterlimit="10" stroke-width="1.00002" transform="matrix(1 0 0 -1 199.62524 180.83017)"/><path d="m-.00158625-1.582636c.42187525 0 .82421825.167969 1.12109325.464844s.460938.699218.460938 1.117187c0 .421875-.164063.824219-.460938 1.117188-.296875.296875-.699218.464843-1.12109325.464843-.41796875 0-.82031275-.167968-1.11718775-.464843-.296875-.292969-.460937-.695313-.460937-1.117188 0-.417969.164062-.820312.460937-1.117187s.699219-.464844 1.11718775-.464844zm0 0" fill="#cda3ff" stroke="#cda3ff" stroke-miterlimit="10" stroke-width="1.00002" transform="matrix(1 0 0 -1 200.27893 210.76502)"/><path d="m.00108625-1.579589c.41796875 0 .82031275.164063 1.11718775.460938s.460937.699219.460937 1.11718725c0 .42187475-.164062.82421875-.460937 1.12109375s-.699219.460938-1.11718775.460938c-.42187525 0-.82421925-.164063-1.12109425-.460938s-.460937-.699219-.460937-1.12109375c0-.41796825.164062-.82031225.460937-1.11718725s.699219-.460938 1.12109425-.460938zm0 0" fill="#cda3ff" stroke="#cda3ff" stroke-miterlimit="10" stroke-width="1.00002" transform="matrix(1 0 0 -1 200.94032 173.55713)"/><path d="m.00033875-1.581339c.41796825 0 .82031225.167969 1.11718725.464844.296875.292969.464844.695313.464844 1.1171875 0 .4179685-.167969.8203125-.464844 1.1171875s-.699219.464844-1.11718725.464844c-.42187475 0-.82031275-.167969-1.11718775-.464844s-.464844-.699219-.464844-1.1171875c0-.4218745.167969-.8242185.464844-1.1171875.296875-.296875.695313-.464844 1.11718775-.464844zm0 0" fill="#cda3ff" stroke="#cda3ff" stroke-miterlimit="10" stroke-width="1.00002" transform="matrix(1 0 0 -1 203.35513 189.14913)"/><path d="m.000125-1.58045c.417969 0 .820313.164063 1.117188.460938s.464843.699218.464843 1.12109325c0 .41796875-.167968.82031275-.464843 1.11718775s-.699219.460937-1.117188.460937-.820312-.164062-1.117187-.460937-.464844-.699219-.464844-1.11718775c0-.42187525.167969-.82421825.464844-1.12109325s.699218-.460938 1.117187-.460938zm0 0" fill="#cda3ff" stroke="#cda3ff" stroke-miterlimit="10" stroke-width="1.00002" transform="matrix(1 0 0 -1 210.203 219.3883)"/><path d="m.00169375-1.579181c.41796925 0 .82031225.164062 1.11718725.460937s.460938.699219.460938 1.11718775c0 .42187525-.164063.82421925-.460938 1.12109425s-.699218.460937-1.11718725.460937c-.42187475 0-.82421875-.164062-1.12109375-.460937s-.460937-.699219-.460937-1.12109425c0-.41796875.164062-.82031275.460937-1.11718775s.699219-.460937 1.12109375-.460937zm0 0" fill="#cda3ff" stroke="#cda3ff" stroke-miterlimit="10" stroke-width="1.00002" transform="matrix(1 0 0 -1 210.90065 205.4091)"/><path d="m.00027375-1.5812c.41796825 0 .82031225.167969 1.11718725.460938.296875.296875.464844.699218.464844 1.12109325 0 .41796875-.167969.82031275-.464844 1.11718775s-.699219.464844-1.11718725.464844c-.42187475 0-.82031275-.167969-1.11718775-.464844s-.464844-.699219-.464844-1.11718775c0-.42187525.167969-.82421825.464844-1.12109325.296875-.292969.695313-.460938 1.11718775-.460938zm0 0" fill="#cda3ff" stroke="#cda3ff" stroke-miterlimit="10" stroke-width="1.00002" transform="matrix(1 0 0 -1 225.30832 209.2313)"/><path d="m-.00018625-1.581067c.41796825 0 .82031225.167968 1.11718725.460937.296875.296875.464844.699219.464844 1.12109375 0 .41796925-.167969.82031225-.464844 1.11718725s-.699219.460938-1.11718725.460938c-.41796875 0-.82031275-.164063-1.11718775-.460938s-.464844-.699218-.464844-1.11718725c0-.42187475.167969-.82421875.464844-1.12109375.296875-.292969.699219-.460937 1.11718775-.460937zm0 0" fill="#cda3ff" stroke="#cda3ff" stroke-miterlimit="10" stroke-width="1.00002" transform="matrix(1 0 0 -1 233.37128 220.41112)"/><path d="m.00071625-1.58091c.41796875 0 .82031275.164063 1.11718775.460938s.464844.699218.464844 1.12109325c0 .41796875-.167969.82031275-.464844 1.11718775s-.699219.460937-1.11718775.460937c-.42187525 0-.82421825-.164062-1.11718725-.460937-.296875-.296875-.464844-.699219-.464844-1.11718775 0-.42187525.167969-.82421825.464844-1.12109325.292969-.296875.695312-.460938 1.11718725-.460938zm0 0" fill="#cda3ff" stroke="#cda3ff" stroke-miterlimit="10" stroke-width="1.00002" transform="matrix(1 0 0 -1 239.69069 193.45034)"/><path d="m.00118875-1.57971c.41796925 0 .82031225.164063 1.11718725.460938s.460938.699218.460938 1.117187c0 .421875-.164063.824219-.460938 1.121094s-.699218.460937-1.11718725.460937c-.42187475 0-.82421875-.164062-1.12109375-.460937s-.460937-.699219-.460937-1.121094c0-.417969.164062-.820312.460937-1.117187s.699219-.460938 1.12109375-.460938zm0 0" fill="#cda3ff" stroke="#cda3ff" stroke-miterlimit="10" stroke-width="1.00002" transform="matrix(1 0 0 -1 240.63553 212.23279)"/><path d="m-.00065875-1.582649c.42187475 0 .82421875.167969 1.11718775.464844.296875.296875.464844.699219.464844 1.1171875 0 .4218755-.167969.8242185-.464844 1.1171875-.292969.296875-.695313.464844-1.11718775.464844-.41796825 0-.82031225-.167969-1.11718725-.464844-.296875-.292969-.464844-.695312-.464844-1.1171875 0-.4179685.167969-.8203125.464844-1.1171875s.699219-.464844 1.11718725-.464844zm0 0" fill="#cda3ff" stroke="#cda3ff" stroke-miterlimit="10" stroke-width="1.00002" transform="matrix(1 0 0 -1 241.64519 171.42907)"/><path d="m.00120125-1.579554c.41796875 0 .82031275.164063 1.11718775.460938s.460937.699218.460937 1.11718725c0 .42187475-.164062.82421875-.460937 1.12109375s-.699219.460937-1.11718775.460937c-.42187525 0-.82421925-.164062-1.12109425-.460937s-.460937-.699219-.460937-1.12109375c0-.41796925.164062-.82031225.460937-1.11718725s.699219-.460938 1.12109425-.460938zm0 0" fill="#cda3ff" stroke="#cda3ff" stroke-miterlimit="10" stroke-width="1.00002" transform="matrix(1 0 0 -1 248.51833 185.16654)"/><path d="m.001385-1.581336c.417969 0 .820312.167969 1.117187.464844.296875.292968.460938.695312.460938 1.117187 0 .417969-.164063.820313-.460938 1.117188s-.699218.464843-1.117187.464843c-.421875 0-.824219-.167968-1.121094-.464843s-.460937-.699219-.460937-1.117188c0-.421875.164062-.824219.460937-1.117187.296875-.296875.699219-.464844 1.121094-.464844zm0 0" fill="#cda3ff" stroke="#cda3ff" stroke-miterlimit="10" stroke-width="1.00002" transform="matrix(1 0 0 -1 253.70174 217.57882)"/><path d="m-.0017975-1.581437c.4218745 0 .8242185.167968 1.1210935.464843.296875.292969.460938.695313.460938 1.11718775 0 .41796925-.164063.82031225-.460938 1.11718725s-.699219.464844-1.1210935.464844c-.4179685 0-.8203125-.167969-1.1171875-.464844s-.460938-.699218-.460938-1.11718725c0-.42187475.164063-.82421875.460938-1.11718775.296875-.296875.699219-.464843 1.1171875-.464843zm0 0" fill="#cda3ff" stroke="#cda3ff" stroke-miterlimit="10" stroke-width="1.00002" transform="matrix(1 0 0 -1 253.85336 200.942)"/><path d="m-.001815-1.582604c.421875 0 .824219.167969 1.121094.464844s.460937.699219.460937 1.1171875c0 .4218755-.164062.8242185-.460937 1.1171875-.296875.296875-.699219.464844-1.121094.464844-.417969 0-.820313-.167969-1.117188-.464844-.296875-.292969-.460937-.695312-.460937-1.1171875 0-.4179685.164062-.8203125.460937-1.1171875s.699219-.464844 1.117188-.464844zm0 0" fill="#cda3ff" stroke="#cda3ff" stroke-miterlimit="10" stroke-width="1.00002" transform="matrix(1 0 0 -1 255.32994 204.56974)"/><path d="m.00169-1.57911c.417969 0 .820312.164063 1.117187.460938s.460938.699218.460938 1.117187c0 .421875-.164063.824219-.460938 1.121094s-.699218.460937-1.117187.460937c-.421875 0-.824219-.164062-1.121094-.460937s-.460937-.699219-.460937-1.121094c0-.417969.164062-.820312.460937-1.117187s.699219-.460938 1.121094-.460938zm0 0" fill="#cda3ff" stroke="#cda3ff" stroke-miterlimit="10" stroke-width="1.00002" transform="matrix(1 0 0 -1 258.15456 229.57714)"/><path d="m.00057875-1.580101c.41796825 0 .82031225.164062 1.11718725.460937s.464844.699219.464844 1.121094c0 .417969-.167969.820313-.464844 1.117188s-.699219.460937-1.11718725.460937c-.42187475 0-.82421875-.164062-1.11718775-.460937-.296875-.296875-.464844-.699219-.464844-1.117188 0-.421875.167969-.824219.464844-1.121094.292969-.296875.695313-.460937 1.11718775-.460937zm0 0" fill="#cda3ff" stroke="#cda3ff" stroke-miterlimit="10" stroke-width="1.00002" transform="matrix(1 0 0 -1 259.10489 181.18943)"/><path d="m-.00186125-1.580884c.42187525 0 .82421925.164063 1.12109425.460938s.460937.699219.460937 1.1210935c0 .4179685-.164062.8203125-.460937 1.1171875s-.699219.460938-1.12109425.460938c-.41796875 0-.82031275-.164063-1.11718775-.460938s-.460937-.699219-.460937-1.1171875c0-.4218745.164062-.8242185.460937-1.1210935s.699219-.460938 1.11718775-.460938zm0 0" fill="#cda3ff" stroke="#cda3ff" stroke-miterlimit="10" stroke-width="1.00002" transform="matrix(1 0 0 -1 268.73233 177.50896)"/><path d="m.00190375-1.581127c.41796825 0 .82031225.167968 1.11718725.460937.296875.296875.460938.699219.460938 1.12109375 0 .41796925-.164063.82031225-.460938 1.11718725s-.699219.460938-1.11718725.460938c-.42187475 0-.82421875-.164063-1.12109375-.460938s-.460938-.699218-.460938-1.11718725c0-.42187475.164063-.82421875.460938-1.12109375.296875-.292969.699219-.460937 1.12109375-.460937zm0 0" fill="#cda3ff" stroke="#cda3ff" stroke-miterlimit="10" stroke-width="1.00002" transform="matrix(1 0 0 -1 270.30669 177.34856)"/><path d="m-.00176875-1.580795c.42187475 0 .82421875.164063 1.12109375.460938s.460938.699218.460938 1.12109325c0 .41796875-.164063.82031275-.460938 1.11718775s-.699219.460937-1.12109375.460937c-.41796825 0-.82031225-.164062-1.11718725-.460937s-.460938-.699219-.460938-1.11718775c0-.42187525.164063-.82421825.460938-1.12109325s.699219-.460938 1.11718725-.460938zm0 0" fill="#cda3ff" stroke="#cda3ff" stroke-miterlimit="10" stroke-width="1.00002" transform="matrix(1 0 0 -1 270.99005 203.71608)"/><path d="m-.0007325-1.5821c.4218745 0 .8242185.167969 1.1210935.464844.292969.296875.460938.699219.460938 1.11718725 0 .41796875-.167969.82031275-.460938 1.11718775-.296875.296875-.699219.464844-1.1210935.464844-.4179685 0-.8203125-.167969-1.1171875-.464844s-.464844-.699219-.464844-1.11718775c0-.41796825.167969-.82031225.464844-1.11718725s.699219-.464844 1.1171875-.464844zm0 0" fill="#cda3ff" stroke="#cda3ff" stroke-miterlimit="10" stroke-width="1.00002" transform="matrix(1 0 0 -1 284.74292 167.69915)"/><path d="m-.00158875-1.581901c.42187475 0 .82421875.167969 1.12109375.464844s.460937.699218.460937 1.117187-.164062.820313-.460937 1.117188-.699219.464843-1.12109375.464843c-.41796925 0-.82031225-.167968-1.11718725-.464843s-.460938-.699219-.460938-1.117188.164063-.820312.460938-1.117187.699218-.464844 1.11718725-.464844zm0 0" fill="#cda3ff" stroke="#cda3ff" stroke-miterlimit="10" stroke-width="1.00002" transform="matrix(1 0 0 -1 284.86487 192.28138)"/><path d="m-.000155-1.580866c.417969 0 .820312.164062 1.117187.460937s.464844.699219.464844 1.121094c0 .417969-.167969.820313-.464844 1.117188s-.699218.460937-1.117187.460937-.820313-.164062-1.117188-.460937-.464843-.699219-.464843-1.117188c0-.421875.167968-.824219.464843-1.121094s.699219-.460937 1.117188-.460937zm0 0" fill="#cda3ff" stroke="#cda3ff" stroke-miterlimit="10" stroke-width="1.00002" transform="matrix(1 0 0 -1 287.17203 168.92304)"/><path d="m.00054625-1.582694c.41796875 0 .82031275.167969 1.11718775.464844s.464843.699219.464843 1.1171875c0 .4218755-.167968.8242185-.464843 1.1171875-.296875.296875-.699219.464844-1.11718775.464844-.42187525 0-.82421925-.167969-1.11718725-.464844-.296875-.292969-.464844-.695312-.464844-1.1171875 0-.4179685.167969-.8203125.464844-1.1171875.292968-.296875.695312-.464844 1.11718725-.464844zm0 0" fill="#cda3ff" stroke="#cda3ff" stroke-miterlimit="10" stroke-width="1.00002" transform="matrix(1 0 0 -1 290.06586 150.31965)"/><path d="m-.0007025-1.579369c.4218755 0 .8242185.164063 1.1171875.460938.296875.296875.464844.699219.464844 1.11718725 0 .42187475-.167969.82421875-.464844 1.12109375-.292969.296875-.695312.460938-1.1171875.460938-.4179685 0-.8203125-.164063-1.1171875-.460938s-.464844-.699219-.464844-1.12109375c0-.41796825.167969-.82031225.464844-1.11718725s.699219-.460938 1.1171875-.460938zm0 0" fill="#cda3ff" stroke="#cda3ff" stroke-miterlimit="10" stroke-width="1.00002" transform="matrix(1 0 0 -1 292.27414 181.2136)"/><path d="m.00185-1.580689c.417969 0 .820313.164063 1.117188.460938s.460937.699219.460937 1.1210935c0 .4179685-.164062.8203125-.460937 1.1171875s-.699219.460938-1.117188.460938c-.421875 0-.824219-.164063-1.121094-.460938s-.460937-.699219-.460937-1.1171875c0-.4218745.164062-.8242185.460937-1.1210935s.699219-.460938 1.121094-.460938zm0 0" fill="#cda3ff" stroke="#cda3ff" stroke-miterlimit="10" stroke-width="1.00002" transform="matrix(1 0 0 -1 292.7169 210.99353)"/><path d="m-.00158125-1.582214c.42187525 0 .82421825.167969 1.12109325.464844s.460938.699219.460938 1.1171875-.164063.8203125-.460938 1.1171875-.699218.464844-1.12109325.464844c-.41796875 0-.82031275-.167969-1.11718775-.464844s-.460937-.699219-.460937-1.1171875.164062-.8203125.460937-1.1171875.699219-.464844 1.11718775-.464844zm0 0" fill="#cda3ff" stroke="#cda3ff" stroke-miterlimit="10" stroke-width="1.00002" transform="matrix(1 0 0 -1 294.5758 188.57013)"/><path d="m-.00024125-1.582444c.41796925 0 .82031225.167969 1.11718725.464844s.464844.699219.464844 1.1171875c0 .4218755-.167969.8203125-.464844 1.1171875s-.699218.464844-1.11718725.464844c-.41796875 0-.82031275-.167969-1.11718775-.464844s-.464843-.695312-.464843-1.1171875c0-.4179685.167968-.8203125.464843-1.1171875s.699219-.464844 1.11718775-.464844zm0 0" fill="#cda3ff" stroke="#cda3ff" stroke-miterlimit="10" stroke-width="1.00002" transform="matrix(1 0 0 -1 294.73071 170.0074)"/><path d="m-.00000125-1.580024c.41796825 0 .82031225.164063 1.11718725.460938s.464844.699219.464844 1.11718725c0 .42187475-.167969.82421875-.464844 1.12109375s-.699219.460938-1.11718725.460938c-.41796875 0-.82031275-.164063-1.11718775-.460938s-.464844-.699219-.464844-1.12109375c0-.41796825.167969-.82031225.464844-1.11718725s.699219-.460938 1.11718775-.460938zm0 0" fill="#cda3ff" stroke="#cda3ff" stroke-miterlimit="10" stroke-width="1.00002" transform="matrix(1 0 0 -1 295.44922 158.38482)"/><path d="m-.00075875-1.581541c.42187475 0 .82421875.167969 1.12109375.464844.292969.296875.460938.695312.460938 1.117187 0 .417969-.167969.820313-.460938 1.117188-.296875.296875-.699219.464843-1.12109375.464843-.41796825 0-.82031225-.167968-1.11718725-.464843s-.464844-.699219-.464844-1.117188c0-.421875.167969-.820312.464844-1.117187s.699219-.464844 1.11718725-.464844zm0 0" fill="#cda3ff" stroke="#cda3ff" stroke-miterlimit="10" stroke-width="1.00002" transform="matrix(1 0 0 -1 297.30154 202.53174)"/><path d="m-.0001175-1.58282c.4179685 0 .8203125.167969 1.1171875.464844s.464844.699219.464844 1.11718725c0 .42187475-.167969.82421875-.464844 1.12109375-.296875.292969-.699219.460938-1.1171875.460938s-.8203125-.167969-1.1171875-.460938c-.296875-.296875-.464844-.699219-.464844-1.12109375 0-.41796825.167969-.82031225.464844-1.11718725s.699219-.464844 1.1171875-.464844zm0 0" fill="#cda3ff" stroke="#cda3ff" stroke-miterlimit="10" stroke-width="1.00002" transform="matrix(1 0 0 -1 304.41418 179.35468)"/><path d="m-.00027-1.581221c.421875 0 .820312.167969 1.117187.460937.296875.296875.464844.699219.464844 1.121094 0 .417969-.167969.820313-.464844 1.117188s-.695312.464843-1.117187.464843c-.417969 0-.820313-.167968-1.117188-.464843s-.464843-.699219-.464843-1.117188c0-.421875.167968-.824219.464843-1.121094.296875-.292968.699219-.460937 1.117188-.460937zm0 0" fill="#cda3ff" stroke="#cda3ff" stroke-miterlimit="10" stroke-width="1.00002" transform="matrix(1 0 0 -1 306.37527 169.71956)"/><path d="m.00133875-1.582207c.41796925 0 .82031225.167968 1.11718725.464843s.460938.699219.460938 1.11718775c0 .41796925-.164063.82031225-.460938 1.11718725s-.699218.464844-1.11718725.464844c-.42187475 0-.82421875-.167969-1.12109375-.464844s-.460937-.699218-.460937-1.11718725c0-.41796875.164062-.82031275.460937-1.11718775s.699219-.464843 1.12109375-.464843zm0 0" fill="#cda3ff" stroke="#cda3ff" stroke-miterlimit="10" stroke-width="1.00002" transform="matrix(1 0 0 -1 314.04163 159.75373)"/><path d="m.0004725-1.581842c.4179685 0 .8203125.167968 1.1171875.464843s.464844.699219.464844 1.11718775c0 .41796925-.167969.82031225-.464844 1.11718725s-.699219.464844-1.1171875.464844c-.4218745 0-.8203125-.167969-1.1171875-.464844s-.464844-.699218-.464844-1.11718725c0-.41796875.167969-.82031275.464844-1.11718775s.695313-.464843 1.1171875-.464843zm0 0" fill="#cda3ff" stroke="#cda3ff" stroke-miterlimit="10" stroke-width="1.00002" transform="matrix(1 0 0 -1 314.72609 150.01972)"/><path d="m.00023125-1.581751c.41796875 0 .82031275.167969 1.11718775.464844s.464844.695312.464844 1.117187c0 .417969-.167969.820313-.464844 1.117188s-.699219.464843-1.11718775.464843c-.41796825 0-.82031225-.167968-1.11718725-.464843s-.464844-.699219-.464844-1.117188c0-.421875.167969-.820312.464844-1.117187s.699219-.464844 1.11718725-.464844zm0 0" fill="#cda3ff" stroke="#cda3ff" stroke-miterlimit="10" stroke-width="1.00002" transform="matrix(1 0 0 -1 314.9568 185.65653)"/><path d="m-.00185-1.581401c.421875 0 .824219.167969 1.121094.464844.296875.292968.460937.695312.460937 1.117187 0 .417969-.164062.820313-.460937 1.117188s-.699219.464843-1.121094.464843c-.417969 0-.820312-.167968-1.117187-.464843s-.460938-.699219-.460938-1.117188c0-.421875.164063-.824219.460938-1.117187.296875-.296875.699218-.464844 1.117187-.464844zm0 0" fill="#cda3ff" stroke="#cda3ff" stroke-miterlimit="10" stroke-width="1.00002" transform="matrix(1 0 0 -1 315.00185 175.50063)"/><path d="m-.0014075-1.579949c.4218745 0 .8242185.164063 1.1210935.460938s.460938.699219.460938 1.11718725c0 .42187475-.164063.82421875-.460938 1.12109375s-.699219.460938-1.1210935.460938c-.4179685 0-.8203125-.164063-1.1171875-.460938s-.460938-.699219-.460938-1.12109375c0-.41796825.164063-.82031225.460938-1.11718725s.699219-.460938 1.1171875-.460938zm0 0" fill="#cda3ff" stroke="#cda3ff" stroke-miterlimit="10" stroke-width="1.00002" transform="matrix(1 0 0 -1 328.25922 135.93177)"/><path d="m-.00158375-1.58168c.42187475 0 .82421875.167969 1.12109375.464844s.460937.695312.460937 1.11718725c0 .41796875-.164062.82031275-.460937 1.11718775s-.699219.464844-1.12109375.464844c-.41796925 0-.82031225-.167969-1.11718725-.464844s-.460938-.699219-.460938-1.11718775c0-.42187525.164063-.82031225.460938-1.11718725s.699218-.464844 1.11718725-.464844zm0 0" fill="#cda3ff" stroke="#cda3ff" stroke-miterlimit="10" stroke-width="1.00002" transform="matrix(1 0 0 -1 332.22424 143.88707)"/><path d="m.0008275-1.581601c.4179685 0 .8203125.167969 1.1171875.464844s.464844.695312.464844 1.117187c0 .417969-.167969.820313-.464844 1.117188s-.699219.464843-1.1171875.464843c-.4218745 0-.8242185-.167968-1.1210935-.464843-.292969-.296875-.460938-.699219-.460938-1.117188 0-.421875.167969-.820312.460938-1.117187.296875-.296875.699219-.464844 1.1210935-.464844zm0 0" fill="#cda3ff" stroke="#cda3ff" stroke-miterlimit="10" stroke-width="1.00002" transform="matrix(1 0 0 -1 334.52261 140.46918)"/><path d="m.00010625-1.580925c.41796875 0 .82031275.164063 1.11718775.460938s.464844.699218.464844 1.12109325c0 .41796875-.167969.82031275-.464844 1.11718775s-.699219.460937-1.11718775.460937c-.41796825 0-.82031225-.164062-1.11718725-.460937s-.464844-.699219-.464844-1.11718775c0-.42187525.167969-.82421825.464844-1.12109325s.699219-.460938 1.11718725-.460938zm0 0" fill="#cda3ff" stroke="#cda3ff" stroke-miterlimit="10" stroke-width="1.00002" transform="matrix(1 0 0 -1 343.9413 117.3097)"/><path d="m-.0002175-1.58285c.4179685 0 .8203125.167969 1.1171875.464844s.464844.699219.464844 1.11718725c0 .42187475-.167969.82421875-.464844 1.12109375-.296875.292969-.699219.460938-1.1171875.460938s-.8203125-.167969-1.1171875-.460938c-.296875-.296875-.464844-.699219-.464844-1.12109375 0-.41796825.167969-.82031225.464844-1.11718725s.699219-.464844 1.1171875-.464844zm0 0" fill="#cda3ff" stroke="#cda3ff" stroke-miterlimit="10" stroke-width="1.00002" transform="matrix(1 0 0 -1 358.38303 119.8234)"/><path d="m-.00021125-1.582469c.41796825 0 .82031225.167969 1.11718725.464844s.464844.699219.464844 1.1171875c0 .4218755-.167969.8203125-.464844 1.1171875s-.699219.464844-1.11718725.464844c-.41796875 0-.82031275-.167969-1.11718775-.464844s-.464844-.695312-.464844-1.1171875c0-.4179685.167969-.8203125.464844-1.1171875s.699219-.464844 1.11718775-.464844zm0 0" fill="#cda3ff" stroke="#cda3ff" stroke-miterlimit="10" stroke-width="1.00002" transform="matrix(1 0 0 -1 358.98068 110.898)"/><path d="m-.00120875-1.579811c.42187475 0 .82421875.164062 1.12109375.460937s.460938.699219.460938 1.11718775c0 .42187525-.164063.82421925-.460938 1.12109425s-.699219.460937-1.12109375.460937c-.41796825 0-.82031225-.164062-1.11718725-.460937s-.460938-.699219-.460938-1.12109425c0-.41796875.164063-.82031275.460938-1.11718775s.699219-.460937 1.11718725-.460937zm0 0" fill="#cda3ff" stroke="#cda3ff" stroke-miterlimit="10" stroke-width="1.00002" transform="matrix(1 0 0 -1 358.98949 127.12722)"/><path d="m-.0013325-1.580315c.4218755 0 .8242185.164062 1.1210935.460937s.460938.699219.460938 1.12109425c0 .41796875-.164063.82031275-.460938 1.11718775s-.699218.460937-1.1210935.460937c-.4179685 0-.8203125-.164062-1.1171875-.460937s-.460937-.699219-.460937-1.11718775c0-.42187525.164062-.82421925.460937-1.12109425s.699219-.460937 1.1171875-.460937zm0 0" fill="#cda3ff" stroke="#cda3ff" stroke-miterlimit="10" stroke-width="1.00002" transform="matrix(1 0 0 -1 360.77477 144.71656)"/><path d="m.00093375-1.579906c.41796825 0 .82031225.164062 1.11718725.460937s.460938.699219.460938 1.11718775c0 .42187525-.164063.82421925-.460938 1.12109425s-.699219.460937-1.11718725.460937c-.42187475 0-.82421875-.164062-1.12109375-.460937-.292969-.296875-.460938-.699219-.460938-1.12109425 0-.41796875.167969-.82031275.460938-1.11718775.296875-.296875.699219-.460937 1.12109375-.460937zm0 0" fill="#cda3ff" stroke="#cda3ff" stroke-miterlimit="10" stroke-width="1.00002" transform="matrix(1 0 0 -1 364.68266 138.674)"/><path d="m-.00043-1.580501c.421875 0 .820313.164062 1.117188.460937s.464843.699219.464843 1.121094c0 .417969-.167968.820313-.464843 1.117188s-.695313.460937-1.117188.460937c-.417969 0-.820312-.164062-1.117187-.460937s-.464844-.699219-.464844-1.117188c0-.421875.167969-.824219.464844-1.121094s.699218-.460937 1.117187-.460937zm0 0" fill="#cda3ff" stroke="#cda3ff" stroke-miterlimit="10" stroke-width="1.00002" transform="matrix(1 0 0 -1 365.12543 111.68903)"/><path d="m.00162-1.580847c.417969 0 .820313.164062 1.117188.460937s.460937.699219.460937 1.12109375c0 .41796925-.164062.82031225-.460937 1.11718725s-.699219.460938-1.117188.460938c-.421875 0-.824219-.164063-1.121094-.460938s-.460937-.699218-.460937-1.11718725c0-.42187475.164062-.82421875.460937-1.12109375s.699219-.460937 1.121094-.460937zm0 0" fill="#cda3ff" stroke="#cda3ff" stroke-miterlimit="10" stroke-width="1.00002" transform="matrix(1 0 0 -1 367.71713 113.50509)"/><path d="m.0017525-1.581966c.4179685 0 .8203125.167969 1.1171875.464844s.460938.699218.460938 1.117187-.164063.820313-.460938 1.117188-.699219.464843-1.1171875.464843c-.4218745 0-.8242185-.167968-1.1210935-.464843s-.460938-.699219-.460938-1.117188.164063-.820312.460938-1.117187.699219-.464844 1.1210935-.464844zm0 0" fill="#cda3ff" stroke="#cda3ff" stroke-miterlimit="10" stroke-width="1.00002" transform="matrix(1 0 0 -1 367.72481 122.26569)"/><path d="m-.00156875-1.580756c.42187475 0 .82421875.164062 1.12109375.460937s.460938.699219.460938 1.121094c0 .417969-.164063.820313-.460938 1.117188s-.699219.460937-1.12109375.460937c-.41796825 0-.82031225-.164062-1.11718725-.460937s-.460938-.699219-.460938-1.117188c0-.421875.164063-.824219.460938-1.121094s.699219-.460937 1.11718725-.460937zm0 0" fill="#cda3ff" stroke="#cda3ff" stroke-miterlimit="10" stroke-width="1.00002" transform="matrix(1 0 0 -1 369.5211 101.0794)"/><path d="m.00114-1.579127c.417969 0 .820313.164062 1.117188.460937s.460937.699219.460937 1.1171875c0 .4218755-.164062.8242185-.460937 1.1210935s-.699219.460938-1.117188.460938c-.421875 0-.824219-.164063-1.121094-.460938s-.460937-.699218-.460937-1.1210935c0-.4179685.164062-.8203125.460937-1.1171875s.699219-.460937 1.121094-.460937zm0 0" fill="#cda3ff" stroke="#cda3ff" stroke-miterlimit="10" stroke-width="1.00002" transform="matrix(1 0 0 -1 376.06136 115.22556)"/><path d="m-.00113-1.580453c.421875 0 .824219.164063 1.121094.460938s.460937.699219.460937 1.12109375c0 .41796825-.164062.82031225-.460937 1.11718725s-.699219.460938-1.121094.460938c-.417969 0-.820313-.164063-1.117188-.460938s-.460937-.699219-.460937-1.11718725c0-.42187475.164062-.82421875.460937-1.12109375s.699219-.460938 1.117188-.460938zm0 0" fill="#cda3ff" stroke="#cda3ff" stroke-miterlimit="10" stroke-width="1.00002" transform="matrix(1 0 0 -1 381.96988 87.30236)"/><path d="m.0011725-1.58033c.4179685 0 .8203125.164062 1.1171875.460937s.460937.699219.460937 1.12109425c0 .41796875-.164062.82031275-.460937 1.11718775s-.699219.460937-1.1171875.460937c-.4218755 0-.8242185-.164062-1.1210935-.460937s-.460938-.699219-.460938-1.11718775c0-.42187525.164063-.82421925.460938-1.12109425s.699218-.460937 1.1210935-.460937zm0 0" fill="#cda3ff" stroke="#cda3ff" stroke-miterlimit="10" stroke-width="1.00002" transform="matrix(1 0 0 -1 383.66289 87.29467)"/><path d="m-.00129375-1.57934c.42187475 0 .82421875.164063 1.12109375.460938s.460937.699218.460937 1.117187c0 .421875-.164062.824219-.460937 1.121094s-.699219.460937-1.12109375.460937c-.41796925 0-.82031225-.164062-1.11718725-.460937s-.460938-.699219-.460938-1.121094c0-.417969.164063-.820312.460938-1.117187s.699218-.460938 1.11718725-.460938zm0 0" fill="#cda3ff" stroke="#cda3ff" stroke-miterlimit="10" stroke-width="1.00002" transform="matrix(1 0 0 -1 386.5677 98.70191)"/><path d="m-.00171-1.579007c.421875 0 .824219.164062 1.121094.460937s.460937.699219.460937 1.1171875c0 .4218755-.164062.8242185-.460937 1.1210935-.296875.292969-.699219.460938-1.121094.460938-.417969 0-.820313-.167969-1.117188-.460938-.296875-.296875-.460937-.699218-.460937-1.1210935 0-.4179685.164062-.8203125.460937-1.1171875s.699219-.460937 1.117188-.460937zm0 0" fill="#cda3ff" stroke="#cda3ff" stroke-miterlimit="10" stroke-width="1.00002" transform="matrix(1 0 0 -1 388.97046 123.10068)"/><path d="m-.00134625-1.581567c.42187525 0 .82421825.167968 1.12109325.464843s.460938.695313.460938 1.11718775c0 .41796925-.164063.82031225-.460938 1.11718725s-.699218.464844-1.12109325.464844c-.41796875 0-.82031275-.167969-1.11718775-.464844s-.460937-.699218-.460937-1.11718725c0-.42187475.164062-.82031275.460937-1.11718775s.699219-.464843 1.11718775-.464843zm0 0" fill="#cda3ff" stroke="#cda3ff" stroke-miterlimit="10" stroke-width="1.00002" transform="matrix(1 0 0 -1 390.15369 48.87937)"/><path d="m.00001375-1.5807c.41796925 0 .82031225.164063 1.11718725.460938s.464844.699218.464844 1.12109325c0 .41796875-.167969.82031275-.464844 1.11718775s-.699218.460937-1.11718725.460937c-.41796875 0-.82031275-.164062-1.11718775-.460937s-.464843-.699219-.464843-1.11718775c0-.42187525.167968-.82421825.464843-1.12109325s.699219-.460938 1.11718775-.460938zm0 0" fill="#cda3ff" stroke="#cda3ff" stroke-miterlimit="10" stroke-width="1.00002" transform="matrix(1 0 0 -1 397.27733 59.45055)"/><path d="m55.453125 216.870625 5.640625-8.820312 5.433594-8.21875 5.382812-7.871094 6.011719-8.480469 5.242187-7.121094 4.691407-6.160156 5.816406-7.359375 5.328125-6.46875 5.910156-6.867187 4.949219-5.503907 5.429687-5.78125 4.910157-4.996093 4.105469-4.003907 5.054687-4.71875 5.21875-4.625 4.222656-3.5625 5.429688-4.335937 4.527343-3.410156 4.984376-3.539063 4.394531-2.925781 4.96875-3.097656 4.378906-2.542969 3.90625-2.121094 4.671875-2.347656 2.886719-1.351563 4.980469-2.152343 4.871093-1.886719 4.570313-1.570313 4.007812-1.21875 4.128906-1.101562 4.34375-.992188 4.820313-.894531 3.675781-.539062 4.578125-.5 3.910157-.273438 4.449218-.140625 4.261719.035156 4.300781.207032 4.367188.378906 4.035156.507812 4.34375.714844 4.242188.867188 3.746093.902343 4.832031 1.351563 4.441407 1.433594 4.527343 1.648437 4.105469 1.652344 3.90625 1.722656 3.855469 1.832031 4.882812 2.519532 4.183594 2.335937 4.605469 2.75 4.710937 3.019531 4.675782 3.199219 4.203125 3.042969 5.550781 4.273437 3.980469 3.234375 5.261719 4.503907 4.832031 4.359375 4.472656 4.226562 4.957031 4.894531 5.597656 5.800782 5.082032 5.519531 5.019531 5.675781 5.367187 6.332031 5.523438 6.789063 5.203125 6.65625 5.820313 7.738281 5.546874 7.664063 5.375 7.695312 5.992188 8.890625 5.929688 9.128906 1.179687 1.851563" fill="none" stroke="#f55" stroke-linecap="square" stroke-miterlimit="10" stroke-width="1.50002" transform="matrix(1 0 0 -1 0 280.105)"/></g></svg>