<svg height="280.267" viewBox="0 0 424.641 280.267" width="424.641" xmlns="http://www.w3.org/2000/svg" xmlns:xlink="http://www.w3.org/1999/xlink"><defs><g id="a"><path d="m3.0625.09375c1.515625 0 2.421875-1.375 2.421875-3.71875s-.90625-3.71875-2.421875-3.71875-2.421875 1.375-2.421875 3.71875.890625 3.71875 2.421875 3.71875zm0-.59375c-1.125 0-1.78125-1.140625-1.78125-3.125s.671875-3.140625 1.78125-3.140625 1.78125 1.15625 1.78125 3.140625-.671875 3.125-1.78125 3.125zm0 0"/></g><g id="b"><path d="m3.046875-7.25h-.6875l-1.71875 1.140625v.6875l1.703125-1.140625h.03125v6.5625h.671875zm0 0"/></g><g id="c"><path d="m.8125 0h4.5v-.59375h-3.578125v-.046875l1.796875-2c1.203125-1.34375 1.5625-1.9375 1.5625-2.75 0-1.09375-.875-1.953125-2.09375-1.953125s-2.125.859375-2.125 2.0625h.625c0-.859375.59375-1.484375 1.484375-1.484375.84375 0 1.484375.546875 1.484375 1.375 0 .6875-.375 1.203125-1.296875 2.25l-2.359375 2.65625zm0 0"/></g><g id="d"><path d="m3.15625.09375c1.359375 0 2.359375-.875 2.359375-2.03125 0-.921875-.5625-1.59375-1.5-1.78125v-.046875c.765625-.234375 1.25-.84375 1.25-1.671875 0-1.03125-.8125-1.90625-2.09375-1.90625-1.203125 0-2.1875.765625-2.203125 1.90625h.640625c.015625-.8125.71875-1.328125 1.5625-1.328125.875 0 1.453125.5625 1.453125 1.359375 0 .84375-.6875 1.390625-1.625 1.390625h-.421875v.59375h.421875c1.15625 0 1.859375.59375 1.859375 1.484375 0 .828125-.703125 1.4375-1.703125 1.4375-.921875 0-1.640625-.515625-1.6875-1.3125h-.671875c.046875 1.125 1.015625 1.90625 2.359375 1.90625zm0 0"/></g><g id="e"><path d="m2.34375.125c.90625 0 1.46875-.5 1.6875-.984375h.046875v.859375h.625v-3.6875c0-1.46875-1.09375-1.828125-1.921875-1.828125-.84375 0-1.6875.328125-2.0625 1.21875l.59375.21875c.203125-.46875.6875-.875 1.484375-.875.828125 0 1.28125.453125 1.28125 1.203125v.125c0 .421875-.515625.421875-1.421875.53125-1.234375.15625-2.09375.5-2.09375 1.578125 0 1.046875.796875 1.640625 1.78125 1.640625zm.09375-.578125c-.71875 0-1.25-.375-1.25-1.03125 0-.671875.546875-.9375 1.46875-1.046875.4375-.0625 1.234375-.15625 1.421875-.34375v.796875c0 .890625-.640625 1.625-1.640625 1.625zm0 0"/></g><g id="f"><path d="m2.96875-5.4375h-1.140625v-1.296875h-.640625v1.296875h-.8125v.546875h.8125v3.625c0 .890625.703125 1.34375 1.40625 1.34375.25 0 .4375-.046875.546875-.09375l-.125-.5625c-.09375.015625-.203125.046875-.375.046875-.421875 0-.8125-.203125-.8125-.890625v-3.46875h1.140625zm0 0"/></g><g id="g"><path d="m.828125 0h.640625v-3.515625c0-.796875.609375-1.390625 1.46875-1.390625.15625 0 .3125.03125.375.03125v-.640625c-.09375 0-.234375 0-.328125 0-.6875 0-1.28125.359375-1.5.90625h-.046875v-.828125h-.609375zm0 0"/></g><g id="h"><path d="m4.28125-2.078125c0 1-.75 1.53125-1.484375 1.53125-.78125 0-1.328125-.5625-1.328125-1.40625v-3.484375h-.640625v3.515625c0 1.296875.75 2 1.796875 2 .796875 0 1.359375-.421875 1.609375-.984375h.046875v.90625h.640625v-5.4375h-.640625zm0 0"/></g><g id="i"><path d="m3.03125.109375c1.09375 0 1.828125-.59375 2.0625-1.265625l-.59375-.203125c-.203125.484375-.703125.890625-1.46875.890625-1.109375 0-1.8125-.8125-1.84375-2.0625h4.046875v-.3125c0-1.8125-1.125-2.671875-2.296875-2.671875-1.40625 0-2.390625 1.1875-2.390625 2.828125 0 1.65625.96875 2.796875 2.484375 2.796875zm-1.84375-3.203125c.0625-1 .75-1.84375 1.75-1.84375.96875 0 1.65625.796875 1.65625 1.84375zm0 0"/></g><g id="j"><path d="m2.90625 2.15625c1.28125 0 2.25-.640625 2.25-2.015625v-5.578125h-.625v1.03125h-.0625c-.21875-.484375-.671875-1.109375-1.671875-1.109375-1.34375 0-2.25 1.125-2.25 2.78125 0 1.671875.9375 2.671875 2.25 2.671875.96875 0 1.453125-.5625 1.65625-1.0625h.0625v1.234375c0 1-.640625 1.484375-1.609375 1.484375-.9375 0-1.375-.453125-1.609375-.875l-.515625.34375c.3125.625 1.015625 1.09375 2.125 1.09375zm-.046875-2.796875c-1.078125 0-1.671875-.859375-1.671875-2.109375 0-1.21875.59375-2.1875 1.671875-2.1875 1.0625 0 1.671875.921875 1.671875 2.1875 0 1.3125-.625 2.109375-1.671875 2.109375zm0 0"/></g><g id="k"><path d="m4.484375-4.25c-.265625-.78125-.84375-1.265625-1.84375-1.265625-1.09375 0-1.890625.625-1.890625 1.53125 0 .71875.4375 1.21875 1.390625 1.453125l.890625.203125c.59375.140625.875.453125.875.890625 0 .5625-.53125.984375-1.375.984375-.734375 0-1.203125-.34375-1.359375-.984375l-.609375.15625c.203125.90625.921875 1.390625 1.984375 1.390625 1.1875 0 2.015625-.65625 2.015625-1.578125 0-.71875-.453125-1.21875-1.359375-1.4375l-.828125-.203125c-.671875-.171875-.984375-.4375-.984375-.90625 0-.546875.515625-.9375 1.25-.9375s1.09375.390625 1.265625.875zm0 0"/></g><g id="l"><path d="m.84375 0h.625v-5.4375h-.625zm.3125-6.375c.265625 0 .484375-.203125.484375-.453125s-.21875-.453125-.484375-.453125c-.25 0-.46875.203125-.46875.453125s.21875.453125.46875.453125zm0 0"/></g><g id="m"><path d="m2.953125.109375c1.40625 0 2.390625-1.140625 2.390625-2.796875 0-1.671875-.984375-2.828125-2.390625-2.828125-1.421875 0-2.40625 1.15625-2.40625 2.828125 0 1.65625.984375 2.796875 2.40625 2.796875zm0-.578125c-1.140625 0-1.765625-1-1.765625-2.21875s.625-2.25 1.765625-2.25c1.125 0 1.75 1.03125 1.75 2.25s-.625 2.21875-1.75 2.21875zm0 0"/></g><g id="n"><path d="m1.46875-3.40625c0-.9375.609375-1.53125 1.46875-1.53125.84375 0 1.375.5625 1.375 1.453125v3.484375h.640625v-3.515625c0-1.296875-.75-2-1.859375-2-.796875 0-1.34375.375-1.59375.9375h-.0625v-.859375h-.609375v5.4375h.640625zm0 0"/></g><g id="o"><path d="m3.0625-5.4375h-1.203125v-.671875c0-.5625.3125-.875.859375-.875.21875 0 .34375.03125.4375.078125l.1875-.5625c-.140625-.046875-.34375-.125-.671875-.125-.75 0-1.4375.484375-1.4375 1.359375v.796875h-.84375v.546875h.84375v4.890625h.625v-4.890625h1.203125zm0 0"/></g><g id="p"><path d="m2.953125.109375c1.140625 0 1.9375-.71875 2.078125-1.703125h-.640625c-.140625.703125-.71875 1.125-1.4375 1.125-1.0625 0-1.765625-.921875-1.765625-2.25 0-1.3125.71875-2.21875 1.765625-2.21875.78125 0 1.296875.5 1.4375 1.109375h.640625c-.15625-1-1-1.6875-2.078125-1.6875-1.4375 0-2.40625 1.1875-2.40625 2.828125 0 1.609375.953125 2.796875 2.40625 2.796875zm0 0"/></g><g id="q"><path d="m2.515625-3.828125c.0625-.234375.171875-.640625.171875-.703125 0-.1875-.140625-.296875-.328125-.296875-.03125 0-.328125.015625-.421875.40625l-1.578125 6.3125c-.03125.125-.03125.15625-.03125.171875 0 .15625.125.296875.296875.296875.234375 0 .375-.203125.390625-.234375.046875-.09375.1875-.65625.59375-2.34375.359375.296875.84375.34375 1.0625.34375.765625 0 1.1875-.5 1.453125-.796875.09375.484375.5.796875.984375.796875.375 0 .625-.25.796875-.609375.1875-.390625.328125-1.046875.328125-1.078125 0-.109375-.09375-.109375-.125-.109375-.109375 0-.125.046875-.15625.203125-.1875.703125-.375 1.34375-.828125 1.34375-.296875 0-.328125-.28125-.328125-.5 0-.234375.125-.75.21875-1.125l.3125-1.1875c.03125-.15625.140625-.578125.171875-.734375.0625-.25.171875-.671875.171875-.734375 0-.203125-.15625-.296875-.3125-.296875-.0625 0-.34375.015625-.4375.390625l-.5 2.03125c-.140625.546875-.25 1-.28125 1.109375-.015625.0625-.546875 1.046875-1.421875 1.046875-.546875 0-.8125-.359375-.8125-.9375 0-.328125.078125-.625.15625-.9375zm0 0"/></g><g id="r"><path d="m2.59375-5.59375c0-.203125-.140625-.328125-.328125-.328125-.25 0-.484375.234375-.484375.46875 0 .171875.125.328125.328125.328125.25 0 .484375-.21875.484375-.46875zm.125 4.3125c0-.046875-.015625-.109375-.109375-.109375s-.109375.046875-.140625.15625c-.21875.734375-.578125 1.109375-.921875 1.109375-.140625 0-.21875-.078125-.21875-.296875s.078125-.40625.140625-.578125c.15625-.4375.15625-.453125.28125-.734375.140625-.375.34375-.890625.421875-1.140625.078125-.171875.078125-.25.078125-.328125 0-.515625-.40625-.765625-.765625-.765625-.875 0-1.21875 1.28125-1.21875 1.390625 0 .078125.0625.109375.125.109375.09375 0 .109375-.0625.140625-.171875.1875-.640625.53125-1.09375.921875-1.09375.09375 0 .21875.015625.21875.28125 0 .21875-.09375.453125-.171875.65625l-.640625 1.671875c-.0625.171875-.109375.3125-.109375.46875 0 .421875.3125.75.765625.75.875 0 1.203125-1.28125 1.203125-1.375zm0 0"/></g></defs><path d="m.00137625.00048625v-3.50000025" fill="none" stroke="#fff" stroke-linejoin="round" stroke-miterlimit="10" stroke-width=".8" transform="matrix(1 0 0 -1 55.22128 238.84033)"/><use fill="#fff" x="52.164" xlink:href="#a" y="253.137"/><path d="m-.00023125.00048625v-3.50000025" fill="none" stroke="#fff" stroke-linejoin="round" stroke-miterlimit="10" stroke-width=".8" transform="matrix(1 0 0 -1 170.38695 238.84033)"/><use fill="#fff" x="168.165" xlink:href="#b" y="253.137"/><path d="m-.00074875.00048625v-3.50000025" fill="none" stroke="#fff" stroke-linejoin="round" stroke-miterlimit="10" stroke-width=".8" transform="matrix(1 0 0 -1 285.55153 238.84033)"/><use fill="#fff" x="282.507" xlink:href="#c" y="253.137"/><path d="m.00157.00048625v-3.50000025" fill="none" stroke="#fff" stroke-linejoin="round" stroke-miterlimit="10" stroke-width=".8" transform="matrix(1 0 0 -1 400.71718 238.84033)"/><use fill="#fff" x="397.579" xlink:href="#d" y="253.137"/><path d="m6.796875-5.859375c-.453125.09375-.625.4375-.625.703125 0 .34375.265625.46875.46875.46875.4375 0 .734375-.375.734375-.765625 0-.59375-.6875-.875-1.296875-.875-.875 0-1.359375.859375-1.484375 1.140625-.328125-1.078125-1.21875-1.140625-1.484375-1.140625-1.453125 0-2.234375 1.875-2.234375 2.203125 0 .046875.0625.125.15625.125.109375 0 .140625-.09375.171875-.140625.484375-1.59375 1.453125-1.890625 1.859375-1.890625.65625 0 .78125.59375.78125.9375 0 .3125-.078125.640625-.265625 1.328125l-.484375 1.96875c-.203125.859375-.625 1.65625-1.390625 1.65625-.0625 0-.421875 0-.734375-.1875.515625-.109375.640625-.53125.640625-.703125 0-.28125-.21875-.453125-.484375-.453125-.34375 0-.71875.296875-.71875.75 0 .609375.671875.875 1.28125.875.6875 0 1.1875-.546875 1.484375-1.125.234375.84375.9375 1.125 1.46875 1.125 1.46875 0 2.25-1.875 2.25-2.1875 0-.078125-.0625-.140625-.15625-.140625-.125 0-.140625.078125-.171875.1875-.390625 1.265625-1.234375 1.859375-1.875 1.859375-.5 0-.765625-.375-.765625-.96875 0-.3125.046875-.546875.28125-1.484375l.5-1.953125c.21875-.859375.703125-1.484375 1.359375-1.484375.03125 0 .4375 0 .734375.171875zm0 0" fill="#fff" transform="translate(223.785 265.695)"/><path d="m.00123125.00048625h-3.50000025" fill="none" stroke="#fff" stroke-linejoin="round" stroke-miterlimit="10" stroke-width=".8" transform="matrix(1 0 0 -1 38.11205 238.84033)"/><use fill="#fff" x="24.749" xlink:href="#a" y="242.639"/><path d="m.00123125-.00093125h-3.50000025" fill="none" stroke="#fff" stroke-linejoin="round" stroke-miterlimit="10" stroke-width=".8" transform="matrix(1 0 0 -1 38.11205 166.23735)"/><use fill="#fff" x="24.749" xlink:href="#b" y="170.038"/><path d="m.00123125-.00124875h-3.50000025" fill="none" stroke="#fff" stroke-linejoin="round" stroke-miterlimit="10" stroke-width=".8" transform="matrix(1 0 0 -1 38.11205 93.63547)"/><use fill="#fff" x="24.749" xlink:href="#c" y="97.437"/><path d="m.00123125-.00158625h-3.50000025" fill="none" stroke="#fff" stroke-linejoin="round" stroke-miterlimit="10" stroke-width=".8" transform="matrix(1 0 0 -1 38.11205 21.03357)"/><use fill="#fff" x="24.749" xlink:href="#d" y="24.835"/><path d="m1.609375-3.765625c.546875.375 1.03125.9375 1.03125 1.640625 0 .171875-.03125.859375-.6875 1.078125.015625-.046875.015625-.109375.015625-.140625 0-.4375-.375-.71875-.703125-.71875s-.453125.265625-.453125.484375c0 .234375.171875.734375.875.734375.734375 0 1.234375-.625 1.234375-1.4375 0-1.4375-1.3125-2.875-2.90625-3.28125l-5.59375-1.40625c-.078125-.015625-.15625-.046875-.25-.046875-.203125 0-.359375.171875-.359375.390625 0 .125.0625.4375.5.546875l4.203125 1.0625c.265625.0625.296875.0625.453125.1875.40625.28125.890625.75.890625 1.4375 0 .8125-.796875.875-1.171875.875-.828125 0-1.921875-.375-2.96875-.765625-.40625-.15625-.609375-.25-.890625-.25-.609375 0-1.15625.4375-1.15625 1.140625 0 1.3125 2.078125 1.84375 2.203125 1.84375.046875 0 .125-.046875.125-.15625 0-.125-.0625-.140625-.265625-.203125-1.203125-.34375-1.765625-.890625-1.765625-1.4375 0-.140625 0-.375.46875-.375.375 0 .78125.15625 1.328125.375 1.875.703125 2.359375.703125 2.703125.703125 1.359375 0 1.671875-.984375 1.671875-1.703125 0-.40625-.125-.921875-.65625-1.4375l.015625-.015625c.84375.21875 1.40625.359375 2.109375.875zm0 0" fill="#fff" transform="translate(17.959 126.703)"/><path d="m38.113281 41.427156v231.644531" fill="none" stroke="#fff" stroke-linecap="square" stroke-miterlimit="10" stroke-width=".8" transform="matrix(1 0 0 -1 0 280.267)"/><path d="m417.445312 41.427156v231.644531" fill="none" stroke="#fff" stroke-linecap="square" stroke-miterlimit="10" stroke-width=".8" transform="matrix(1 0 0 -1 0 280.267)"/><path d="m38.113281 41.427156h379.332031" fill="none" stroke="#fff" stroke-linecap="square" stroke-miterlimit="10" stroke-width=".8" transform="matrix(1 0 0 -1 0 280.267)"/><path d="m38.113281 273.071687h379.332031" fill="none" stroke="#fff" stroke-linecap="square" stroke-miterlimit="10" stroke-width=".8" transform="matrix(1 0 0 -1 0 280.267)"/><path d="m45.113281 220.614656h191.019531c1.332032 0 2 .667969 2 2.003906v43.453125c0 1.332032-.667968 2-2 2h-191.019531c-1.335937 0-2-.667968-2-2v-43.453125c0-1.335937.664063-2.003906 2-2.003906zm0 0" fill="none" stroke="#fff" stroke-miterlimit="10" stroke-opacity=".7" stroke-width="1.00002" transform="matrix(1 0 0 -1 0 280.267)"/><path d="m.00123125-1.5802c.41796875 0 .82031275.164063 1.11718775.460938s.460937.699218.460937 1.12109325c0 .41796875-.164062.82031275-.460937 1.11718775s-.699219.460937-1.11718775.460937c-.42187525 0-.82421925-.164062-1.12109425-.460937s-.460937-.699219-.460937-1.11718775c0-.42187525.164062-.82421825.460937-1.12109325s.699219-.460938 1.12109425-.460938zm0 0" fill="#cda3ff" stroke="#cda3ff" stroke-linejoin="round" stroke-miterlimit="10" stroke-width="1.00002" transform="matrix(1 0 0 -1 57.11205 21.1698)"/><g fill="#fff"><path d="m3.09375 0c2.171875 0 3.421875-1.359375 3.421875-3.640625 0-2.25-1.234375-3.609375-3.296875-3.609375h-2.25v7.25zm-1.46875-.59375v-6.0625h1.546875c1.765625 0 2.703125 1.140625 2.703125 3.015625 0 1.890625-.953125 3.046875-2.828125 3.046875zm0 0" transform="translate(75.111 23.798)"/><use x="82.257173" xlink:href="#e" y="23.798"/><use x="87.80136" xlink:href="#f" y="23.798"/><use x="91.370959" xlink:href="#e" y="23.798"/></g><path d="m3.609375 2.625c0-.046875 0-.0625-.1875-.25-1.359375-1.375-1.703125-3.4375-1.703125-5.09375 0-1.90625.40625-3.796875 1.75-5.171875.140625-.125.140625-.140625.140625-.1875 0-.0625-.046875-.09375-.109375-.09375-.109375 0-1.09375.734375-1.734375 2.125-.5625 1.1875-.6875 2.40625-.6875 3.328125 0 .84375.125 2.15625.71875 3.390625.65625 1.34375 1.59375 2.046875 1.703125 2.046875.0625 0 .109375-.03125.109375-.09375zm0 0" fill="#fff" transform="translate(99.717 23.798)"/><path d="m3.640625-3.296875c.0625-.28125.3125-1.28125 1.078125-1.28125.0625 0 .3125 0 .546875.140625-.296875.046875-.515625.328125-.515625.59375 0 .171875.109375.375.40625.375.25 0 .59375-.203125.59375-.625 0-.578125-.640625-.734375-1.015625-.734375-.640625 0-1.015625.578125-1.140625.84375-.28125-.734375-.875-.84375-1.1875-.84375-1.125 0-1.75 1.421875-1.75 1.6875 0 .109375.109375.109375.125.109375.09375 0 .125-.015625.140625-.125.375-1.15625 1.09375-1.421875 1.46875-1.421875.203125 0 .59375.09375.59375.734375 0 .328125-.1875 1.0625-.59375 2.59375-.171875.671875-.5625 1.125-1.03125 1.125-.078125 0-.328125 0-.546875-.140625.265625-.046875.5-.28125.5-.578125s-.234375-.390625-.390625-.390625c-.328125 0-.609375.28125-.609375.640625 0 .5.546875.71875 1.03125.71875.71875 0 1.109375-.765625 1.140625-.828125.140625.390625.53125.828125 1.1875.828125 1.109375 0 1.734375-1.40625 1.734375-1.6875 0-.109375-.09375-.109375-.125-.109375-.09375 0-.125.046875-.140625.125-.359375 1.171875-1.109375 1.421875-1.453125 1.421875-.421875 0-.59375-.34375-.59375-.71875 0-.234375.0625-.46875.171875-.953125zm0 0" fill="#fff" transform="translate(103.959 23.798)"/><use fill="#fff" x="110.194" xlink:href="#r" y="25.957"/><path d="m2.21875-.015625c0-.71875-.28125-1.140625-.703125-1.140625-.359375 0-.578125.265625-.578125.578125 0 .296875.21875.578125.578125.578125.125 0 .265625-.046875.375-.140625.046875-.015625.046875-.03125.0625-.03125s.015625.015625.015625.15625c0 .8125-.375 1.46875-.734375 1.828125-.125.125-.125.140625-.125.171875 0 .078125.0625.125.109375.125.125 0 1-.84375 1-2.125zm0 0" fill="#fff" transform="translate(113.846 23.798)"/><path d="m5.296875-4.15625c.046875-.15625.046875-.171875.046875-.25 0-.203125-.15625-.296875-.3125-.296875-.109375 0-.28125.0625-.390625.234375-.015625.046875-.109375.390625-.140625.59375-.078125.28125-.15625.578125-.21875.859375l-.5 1.96875c-.046875.15625-.515625.921875-1.234375.921875-.546875 0-.671875-.46875-.671875-.875 0-.5.1875-1.1875.5625-2.140625.171875-.453125.21875-.5625.21875-.78125 0-.5-.359375-.90625-.90625-.90625-1.03125 0-1.4375 1.59375-1.4375 1.6875 0 .109375.109375.109375.140625.109375.109375 0 .109375-.015625.171875-.203125.296875-1.015625.734375-1.34375 1.09375-1.34375.09375 0 .28125 0 .28125.34375 0 .28125-.109375.5625-.1875.765625-.4375 1.15625-.640625 1.78125-.640625 2.296875 0 .96875.6875 1.296875 1.34375 1.296875.421875 0 .78125-.1875 1.09375-.5-.140625.578125-.265625 1.109375-.703125 1.6875-.28125.359375-.703125.6875-1.203125.6875-.15625 0-.640625-.03125-.828125-.46875.171875 0 .3125 0 .46875-.125.109375-.09375.21875-.234375.21875-.453125 0-.328125-.296875-.375-.40625-.375-.25 0-.609375.171875-.609375.703125 0 .546875.484375.953125 1.15625.953125 1.125 0 2.25-.984375 2.546875-2.21875zm0 0" fill="#fff" transform="translate(118.698368 23.798)"/><use fill="#fff" x="124.043" xlink:href="#r" y="25.957"/><path d="m3.15625-2.71875c0-.859375-.125-2.171875-.71875-3.40625-.65625-1.34375-1.59375-2.046875-1.703125-2.046875-.0625 0-.109375.03125-.109375.09375 0 .046875 0 .0625.203125.265625 1.0625 1.078125 1.6875 2.8125 1.6875 5.09375 0 1.859375-.40625 3.78125-1.75 5.15625-.140625.125-.140625.140625-.140625.1875 0 .0625.046875.09375.109375.09375.109375 0 1.09375-.734375 1.734375-2.125.546875-1.1875.6875-2.40625.6875-3.3125zm0 0" fill="#fff" transform="translate(127.694 23.798)"/><path d="m47.113281 244.872469h20" style="fill:none;stroke-width:1.50002;stroke-linecap:square;stroke-linejoin:round;stroke:#50ea7b;stroke-miterlimit:10" transform="matrix(1 0 0 -1 0 280.267)"/><path d="m.53125-6.65625h2.296875v6.65625h.65625v-6.65625h2.296875v-.59375h-5.25zm0 0" fill="#fff" transform="translate(75.111 38.896)"/><g fill="#fff"><use x="80.844476" xlink:href="#g" y="38.896"/><use x="84.396143" xlink:href="#h" y="38.896"/><use x="90.141575" xlink:href="#i" y="38.896"/></g><use fill="#fff" x="98.725351" xlink:href="#g" y="38.896"/><g fill="#fff"><use x="102.107653" xlink:href="#i" y="38.896"/><use x="107.891939" xlink:href="#j" y="38.896"/><use x="113.878465" xlink:href="#g" y="38.896"/></g><g fill="#fff"><use x="117.260768" xlink:href="#i" y="38.896"/><use x="123.045054" xlink:href="#k" y="38.896"/><use x="128.153875" xlink:href="#k" y="38.896"/><use x="133.262696" xlink:href="#l" y="38.896"/><use x="135.573023" xlink:href="#m" y="38.896"/><use x="141.459923" xlink:href="#n" y="38.896"/></g><g fill="#fff"><use x="150.042703" xlink:href="#o" y="38.896"/><use x="153.53858" xlink:href="#h" y="38.896"/><use x="159.284011" xlink:href="#n" y="38.896"/><use x="165.057338" xlink:href="#p" y="38.896"/><use x="170.601525" xlink:href="#f" y="38.896"/><use x="174.171124" xlink:href="#l" y="38.896"/><use x="176.481451" xlink:href="#m" y="38.896"/><use x="182.368352" xlink:href="#n" y="38.896"/></g><use fill="#fff" x="190.94" xlink:href="#q" y="38.896"/><path d="m47.113281 230.196687h20" style="fill:none;stroke-width:1.50002;stroke-linecap:square;stroke-linejoin:round;stroke:#f55;stroke-miterlimit:10" transform="matrix(1 0 0 -1 0 280.267)"/><g fill="#fff"><path d="m.96875 0h4.265625v-.59375h-3.609375v-2.734375h3.328125v-.59375h-3.328125v-2.734375h3.546875v-.59375h-4.203125zm0 0" transform="translate(75.111 53.574)"/><use x="81.022807" xlink:href="#k" y="53.574"/><use x="86.131628" xlink:href="#f" y="53.574"/><use x="89.701228" xlink:href="#l" y="53.574"/><path d="m.828125 0h.640625v-3.484375c0-.84375.5625-1.453125 1.3125-1.453125.734375 0 1.171875.5 1.171875 1.234375v3.703125h.640625v-3.578125c0-.78125.46875-1.359375 1.296875-1.359375.71875 0 1.203125.4375 1.203125 1.296875v3.640625h.625v-3.640625c0-1.21875-.625-1.875-1.640625-1.875-.78125 0-1.359375.390625-1.609375 1h-.046875c-.234375-.625-.71875-1-1.46875-1-.703125 0-1.234375.34375-1.453125.90625h-.0625v-.828125h-.609375zm0 0" transform="translate(92.011555 53.574)"/><use x="100.559465" xlink:href="#e" y="53.574"/><use x="106.103652" xlink:href="#f" y="53.574"/></g><g fill="#fff"><use x="109.613476" xlink:href="#i" y="53.574"/><path d="m2.796875.109375c.984375 0 1.4375-.625 1.65625-1.125h.078125v1.015625h.625v-7.25h-.640625v2.84375h-.0625c-.203125-.484375-.65625-1.109375-1.65625-1.109375-1.34375 0-2.25 1.140625-2.25 2.8125 0 1.6875.90625 2.8125 2.25 2.8125zm.0625-.578125c-1.078125 0-1.671875-.984375-1.671875-2.25 0-1.25.59375-2.21875 1.671875-2.21875 1.0625 0 1.671875.921875 1.671875 2.21875 0 1.3125-.609375 2.25-1.671875 2.25zm0 0" transform="translate(115.397762 53.574)"/></g><use fill="#fff" x="124.317278" xlink:href="#g" y="53.574"/><g fill="#fff"><use x="127.69958" xlink:href="#i" y="53.574"/><use x="133.483866" xlink:href="#j" y="53.574"/><use x="139.470392" xlink:href="#g" y="53.574"/></g><g fill="#fff"><use x="142.852695" xlink:href="#i" y="53.574"/><use x="148.636981" xlink:href="#k" y="53.574"/><use x="153.745802" xlink:href="#k" y="53.574"/><use x="158.854623" xlink:href="#l" y="53.574"/><use x="161.16495" xlink:href="#m" y="53.574"/><use x="167.05185" xlink:href="#n" y="53.574"/></g><g fill="#fff"><use x="175.624668" xlink:href="#o" y="53.574"/><use x="179.120544" xlink:href="#h" y="53.574"/><use x="184.865975" xlink:href="#n" y="53.574"/><use x="190.639302" xlink:href="#p" y="53.574"/><use x="196.183489" xlink:href="#f" y="53.574"/><use x="199.753089" xlink:href="#l" y="53.574"/><use x="202.063416" xlink:href="#m" y="53.574"/><use x="207.950316" xlink:href="#n" y="53.574"/></g><path d="m2.765625-6.828125 2.703125 1.21875.125-.21875-2.828125-1.59375-2.8125 1.59375.109375.21875zm0 0" fill="#fff" transform="translate(217.345 53.167)"/><use fill="#fff" x="216.523" xlink:href="#q" y="53.574"/><g stroke-linejoin="round"><path d="m55.355469 77.895906 18.660156 23.425781 6.949219 8.40625 5.535156 6.453125 5.121094 5.726563 4.351562 4.652344 3.738282 3.820312 4.875 4.714844 4.101562 3.71875 3.90625 3.316406 3.957031 3.113281 2.660157 1.953125 3.925781 2.671875 3.429687 2.121094 3.402344 1.898438 2.617188 1.324218 3.539062 1.59375 2.742188 1.078125 3.207031 1.089844 2.882812.820313 3.429688.78125 3.066406.515625 2.296875.277343 3.457031.238282 2.53125.042968 2.816407-.082031 4.242187-.375 3.144531-.464844 3.375-.675781 3.445313-.867187 2.832031-.84375 3.945312-1.355469 3.523438-1.382813 3.742188-1.636718 3.960937-1.894532 4.460937-2.328125 4.683594-2.628906 5.371094-3.210937 6.160156-3.875 8.75-5.71875 13.835938-9.0625 6.777344-4.222657 4.878906-2.871093 5.371094-2.960938 4.785156-2.421875 4.40625-2.023437 4.117187-1.691407 3.257813-1.195312 4.074218-1.304688 3.0625-.832031 3.574219-.804687 2.894531-.511719 3.632813-.46875 3.042969-.234375 3.65625-.085938 3.339844.109375 3.269531.285157 2.324219.308593 3.609374.664063 3.582032.878906 2.902344.875 3.394531 1.210938 3.25 1.347656 3.136719 1.484375 2.457031 1.285156 3.078125 1.769531 3.171875 2.007813 3.09375 2.152344 3.367187 2.554687 2.824219 2.320313 3.042969 2.691406 2.660156 2.523437 3.765625 3.855469 2.796875 3.089844 3.382812 4.011719 2.628907 3.347656 3.105469 4.21875 1.929687 2.78125 3.390625 5.199219 2.425781 3.984375 2.957031 5.183593 2.648438 4.976563 2.726562 5.476562 2.515626 5.398438 2.402343 5.492187 2.664063 6.515625 1.929687 5.007813 2.90625 8.054687 1.574219 4.644532 2.816406 8.820312 2.101563 7.042969 1.472656 5.210937" fill="none" stroke="#50ea7b" stroke-linecap="square" stroke-miterlimit="10" stroke-width="1.50002" transform="matrix(1 0 0 -1 0 280.267)"/><path d="m-.0002175-1.582584c.4179685 0 .8203125.167969 1.1171875.464844s.464844.699219.464844 1.1171875c0 .4218755-.167969.8242185-.464844 1.1171875-.296875.296875-.699219.464844-1.1171875.464844s-.8203125-.167969-1.1171875-.464844c-.296875-.292969-.464844-.695312-.464844-1.1171875 0-.4179685.167969-.8203125.464844-1.1171875s.699219-.464844 1.1171875-.464844zm0 0" fill="#cda3ff" stroke="#cda3ff" stroke-miterlimit="10" stroke-width="1.00002" transform="matrix(1 0 0 -1 55.78928 167.16351)"/><path d="m.00123125-1.58096c.41796875 0 .82031275.164062 1.11718775.460937s.460937.699219.460937 1.12109425c0 .41796875-.164062.82031275-.460937 1.11718775s-.699219.460937-1.11718775.460937c-.42187525 0-.82421825-.164062-1.12109325-.460937s-.460938-.699219-.460938-1.11718775c0-.42187525.164063-.82421925.460938-1.12109425s.699218-.460937 1.12109325-.460937zm0 0" fill="#cda3ff" stroke="#cda3ff" stroke-miterlimit="10" stroke-width="1.00002" transform="matrix(1 0 0 -1 55.98705 217.48154)"/><path d="m.00108375-1.580686c.41796825 0 .82031225.164062 1.11718725.460937s.460938.699219.460938 1.121094c0 .417969-.164063.820313-.460938 1.117188s-.699219.460937-1.11718725.460937c-.42187475 0-.82421875-.164062-1.12109375-.460937s-.460938-.699219-.460938-1.117188c0-.421875.164063-.824219.460938-1.121094s.699219-.460937 1.12109375-.460937zm0 0" fill="#cda3ff" stroke="#cda3ff" stroke-miterlimit="10" stroke-width="1.00002" transform="matrix(1 0 0 -1 59.49501 210.67322)"/><path d="m-.001275-1.579501c.421875 0 .824219.164062 1.121094.460937s.460937.699219.460937 1.11718775c0 .42187525-.164062.82421825-.460937 1.12109325s-.699219.460938-1.121094.460938c-.417969 0-.820313-.164063-1.117188-.460938s-.460937-.699218-.460937-1.12109325c0-.41796875.164062-.82031275.460937-1.11718775s.699219-.460937 1.117188-.460937zm0 0" fill="#cda3ff" stroke="#cda3ff" stroke-miterlimit="10" stroke-width="1.00002" transform="matrix(1 0 0 -1 62.2669 179.56503)"/><path d="m-.00019875-1.582369c.41796875 0 .82031275.167969 1.11718775.464844s.464843.699219.464843 1.1171875c0 .4218745-.167968.8203125-.464843 1.1171875s-.699219.464844-1.11718775.464844c-.41796925 0-.82031225-.167969-1.11718725-.464844s-.464844-.695313-.464844-1.1171875c0-.4179685.167969-.8203125.464844-1.1171875s.699218-.464844 1.11718725-.464844zm0 0" fill="#cda3ff" stroke="#cda3ff" stroke-miterlimit="10" stroke-width="1.00002" transform="matrix(1 0 0 -1 63.14473 221.3356)"/><path d="m.00177375-1.582294c.41796825 0 .82031225.167969 1.11718725.464844s.460938.699219.460938 1.1171875c0 .4218745-.164063.8203125-.460938 1.1171875s-.699219.464844-1.11718725.464844c-.42187475 0-.82421875-.167969-1.12109375-.464844s-.460938-.695313-.460938-1.1171875c0-.4179685.164063-.8203125.460938-1.1171875s.699219-.464844 1.12109375-.464844zm0 0" fill="#cda3ff" stroke="#cda3ff" stroke-miterlimit="10" stroke-width="1.00002" transform="matrix(1 0 0 -1 63.61932 181.00755)"/><path d="m.00186-1.579649c.417969 0 .820313.164063 1.117188.460938s.460937.699219.460937 1.11718725c0 .42187475-.164062.82421875-.460937 1.12109375s-.699219.460938-1.117188.460938c-.421875 0-.824219-.164063-1.121094-.460938s-.460937-.699219-.460937-1.12109375c0-.41796825.164062-.82031225.460937-1.11718725s.699219-.460938 1.121094-.460938zm0 0" fill="#cda3ff" stroke="#cda3ff" stroke-miterlimit="10" stroke-width="1.00002" transform="matrix(1 0 0 -1 65.27939 168.24457)"/><path d="m-.00158875-1.580238c.42187475 0 .82421875.164063 1.12109375.460938s.460938.699219.460938 1.12109375c0 .41796825-.164063.82031225-.460938 1.11718725s-.699219.460938-1.12109375.460938c-.41796825 0-.82031225-.164063-1.11718725-.460938s-.460938-.699219-.460938-1.11718725c0-.42187475.164063-.82421875.460938-1.12109375s.699219-.460938 1.11718725-.460938zm0 0" fill="#cda3ff" stroke="#cda3ff" stroke-miterlimit="10" stroke-width="1.00002" transform="matrix(1 0 0 -1 67.48987 178.3807)"/><path d="m-.001275-1.5807c.421875 0 .824219.164062 1.121094.460937s.460937.699219.460937 1.12109425c0 .41796875-.164062.82031275-.460937 1.11718775s-.699219.460937-1.121094.460937c-.417969 0-.820313-.164062-1.117188-.460937s-.460937-.699219-.460937-1.11718775c0-.42187525.164062-.82421925.460937-1.12109425s.699219-.460937 1.117188-.460937zm0 0" fill="#cda3ff" stroke="#cda3ff" stroke-miterlimit="10" stroke-width="1.00002" transform="matrix(1 0 0 -1 72.8919 208.6693)"/><path d="m.0001675-1.582666c.4179685 0 .8203125.167968 1.1171875.464843s.464844.699219.464844 1.117188c0 .421875-.167969.824219-.464844 1.117187-.296875.296875-.699219.464844-1.1171875.464844s-.8203125-.167969-1.1171875-.464844c-.296875-.292968-.464844-.695312-.464844-1.117187 0-.417969.167969-.820313.464844-1.117188s.699219-.464843 1.1171875-.464843zm0 0" fill="#cda3ff" stroke="#cda3ff" stroke-miterlimit="10" stroke-width="1.00002" transform="matrix(1 0 0 -1 83.11702 179.48374)"/><path d="m.0006375-1.581439c.4179685 0 .8203125.167969 1.1171875.464844.296875.292969.464844.695312.464844 1.1171875 0 .4179685-.167969.8203125-.464844 1.1171875s-.699219.464844-1.1171875.464844c-.4218755 0-.8242185-.167969-1.1171875-.464844-.296875-.296875-.464844-.699219-.464844-1.1171875 0-.4218755.167969-.8242185.464844-1.1171875.292969-.296875.695312-.464844 1.1171875-.464844zm0 0" fill="#cda3ff" stroke="#cda3ff" stroke-miterlimit="10" stroke-width="1.00002" transform="matrix(1 0 0 -1 85.11655 171.52403)"/><path d="m.00084125-1.579359c.41796875 0 .82031275.164063 1.11718775.460938s.464843.699219.464843 1.11718725c0 .42187475-.167968.82421875-.464843 1.12109375s-.699219.460938-1.11718775.460938c-.42187525 0-.82421925-.164063-1.12109425-.460938-.292968-.296875-.460937-.699219-.460937-1.12109375 0-.41796825.167969-.82031225.460937-1.11718725.296875-.296875.699219-.460938 1.12109425-.460938zm0 0" fill="#cda3ff" stroke="#cda3ff" stroke-miterlimit="10" stroke-width="1.00002" transform="matrix(1 0 0 -1 87.76869 152.46361)"/><path d="m.00142375-1.581909c.41796925 0 .82031225.167969 1.11718725.464844s.460938.699219.460938 1.1171875-.164063.8203125-.460938 1.1171875-.699218.464844-1.11718725.464844c-.42187475 0-.82421875-.167969-1.12109375-.464844s-.460937-.699219-.460937-1.1171875.164062-.8203125.460937-1.1171875.699219-.464844 1.12109375-.464844zm0 0" fill="#cda3ff" stroke="#cda3ff" stroke-miterlimit="10" stroke-width="1.00002" transform="matrix(1 0 0 -1 90.05717 153.67981)"/><path d="m-.000825-1.579449c.421875 0 .824219.164063 1.121094.460938.292968.296875.460937.699219.460937 1.11718725 0 .42187475-.167969.82421875-.460937 1.12109375-.296875.296875-.699219.460938-1.121094.460938-.417969 0-.820313-.164063-1.117188-.460938s-.464843-.699219-.464843-1.12109375c0-.41796825.167968-.82031225.464843-1.11718725s.699219-.460938 1.117188-.460938zm0 0" fill="#cda3ff" stroke="#cda3ff" stroke-miterlimit="10" stroke-width="1.00002" transform="matrix(1 0 0 -1 93.6102 164.71352)"/><path d="m.00161875-1.582025c.41796925 0 .82031225.167969 1.11718725.464844s.460938.699219.460938 1.11718725c0 .41796875-.164063.82031275-.460938 1.11718775s-.699218.464844-1.11718725.464844c-.42187475 0-.82421875-.167969-1.12109375-.464844s-.460937-.699219-.460937-1.11718775c0-.41796825.164062-.82031225.460937-1.11718725s.699219-.464844 1.12109375-.464844zm0 0" fill="#cda3ff" stroke="#cda3ff" stroke-miterlimit="10" stroke-width="1.00002" transform="matrix(1 0 0 -1 93.72885 191.9336)"/><path d="m.00125-1.579175c.417969 0 .820312.164062 1.117187.460937s.460938.699219.460938 1.117188c0 .421875-.164063.824219-.460938 1.121094s-.699218.460937-1.117187.460937c-.421875 0-.824219-.164062-1.121094-.460937s-.460937-.699219-.460937-1.121094c0-.417969.164062-.820313.460937-1.117188s.699219-.460937 1.121094-.460937zm0 0" fill="#cda3ff" stroke="#cda3ff" stroke-miterlimit="10" stroke-width="1.00002" transform="matrix(1 0 0 -1 93.81125 195.06145)"/><path d="m.00171-1.581129c.417969 0 .820313.167969 1.117188.460938.296875.296875.460937.699218.460937 1.1210935 0 .4179685-.164062.8203125-.460937 1.1171875s-.699219.460937-1.117188.460937c-.421875 0-.824219-.164062-1.121094-.460937s-.460937-.699219-.460937-1.1171875c0-.4218755.164062-.8242185.460937-1.1210935.296875-.292969.699219-.460938 1.121094-.460938zm0 0" fill="#cda3ff" stroke="#cda3ff" stroke-miterlimit="10" stroke-width="1.00002" transform="matrix(1 0 0 -1 105.02954 166.08684)"/><path d="m.00056875-1.580092c.41796825 0 .82031225.164062 1.11718725.460937s.464844.699219.464844 1.12109375c0 .41796925-.167969.82031225-.464844 1.11718725s-.699219.460938-1.11718725.460938c-.42187475 0-.82421875-.164063-1.11718775-.460938-.296875-.296875-.464844-.699218-.464844-1.11718725 0-.42187475.167969-.82421875.464844-1.12109375.292969-.296875.695313-.460937 1.11718775-.460937zm0 0" fill="#cda3ff" stroke="#cda3ff" stroke-miterlimit="10" stroke-width="1.00002" transform="matrix(1 0 0 -1 109.9174 162.39647)"/><path d="m.00149625-1.58143c.41796875 0 .82031275.167969 1.11718775.464844.296875.292968.460937.695312.460937 1.11718725 0 .41796875-.164062.82031275-.460937 1.11718775s-.699219.464843-1.11718775.464843c-.42187525 0-.82421925-.167968-1.12109425-.464843s-.460937-.699219-.460937-1.11718775c0-.42187525.164062-.82421925.460937-1.11718725.296875-.296875.699219-.464844 1.12109425-.464844zm0 0" fill="#cda3ff" stroke="#cda3ff" stroke-miterlimit="10" stroke-width="1.00002" transform="matrix(1 0 0 -1 112.43991 151.57482)"/><path d="m-.000685-1.581264c.421875 0 .824219.167969 1.117188.460938.296875.296875.464843.699218.464843 1.1210935 0 .4179685-.167968.8203125-.464843 1.1171875-.292969.296875-.695313.464844-1.117188.464844-.417969 0-.820312-.167969-1.117187-.464844s-.464844-.699219-.464844-1.1171875c0-.4218755.167969-.8242185.464844-1.1210935.296875-.292969.699218-.460938 1.117187-.460938zm0 0" fill="#cda3ff" stroke="#cda3ff" stroke-miterlimit="10" stroke-width="1.00002" transform="matrix(1 0 0 -1 120.07881 155.53983)"/><path d="m-.00190375-1.581044c.42187475 0 .82421875.164063 1.12109375.460938s.460938.699218.460938 1.1210935c0 .4179685-.164063.8203125-.460938 1.1171875s-.699219.460937-1.12109375.460937c-.41796825 0-.82031225-.164062-1.11718725-.460937s-.460938-.699219-.460938-1.1171875c0-.4218755.164063-.8242185.460938-1.1210935s.699219-.460938 1.11718725-.460938zm0 0" fill="#cda3ff" stroke="#cda3ff" stroke-miterlimit="10" stroke-width="1.00002" transform="matrix(1 0 0 -1 120.31831 135.2588)"/><path d="m.00115-1.580929c.417969 0 .820312.164063 1.117187.460938s.460938.699219.460938 1.1210935c0 .4179685-.164063.8203125-.460938 1.1171875s-.699218.460938-1.117187.460938c-.421875 0-.824219-.164063-1.121094-.460938s-.460937-.699219-.460937-1.1171875c0-.4218745.164062-.8242185.460937-1.1210935s.699219-.460938 1.121094-.460938zm0 0" fill="#cda3ff" stroke="#cda3ff" stroke-miterlimit="10" stroke-width="1.00002" transform="matrix(1 0 0 -1 120.4051 145.24329)"/><path d="m-.00049875-1.580579c.42187475 0 .82031275.164063 1.11718775.460938s.464844.699218.464844 1.1210935c0 .4179685-.167969.8203125-.464844 1.1171875s-.695313.460937-1.11718775.460937c-.41796825 0-.82031225-.164062-1.11718725-.460937s-.464844-.699219-.464844-1.1171875c0-.4218755.167969-.8242185.464844-1.1210935s.699219-.460938 1.11718725-.460938zm0 0" fill="#cda3ff" stroke="#cda3ff" stroke-miterlimit="10" stroke-width="1.00002" transform="matrix(1 0 0 -1 125.89503 124.18114)"/><path d="m-.001495-1.581757c.421875 0 .824219.167968 1.121094.464843s.460937.695313.460937 1.11718775c0 .41796925-.164062.82031225-.460937 1.11718725s-.699219.464844-1.121094.464844c-.417969 0-.820313-.167969-1.117188-.464844s-.460937-.699218-.460937-1.11718725c0-.42187475.164062-.82031275.460937-1.11718775s.699219-.464843 1.117188-.464843zm0 0" fill="#cda3ff" stroke="#cda3ff" stroke-miterlimit="10" stroke-width="1.00002" transform="matrix(1 0 0 -1 126.64212 128.16043)"/><path d="m-.00094125-1.581465c.42187525 0 .82421825.167969 1.12109325.464844.292969.292968.460938.695312.460938 1.11718725 0 .41796875-.167969.82031275-.460938 1.11718775-.296875.296875-.699218.464843-1.12109325.464843-.41796875 0-.82031275-.167968-1.11718775-.464843s-.460937-.699219-.460937-1.11718775c0-.42187525.164062-.82421925.460937-1.11718725.296875-.296875.699219-.464844 1.11718775-.464844zm0 0" fill="#cda3ff" stroke="#cda3ff" stroke-miterlimit="10" stroke-width="1.00002" transform="matrix(1 0 0 -1 131.91891 112.30916)"/><path d="m-.00153625-1.582167c.42187525 0 .82421825.167968 1.12109325.464843s.460938.699219.460938 1.11718775c0 .41796925-.164063.82031225-.460938 1.11718725s-.699218.464844-1.12109325.464844c-.41796875 0-.82031275-.167969-1.11718775-.464844s-.460937-.699218-.460937-1.11718725c0-.41796875.164062-.82031275.460937-1.11718775s.699219-.464843 1.11718775-.464843zm0 0" fill="#cda3ff" stroke="#cda3ff" stroke-miterlimit="10" stroke-width="1.00002" transform="matrix(1 0 0 -1 139.62263 143.03502)"/><path d="m-.0019425-1.581219c.4218745 0 .8242185.167969 1.1210935.460938.296875.296875.460938.699219.460938 1.1210935 0 .4179685-.164063.8203125-.460938 1.1171875s-.699219.464844-1.1210935.464844c-.4179685 0-.8203125-.167969-1.1171875-.464844s-.460938-.699219-.460938-1.1171875c0-.4218745.164063-.8242185.460938-1.1210935.296875-.292969.699219-.460938 1.1171875-.460938zm0 0" fill="#cda3ff" stroke="#cda3ff" stroke-miterlimit="10" stroke-width="1.00002" transform="matrix(1 0 0 -1 142.02538 140.618)"/><path d="m.0008675-1.580196c.4179685 0 .8203125.164062 1.1171875.460937s.460937.699219.460937 1.121094c0 .417969-.164062.820312-.460937 1.117187s-.699219.460938-1.1171875.460938c-.4218755 0-.8242185-.164063-1.1210935-.460938-.292969-.296875-.460938-.699218-.460938-1.117187 0-.421875.167969-.824219.460938-1.121094.296875-.296875.699218-.460937 1.1210935-.460937zm0 0" fill="#cda3ff" stroke="#cda3ff" stroke-miterlimit="10" stroke-width="1.00002" transform="matrix(1 0 0 -1 142.83507 145.26746)"/><path d="m-.00074875-1.581756c.42187475 0 .82421875.167968 1.12109375.464843.292969.296875.460938.695313.460938 1.117188 0 .417969-.167969.820312-.460938 1.117187-.296875.296875-.699219.464844-1.12109375.464844-.41796825 0-.82031225-.167969-1.11718725-.464844s-.464844-.699218-.464844-1.117187c0-.421875.167969-.820313.464844-1.117188s.699219-.464843 1.11718725-.464843zm0 0" fill="#cda3ff" stroke="#cda3ff" stroke-miterlimit="10" stroke-width="1.00002" transform="matrix(1 0 0 -1 144.73903 118.48465)"/><path d="m-.00189625-1.57998c.42187525 0 .82421825.164062 1.12109325.460937s.460938.699219.460938 1.117188c0 .421875-.164063.824219-.460938 1.121094s-.699218.460937-1.12109325.460937c-.41796875 0-.82031275-.164062-1.11718775-.460937s-.460937-.699219-.460937-1.121094c0-.417969.164062-.820313.460937-1.117188s.699219-.460937 1.11718775-.460937zm0 0" fill="#cda3ff" stroke="#cda3ff" stroke-miterlimit="10" stroke-width="1.00002" transform="matrix(1 0 0 -1 147.06049 103.98252)"/><path d="m.00100875-1.579984c.41796925 0 .82031225.164063 1.11718725.460938s.460938.699219.460938 1.11718725c0 .42187475-.164063.82421875-.460938 1.12109375s-.699218.460938-1.11718725.460938c-.42187475 0-.82421875-.164063-1.12109375-.460938s-.460937-.699219-.460937-1.12109375c0-.41796825.164062-.82031225.460937-1.11718725s.699219-.460938 1.12109375-.460938zm0 0" fill="#cda3ff" stroke="#cda3ff" stroke-miterlimit="10" stroke-width="1.00002" transform="matrix(1 0 0 -1 149.91696 94.16611)"/><path d="m-.001725-1.582034c.421875 0 .824219.167969 1.121094.464844s.460937.699219.460937 1.1171875-.164062.8203125-.460937 1.1171875-.699219.464844-1.121094.464844c-.417969 0-.820312-.167969-1.117187-.464844s-.460938-.699219-.460938-1.1171875.164063-.8203125.460938-1.1171875.699218-.464844 1.117187-.464844zm0 0" fill="#cda3ff" stroke="#cda3ff" stroke-miterlimit="10" stroke-width="1.00002" transform="matrix(1 0 0 -1 153.57985 115.19531)"/><path d="m-.000675-1.579267c.421875 0 .824219.164062 1.117187.460937.296875.296875.464844.699219.464844 1.1171875 0 .4218755-.167969.8242185-.464844 1.1210935-.292968.296875-.695312.460938-1.117187.460938-.417969 0-.820313-.164063-1.117188-.460938s-.464843-.699218-.464843-1.1210935c0-.4179685.167968-.8203125.464843-1.1171875s.699219-.460937 1.117188-.460937zm0 0" fill="#cda3ff" stroke="#cda3ff" stroke-miterlimit="10" stroke-width="1.00002" transform="matrix(1 0 0 -1 157.5163 121.60042)"/><path d="m.001035-1.58085c.417969 0 .820313.164063 1.117188.460938s.460937.699218.460937 1.12109325c0 .41796875-.164062.82031275-.460937 1.11718775s-.699219.460937-1.117188.460937c-.421875 0-.824219-.164062-1.121094-.460937s-.460937-.699219-.460937-1.11718775c0-.42187525.164062-.82421825.460937-1.12109325s.699219-.460938 1.121094-.460938zm0 0" fill="#cda3ff" stroke="#cda3ff" stroke-miterlimit="10" stroke-width="1.00002" transform="matrix(1 0 0 -1 157.76459 102.41915)"/><path d="m.00053125-1.57979c.41796875 0 .82031275.164062 1.11718775.460937s.464843.699219.464843 1.117188c0 .421875-.167968.824219-.464843 1.121094s-.699219.460937-1.11718775.460937c-.42187525 0-.82421925-.164062-1.11718725-.460937-.296875-.296875-.464844-.699219-.464844-1.121094 0-.417969.167969-.820313.464844-1.117188.292968-.296875.695312-.460937 1.11718725-.460937zm0 0" fill="#cda3ff" stroke="#cda3ff" stroke-miterlimit="10" stroke-width="1.00002" transform="matrix(1 0 0 -1 168.394 120.29521)"/><path d="m.0006875-1.580705c.4179685 0 .8203125.164062 1.1171875.460937s.464844.699219.464844 1.12109425c0 .41796875-.167969.82031275-.464844 1.11718775s-.699219.460937-1.1171875.460937c-.4218745 0-.8242185-.164062-1.1171875-.460937-.296875-.296875-.464844-.699219-.464844-1.11718775 0-.42187525.167969-.82421925.464844-1.12109425.292969-.296875.695313-.460937 1.1171875-.460937zm0 0" fill="#cda3ff" stroke="#cda3ff" stroke-miterlimit="10" stroke-width="1.00002" transform="matrix(1 0 0 -1 174.77275 142.30992)"/><path d="m-.0017725-1.579599c.4218745 0 .8242185.164063 1.1210935.460938s.460938.699218.460938 1.11718725c0 .42187475-.164063.82421875-.460938 1.12109375s-.699219.460937-1.1210935.460937c-.4179685 0-.8203125-.164062-1.1171875-.460937s-.460938-.699219-.460938-1.12109375c0-.41796925.164063-.82031225.460938-1.11718725s.699219-.460938 1.1171875-.460938zm0 0" fill="#cda3ff" stroke="#cda3ff" stroke-miterlimit="10" stroke-width="1.00002" transform="matrix(1 0 0 -1 176.86896 104.83837)"/><path d="m-.0007125-1.582809c.4218755 0 .8242185.167969 1.1171875.464844.296875.296875.464844.699219.464844 1.1171875 0 .4218755-.167969.8242185-.464844 1.1210935-.292969.292969-.695312.460938-1.1171875.460938-.4179685 0-.8203125-.167969-1.1171875-.460938-.296875-.296875-.464844-.699218-.464844-1.1210935 0-.4179685.167969-.8203125.464844-1.1171875s.699219-.464844 1.1171875-.464844zm0 0" fill="#cda3ff" stroke="#cda3ff" stroke-miterlimit="10" stroke-width="1.00002" transform="matrix(1 0 0 -1 179.96165 131.14766)"/><path d="m.0001175-1.581031c.4179685 0 .8203125.164062 1.1171875.460937s.464844.699219.464844 1.121094c0 .417969-.167969.820312-.464844 1.117187s-.699219.460938-1.1171875.460938-.8203125-.164063-1.1171875-.460938-.464844-.699218-.464844-1.117187c0-.421875.167969-.824219.464844-1.121094s.699219-.460937 1.1171875-.460937zm0 0" fill="#cda3ff" stroke="#cda3ff" stroke-miterlimit="10" stroke-width="1.00002" transform="matrix(1 0 0 -1 181.49207 154.751)"/><path d="m.000825-1.579939c.417969 0 .820312.164063 1.117187.460938s.464844.699218.464844 1.11718725c0 .42187475-.167969.82421875-.464844 1.12109375s-.699218.460937-1.117187.460937c-.421875 0-.824219-.164062-1.121094-.460937-.292969-.296875-.460937-.699219-.460937-1.12109375 0-.41796925.167968-.82031225.460937-1.11718725.296875-.296875.699219-.460938 1.121094-.460938zm0 0" fill="#cda3ff" stroke="#cda3ff" stroke-miterlimit="10" stroke-width="1.00002" transform="matrix(1 0 0 -1 183.5773 127.30678)"/><path d="m.00015-1.582414c.417969 0 .820312.167969 1.117187.464844s.464844.699219.464844 1.1171875c0 .4218745-.167969.8203125-.464844 1.1171875s-.699218.464844-1.117187.464844-.820313-.167969-1.117188-.464844-.464843-.695313-.464843-1.1171875c0-.4179685.167968-.8203125.464843-1.1171875s.699219-.464844 1.117188-.464844zm0 0" fill="#cda3ff" stroke="#cda3ff" stroke-miterlimit="10" stroke-width="1.00002" transform="matrix(1 0 0 -1 187.68735 142.94493)"/><path d="m-.0006425-1.582844c.4218745 0 .8242185.167969 1.1171875.464844.296875.296875.464844.699219.464844 1.1171875 0 .4218755-.167969.8242185-.464844 1.1210935-.292969.292969-.695313.460938-1.1171875.460938-.4179685 0-.8203125-.167969-1.1171875-.460938-.296875-.296875-.464844-.699218-.464844-1.1210935 0-.4179685.167969-.8203125.464844-1.1171875s.699219-.464844 1.1171875-.464844zm0 0" fill="#cda3ff" stroke="#cda3ff" stroke-miterlimit="10" stroke-width="1.00002" transform="matrix(1 0 0 -1 193.05533 128.1945)"/><path d="m-.0016675-1.581284c.4218745 0 .8242185.167969 1.1210935.460938.296875.296875.460938.699218.460938 1.1210935 0 .4179685-.164063.8203125-.460938 1.1171875s-.699219.464844-1.1210935.464844c-.4179685 0-.8203125-.167969-1.1171875-.464844s-.460938-.699219-.460938-1.1171875c0-.4218755.164063-.8242185.460938-1.1210935.296875-.292969.699219-.460938 1.1171875-.460938zm0 0" fill="#cda3ff" stroke="#cda3ff" stroke-miterlimit="10" stroke-width="1.00002" transform="matrix(1 0 0 -1 197.35323 145.19606)"/><path d="m-.0016825-1.582609c.4218745 0 .8242185.167969 1.1210935.464844s.460938.699219.460938 1.1171875c0 .4218745-.164063.8242185-.460938 1.1171875-.296875.296875-.699219.464844-1.1210935.464844-.4179685 0-.8203125-.167969-1.1171875-.464844-.296875-.292969-.460938-.695313-.460938-1.1171875 0-.4179685.164063-.8203125.460938-1.1171875s.699219-.464844 1.1171875-.464844zm0 0" fill="#cda3ff" stroke="#cda3ff" stroke-miterlimit="10" stroke-width="1.00002" transform="matrix(1 0 0 -1 198.33762 137.11661)"/><path d="m-.00009375-1.580507c.41796875 0 .82031275.164062 1.11718775.460937s.464844.699219.464844 1.12109375c0 .41796925-.167969.82031225-.464844 1.11718725s-.699219.460938-1.11718775.460938c-.41796825 0-.82031225-.164063-1.11718725-.460938s-.464844-.699218-.464844-1.11718725c0-.42187475.167969-.82421875.464844-1.12109375s.699219-.460937 1.11718725-.460937zm0 0" fill="#cda3ff" stroke="#cda3ff" stroke-miterlimit="10" stroke-width="1.00002" transform="matrix(1 0 0 -1 207.6915 148.63043)"/><path d="m.0004875-1.582353c.4179685 0 .8203125.167969 1.1171875.464844s.464844.699219.464844 1.11718775c0 .42187525-.167969.82031225-.464844 1.11718725s-.699219.464844-1.1171875.464844c-.4218755 0-.8203125-.167969-1.1171875-.464844s-.464844-.695312-.464844-1.11718725c0-.41796875.167969-.82031275.464844-1.11718775s.695312-.464844 1.1171875-.464844zm0 0" fill="#cda3ff" stroke="#cda3ff" stroke-miterlimit="10" stroke-width="1.00002" transform="matrix(1 0 0 -1 209.52295 139.17546)"/><path d="m-.00193875-1.581625c.42187475 0 .82421875.167969 1.12109375.464844s.460937.695312.460937 1.11718725c0 .41796875-.164062.82031275-.460937 1.11718775s-.699219.464844-1.12109375.464844c-.41796925 0-.82031225-.167969-1.11718725-.464844s-.460938-.699219-.460938-1.11718775c0-.42187525.164063-.82031225.460938-1.11718725s.699218-.464844 1.11718725-.464844zm0 0" fill="#cda3ff" stroke="#cda3ff" stroke-miterlimit="10" stroke-width="1.00002" transform="matrix(1 0 0 -1 217.42772 128.9965)"/><path d="m-.000865-1.582715c.421875 0 .824219.167969 1.121094.464844.292968.296875.460937.699218.460937 1.11718725 0 .42187475-.167969.82421875-.460937 1.11718775-.296875.296875-.699219.464843-1.121094.464843-.417969 0-.820313-.167968-1.117188-.464843-.296875-.292969-.460937-.695313-.460937-1.11718775 0-.41796925.164062-.82031225.460937-1.11718725s.699219-.464844 1.117188-.464844zm0 0" fill="#cda3ff" stroke="#cda3ff" stroke-miterlimit="10" stroke-width="1.00002" transform="matrix(1 0 0 -1 220.48524 138.21416)"/><path d="m-.00102125-1.581537c.42187525 0 .82421825.167968 1.12109325.464843s.460938.695313.460938 1.11718775c0 .41796925-.164063.82031225-.460938 1.11718725s-.699218.464844-1.12109325.464844c-.41796875 0-.82031275-.167969-1.11718775-.464844s-.460937-.699218-.460937-1.11718725c0-.42187475.164062-.82031275.460937-1.11718775s.699219-.464843 1.11718775-.464843zm0 0" fill="#cda3ff" stroke="#cda3ff" stroke-miterlimit="10" stroke-width="1.00002" transform="matrix(1 0 0 -1 222.76274 145.03565)"/><path d="m-.00092625-1.581554c.42187525 0 .82421925.167969 1.12109425.464844.292968.296875.460937.695312.460937 1.1171875 0 .4179685-.167969.8203125-.460937 1.1171875-.296875.296875-.699219.464844-1.12109425.464844-.41796875 0-.82031275-.167969-1.11718775-.464844s-.460937-.699219-.460937-1.1171875c0-.4218755.164062-.8203125.460937-1.1171875s.699219-.464844 1.11718775-.464844zm0 0" fill="#cda3ff" stroke="#cda3ff" stroke-miterlimit="10" stroke-width="1.00002" transform="matrix(1 0 0 -1 223.96577 123.53954)"/><path d="m.0013925-1.581253c.4179685 0 .8203125.167969 1.1171875.460938.296875.296875.460938.699219.460938 1.12109375 0 .41796825-.164063.82031225-.460938 1.11718725s-.699219.464844-1.1171875.464844c-.4218745 0-.8242185-.167969-1.1210935-.464844s-.460938-.699219-.460938-1.11718725c0-.42187475.164063-.82421875.460938-1.12109375.296875-.292969.699219-.460938 1.1210935-.460938zm0 0" fill="#cda3ff" stroke="#cda3ff" stroke-miterlimit="10" stroke-width="1.00002" transform="matrix(1 0 0 -1 225.69392 176.61406)"/><path d="m.000445-1.580521c.417969 0 .820312.164062 1.117187.460937s.464844.699219.464844 1.121094c0 .417969-.167969.820312-.464844 1.117187s-.699218.460938-1.117187.460938c-.421875 0-.820313-.164063-1.117188-.460938s-.464843-.699218-.464843-1.117187c0-.421875.167968-.824219.464843-1.121094s.695313-.460937 1.117188-.460937zm0 0" fill="#cda3ff" stroke="#cda3ff" stroke-miterlimit="10" stroke-width="1.00002" transform="matrix(1 0 0 -1 231.54643 147.18901)"/><path d="m.00104-1.580076c.417969 0 .820312.164062 1.117187.460937s.460938.699219.460938 1.11718775c0 .42187525-.164063.82421825-.460938 1.12109325s-.699218.460938-1.117187.460938c-.421875 0-.824219-.164063-1.121094-.460938s-.460937-.699218-.460937-1.12109325c0-.41796875.164062-.82031275.460937-1.11718775s.699219-.460937 1.121094-.460937zm0 0" fill="#cda3ff" stroke="#cda3ff" stroke-miterlimit="10" stroke-width="1.00002" transform="matrix(1 0 0 -1 233.06146 126.33008)"/><path d="m.00115625-1.582584c.41796875 0 .82031275.167969 1.11718775.464844s.460937.699219.460937 1.1171875c0 .4218745-.164062.8242185-.460937 1.1171875-.296875.296875-.699219.464844-1.11718775.464844-.42187525 0-.82421825-.167969-1.12109325-.464844-.296875-.292969-.460938-.695313-.460938-1.1171875 0-.4179685.164063-.8203125.460938-1.1171875s.699218-.464844 1.12109325-.464844zm0 0" fill="#cda3ff" stroke="#cda3ff" stroke-miterlimit="10" stroke-width="1.00002" transform="matrix(1 0 0 -1 233.31525 139.78851)"/><path d="m-.00056875-1.581996c.42187475 0 .82421875.167968 1.11718775.464843.296875.296875.464843.699219.464843 1.117188s-.167968.820312-.464843 1.117187c-.292969.296875-.695313.464844-1.11718775.464844-.41796925 0-.82031225-.167969-1.11718725-.464844s-.464844-.699218-.464844-1.117187.167969-.820313.464844-1.117188.699218-.464843 1.11718725-.464843zm0 0" fill="#cda3ff" stroke="#cda3ff" stroke-miterlimit="10" stroke-width="1.00002" transform="matrix(1 0 0 -1 234.3326 128.14066)"/><path d="m.00188125-1.58096c.41796875 0 .82031275.164062 1.11718775.460937s.460937.699219.460937 1.12109425c0 .41796875-.164062.82031275-.460937 1.11718775s-.699219.460937-1.11718775.460937c-.42187525 0-.82421925-.164062-1.12109425-.460937s-.460937-.699219-.460937-1.11718775c0-.42187525.164062-.82421925.460937-1.12109425s.699219-.460937 1.12109425-.460937zm0 0" fill="#cda3ff" stroke="#cda3ff" stroke-miterlimit="10" stroke-width="1.00002" transform="matrix(1 0 0 -1 243.9864 178.91904)"/><path d="m.00017125-1.581419c.41796875 0 .82031275.167969 1.11718775.464844.296875.292969.464844.695312.464844 1.1171875 0 .4179685-.167969.8203125-.464844 1.1171875s-.699219.464844-1.11718775.464844c-.41796825 0-.82031225-.167969-1.11718725-.464844s-.464844-.699219-.464844-1.1171875c0-.4218755.167969-.8242185.464844-1.1171875.296875-.296875.699219-.464844 1.11718725-.464844zm0 0" fill="#cda3ff" stroke="#cda3ff" stroke-miterlimit="10" stroke-width="1.00002" transform="matrix(1 0 0 -1 244.01936 133.8053)"/><path d="m.00056125-1.580123c.41796875 0 .82031275.164063 1.11718775.460938s.464843.699219.464843 1.12109375c0 .41796825-.167968.82031225-.464843 1.11718725s-.699219.460938-1.11718775.460938c-.42187525 0-.82421925-.164063-1.11718725-.460938-.296875-.296875-.464844-.699219-.464844-1.11718725 0-.42187475.167969-.82421875.464844-1.12109375.292968-.296875.695312-.460938 1.11718725-.460938zm0 0" fill="#cda3ff" stroke="#cda3ff" stroke-miterlimit="10" stroke-width="1.00002" transform="matrix(1 0 0 -1 250.80022 178.02144)"/><path d="m-.00042625-1.58124c.42187525 0 .82031225.167969 1.11718725.460937.296875.296875.464844.699219.464844 1.12109425 0 .41796875-.167969.82031275-.464844 1.11718775s-.695312.464843-1.11718725.464843c-.41796875 0-.82031275-.167968-1.11718775-.464843s-.464844-.699219-.464844-1.11718775c0-.42187525.167969-.82421925.464844-1.12109425.296875-.292968.699219-.460937 1.11718775-.460937zm0 0" fill="#cda3ff" stroke="#cda3ff" stroke-miterlimit="10" stroke-width="1.00002" transform="matrix(1 0 0 -1 253.05902 139.38751)"/><path d="m-.00071875-1.581705c.42187475 0 .82421875.167969 1.11718775.464844.296875.296875.464843.695312.464843 1.11718725 0 .41796875-.167968.82031275-.464843 1.11718775-.292969.296875-.695313.464844-1.11718775.464844-.41796925 0-.82031225-.167969-1.11718725-.464844s-.464844-.699219-.464844-1.11718775c0-.42187525.167969-.82031225.464844-1.11718725s.699218-.464844 1.11718725-.464844zm0 0" fill="#cda3ff" stroke="#cda3ff" stroke-miterlimit="10" stroke-width="1.00002" transform="matrix(1 0 0 -1 254.8015 159.40267)"/><path d="m.0017275-1.581386c.4179685 0 .8203125.167968 1.1171875.464843.296875.292969.460937.695313.460937 1.117188 0 .417969-.164062.820312-.460937 1.117187s-.699219.464844-1.1171875.464844c-.4218755 0-.8242185-.167969-1.1210935-.464844s-.460938-.699218-.460938-1.117187c0-.421875.164063-.824219.460938-1.117188.296875-.296875.699218-.464843 1.1210935-.464843zm0 0" fill="#cda3ff" stroke="#cda3ff" stroke-miterlimit="10" stroke-width="1.00002" transform="matrix(1 0 0 -1 255.55296 146.61002)"/><path d="m-.00109375-1.580915c.42187475 0 .82421875.164062 1.12109375.460937s.460938.699219.460938 1.12109425c0 .41796875-.164063.82031275-.460938 1.11718775s-.699219.460937-1.12109375.460937c-.41796825 0-.82031225-.164062-1.11718725-.460937s-.460938-.699219-.460938-1.11718775c0-.42187525.164063-.82421925.460938-1.12109425s.699219-.460937 1.11718725-.460937zm0 0" fill="#cda3ff" stroke="#cda3ff" stroke-miterlimit="10" stroke-width="1.00002" transform="matrix(1 0 0 -1 256.8175 182.99721)"/><path d="m.00187375-1.580306c.41796925 0 .82031225.164062 1.11718725.460937s.460938.699219.460938 1.121094c0 .417969-.164063.820312-.460938 1.117187s-.699218.460938-1.11718725.460938c-.42187475 0-.82421875-.164063-1.12109375-.460938s-.460937-.699218-.460937-1.117187c0-.421875.164062-.824219.460937-1.121094s.699219-.460937 1.12109375-.460937zm0 0" fill="#cda3ff" stroke="#cda3ff" stroke-miterlimit="10" stroke-width="1.00002" transform="matrix(1 0 0 -1 262.49422 173.4236)"/><path d="m-.00146125-1.581543c.42187525 0 .82421825.167969 1.12109325.464844s.460938.695313.460938 1.11718775c0 .41796825-.164063.82031225-.460938 1.11718725s-.699218.464844-1.12109325.464844c-.41796875 0-.82031275-.167969-1.11718775-.464844s-.460937-.699219-.460937-1.11718725c0-.42187475.164062-.82031275.460937-1.11718775s.699219-.464844 1.11718775-.464844zm0 0" fill="#cda3ff" stroke="#cda3ff" stroke-miterlimit="10" stroke-width="1.00002" transform="matrix(1 0 0 -1 266.57568 210.55127)"/><path d="m.00039375-1.580535c.41796925 0 .82031225.164063 1.11718725.460938s.464844.699218.464844 1.12109325c0 .41796875-.167969.82031275-.464844 1.11718775s-.699218.460937-1.11718725.460937c-.42187475 0-.82031275-.164062-1.11718775-.460937s-.464843-.699219-.464843-1.11718775c0-.42187525.167968-.82421825.464843-1.12109325s.695313-.460938 1.11718775-.460938zm0 0" fill="#cda3ff" stroke="#cda3ff" stroke-miterlimit="10" stroke-width="1.00002" transform="matrix(1 0 0 -1 272.46445 164.74759)"/><path d="m-.0016825-1.579193c.4218755 0 .8242185.164063 1.1210935.460938s.460938.699219.460938 1.1171875c0 .4218745-.164063.8242185-.460938 1.1210935s-.699218.460938-1.1210935.460938c-.4179685 0-.8203125-.164063-1.1171875-.460938s-.460937-.699219-.460937-1.1210935c0-.4179685.164062-.8203125.460937-1.1171875s.699219-.460938 1.1171875-.460938zm0 0" fill="#cda3ff" stroke="#cda3ff" stroke-miterlimit="10" stroke-width="1.00002" transform="matrix(1 0 0 -1 273.49387 156.70987)"/><path d="m.000135-1.579557c.417969 0 .820313.164062 1.117188.460937s.464843.699219.464843 1.1171875c0 .4218755-.167968.8242185-.464843 1.1210935s-.699219.460938-1.117188.460938-.820312-.164063-1.117187-.460938-.464844-.699218-.464844-1.1210935c0-.4179685.167969-.8203125.464844-1.1171875s.699218-.460937 1.117187-.460937zm0 0" fill="#cda3ff" stroke="#cda3ff" stroke-miterlimit="10" stroke-width="1.00002" transform="matrix(1 0 0 -1 274.73424 165.03763)"/><path d="m-.00122125-1.579406c.42187525 0 .82421825.164062 1.12109325.460937s.460938.699219.460938 1.11718775c0 .42187525-.164063.82421825-.460938 1.12109325s-.699218.460938-1.12109325.460938c-.41796875 0-.82031275-.164063-1.11718775-.460938s-.460937-.699218-.460937-1.12109325c0-.41796875.164062-.82031275.460937-1.11718775s.699219-.460937 1.11718775-.460937zm0 0" fill="#cda3ff" stroke="#cda3ff" stroke-miterlimit="10" stroke-width="1.00002" transform="matrix(1 0 0 -1 275.95044 148.737)"/><path d="m.00159125-1.582675c.41796875 0 .82031275.167969 1.11718775.464844s.460937.699219.460937 1.11718725c0 .42187475-.164062.82421875-.460937 1.11718775-.296875.296875-.699219.464844-1.11718775.464844-.42187525 0-.82421925-.167969-1.12109425-.464844-.296875-.292969-.460937-.695313-.460937-1.11718775 0-.41796825.164062-.82031225.460937-1.11718725s.699219-.464844 1.12109425-.464844zm0 0" fill="#cda3ff" stroke="#cda3ff" stroke-miterlimit="10" stroke-width="1.00002" transform="matrix(1 0 0 -1 276.26794 160.0267)"/><path d="m.000825-1.580073c.417969 0 .820312.164063 1.117187.460938s.464844.699219.464844 1.1171875c0 .4218745-.167969.8242185-.464844 1.1210935s-.699218.460938-1.117187.460938c-.421875 0-.824219-.164063-1.121094-.460938-.292969-.296875-.460937-.699219-.460937-1.1210935 0-.4179685.167968-.8203125.460937-1.1171875.296875-.296875.699219-.460938 1.121094-.460938zm0 0" fill="#cda3ff" stroke="#cda3ff" stroke-miterlimit="10" stroke-width="1.00002" transform="matrix(1 0 0 -1 297.0148 173.02149)"/><path d="m-.00142375-1.580699c.42187475 0 .82421875.164063 1.12109375.460938s.460937.699218.460937 1.1210935c0 .4179685-.164062.8203125-.460937 1.1171875s-.699219.460937-1.12109375.460937c-.41796925 0-.82031225-.164062-1.11718725-.460937s-.460938-.699219-.460938-1.1171875c0-.4218755.164063-.8242185.460938-1.1210935s.699218-.460938 1.11718725-.460938zm0 0" fill="#cda3ff" stroke="#cda3ff" stroke-miterlimit="10" stroke-width="1.00002" transform="matrix(1 0 0 -1 310.34908 161.83727)"/><path d="m.00065375-1.578983c.41796925 0 .82031225.164063 1.11718725.460938s.464844.699219.464844 1.1171875c0 .4218745-.167969.8242185-.464844 1.1210935-.296875.292969-.699218.460938-1.11718725.460938-.42187475 0-.82421875-.167969-1.11718775-.460938-.296875-.296875-.464843-.699219-.464843-1.1210935 0-.4179685.167968-.8203125.464843-1.1171875.292969-.296875.695313-.460938 1.11718775-.460938zm0 0" fill="#cda3ff" stroke="#cda3ff" stroke-miterlimit="10" stroke-width="1.00002" transform="matrix(1 0 0 -1 319.83919 182.52258)"/><path d="m-.000715-1.582217c.421875 0 .824219.167968 1.117187.464843.296875.296875.464844.699219.464844 1.11718775 0 .41796925-.167969.82031225-.464844 1.11718725-.292968.296875-.695312.464844-1.117187.464844-.417969 0-.820313-.167969-1.117188-.464844s-.464843-.699218-.464843-1.11718725c0-.41796875.167968-.82031275.464843-1.11718775s.699219-.464843 1.117188-.464843zm0 0" fill="#cda3ff" stroke="#cda3ff" stroke-miterlimit="10" stroke-width="1.00002" transform="matrix(1 0 0 -1 321.54759 149.72247)"/><path d="m-.0012475-1.580576c.4218755 0 .8242185.164062 1.1210935.460937s.460938.699219.460938 1.121094c0 .417969-.164063.820312-.460938 1.117187s-.699218.460938-1.1210935.460938c-.4179685 0-.8203125-.164063-1.1171875-.460938s-.460937-.699218-.460937-1.117187c0-.421875.164062-.824219.460937-1.121094s.699219-.460937 1.1171875-.460937zm0 0" fill="#cda3ff" stroke="#cda3ff" stroke-miterlimit="10" stroke-width="1.00002" transform="matrix(1 0 0 -1 324.54031 162.39208)"/><path d="m.001495-1.581963c.417969 0 .820313.167969 1.117188.464844s.460937.699219.460937 1.11718775c0 .41796825-.164062.82031225-.460937 1.11718725s-.699219.464844-1.117188.464844c-.421875 0-.824219-.167969-1.121094-.464844s-.460937-.699219-.460937-1.11718725c0-.41796875.164062-.82031275.460937-1.11718775s.699219-.464844 1.121094-.464844zm0 0" fill="#cda3ff" stroke="#cda3ff" stroke-miterlimit="10" stroke-width="1.00002" transform="matrix(1 0 0 -1 329.92038 158.0821)"/><path d="m.00002625-1.580973c.41796875 0 .82031275.164063 1.11718775.460938s.464844.699219.464844 1.12109375c0 .41796825-.167969.82031225-.464844 1.11718725s-.699219.460938-1.11718775.460938c-.41796825 0-.82031225-.164063-1.11718725-.460938s-.464844-.699219-.464844-1.11718725c0-.42187475.167969-.82421875.464844-1.12109375s.699219-.460938 1.11718725-.460938zm0 0" fill="#cda3ff" stroke="#cda3ff" stroke-miterlimit="10" stroke-width="1.00002" transform="matrix(1 0 0 -1 330.28513 168.08309)"/><path d="m-.00133-1.580274c.421875 0 .824219.164063 1.121094.460938s.460937.699218.460937 1.1210935c0 .4179685-.164062.8203125-.460937 1.1171875s-.699219.460937-1.121094.460937c-.417969 0-.820312-.164062-1.117187-.460937s-.460938-.699219-.460938-1.1171875c0-.4218755.164063-.8242185.460938-1.1210935s.699218-.460938 1.117187-.460938zm0 0" fill="#cda3ff" stroke="#cda3ff" stroke-miterlimit="10" stroke-width="1.00002" transform="matrix(1 0 0 -1 331.78258 176.72832)"/><path d="m.00024875-1.582364c.41796925 0 .82031225.167969 1.11718725.464844s.464844.699219.464844 1.1171875c0 .4218745-.167969.8203125-.464844 1.1171875s-.699218.464844-1.11718725.464844c-.42187475 0-.82031275-.167969-1.11718775-.464844s-.464843-.695313-.464843-1.1171875c0-.4179685.167968-.8203125.464843-1.1171875s.695313-.464844 1.11718775-.464844zm0 0" fill="#cda3ff" stroke="#cda3ff" stroke-miterlimit="10" stroke-width="1.00002" transform="matrix(1 0 0 -1 332.48022 184.31998)"/><path d="m.00045875-1.581239c.41796925 0 .82031225.167969 1.11718725.460938.296875.296875.464844.699218.464844 1.1210935 0 .4179685-.167969.8203125-.464844 1.1171875s-.699218.464844-1.11718725.464844c-.42187475 0-.82031275-.167969-1.11718775-.464844s-.464843-.699219-.464843-1.1171875c0-.4218755.167968-.8242185.464843-1.1210935.296875-.292969.695313-.460938 1.11718775-.460938zm0 0" fill="#cda3ff" stroke="#cda3ff" stroke-miterlimit="10" stroke-width="1.00002" transform="matrix(1 0 0 -1 335.73001 167.43048)"/><path d="m.00152125-1.580301c.41796875 0 .82031275.164062 1.11718775.460937s.460937.699219.460937 1.121094c0 .417969-.164062.820312-.460937 1.117187s-.699219.460938-1.11718775.460938c-.42187525 0-.82421925-.164063-1.12109425-.460938s-.460937-.699218-.460937-1.117187c0-.421875.164062-.824219.460937-1.121094s.699219-.460937 1.12109425-.460937zm0 0" fill="#cda3ff" stroke="#cda3ff" stroke-miterlimit="10" stroke-width="1.00002" transform="matrix(1 0 0 -1 336.36176 145.34548)"/><path d="m.0014-1.580118c.417969 0 .820312.164063 1.117187.460938s.460938.699219.460938 1.12109375c0 .41796825-.164063.82031225-.460938 1.11718725s-.699218.460938-1.117187.460938c-.421875 0-.824219-.164063-1.121094-.460938s-.460937-.699219-.460937-1.11718725c0-.42187475.164062-.82421875.460937-1.12109375s.699219-.460938 1.121094-.460938zm0 0" fill="#cda3ff" stroke="#cda3ff" stroke-miterlimit="10" stroke-width="1.00002" transform="matrix(1 0 0 -1 337.3736 198.56832)"/><path d="m-.00192-1.580409c.421875 0 .824219.164063 1.121094.460938s.460937.699218.460937 1.1210935c0 .4179685-.164062.8203125-.460937 1.1171875s-.699219.460937-1.121094.460937c-.417969 0-.820313-.164062-1.117188-.460937s-.460937-.699219-.460937-1.1171875c0-.4218755.164062-.8242185.460937-1.1210935s.699219-.460938 1.117188-.460938zm0 0" fill="#cda3ff" stroke="#cda3ff" stroke-miterlimit="10" stroke-width="1.00002" transform="matrix(1 0 0 -1 340.18942 155.27506)"/><path d="m-.0018875-1.580471c.4218745 0 .8242185.164062 1.1210935.460937s.460938.699219.460938 1.121094c0 .417969-.164063.820312-.460938 1.117187s-.699219.460938-1.1210935.460938c-.4179685 0-.8203125-.164063-1.1171875-.460938s-.460938-.699218-.460938-1.117187c0-.421875.164063-.824219.460938-1.121094s.699219-.460937 1.1171875-.460937zm0 0" fill="#cda3ff" stroke="#cda3ff" stroke-miterlimit="10" stroke-width="1.00002" transform="matrix(1 0 0 -1 346.66595 74.84531)"/><path d="m.00150875-1.580429c.41796925 0 .82031225.164063 1.11718725.460938s.460938.699218.460938 1.1210935c0 .4179685-.164063.8203125-.460938 1.1171875s-.699218.460937-1.11718725.460937c-.42187475 0-.82421875-.164062-1.12109375-.460937s-.460937-.699219-.460937-1.1171875c0-.4218755.164062-.8242185.460937-1.1210935s.699219-.460938 1.12109375-.460938zm0 0" fill="#cda3ff" stroke="#cda3ff" stroke-miterlimit="10" stroke-width="1.00002" transform="matrix(1 0 0 -1 348.88521 144.93129)"/><path d="m.00012375-1.580506c.41796925 0 .82031225.164062 1.11718725.460937s.464844.699219.464844 1.121094c0 .417969-.167969.820312-.464844 1.117187s-.699218.460938-1.11718725.460938c-.41796875 0-.82031275-.164063-1.11718775-.460938s-.464843-.699218-.464843-1.117187c0-.421875.167968-.824219.464843-1.121094s.699219-.460937 1.11718775-.460937zm0 0" fill="#cda3ff" stroke="#cda3ff" stroke-miterlimit="10" stroke-width="1.00002" transform="matrix(1 0 0 -1 352.24597 149.2984)"/><path d="m-.00053-1.579846c.421875 0 .824219.164062 1.117187.460937.296875.296875.464844.699219.464844 1.11718775 0 .42187525-.167969.82421825-.464844 1.12109325-.292968.296875-.695312.460938-1.117187.460938-.417969 0-.820313-.164063-1.117188-.460938s-.464843-.699218-.464843-1.12109325c0-.41796875.167968-.82031275.464843-1.11718775s.699219-.460937 1.117188-.460937zm0 0" fill="#cda3ff" stroke="#cda3ff" stroke-miterlimit="10" stroke-width="1.00002" transform="matrix(1 0 0 -1 355.96928 133.14281)"/><path d="m-.0002925-1.58032c.4218745 0 .8203125.164062 1.1171875.460937s.464844.699219.464844 1.12109425c0 .41796875-.167969.82031275-.464844 1.11718775s-.695313.460937-1.1171875.460937c-.4179685 0-.8203125-.164062-1.1171875-.460937s-.464844-.699219-.464844-1.11718775c0-.42187525.167969-.82421925.464844-1.12109425s.699219-.460937 1.1171875-.460937zm0 0" fill="#cda3ff" stroke="#cda3ff" stroke-miterlimit="10" stroke-width="1.00002" transform="matrix(1 0 0 -1 356.05498 144.32593)"/><path d="m-.001195-1.581418c.421875 0 .824219.167969 1.121094.464844.296875.292969.460937.695313.460937 1.11718775 0 .41796825-.164062.82031225-.460937 1.11718725s-.699219.464844-1.121094.464844c-.417969 0-.820312-.167969-1.117187-.464844s-.460938-.699219-.460938-1.11718725c0-.42187475.164063-.82421875.460938-1.11718775.296875-.296875.699218-.464844 1.117187-.464844zm0 0" fill="#cda3ff" stroke="#cda3ff" stroke-miterlimit="10" stroke-width="1.00002" transform="matrix(1 0 0 -1 359.23557 135.03577)"/><path d="m.00159-1.581766c.417969 0 .820312.167968 1.117187.464843s.460938.695313.460938 1.117188c0 .417969-.164063.820312-.460938 1.117187s-.699218.464844-1.117187.464844c-.421875 0-.824219-.167969-1.121094-.464844s-.460937-.699218-.460937-1.117187c0-.421875.164062-.820313.460937-1.117188s.699219-.464843 1.121094-.464843zm0 0" fill="#cda3ff" stroke="#cda3ff" stroke-miterlimit="10" stroke-width="1.00002" transform="matrix(1 0 0 -1 370.52966 117.35964)"/><path d="m.00033625-1.579665c.41796875 0 .82031275.164062 1.11718775.460937s.464844.699219.464844 1.117188c0 .421875-.167969.824219-.464844 1.121094s-.699219.460937-1.11718775.460937c-.42187525 0-.82031225-.164062-1.11718725-.460937s-.464844-.699219-.464844-1.121094c0-.417969.167969-.820313.464844-1.117188s.695312-.460937 1.11718725-.460937zm0 0" fill="#cda3ff" stroke="#cda3ff" stroke-miterlimit="10" stroke-width="1.00002" transform="matrix(1 0 0 -1 372.59732 138.65471)"/><path d="m.00068375-1.582503c.41796925 0 .82031225.167969 1.11718725.464844s.464844.699219.464844 1.11718775c0 .42187525-.167969.82031225-.464844 1.11718725s-.699218.464844-1.11718725.464844c-.42187475 0-.82421875-.167969-1.11718775-.464844-.296875-.296875-.464843-.695312-.464843-1.11718725 0-.41796875.167968-.82031275.464843-1.11718775.292969-.296875.695313-.464844 1.11718775-.464844zm0 0" fill="#cda3ff" stroke="#cda3ff" stroke-miterlimit="10" stroke-width="1.00002" transform="matrix(1 0 0 -1 374.02666 88.51906)"/><path d="m.00103875-1.58104c.41796825 0 .82031225.164062 1.11718725.460937s.460938.699219.460938 1.12109425c0 .41796875-.164063.82031275-.460938 1.11718775s-.699219.460937-1.11718725.460937c-.42187475 0-.82421875-.164062-1.12109375-.460937s-.460938-.699219-.460938-1.11718775c0-.42187525.164063-.82421925.460938-1.12109425s.699219-.460937 1.12109375-.460937zm0 0" fill="#cda3ff" stroke="#cda3ff" stroke-miterlimit="10" stroke-width="1.00002" transform="matrix(1 0 0 -1 375.38568 107.35646)"/><path d="m.00099375-1.579697c.41796925 0 .82031225.164062 1.11718725.460937s.460938.699219.460938 1.1171875c0 .4218755-.164063.8242185-.460938 1.1210935s-.699218.460938-1.11718725.460938c-.42187475 0-.82421875-.164063-1.12109375-.460938s-.460937-.699218-.460937-1.1210935c0-.4179685.164062-.8203125.460937-1.1171875s.699219-.460937 1.12109375-.460937zm0 0" fill="#cda3ff" stroke="#cda3ff" stroke-miterlimit="10" stroke-width="1.00002" transform="matrix(1 0 0 -1 379.7451 79.19374)"/><path d="m.0002275-1.582513c.4179685 0 .8203125.167969 1.1171875.464844s.464844.699219.464844 1.11718775c0 .42187525-.167969.82031225-.464844 1.11718725s-.699219.464844-1.1171875.464844-.8203125-.167969-1.1171875-.464844-.464844-.695312-.464844-1.11718725c0-.41796875.167969-.82031275.464844-1.11718775s.699219-.464844 1.1171875-.464844zm0 0" fill="#cda3ff" stroke="#cda3ff" stroke-miterlimit="10" stroke-width="1.00002" transform="matrix(1 0 0 -1 381.21071 96.6128)"/><path d="m.0012525-1.579653c.4179685 0 .8203125.164063 1.1171875.460938s.460938.699219.460938 1.1171875c0 .4218745-.164063.8242185-.460938 1.1210935s-.699219.460938-1.1171875.460938c-.4218745 0-.8242185-.164063-1.1210935-.460938s-.460938-.699219-.460938-1.1210935c0-.4179685.164063-.8203125.460938-1.1171875s.699219-.460938 1.1210935-.460938zm0 0" fill="#cda3ff" stroke="#cda3ff" stroke-miterlimit="10" stroke-width="1.00002" transform="matrix(1 0 0 -1 386.97531 63.70941)"/><path d="m-.00118625-1.579744c.42187525 0 .82421925.164063 1.12109425.460938s.460937.699219.460937 1.11718725c0 .42187475-.164062.82421875-.460937 1.12109375s-.699219.460938-1.12109425.460938c-.41796875 0-.82031275-.164063-1.11718775-.460938s-.460937-.699219-.460937-1.12109375c0-.41796825.164062-.82031225.460937-1.11718725s.699219-.460938 1.11718775-.460938zm0 0" fill="#cda3ff" stroke="#cda3ff" stroke-miterlimit="10" stroke-width="1.00002" transform="matrix(1 0 0 -1 387.27853 84.79135)"/><path d="m-.00132375-1.582812c.42187475 0 .82421875.167968 1.12109375.464843s.460938.699219.460938 1.11718775c0 .42187525-.164063.82421925-.460938 1.12109425-.296875.292968-.699219.460937-1.12109375.460937-.41796825 0-.82031225-.167969-1.11718725-.460937-.296875-.296875-.460938-.699219-.460938-1.12109425 0-.41796875.164063-.82031275.460938-1.11718775s.699219-.464843 1.11718725-.464843zm0 0" fill="#cda3ff" stroke="#cda3ff" stroke-miterlimit="10" stroke-width="1.00002" transform="matrix(1 0 0 -1 388.25523 17.39375)"/><path d="m-.00096-1.579355c.421875 0 .824219.164062 1.121094.460937.292969.296875.460937.699219.460937 1.117188 0 .421875-.167968.824219-.460937 1.121094-.296875.296875-.699219.460937-1.121094.460937-.417969 0-.820312-.164062-1.117187-.460937s-.460938-.699219-.460938-1.121094c0-.417969.164063-.820313.460938-1.117188s.699218-.460937 1.117187-.460937zm0 0" fill="#cda3ff" stroke="#cda3ff" stroke-miterlimit="10" stroke-width="1.00002" transform="matrix(1 0 0 -1 388.59471 57.49877)"/><path d="m-.00177-1.580355c.421875 0 .824219.164062 1.121094.460937s.460937.699219.460937 1.12109425c0 .41796875-.164062.82031275-.460937 1.11718775s-.699219.460937-1.121094.460937c-.417969 0-.820313-.164062-1.117188-.460937s-.460937-.699219-.460937-1.11718775c0-.42187525.164062-.82421925.460937-1.12109425s.699219-.460937 1.117188-.460937zm0 0" fill="#cda3ff" stroke="#cda3ff" stroke-miterlimit="10" stroke-width="1.00002" transform="matrix(1 0 0 -1 394.31427 37.43527)"/><path d="m-.00021-1.580261c.417969 0 .820313.164062 1.117188.460937s.464843.699219.464843 1.121094c0 .417969-.167968.820312-.464843 1.117187s-.699219.460938-1.117188.460938-.820312-.164063-1.117187-.460938-.464844-.699218-.464844-1.117187c0-.421875.167969-.824219.464844-1.121094s.699218-.460937 1.117187-.460937zm0 0" fill="#cda3ff" stroke="#cda3ff" stroke-miterlimit="10" stroke-width="1.00002" transform="matrix(1 0 0 -1 395.75021 62.93927)"/><path d="m55.355469 116.8295 14.542969.449219 14.21875.59375 14.652343.773437 14.566407.933594 14.835937 1.113281 14.363281 1.242188 14.820313 1.441406 14.179687 1.539062 14.679688 1.75 14.652344 1.914063 14.574218 2.066406 14.75 2.257813 14.613282 2.398437 14.679687 2.570313 14.683594 2.738281 14.691406 2.902344 14.773437 3.085937 14.695313 3.234375 14.746094 3.410156 14.566406 3.53125 14.726563 3.734375 14.726562 3.902344 14.8125 4.089844 8.296875 2.359375" fill="none" stroke="#f55" stroke-linecap="square" stroke-miterlimit="10" stroke-width="1.50002" transform="matrix(1 0 0 -1 0 280.267)"/></g></svg>