<svg height="82.48" viewBox="0 0 246.955 82.48" width="246.955" xmlns="http://www.w3.org/2000/svg" xmlns:xlink="http://www.w3.org/1999/xlink"><defs><clipPath id="a"><path d="m133 60h113.953125v1h-113.953125zm0 0"/></clipPath><g id="b"><path d="m4.578125-3.1875c0-.796875-.046875-1.59375-.390625-2.328125-.453125-.96875-1.28125-1.125-1.6875-1.125-.609375 0-1.328125.265625-1.75 1.1875-.3125.6875-.359375 1.46875-.359375 2.265625 0 .75.03125 1.640625.453125 2.40625.421875.796875 1.15625 1 1.640625 1 .53125 0 1.296875-.203125 1.734375-1.15625.3125-.6875.359375-1.46875.359375-2.25zm-2.09375 3.1875c-.390625 0-.984375-.25-1.15625-1.203125-.109375-.59375-.109375-1.515625-.109375-2.109375 0-.640625 0-1.296875.078125-1.828125.1875-1.1875.9375-1.28125 1.1875-1.28125.328125 0 .984375.1875 1.171875 1.171875.109375.5625.109375 1.3125.109375 1.9375 0 .75 0 1.421875-.109375 2.0625-.15625.953125-.71875 1.25-1.171875 1.25zm0 0"/></g><g id="c"><path d="m4.25-6.046875c.078125-.28125.109375-.34375.234375-.375.09375-.015625.421875-.015625.625-.015625 1.015625 0 1.453125.03125 1.453125.8125 0 .15625-.03125.546875-.078125.796875 0 .046875-.03125.15625-.03125.1875 0 .0625.03125.140625.125.140625.109375 0 .125-.078125.15625-.234375l.265625-1.734375c.015625-.046875.015625-.140625.015625-.171875 0-.109375-.09375-.109375-.265625-.109375h-5.53125c-.234375 0-.25.015625-.328125.203125l-.59375 1.75c0 .015625-.0625.15625-.0625.1875 0 .046875.0625.109375.125.109375.09375 0 .109375-.0625.171875-.21875.53125-1.546875.796875-1.71875 2.265625-1.71875h.390625c.28125 0 .28125.03125.28125.125 0 .046875-.03125.171875-.046875.203125l-1.328125 5.328125c-.09375.359375-.125.46875-1.1875.46875-.359375 0-.421875 0-.421875.1875 0 .125.109375.125.171875.125.265625 0 .546875-.015625.8125-.015625.28125 0 .578125-.015625.859375-.015625s.546875.015625.828125.015625.578125.015625.859375.015625c.09375 0 .21875 0 .21875-.203125 0-.109375-.078125-.109375-.34375-.109375-.234375 0-.375 0-.625-.015625-.296875-.03125-.375-.0625-.375-.21875 0-.015625 0-.0625.046875-.203125zm0 0"/></g><g id="d"><path d="m7.171875-6.5625c.015625-.046875.03125-.09375.03125-.15625 0-.09375-.046875-.09375-.25-.09375h-4.203125c-.234375 0-.25.015625-.3125.203125l-.546875 1.796875c-.015625.046875-.03125.125-.03125.140625 0 0 0 .109375.125.109375.09375 0 .109375-.078125.125-.109375.390625-1.171875.90625-1.828125 2.453125-1.828125h1.625l-5.5625 6.234375s-.046875.140625-.046875.171875c0 .09375.0625.09375.25.09375h4.328125c.25 0 .25-.015625.3125-.203125l.71875-2.203125c0-.03125.03125-.109375.03125-.140625 0-.0625-.03125-.109375-.125-.109375s-.109375.03125-.171875.25c-.4375 1.34375-.921875 2.0625-2.609375 2.0625h-1.703125zm0 0"/></g><g id="e"><path d="m2.328125-4.4375c0-.1875 0-.1875-.203125-.1875-.453125.4375-1.078125.4375-1.359375.4375v.25c.15625 0 .625 0 1-.1875v3.546875c0 .234375 0 .328125-.6875.328125h-.265625v.25c.125 0 .984375-.03125 1.234375-.03125.21875 0 1.09375.03125 1.25.03125v-.25h-.265625c-.703125 0-.703125-.09375-.703125-.328125zm0 0"/></g><g id="f"><path d="m3.515625-1.265625h-.234375c-.015625.15625-.09375.5625-.1875.625-.046875.046875-.578125.046875-.6875.046875h-1.28125c.734375-.640625.984375-.84375 1.390625-1.171875.515625-.40625 1-.84375 1-1.5 0-.84375-.734375-1.359375-1.625-1.359375-.859375 0-1.453125.609375-1.453125 1.25 0 .34375.296875.390625.375.390625.15625 0 .359375-.125.359375-.375 0-.125-.046875-.375-.40625-.375.21875-.484375.6875-.640625 1.015625-.640625.703125 0 1.0625.546875 1.0625 1.109375 0 .609375-.4375 1.078125-.65625 1.328125l-1.671875 1.671875c-.078125.0625-.078125.078125-.078125.265625h2.875zm0 0"/></g><g id="g"><path d="m5.8125-4c.0625-.265625.1875-.5.734375-.515625.03125 0 .140625 0 .140625-.140625 0-.046875-.03125-.109375-.109375-.109375-.21875 0-.484375.03125-.71875.03125-.171875 0-.5625-.03125-.734375-.03125-.03125 0-.140625 0-.140625.15625 0 .09375.09375.09375.15625.09375.328125.015625.4375.125.4375.296875 0 .046875 0 .09375-.03125.15625l-.75 3.046875-1.765625-3.625c-.0625-.125-.078125-.125-.25-.125h-.953125c-.125 0-.21875 0-.21875.15625 0 .09375.078125.09375.234375.09375.140625 0 .296875.015625.4375.046875l-.921875 3.71875c-.0625.265625-.1875.484375-.734375.5-.046875 0-.140625 0-.140625.140625 0 .078125.046875.109375.09375.109375.234375 0 .5-.03125.734375-.03125.171875 0 .5625.03125.734375.03125.078125 0 .140625-.03125.140625-.140625s-.078125-.109375-.15625-.109375c-.4375-.015625-.4375-.203125-.4375-.296875 0-.03125 0-.0625.015625-.171875l.90625-3.5625 2.03125 4.15625c.046875.125.078125.125.15625.125.109375 0 .109375-.015625.140625-.140625zm0 0"/></g></defs><path d="m.0015-.001875h85.039062" fill="none" stroke="#fff" stroke-miterlimit="10" stroke-width=".3985" transform="matrix(1 0 0 -1 5.811 60.42)"/><path d="m.0015 5.67v-11.339844" fill="none" stroke="#fff" stroke-miterlimit="10" stroke-width=".3985" transform="matrix(1 0 0 -1 5.811 60.42)"/><use fill="#fff" x="3.321" xlink:href="#b" y="77.803"/><path d="m42.521031 5.67v-11.339844" fill="none" stroke="#fff" stroke-miterlimit="10" stroke-width=".3985" transform="matrix(1 0 0 -1 5.811 60.42)"/><use fill="#fff" x="43.185" xlink:href="#c" y="77.25"/><use fill="#fff" x="49.007" xlink:href="#e" y="78.744"/><path d="m70.868687 5.67v-11.339844" fill="none" stroke="#fff" stroke-miterlimit="10" stroke-width=".3985" transform="matrix(1 0 0 -1 5.811 60.42)"/><use fill="#fff" x="71.532" xlink:href="#c" y="77.25"/><use fill="#fff" x="77.354" xlink:href="#f" y="78.744"/><path d="m141.735875 5.67v-11.339844" fill="none" stroke="#fff" stroke-miterlimit="10" stroke-width=".3985" transform="matrix(1 0 0 -1 5.811 60.42)"/><g fill="#fff"><use x="135.755" xlink:href="#c" y="76.835"/><use x="141.577" xlink:href="#g" y="78.329"/><path d="m5.1875-1.578125c.109375 0 .28125 0 .28125-.15625 0-.1875-.171875-.1875-.28125-.1875h-4.15625c-.109375 0-.28125 0-.28125.171875s.15625.171875.28125.171875zm0 0" transform="translate(148.635 78.329)"/><use x="154.862" xlink:href="#e" y="78.329"/></g><path d="m178.583531 5.67v-11.339844" fill="none" stroke="#fff" stroke-miterlimit="10" stroke-width=".3985" transform="matrix(1 0 0 -1 5.811 60.42)"/><g fill="#fff"><path d="m2.890625-3.515625c.8125-.265625 1.390625-.953125 1.390625-1.75 0-.8125-.875-1.375-1.828125-1.375-1 0-1.765625.59375-1.765625 1.359375 0 .328125.21875.515625.515625.515625s.5-.21875.5-.515625c0-.484375-.46875-.484375-.609375-.484375.296875-.5.953125-.625 1.3125-.625.421875 0 .96875.21875.96875 1.109375 0 .125-.03125.703125-.28125 1.140625-.296875.484375-.640625.515625-.890625.515625-.078125.015625-.3125.03125-.390625.03125-.078125.015625-.140625.03125-.140625.125 0 .109375.0625.109375.234375.109375h.4375c.8125 0 1.1875.671875 1.1875 1.65625 0 1.359375-.6875 1.640625-1.125 1.640625s-1.1875-.171875-1.53125-.75c.34375.046875.65625-.171875.65625-.546875 0-.359375-.265625-.5625-.546875-.5625-.25 0-.5625.140625-.5625.578125 0 .90625.921875 1.5625 2.015625 1.5625 1.21875 0 2.125-.90625 2.125-1.921875 0-.8125-.640625-1.59375-1.671875-1.8125zm0 0" transform="translate(176.922 77.803)"/><use x="181.9033" xlink:href="#b" y="77.803"/><use x="186.8846" xlink:href="#b" y="77.803"/></g><path d="m226.774937 5.67v-11.339844" fill="none" stroke="#fff" stroke-miterlimit="10" stroke-width=".3985" transform="matrix(1 0 0 -1 5.811 60.42)"/><use fill="#fff" x="225.894" xlink:href="#c" y="77.25"/><use fill="#fff" x="231.716" xlink:href="#g" y="78.744"/><path d="m85.040562-.001875h42.519532" fill="none" stroke="#fff" stroke-dasharray="2.98883 2.98883" stroke-miterlimit="10" stroke-width=".3985" transform="matrix(1 0 0 -1 5.811 60.42)"/><g clip-path="url(#a)"><path d="m127.560094-.001875h113.386718" fill="none" stroke="#fff" stroke-miterlimit="10" stroke-width=".3985" transform="matrix(1 0 0 -1 5.811 60.42)"/></g><path d="m.849156 11.337969c1.277344 2.550781 4.253907 4.253906 8.503907 4.253906h3.402343c4.253907 0 7.230469 1.699219 8.503907 4.25 1.277343-2.550781 4.253906-4.25 8.503906-4.25h3.402344c4.253906 0 7.230468-1.703125 8.503906-4.253906" fill="none" stroke="#fff" stroke-miterlimit="10" stroke-width=".3985" transform="matrix(1 0 0 -1 5.811 60.42)"/><use fill="#fff" x="21.436" xlink:href="#d" y="34.146"/><use fill="#fff" x="28.237" xlink:href="#e" y="35.64"/><path d="m43.368688 11.337969c1 2.550781 3.332031 4.253906 6.664062 4.253906s5.660156 1.699219 6.660156 4.25c1-2.550781 3.332032-4.25 6.664063-4.25 3.328125 0 5.660156-1.703125 6.660156-4.253906" fill="none" stroke="#fff" stroke-miterlimit="10" stroke-width=".3985" transform="matrix(1 0 0 -1 5.811 60.42)"/><use fill="#fff" x="56.869" xlink:href="#d" y="34.146"/><use fill="#fff" x="63.67" xlink:href="#f" y="35.64"/><path d="m142.583531 11.337969c1.277344 2.550781 4.253906 4.253906 8.503906 4.253906h.566407c4.253906 0 7.230468 1.699219 8.503906 4.25 1.277344-2.550781 4.253906-4.25 8.503906-4.25h.570313c4.25 0 7.226562-1.703125 8.503906-4.253906" fill="none" stroke="#fff" stroke-miterlimit="10" stroke-width=".3985" transform="matrix(1 0 0 -1 5.811 60.42)"/><path d="m7.0625-2.328125c.015625-.046875.046875-.109375.046875-.140625 0 0 0-.109375-.125-.109375-.09375 0-.109375.0625-.125.125-.65625 1.46875-1.015625 2.140625-2.71875 2.140625h-1.453125c-.140625 0-.171875 0-.21875 0-.109375-.015625-.140625-.03125-.140625-.109375 0-.03125 0-.046875.046875-.21875l.6875-2.734375h.984375c.84375 0 .84375.21875.84375.46875 0 .0625 0 .1875-.0625.484375-.015625.046875-.03125.078125-.03125.109375 0 .046875.03125.109375.125.109375.078125 0 .109375-.046875.15625-.203125l.5625-2.328125c0-.0625-.046875-.109375-.125-.109375s-.109375.0625-.125.171875c-.21875.765625-.390625 1-1.3125 1h-.9375l.59375-2.40625c.09375-.359375.109375-.390625.546875-.390625h1.40625c1.203125 0 1.515625.28125 1.515625 1.109375 0 .234375 0 .25-.046875.53125 0 .046875-.015625.125-.015625.171875s.03125.125.125.125c.109375 0 .125-.0625.140625-.25l.203125-1.734375c.03125-.265625-.015625-.265625-.265625-.265625h-5.046875c-.1875 0-.296875 0-.296875.203125 0 .109375.09375.109375.28125.109375.375 0 .65625 0 .65625.171875 0 .046875 0 .0625-.0625.25l-1.3125 5.265625c-.09375.390625-.109375.46875-.90625.46875-.171875 0-.28125 0-.28125.1875 0 .125.09375.125.28125.125h5.171875c.234375 0 .25-.015625.3125-.171875zm0 0" fill="#fff" transform="translate(162.004 35.64)"/><path d="m179.435094 11.337969c1.277343 2.550781 4.253906 4.253906 8.503906 4.253906h6.238281c4.25 0 7.226563 1.699219 8.503906 4.25 1.273438-2.550781 4.25-4.25 8.503907-4.25h6.234375c4.253906 0 7.230468-1.703125 8.503906-4.253906" fill="none" stroke="#fff" stroke-miterlimit="10" stroke-width=".3985" transform="matrix(1 0 0 -1 5.811 60.42)"/><path d="m9.140625-5.65625c.25-.4375.484375-.796875 1.125-.84375.078125-.015625.1875-.015625.1875-.203125 0-.03125-.046875-.109375-.125-.109375-.234375 0-.515625.03125-.765625.03125-.34375 0-.703125-.03125-1.046875-.03125-.046875 0-.1875 0-.1875.1875 0 .109375.09375.125.15625.125.234375.015625.59375.09375.59375.390625 0 .109375-.0625.1875-.140625.328125l-2.6875 4.6875-.375-4.9375c0-.203125-.015625-.453125.703125-.46875.171875 0 .265625 0 .265625-.203125 0-.09375-.109375-.109375-.140625-.109375-.40625 0-.828125.03125-1.21875.03125-.234375 0-.8125-.03125-1.046875-.03125-.0625 0-.1875 0-.1875.203125 0 .109375.09375.109375.234375.109375.4375 0 .515625.0625.53125.25l.0625.765625-2.53125 4.390625-.375-5.046875c0-.125 0-.34375.765625-.359375.09375 0 .203125 0 .203125-.203125 0-.109375-.125-.109375-.140625-.109375-.390625 0-.8125.03125-1.21875.03125-.359375 0-.71875-.03125-1.046875-.03125-.0625 0-.1875 0-.1875.1875 0 .125.09375.125.25.125.5 0 .515625.09375.53125.375l.453125 6.078125c0 .1875.015625.265625.15625.265625.109375 0 .140625-.0625.234375-.203125l2.9375-5.09375.359375 5.03125c.03125.21875.046875.265625.15625.265625.140625 0 .203125-.09375.25-.1875zm0 0" fill="#fff" transform="translate(203.092 35.64)"/><path d="m142.583531 36.849688c1.277344 2.550781 4.253906 4.253906 8.503906 4.253906h24.664063c4.25 0 7.226562 1.699219 8.503906 4.25 1.273438-2.550781 4.25-4.25 8.503906-4.25h24.660157c4.253906 0 7.230468-1.703125 8.503906-4.253906" fill="none" stroke="#fff" stroke-miterlimit="10" stroke-width=".3985" transform="matrix(1 0 0 -1 5.811 60.42)"/><path d="m3.734375-6.046875c.078125-.359375.109375-.453125.90625-.453125.234375 0 .3125 0 .3125-.1875 0-.125-.109375-.125-.140625-.125-.296875 0-1.03125.03125-1.328125.03125s-1.015625-.03125-1.328125-.03125c-.0625 0-.1875 0-.1875.203125 0 .109375.078125.109375.28125.109375.40625 0 .6875 0 .6875.1875 0 .046875 0 .078125-.03125.15625l-1.34375 5.375c-.09375.375-.109375.46875-.90625.46875-.234375 0-.3125 0-.3125.203125 0 .109375.109375.109375.140625.109375.296875 0 1.015625-.03125 1.3125-.03125s1.03125.03125 1.328125.03125c.078125 0 .203125 0 .203125-.1875 0-.125-.078125-.125-.296875-.125-.1875 0-.234375 0-.421875-.015625-.21875-.015625-.25-.0625-.25-.171875 0-.078125.015625-.15625.03125-.234375zm0 0" fill="#fff" transform="translate(187.482 10.129)"/></svg>