<svg xmlns="http://www.w3.org/2000/svg" xmlns:xlink="http://www.w3.org/1999/xlink" width="378.176" height="268.451"><defs><clipPath id="a"><path d="M51 225h3v3.96h-3zm0 0"/></clipPath><clipPath id="b"><path d="M54 194h3v34.96h-3zm0 0"/></clipPath><clipPath id="c"><path d="M57 223h3v5.96h-3zm0 0"/></clipPath><clipPath id="d"><path d="M60 191h3v37.96h-3zm0 0"/></clipPath><clipPath id="e"><path d="M63 208h4v20.96h-4zm0 0"/></clipPath><clipPath id="f"><path d="M66 174h4v54.96h-4zm0 0"/></clipPath><clipPath id="g"><path d="M69 203h4v25.96h-4zm0 0"/></clipPath><clipPath id="h"><path d="M72 171h4v57.96h-4zm0 0"/></clipPath><clipPath id="i"><path d="M75 183h4v45.96h-4zm0 0"/></clipPath><clipPath id="j"><path d="M78 217h4v11.96h-4zm0 0"/></clipPath><clipPath id="k"><path d="M81 152h4v76.96h-4zm0 0"/></clipPath><clipPath id="l"><path d="M84 148h4v80.96h-4zm0 0"/></clipPath><clipPath id="m"><path d="M87 134h4v94.96h-4zm0 0"/></clipPath><clipPath id="n"><path d="M91 219h3v9.96h-3zm0 0"/></clipPath><clipPath id="o"><path d="M94 191h3v37.96h-3zm0 0"/></clipPath><clipPath id="p"><path d="M97 191h3v37.96h-3zm0 0"/></clipPath><clipPath id="q"><path d="M100 196h3v32.96h-3zm0 0"/></clipPath><clipPath id="r"><path d="M103 218h3v10.96h-3zm0 0"/></clipPath><clipPath id="s"><path d="M106 160h3v68.96h-3zm0 0"/></clipPath><clipPath id="t"><path d="M109 128h3v100.96h-3zm0 0"/></clipPath><clipPath id="u"><path d="M112 189h3v39.96h-3zm0 0"/></clipPath><clipPath id="v"><path d="M115 125h3v103.96h-3zm0 0"/></clipPath><clipPath id="w"><path d="M118 215h3v13.96h-3zm0 0"/></clipPath><clipPath id="x"><path d="M121 87h3v141.96h-3zm0 0"/></clipPath><clipPath id="y"><path d="M124 100h4v128.96h-4zm0 0"/></clipPath><clipPath id="z"><path d="M127 153h4v75.96h-4zm0 0"/></clipPath><clipPath id="A"><path d="M130 214h4v14.96h-4zm0 0"/></clipPath><clipPath id="B"><path d="M133 103h4v125.96h-4zm0 0"/></clipPath><clipPath id="C"><path d="M136 121h4v107.96h-4zm0 0"/></clipPath><clipPath id="D"><path d="M139 124h4v104.96h-4zm0 0"/></clipPath><clipPath id="E"><path d="M142 200h4v28.96h-4zm0 0"/></clipPath><clipPath id="F"><path d="M145 203h4v25.96h-4zm0 0"/></clipPath><clipPath id="G"><path d="M148 136h4v92.96h-4zm0 0"/></clipPath><clipPath id="H"><path d="M152 224h3v4.96h-3zm0 0"/></clipPath><clipPath id="I"><path d="M155 117h3v111.96h-3zm0 0"/></clipPath><clipPath id="J"><path d="M158 164h3v64.96h-3zm0 0"/></clipPath><clipPath id="K"><path d="M161 135h3v93.96h-3zm0 0"/></clipPath><clipPath id="L"><path d="M164 154h3v74.96h-3zm0 0"/></clipPath><clipPath id="M"><path d="M167 135h3v93.96h-3zm0 0"/></clipPath><clipPath id="N"><path d="M170 171h3v57.96h-3zm0 0"/></clipPath><clipPath id="O"><path d="M173 183h3v45.96h-3zm0 0"/></clipPath><clipPath id="P"><path d="M176 215h3v13.96h-3zm0 0"/></clipPath><clipPath id="Q"><path d="M179 210h3v18.96h-3zm0 0"/></clipPath><clipPath id="R"><path d="M182 150h3v78.96h-3zm0 0"/></clipPath><clipPath id="S"><path d="M185 210h4v18.96h-4zm0 0"/></clipPath><clipPath id="T"><path d="M188 202h4v26.96h-4zm0 0"/></clipPath><clipPath id="U"><path d="M191 178h4v50.96h-4zm0 0"/></clipPath><clipPath id="V"><path d="M194 200h4v28.96h-4zm0 0"/></clipPath><clipPath id="W"><path d="M197 186h4v42.96h-4zm0 0"/></clipPath><clipPath id="X"><path d="M200 201h4v27.96h-4zm0 0"/></clipPath><clipPath id="Y"><path d="M203 67h4v161.96h-4zm0 0"/></clipPath><clipPath id="Z"><path d="M206 228h4v.96h-4zm0 0"/></clipPath><clipPath id="aa"><path d="M209 133h4v95.96h-4zm0 0"/></clipPath><clipPath id="ab"><path d="M213 197h3v31.96h-3zm0 0"/></clipPath><clipPath id="ac"><path d="M216 152h3v76.96h-3zm0 0"/></clipPath><clipPath id="ad"><path d="M219 45h3v183.96h-3zm0 0"/></clipPath><clipPath id="ae"><path d="M222 186h3v42.96h-3zm0 0"/></clipPath><clipPath id="af"><path d="M225 135h3v93.96h-3zm0 0"/></clipPath><clipPath id="ag"><path d="M228 90h3v138.96h-3zm0 0"/></clipPath><clipPath id="ah"><path d="M231 206h3v22.96h-3zm0 0"/></clipPath><clipPath id="ai"><path d="M234 61h3v167.96h-3zm0 0"/></clipPath><clipPath id="aj"><path d="M237 179h3v49.96h-3zm0 0"/></clipPath><clipPath id="ak"><path d="M240 154h3v74.96h-3zm0 0"/></clipPath><clipPath id="al"><path d="M243 176h3v52.96h-3zm0 0"/></clipPath><clipPath id="am"><path d="M246 215h4v13.96h-4zm0 0"/></clipPath><clipPath id="an"><path d="M249 144h4v84.96h-4zm0 0"/></clipPath><clipPath id="ao"><path d="M252 133h4v95.96h-4zm0 0"/></clipPath><clipPath id="ap"><path d="M255 123h4v105.96h-4zm0 0"/></clipPath><clipPath id="aq"><path d="M258 40h4v188.96h-4zm0 0"/></clipPath><clipPath id="ar"><path d="M261 128h4v100.96h-4zm0 0"/></clipPath><clipPath id="as"><path d="M264 222h4v6.96h-4zm0 0"/></clipPath><clipPath id="at"><path d="M267 140h4v88.96h-4zm0 0"/></clipPath><clipPath id="au"><path d="M270 179h4v49.96h-4zm0 0"/></clipPath><clipPath id="av"><path d="M274 147h3v81.96h-3zm0 0"/></clipPath><clipPath id="aw"><path d="M277 185h3v43.96h-3zm0 0"/></clipPath><clipPath id="ax"><path d="M280 17h3v211.96h-3zm0 0"/></clipPath><clipPath id="ay"><path d="M283 74h3v154.96h-3zm0 0"/></clipPath><clipPath id="az"><path d="M286 201h3v27.96h-3zm0 0"/></clipPath><clipPath id="aA"><path d="M289 41h3v187.96h-3zm0 0"/></clipPath><clipPath id="aB"><path d="M292 162h3v66.96h-3zm0 0"/></clipPath><clipPath id="aC"><path d="M295 169h3v59.96h-3zm0 0"/></clipPath><clipPath id="aD"><path d="M298 76h3v152.96h-3zm0 0"/></clipPath><clipPath id="aE"><path d="M301 168h3v60.96h-3zm0 0"/></clipPath><clipPath id="aF"><path d="M304 74h3v154.96h-3zm0 0"/></clipPath><clipPath id="aG"><path d="M307 172h4v56.96h-4zm0 0"/></clipPath><clipPath id="aH"><path d="M310 227h4v1.96h-4zm0 0"/></clipPath><clipPath id="aI"><path d="M313 179h4v49.96h-4zm0 0"/></clipPath><clipPath id="aJ"><path d="M316 183h4v45.96h-4zm0 0"/></clipPath><clipPath id="aK"><path d="M319 94h4v134.96h-4zm0 0"/></clipPath><clipPath id="aL"><path d="M322 59h4v169.96h-4zm0 0"/></clipPath><clipPath id="aM"><path d="M325 151h4v77.96h-4zm0 0"/></clipPath><clipPath id="aN"><path d="M328 197h4v31.96h-4zm0 0"/></clipPath><clipPath id="aO"><path d="M331 22h4v206.96h-4zm0 0"/></clipPath><clipPath id="aP"><path d="M335 138h3v90.96h-3zm0 0"/></clipPath><clipPath id="aQ"><path d="M338 78h3v150.96h-3zm0 0"/></clipPath><clipPath id="aR"><path d="M341 134h3v94.96h-3zm0 0"/></clipPath><clipPath id="aS"><path d="M344 161h3v67.96h-3zm0 0"/></clipPath><clipPath id="aT"><path d="M347 126h3v102.96h-3zm0 0"/></clipPath><clipPath id="aU"><path d="M350 227h3v1.96h-3zm0 0"/></clipPath><clipPath id="aV"><path d="M353 196h3v32.96h-3zm0 0"/></clipPath><path id="aW" d="M3.063.094c1.515 0 2.421-1.375 2.421-3.719s-.906-3.719-2.421-3.719S.64-5.969.64-3.625 1.53.094 3.062.094zm0-.594C1.937-.5 1.28-1.64 1.28-3.625s.672-3.14 1.782-3.14 1.78 1.156 1.78 3.14S4.173-.5 3.064-.5zm0 0"/><path id="aX" d="M.813 0h4.5v-.594H1.733V-.64l1.797-2c1.203-1.343 1.563-1.937 1.563-2.75 0-1.093-.875-1.953-2.094-1.953S.875-6.484.875-5.28H1.5c0-.86.594-1.485 1.484-1.485.844 0 1.485.547 1.485 1.375 0 .688-.375 1.204-1.297 2.25L.812-.484zm0 0"/><path id="aY" d="M3.047-7.25h-.688L.641-6.11v.688l1.703-1.14h.031V0h.672zm0 0"/><path id="aZ" d="M1.156 0h.735v-1.203h.093c.266.594.813 1.344 2 1.344 1.61 0 2.688-1.36 2.688-3.391 0-2-1.094-3.36-2.703-3.36-1.188 0-1.735.75-1.985 1.329h-.062v-3.407h-.766zm.75-3.25c0-1.563.719-2.672 1.985-2.672 1.312 0 2.015 1.156 2.015 2.672S5.188-.562 3.891-.562c-1.266 0-1.985-1.125-1.985-2.688zm0 0"/><path id="ba" d="M3.64.14c1.297 0 2.172-.718 2.47-1.53l-.704-.235c-.25.578-.843 1.063-1.765 1.063-1.344 0-2.188-.97-2.22-2.47h4.86v-.374c0-2.188-1.343-3.203-2.765-3.203-1.688 0-2.86 1.406-2.86 3.39 0 1.969 1.156 3.36 2.985 3.36zM1.423-3.702c.078-1.219.906-2.219 2.094-2.219 1.171 0 1.984.969 1.984 2.219zm0 0"/><path id="bb" d="M1 0h.75v-4.203c0-.969.75-1.672 1.766-1.672.203 0 .39.031.453.031v-.765c-.11 0-.281-.016-.406-.016-.813 0-1.516.453-1.782 1.11h-.047v-1H1zm0 0"/><path id="bc" d="M2.813.156c1.093 0 1.75-.61 2.03-1.187h.048V0h.75v-4.422c0-1.75-1.313-2.187-2.313-2.187S1.297-6.22.86-5.156l.72.265c.234-.562.827-1.046 1.765-1.046 1 0 1.547.546 1.547 1.437v.156c0 .5-.61.5-1.72.64-1.468.188-2.5.595-2.5 1.876 0 1.266.97 1.984 2.141 1.984zm.109-.703c-.86 0-1.485-.453-1.485-1.234 0-.797.641-1.125 1.735-1.266.547-.062 1.5-.172 1.719-.39v.937c0 1.063-.766 1.953-1.97 1.953zm0 0"/><path id="bd" d="M.156-2.813c0-1.093-.61-1.75-1.187-2.03v-.048H0v-.75h-4.422c-1.75 0-2.187 1.313-2.187 2.313s.39 2.031 1.453 2.469l.265-.72c-.562-.234-1.046-.827-1.046-1.765 0-1 .546-1.547 1.437-1.547h.156c.5 0 .5.61.64 1.72.188 1.468.595 2.5 1.876 2.5 1.266 0 1.984-.97 1.984-2.141zm-.703-.109c0 .86-.453 1.485-1.234 1.485-.797 0-1.125-.641-1.266-1.735-.062-.547-.172-1.5-.39-1.719h.937c1.063 0 1.953.766 1.953 1.97zm0 0"/><path id="be" d="M-8.688-1.75V-1H0v-.75zm0 0"/><path id="bf" d="M.14-3.64c0-1.297-.718-2.172-1.53-2.47l-.235.704c.578.25 1.063.843 1.063 1.765 0 1.344-.97 2.188-2.47 2.22v-4.86h-.374c-2.188 0-3.203 1.343-3.203 2.765 0 1.688 1.406 2.86 3.39 2.86 1.969 0 3.36-1.156 3.36-2.985zm-3.843 2.218c-1.219-.078-2.219-.906-2.219-2.094 0-1.171.969-1.984 2.219-1.984zm0 0"/><path id="bg" d="M6.203-5.438c.078-.046.188-.093.188-.218a.19.19 0 0 0-.188-.188c-.031 0-.062 0-.172.047L.953-3.359c-.125.062-.187.109-.187.218 0 .125.109.172.187.204L6.016-.5c.125.063.156.063.171.063.141 0 .204-.126.204-.188 0-.125-.079-.156-.172-.203L1.406-3.141zm-.156 6.813c.156 0 .344 0 .344-.188S6.187 1 6.047 1H1.109c-.14 0-.343 0-.343.188s.187.187.343.187zm0 0"/><path id="bh" d="M4.703-5.922c.031-.125.031-.14.031-.172 0-.078-.046-.125-.14-.125-.125 0-.907.063-1.094.078-.078.016-.188.032-.188.172 0 .125.11.125.25.125.422 0 .422.063.422.14 0 .063-.078.376-.125.563l-.171.688c-.094.344-.188.687-.266 1.047-.172-.328-.438-.563-.844-.563-1.047 0-2.203 1.25-2.203 2.61C.375-.375 1 .094 1.609.094c.579 0 1.047-.485 1.204-.656.093.5.546.656.828.656.265 0 .484-.11.687-.485.156-.296.281-.859.281-.89 0-.047-.03-.11-.109-.11-.11 0-.125.047-.156.22-.203.78-.39 1.046-.672 1.046-.235 0-.281-.219-.281-.406 0-.125.046-.375.046-.406zm-1.86 4.844c-.03.14-.046.156-.187.328-.328.39-.687.625-1.031.625-.438 0-.578-.453-.578-.844 0-.437.25-1.469.469-1.906.28-.531.703-.86 1.062-.86.594 0 .735.72.735.766s-.016.094-.032.14zm0 0"/><path id="bi" d="M1.734-7.781c0-.203 0-.39-.218-.39s-.22.187-.22.39v10.11c0 .202 0 .39.22.39s.218-.188.218-.39zm0 0"/><path id="bj" d="m5.297-4.484-.922-2.172c-.031-.078-.063-.125-.063-.14 0-.063.188-.266.657-.313.11-.016.218-.016.218-.204 0-.14-.14-.14-.171-.14-.454 0-.922.031-1.375.031-.266 0-.954-.031-1.22-.031-.062 0-.202 0-.202.219 0 .125.11.125.25.125.656 0 .734.109.828.343l1.281 3.047L2.281-1.25l-.14.125c-.532.578-1.047.75-1.61.781-.14.016-.234.016-.234.219 0 .016 0 .125.14.125.329 0 .688-.031 1.032-.031.39 0 .828.031 1.218.031.063 0 .188 0 .188-.219 0-.11-.11-.125-.125-.125-.094 0-.438-.031-.438-.328 0-.172.157-.36.297-.5l1.11-1.172.984-1.062L5.797-.812c.047.125.062.14.062.156 0 .094-.203.281-.64.312C5.109-.328 5-.313 5-.125 5 0 5.125 0 5.172 0c.297 0 1.062-.031 1.375-.031.266 0 .937.031 1.203.031.078 0 .219 0 .219-.203 0-.14-.11-.14-.203-.14-.735 0-.75-.032-.938-.47-.422-1.015-1.156-2.718-1.406-3.375.734-.765 1.89-2.062 2.234-2.359a2.205 2.205 0 0 1 1.39-.562c.142-.016.235-.016.235-.22 0-.015 0-.124-.14-.124-.329 0-.688.031-1.032.031-.406 0-.812-.031-1.203-.031-.062 0-.203 0-.203.219 0 .078.047.109.125.125.094.015.438.03.438.343 0 .141-.125.282-.204.391zm0 0"/></defs><g clip-path="url(#a)"><path fill="#777" d="M51.395 228.96h2.437v-3.237h-2.437zm0 0"/></g><g clip-path="url(#b)"><path fill="#777" d="M54.445 228.96h2.438v-34.237h-2.438zm0 0"/></g><g clip-path="url(#c)"><path fill="#777" d="M57.496 228.96h2.438v-5.855h-2.438zm0 0"/></g><g clip-path="url(#d)"><path fill="#777" d="M60.543 228.96h2.441v-37.062h-2.441zm0 0"/></g><g clip-path="url(#e)"><path fill="#777" d="M63.594 228.96h2.437v-20.128h-2.437zm0 0"/></g><g clip-path="url(#f)"><path fill="#777" d="M66.645 228.96h2.437v-54.386h-2.437zm0 0"/></g><g clip-path="url(#g)"><path fill="#777" d="M69.691 228.96h2.442v-25.398H69.69zm0 0"/></g><g clip-path="url(#h)"><path fill="#777" d="M72.742 228.96h2.442v-57.523h-2.442zm0 0"/></g><g clip-path="url(#i)"><path fill="#777" d="M75.793 228.96h2.441v-45.269h-2.441zm0 0"/></g><g clip-path="url(#j)"><path fill="#777" d="M78.844 228.96h2.437v-11.523h-2.437zm0 0"/></g><g clip-path="url(#k)"><path fill="#777" d="M81.89 228.96h2.442v-76.476h-2.441zm0 0"/></g><g clip-path="url(#l)"><path fill="#777" d="M84.941 228.96h2.442V148.47H84.94zm0 0"/></g><g clip-path="url(#m)"><path fill="#777" d="M87.992 228.96h2.442v-94.8h-2.442zm0 0"/></g><g clip-path="url(#n)"><path fill="#777" d="M91.043 228.96h2.437v-9.757h-2.437zm0 0"/></g><g clip-path="url(#o)"><path fill="#777" d="M94.09 228.96h2.441V191.97H94.09zm0 0"/></g><g clip-path="url(#p)"><path fill="#777" d="M97.14 228.96h2.442v-37.23h-2.441zm0 0"/></g><g clip-path="url(#q)"><path fill="#777" d="M100.191 228.96h2.438v-32.202h-2.438zm0 0"/></g><g clip-path="url(#r)"><path fill="#777" d="M103.242 228.96h2.438v-10.862h-2.438zm0 0"/></g><g clip-path="url(#s)"><path fill="#777" d="M106.29 228.96h2.44v-68.315h-2.44zm0 0"/></g><g clip-path="url(#t)"><path fill="#777" d="M109.34 228.96h2.441V128.747h-2.441zm0 0"/></g><g clip-path="url(#u)"><path fill="#777" d="M112.39 228.96h2.438v-39.12h-2.437zm0 0"/></g><g clip-path="url(#v)"><path fill="#777" d="M115.438 228.96h2.44V125.11h-2.44zm0 0"/></g><g clip-path="url(#w)"><path fill="#777" d="M118.488 228.96h2.442v-13.663h-2.442zm0 0"/></g><g clip-path="url(#x)"><path fill="#777" d="M121.54 228.96h2.44V87.114h-2.44zm0 0"/></g><g clip-path="url(#y)"><path fill="#777" d="M124.59 228.96h2.437V100.505h-2.437zm0 0"/></g><g clip-path="url(#z)"><path fill="#777" d="M127.637 228.96h2.441v-75.28h-2.441zm0 0"/></g><g clip-path="url(#A)"><path fill="#777" d="M130.688 228.96h2.44v-14.773h-2.44zm0 0"/></g><g clip-path="url(#B)"><path fill="#777" d="M133.738 228.96h2.442V103.11h-2.442zm0 0"/></g><g clip-path="url(#C)"><path fill="#777" d="M136.79 228.96h2.437V121.579h-2.438zm0 0"/></g><g clip-path="url(#D)"><path fill="#777" d="M139.84 228.96h2.437V124.353h-2.437zm0 0"/></g><g clip-path="url(#E)"><path fill="#777" d="M142.887 228.96h2.441v-28.706h-2.441zm0 0"/></g><g clip-path="url(#F)"><path fill="#777" d="M145.938 228.96h2.44v-25.91h-2.44zm0 0"/></g><g clip-path="url(#G)"><path fill="#777" d="M148.988 228.96h2.438v-92.843h-2.438zm0 0"/></g><g clip-path="url(#H)"><path fill="#777" d="M152.04 228.96h2.437v-4.034h-2.438zm0 0"/></g><g clip-path="url(#I)"><path fill="#777" d="M155.086 228.96h2.441V117.192h-2.441zm0 0"/></g><g clip-path="url(#J)"><path fill="#777" d="M158.137 228.96h2.437v-64.405h-2.437zm0 0"/></g><g clip-path="url(#K)"><path fill="#777" d="M161.188 228.96h2.437v-93.792h-2.438zm0 0"/></g><g clip-path="url(#L)"><path fill="#777" d="M164.234 228.96h2.442v-74.698h-2.442zm0 0"/></g><g clip-path="url(#M)"><path fill="#777" d="M167.285 228.96h2.442v-93.276h-2.442zm0 0"/></g><g clip-path="url(#N)"><path fill="#777" d="M170.336 228.96h2.441v-57.702h-2.441zm0 0"/></g><g clip-path="url(#O)"><path fill="#777" d="M173.387 228.96h2.437v-45.167h-2.437zm0 0"/></g><g clip-path="url(#P)"><path fill="#777" d="M176.434 228.96h2.441v-13.097h-2.441zm0 0"/></g><g clip-path="url(#Q)"><path fill="#777" d="M179.484 228.96h2.442v-18.952h-2.442zm0 0"/></g><g clip-path="url(#R)"><path fill="#777" d="M182.535 228.96h2.442v-78.933h-2.442zm0 0"/></g><g clip-path="url(#S)"><path fill="#777" d="M185.586 228.96h2.437V210.06h-2.437zm0 0"/></g><g clip-path="url(#T)"><path fill="#777" d="M188.633 228.96h2.441v-26.855h-2.441zm0 0"/></g><g clip-path="url(#U)"><path fill="#777" d="M191.684 228.96h2.441v-50.937h-2.441zm0 0"/></g><g clip-path="url(#V)"><path fill="#777" d="M194.734 228.96h2.442v-28.71h-2.442zm0 0"/></g><g clip-path="url(#W)"><path fill="#777" d="M197.785 228.96h2.438v-41.972h-2.438zm0 0"/></g><g clip-path="url(#X)"><path fill="#777" d="M200.832 228.96h2.441v-27.808h-2.441zm0 0"/></g><g clip-path="url(#Y)"><path fill="#777" d="M203.883 228.96h2.441V67.228h-2.441zm0 0"/></g><g clip-path="url(#Z)"><path fill="#777" d="M206.934 228.96h2.437v-.597h-2.437zm0 0"/></g><g clip-path="url(#aa)"><path fill="#777" d="M209.98 228.96h2.442v-95.378h-2.442zm0 0"/></g><g clip-path="url(#ab)"><path fill="#777" d="M213.031 228.96h2.442v-31.136h-2.442zm0 0"/></g><g clip-path="url(#ac)"><path fill="#777" d="M216.082 228.96h2.441v-76.136h-2.441zm0 0"/></g><g clip-path="url(#ad)"><path fill="#777" d="M219.133 228.96h2.437V45.896h-2.437zm0 0"/></g><g clip-path="url(#ae)"><path fill="#777" d="M222.18 228.96h2.441v-42.573h-2.441zm0 0"/></g><g clip-path="url(#af)"><path fill="#777" d="M225.23 228.96h2.442v-93.94h-2.442zm0 0"/></g><g clip-path="url(#ag)"><path fill="#777" d="M228.281 228.96h2.442V90.7h-2.442zm0 0"/></g><g clip-path="url(#ah)"><path fill="#777" d="M231.332 228.96h2.438v-22.6h-2.438zm0 0"/></g><g clip-path="url(#ai)"><path fill="#777" d="M234.383 228.96h2.437V61.52h-2.437zm0 0"/></g><g clip-path="url(#aj)"><path fill="#777" d="M237.43 228.96h2.441v-49.194h-2.441zm0 0"/></g><g clip-path="url(#ak)"><path fill="#777" d="M240.48 228.96h2.442v-74.034h-2.442zm0 0"/></g><g clip-path="url(#al)"><path fill="#777" d="M243.531 228.96h2.438v-52.468h-2.438zm0 0"/></g><g clip-path="url(#am)"><path fill="#777" d="M246.582 228.96h2.438v-13.687h-2.438zm0 0"/></g><g clip-path="url(#an)"><path fill="#777" d="M249.629 228.96h2.441v-84.386h-2.441zm0 0"/></g><g clip-path="url(#ao)"><path fill="#777" d="M252.68 228.96h2.437v-95.874h-2.437zm0 0"/></g><g clip-path="url(#ap)"><path fill="#777" d="M255.73 228.96h2.438V123.923h-2.438zm0 0"/></g><g clip-path="url(#aq)"><path fill="#777" d="M258.777 228.96h2.442V40.364h-2.442zm0 0"/></g><g clip-path="url(#ar)"><path fill="#777" d="M261.828 228.96h2.442V128.454h-2.442zm0 0"/></g><g clip-path="url(#as)"><path fill="#777" d="M264.879 228.96h2.441v-6.183h-2.441zm0 0"/></g><g clip-path="url(#at)"><path fill="#777" d="M267.93 228.96h2.437v-88.605h-2.437zm0 0"/></g><g clip-path="url(#au)"><path fill="#777" d="M270.977 228.96h2.441v-49.898h-2.441zm0 0"/></g><g clip-path="url(#av)"><path fill="#777" d="M274.027 228.96h2.442V147.5h-2.442zm0 0"/></g><g clip-path="url(#aw)"><path fill="#777" d="M277.078 228.96h2.442v-43.597h-2.442zm0 0"/></g><g clip-path="url(#ax)"><path fill="#777" d="M280.129 228.96h2.437V17.759h-2.437zm0 0"/></g><g clip-path="url(#ay)"><path fill="#777" d="M283.176 228.96h2.441V74.247h-2.441zm0 0"/></g><g clip-path="url(#az)"><path fill="#777" d="M286.227 228.96h2.441v-27.495h-2.441zm0 0"/></g><g clip-path="url(#aA)"><path fill="#777" d="M289.277 228.96h2.442V41.919h-2.442zm0 0"/></g><g clip-path="url(#aB)"><path fill="#777" d="M292.328 228.96h2.438v-66.41h-2.438zm0 0"/></g><g clip-path="url(#aC)"><path fill="#777" d="M295.375 228.96h2.441v-59.827h-2.441zm0 0"/></g><g clip-path="url(#aD)"><path fill="#777" d="M298.426 228.96h2.441V76.579h-2.441zm0 0"/></g><g clip-path="url(#aE)"><path fill="#777" d="M301.477 228.96h2.437v-60.558h-2.437zm0 0"/></g><g clip-path="url(#aF)"><path fill="#777" d="M304.527 228.96h2.438V74.485h-2.438zm0 0"/></g><g clip-path="url(#aG)"><path fill="#777" d="M307.574 228.96h2.442v-56.023h-2.442zm0 0"/></g><g clip-path="url(#aH)"><path fill="#777" d="M310.625 228.96h2.441v-1.343h-2.441zm0 0"/></g><g clip-path="url(#aI)"><path fill="#777" d="M313.676 228.96h2.437v-49.714h-2.437zm0 0"/></g><g clip-path="url(#aJ)"><path fill="#777" d="M316.723 228.96h2.441v-45.167h-2.441zm0 0"/></g><g clip-path="url(#aK)"><path fill="#777" d="M319.773 228.96h2.442V94.177h-2.442zm0 0"/></g><g clip-path="url(#aL)"><path fill="#777" d="M322.824 228.96h2.442V59.864h-2.442zm0 0"/></g><g clip-path="url(#aM)"><path fill="#777" d="M325.875 228.96h2.438v-76.983h-2.438zm0 0"/></g><g clip-path="url(#aN)"><path fill="#777" d="M328.926 228.96h2.437V197.22h-2.437zm0 0"/></g><g clip-path="url(#aO)"><path fill="#777" d="M331.973 228.96h2.441V22.21h-2.441zm0 0"/></g><g clip-path="url(#aP)"><path fill="#777" d="M335.023 228.96h2.442v-90.253h-2.442zm0 0"/></g><g clip-path="url(#aQ)"><path fill="#777" d="M338.074 228.96h2.438V78.75h-2.438zm0 0"/></g><g clip-path="url(#aR)"><path fill="#777" d="M341.125 228.96h2.438v-94.843h-2.438zm0 0"/></g><g clip-path="url(#aS)"><path fill="#777" d="M344.172 228.96h2.441v-67.519h-2.441zm0 0"/></g><g clip-path="url(#aT)"><path fill="#777" d="M347.223 228.96h2.437V126.728h-2.437zm0 0"/></g><g clip-path="url(#aU)"><path fill="#777" d="M350.273 228.96h2.438v-1.628h-2.438zm0 0"/></g><g clip-path="url(#aV)"><path fill="#777" d="M353.324 228.96h2.438v-31.976h-2.438zm0 0"/></g><path fill="none" stroke="#fff" stroke-linejoin="round" stroke-miterlimit="10" stroke-width=".8" d="M49.563 228.96v3.5"/><use xlink:href="#aW" x="46.507" y="243.257" fill="#fff"/><path fill="none" stroke="#fff" stroke-linejoin="round" stroke-miterlimit="10" stroke-width=".8" d="M110.559 228.96v3.5"/><g fill="#fff"><use xlink:href="#aX" x="104.462" y="243.257"/><use xlink:href="#aW" x="110.543" y="243.257"/></g><path fill="none" stroke="#fff" stroke-linejoin="round" stroke-miterlimit="10" stroke-width=".8" d="M171.555 228.96v3.5"/><g fill="#fff"><path d="M166.018 241.695h3.375v1.562h.625v-1.563h.968v-.593h-.968v-5.094h-.782l-3.218 5.156zm3.375-.594h-2.641v-.047l2.594-4.14h.047zm0 0"/><use xlink:href="#aW" x="171.618" y="243.257"/></g><path fill="none" stroke="#fff" stroke-linejoin="round" stroke-miterlimit="10" stroke-width=".8" d="M232.55 228.96v3.5"/><g fill="#fff"><path d="M229.548 243.35c1.375.016 2.297-1.077 2.297-2.374 0-1.36-1.016-2.36-2.22-2.36-.78 0-1.468.422-1.812 1.063h-.046c.015-2.031.687-3.172 1.875-3.172.828 0 1.328.547 1.468 1.313h.656c-.14-1.125-.953-1.907-2.124-1.907-1.672 0-2.5 1.656-2.5 4.016 0 2.547 1.203 3.422 2.406 3.422zm0-.593c-.906 0-1.578-.734-1.656-1.734-.063-.953.687-1.813 1.656-1.813.937 0 1.656.781 1.656 1.766s-.719 1.781-1.656 1.781zm0 0"/><use xlink:href="#aW" x="232.528" y="243.257"/></g><path fill="none" stroke="#fff" stroke-linejoin="round" stroke-miterlimit="10" stroke-width=".8" d="M293.547 228.96v3.5"/><g fill="#fff"><path d="M290.485 243.35c1.375 0 2.39-.843 2.39-2 0-.905-.625-1.687-1.437-1.843v-.047c.703-.203 1.172-.875 1.188-1.656-.016-1.078-.938-1.89-2.141-1.89-1.219 0-2.14.812-2.125 1.89-.016.781.469 1.453 1.172 1.656v.047c-.828.156-1.438.938-1.438 1.844 0 1.156 1 2 2.39 2zm0-.593c-1.031 0-1.75-.594-1.735-1.438-.015-.874.735-1.515 1.735-1.515s1.734.64 1.75 1.516c-.016.843-.719 1.437-1.75 1.437zm0-3.531c-.86 0-1.5-.578-1.485-1.375-.015-.797.625-1.36 1.485-1.36s1.484.563 1.5 1.36c-.016.797-.656 1.375-1.5 1.375zm0 0"/><use xlink:href="#aW" x="293.534" y="243.257"/></g><path fill="none" stroke="#fff" stroke-linejoin="round" stroke-miterlimit="10" stroke-width=".8" d="M354.543 228.96v3.5"/><g fill="#fff"><use xlink:href="#aY" x="346.204" y="243.257"/><use xlink:href="#aW" x="350.644" y="243.257"/><use xlink:href="#aW" x="356.757" y="243.257"/></g><g fill="#fff"><path d="M150.493 250.02h-.781v7.28h-.063l-5.156-7.28h-.766v8.687h.797v-7.281h.063l5.14 7.281h.766zM156.793 256.223c0 1.187-.906 1.828-1.781 1.828-.938 0-1.61-.672-1.61-1.688v-4.172h-.75v4.22c0 1.546.89 2.374 2.14 2.374.954 0 1.641-.484 1.938-1.156h.063v1.078h.75v-6.516h-.75zM159.547 258.707h.75v-4.172c0-1.016.672-1.734 1.578-1.734.89 0 1.406.594 1.406 1.469v4.437h.781v-4.297c0-.937.563-1.61 1.547-1.61.86 0 1.438.516 1.438 1.532v4.375h.765v-4.375c0-1.453-.765-2.234-1.968-2.234-.954 0-1.641.468-1.938 1.187h-.047c-.297-.734-.86-1.187-1.765-1.187-.844 0-1.485.421-1.75 1.093h-.063v-1h-.734zm0 0"/><use xlink:href="#aZ" x="168.804" y="258.707"/><use xlink:href="#ba" x="176.136" y="258.707"/><use xlink:href="#bb" x="183.078" y="258.707"/></g><g fill="#fff"><path d="M194.23 258.848c1.688 0 2.875-1.391 2.875-3.375 0-2-1.187-3.375-2.875-3.375s-2.875 1.375-2.875 3.375c0 1.984 1.188 3.375 2.875 3.375zm0-.704c-1.36 0-2.11-1.203-2.11-2.671 0-1.454.75-2.688 2.11-2.688s2.11 1.234 2.11 2.688c0 1.468-.75 2.671-2.11 2.671zM201.45 252.191h-1.452v-.797c0-.687.375-1.078 1.031-1.078.25 0 .406.063.516.094l.218-.656a2.066 2.066 0 0 0-.796-.14c-.891 0-1.72.562-1.72 1.624v.953h-1.015v.657h1.016v5.859h.75v-5.86h1.453zm0 0"/></g><path fill="#fff" d="M211.365 252.191h-.828l-1.922 5.516h-.063l-1.937-5.516h-.828l2.39 6.516h.797zm0 0"/><g fill="#fff"><use xlink:href="#bc" x="211.636" y="258.707"/><use xlink:href="#bb" x="218.289" y="258.707"/><path d="M223.551 258.707h.766v-6.516h-.766zm.39-7.64c.313 0 .579-.25.579-.548s-.266-.546-.578-.546-.563.25-.563.546.25.547.563.547zm0 0"/><use xlink:href="#bc" x="225.324" y="258.707"/><use xlink:href="#aZ" x="231.977" y="258.707"/><path d="M241.059 250.02h-.75v8.687h.75zm0 0"/><use xlink:href="#ba" x="242.06" y="258.707"/><path d="M254.376 253.613c-.313-.937-1.016-1.515-2.203-1.515-1.313 0-2.266.75-2.266 1.828 0 .875.531 1.469 1.656 1.734l1.063.266c.719.156 1.062.531 1.062 1.047 0 .687-.64 1.187-1.64 1.187-.906 0-1.453-.406-1.64-1.172l-.72.172c.22 1.094 1.094 1.688 2.36 1.688 1.437 0 2.422-.797 2.422-1.907 0-.859-.547-1.453-1.64-1.718l-.985-.235c-.813-.203-1.188-.531-1.188-1.094 0-.671.64-1.125 1.516-1.125s1.312.454 1.515 1.047zm0 0"/></g><path fill="#fff" d="M264.514 250.707a.562.562 0 0 0 .03-.172c0-.125-.124-.125-.14-.125s-.594.047-.656.063l-.594.046c-.312.032-.39.032-.39.25 0 .125.093.125.265.125.578 0 .594.11.594.22a.612.612 0 0 1-.031.202l-.735 2.907c-.125-.313-.453-.782-1.078-.782-1.344 0-2.797 1.735-2.797 3.516 0 1.172.688 1.875 1.5 1.875.657 0 1.22-.516 1.547-.906.125.703.688.906 1.047.906s.64-.219.86-.656a6.39 6.39 0 0 0 .359-1.172c0-.063-.047-.11-.125-.11-.11 0-.11.063-.156.235-.188.703-.407 1.453-.907 1.453-.343 0-.359-.313-.359-.547 0-.047 0-.297.078-.625zm-2.422 6.578c-.063.203-.063.234-.219.453-.266.328-.797.844-1.36.844-.484 0-.765-.438-.765-1.14 0-.657.375-2 .61-2.5.406-.844.968-1.266 1.421-1.266.797 0 .953.984.953 1.078 0 .016-.03.156-.047.187zm0 0"/><path fill="none" stroke="#fff" stroke-linejoin="round" stroke-miterlimit="10" stroke-width=".8" d="M36.176 228.96h-3.5"/><use xlink:href="#aW" x="22.813" y="232.759" fill="#fff"/><path fill="none" stroke="#fff" stroke-linejoin="round" stroke-miterlimit="10" stroke-width=".8" d="M36.176 138.902h-3.5"/><use xlink:href="#aY" x="22.813" y="142.703" fill="#fff"/><path fill="none" stroke="#fff" stroke-linejoin="round" stroke-miterlimit="10" stroke-width=".8" d="M36.176 48.844h-3.5"/><use xlink:href="#aX" x="22.813" y="52.645" fill="#fff"/><path fill="#fff" d="M9.983 166.043v.844l8.688-3.172v-.844L9.983 159.7v.844l7.657 2.719v.062zm0 0"/><g fill="#fff"><use xlink:href="#bd" x="18.671" y="159.98"/><use xlink:href="#be" x="18.671" y="153.327"/><path d="M16.187 145.435c1.187 0 1.828.906 1.828 1.781 0 .938-.672 1.61-1.688 1.61h-4.172v.75h4.22c1.546 0 2.374-.89 2.374-2.14 0-.954-.484-1.641-1.156-1.938v-.063h1.078v-.75h-6.516v.75zm0 0"/><use xlink:href="#bf" x="18.671" y="143.681"/></g><g fill="#fff"><path d="M18.812 129.85c0-1.688-1.391-2.876-3.375-2.876-2 0-3.375 1.188-3.375 2.875s1.375 2.875 3.375 2.875c1.984 0 3.375-1.187 3.375-2.875zm-.704 0c0 1.359-1.203 2.109-2.671 2.109-1.454 0-2.688-.75-2.688-2.11s1.234-2.109 2.688-2.109c1.468 0 2.671.75 2.671 2.11zM12.155 122.629v1.453h-.796c-.688 0-1.079-.375-1.079-1.031 0-.25.063-.407.094-.516l-.656-.219c-.063.157-.14.407-.14.797 0 .89.562 1.719 1.624 1.719h.953v1.016h.657v-1.016h5.859v-.75h-5.86v-1.453zm0 0"/></g><path fill="#fff" d="M12.155 112.715v.828l5.516 1.922v.062l-5.516 1.938v.828l6.516-2.39v-.797zm0 0"/><g fill="#fff"><use xlink:href="#bd" x="18.671" y="112.443"/><path d="M18.671 104.79v-.75h-4.203c-.969 0-1.672-.75-1.672-1.765 0-.203.031-.39.031-.453h-.765c0 .109-.016.28-.016.406 0 .812.453 1.516 1.11 1.781v.047h-1v.734zM18.671 100.528v-.765h-6.516v.765zm-7.64-.39c0-.313-.25-.578-.548-.578s-.546.265-.546.578.25.562.546.562.547-.25.547-.562zm0 0"/><use xlink:href="#bd" x="18.671" y="98.756"/><path d="M18.671 90.947v-.735h-1.203v-.094c.594-.265 1.344-.812 1.344-2 0-1.609-1.36-2.687-3.391-2.687-2 0-3.36 1.094-3.36 2.703 0 1.188.75 1.734 1.329 1.984v.063H9.983v.766zm-3.25-.75c-1.563 0-2.672-.72-2.672-1.985 0-1.312 1.156-2.015 2.672-2.015s2.688.718 2.688 2.015c0 1.266-1.126 1.985-2.688 1.985zm0 0"/><use xlink:href="#be" x="18.671" y="84.771"/><use xlink:href="#bf" x="18.671" y="82.02"/><path d="M13.577 69.704c-.937.312-1.515 1.015-1.515 2.203 0 1.312.75 2.265 1.828 2.265.875 0 1.468-.53 1.734-1.656l.266-1.062c.156-.72.531-1.063 1.047-1.063.687 0 1.187.64 1.187 1.64 0 .907-.406 1.454-1.172 1.641l.172.72c1.094-.22 1.688-1.095 1.688-2.36 0-1.438-.797-2.422-1.907-2.422-.859 0-1.453.547-1.718 1.64l-.235.985c-.203.812-.531 1.187-1.094 1.187-.671 0-1.125-.64-1.125-1.515s.454-1.313 1.047-1.516zm0 0"/></g><path d="m52.613 42.728 3.051 31h3.05l3.052 2.825h3.047l3.05 17.324h3.051l3.05 3.136h6.099l3.05 18.954 3.047 4.015 3.05 14.309h18.302l3.047 5.414h3.05l3.051 3.637h3.05l3.048 37.996h79.297l3.047 19.886H217.3l3.05 21.332h36.598l3.051 5.532h18.297l3.05 22.605h73.196" style="fill:none;stroke-width:1.50002;stroke-linecap:square;stroke-linejoin:round;stroke:#ffb86c;stroke-miterlimit:10" transform="matrix(1 0 0 -1 0 268.451)"/><path fill="none" stroke="#fff" stroke-linecap="square" stroke-miterlimit="10" stroke-width=".8" d="M36.176 228.96V7.196M370.98 228.96V7.196M36.176 228.96H370.98M36.176 7.195H370.98"/><path d="M45.176 248.158h20" style="fill:none;stroke-width:1.50002;stroke-linecap:square;stroke-linejoin:round;stroke:#ffb86c;stroke-miterlimit:10" transform="matrix(1 0 0 -1 0 268.451)"/><g fill="#fff"><path d="M78.226 20.048v2.922c0 .484-.125.484-.86.484v.344c.391-.016.938-.031 1.235-.031.281 0 .86.015 1.219.031v-.344c-.719 0-.844 0-.844-.484v-2c0-1.14.766-1.75 1.469-1.75.687 0 .812.594.812 1.203v2.547c0 .484-.125.484-.859.484v.344c.39-.016.938-.031 1.234-.031.282 0 .86.015 1.22.031v-.344c-.72 0-.845 0-.845-.484v-2c0-1.14.782-1.75 1.47-1.75s.812.594.812 1.203v2.547c0 .484-.125.484-.86.484v.344c.39-.016.938-.031 1.235-.031.28 0 .859.015 1.218.031v-.344c-.562 0-.828 0-.843-.328v-2.078c0-.938 0-1.281-.344-1.672-.14-.187-.5-.406-1.14-.406-.923 0-1.391.656-1.579 1.078-.156-.953-.969-1.078-1.453-1.078-.797 0-1.313.469-1.61 1.156V18.97l-1.546.125v.344c.765 0 .86.078.86.609zM89.739 22.97c.046.437.343.89.859.89.234 0 .89-.156.89-1.03v-.61h-.265v.61c0 .624-.281.702-.39.702-.36 0-.407-.5-.407-.547v-2.187c0-.453 0-.875-.39-1.281a2.088 2.088 0 0 0-1.5-.61c-.891 0-1.641.516-1.641 1.235 0 .328.219.515.5.515.297 0 .5-.218.5-.5 0-.14-.063-.5-.563-.5.297-.39.828-.5 1.188-.5.531 0 1.156.422 1.156 1.391v.406c-.562.031-1.328.063-2.016.39-.812.376-1.093.938-1.093 1.423 0 .875 1.062 1.156 1.75 1.156.718 0 1.218-.438 1.422-.953zm-.063-1.797v1.094c0 1.047-.797 1.406-1.281 1.406-.531 0-.985-.375-.985-.922 0-.594.454-1.5 2.266-1.578zM94.693 21.235c.328-.421.75-.953 1.016-1.234.328-.39.781-.562 1.297-.562v-.344c-.297.031-.61.031-.907.031-.328 0-.906-.016-1.047-.031v.344c.235.015.329.156.329.328 0 .187-.11.328-.172.39l-.672.844-.86-1.094c-.093-.109-.093-.14-.093-.203 0-.156.172-.265.39-.265v-.344c-.297.015-1.015.031-1.187.031-.219 0-.735 0-1.031-.031v.344c.765 0 .765 0 1.28.656l1.079 1.406-1.016 1.297a1.741 1.741 0 0 1-1.406.656v.344c.297-.016.625-.031.906-.031.328 0 .782.015 1.047.031v-.344c-.25-.031-.328-.172-.328-.328 0-.25.328-.61.984-1.39l.829 1.093c.093.125.234.297.234.36 0 .093-.094.265-.39.265v.344a34.79 34.79 0 0 1 1.171-.031c.297 0 .719.015 1.047.031v-.344c-.594 0-.781-.015-1.031-.328zM75.895 25.95c0-.218 0-.234-.219-.234-.563.563-1.39.563-1.672.563v.281c.172 0 .719 0 1.203-.234v4.64c0 .328-.015.438-.86.438h-.28v.281c.312-.031 1.125-.031 1.484-.031.375 0 1.172 0 1.5.031v-.281h-.281c-.844 0-.875-.11-.875-.438zm0 0"/><use xlink:href="#bg" x="77.783" y="31.685"/><path d="M88.576 26.091c0-.172-.125-.328-.344-.328-.234 0-.484.203-.484.469a.32.32 0 0 0 .328.328c.281 0 .5-.25.5-.469zm-1.828 6c-.188.766-.672 1.203-1.11 1.203-.187 0-.218-.015-.328-.046.172-.063.36-.25.36-.485 0-.187-.157-.312-.344-.312a.494.494 0 0 0-.484.515c0 .375.39.563.796.563.657 0 1.516-.485 1.735-1.375l.828-3.313c.047-.14.047-.281.047-.281 0-.5-.375-.844-.875-.844-.938 0-1.469 1.282-1.469 1.39 0 .079.063.11.125.11.094 0 .11-.031.172-.203.25-.578.688-1.062 1.156-1.062.266 0 .281.25.281.406 0 .016 0 .187-.03.281zm0 0"/><use xlink:href="#bg" x="89.232" y="31.685"/><use xlink:href="#bh" x="96.399" y="31.685"/><use xlink:href="#bi" x="102.992" y="23.798"/><use xlink:href="#bj" x="106.023" y="23.798"/><use xlink:href="#bh" x="115.06" y="26.267"/><use xlink:href="#bi" x="120.333" y="23.798"/></g><path fill="#777" d="M45.176 45.422h20v-7h-20zm0 0"/><use xlink:href="#bi" x="73.176" y="45.426" fill="#fff"/><use xlink:href="#bj" x="76.206" y="45.426" fill="#fff"/><use xlink:href="#bh" x="85.244" y="47.895" fill="#fff"/><use xlink:href="#bi" x="90.517" y="45.426" fill="#fff"/></svg>