<svg xmlns="http://www.w3.org/2000/svg" xmlns:xlink="http://www.w3.org/1999/xlink" width="384.24" height="266.515"><defs><clipPath id="a"><path d="M57 211h3v17.957h-3zm0 0"/></clipPath><clipPath id="b"><path d="M60 184h3v44.957h-3zm0 0"/></clipPath><clipPath id="c"><path d="M63 182h3v46.957h-3zm0 0"/></clipPath><clipPath id="d"><path d="M66 154h4v74.957h-4zm0 0"/></clipPath><clipPath id="e"><path d="M69 138h4v90.957h-4zm0 0"/></clipPath><clipPath id="f"><path d="M72 157h4v71.957h-4zm0 0"/></clipPath><clipPath id="g"><path d="M75 157h4v71.957h-4zm0 0"/></clipPath><clipPath id="h"><path d="M78 211h4v17.957h-4zm0 0"/></clipPath><clipPath id="i"><path d="M81 123h4v105.957h-4zm0 0"/></clipPath><clipPath id="j"><path d="M84 120h4v108.957h-4zm0 0"/></clipPath><clipPath id="k"><path d="M87 195h4v33.957h-4zm0 0"/></clipPath><clipPath id="l"><path d="M91 131h3v97.957h-3zm0 0"/></clipPath><clipPath id="m"><path d="M94 124h3v104.957h-3zm0 0"/></clipPath><clipPath id="n"><path d="M97 120h3v108.957h-3zm0 0"/></clipPath><clipPath id="o"><path d="M100 195h3v33.957h-3zm0 0"/></clipPath><clipPath id="p"><path d="M103 220h3v8.957h-3zm0 0"/></clipPath><clipPath id="q"><path d="M106 195h3v33.957h-3zm0 0"/></clipPath><clipPath id="r"><path d="M109 90h3v138.957h-3zm0 0"/></clipPath><clipPath id="s"><path d="M112 102h3v126.957h-3zm0 0"/></clipPath><clipPath id="t"><path d="M115 216h3v12.957h-3zm0 0"/></clipPath><clipPath id="u"><path d="M118 192h3v36.957h-3zm0 0"/></clipPath><clipPath id="v"><path d="M121 132h3v96.957h-3zm0 0"/></clipPath><clipPath id="w"><path d="M124 141h3v87.957h-3zm0 0"/></clipPath><clipPath id="x"><path d="M127 63h4v165.957h-4zm0 0"/></clipPath><clipPath id="y"><path d="M130 138h4v90.957h-4zm0 0"/></clipPath><clipPath id="z"><path d="M133 186h4v42.957h-4zm0 0"/></clipPath><clipPath id="A"><path d="M136 222h4v6.957h-4zm0 0"/></clipPath><clipPath id="B"><path d="M139 140h4v88.957h-4zm0 0"/></clipPath><clipPath id="C"><path d="M142 62h4v166.957h-4zm0 0"/></clipPath><clipPath id="D"><path d="M145 169h4v59.957h-4zm0 0"/></clipPath><clipPath id="E"><path d="M148 116h4v112.957h-4zm0 0"/></clipPath><clipPath id="F"><path d="M152 77h3v151.957h-3zm0 0"/></clipPath><clipPath id="G"><path d="M155 199h3v29.957h-3zm0 0"/></clipPath><clipPath id="H"><path d="M158 171h3v57.957h-3zm0 0"/></clipPath><clipPath id="I"><path d="M161 220h3v8.957h-3zm0 0"/></clipPath><clipPath id="J"><path d="M164 129h3v99.957h-3zm0 0"/></clipPath><clipPath id="K"><path d="M167 46h3v182.957h-3zm0 0"/></clipPath><clipPath id="L"><path d="M170 99h3v129.957h-3zm0 0"/></clipPath><clipPath id="M"><path d="M173 118h3v110.957h-3zm0 0"/></clipPath><clipPath id="N"><path d="M176 170h3v58.957h-3zm0 0"/></clipPath><clipPath id="O"><path d="M179 214h3v14.957h-3zm0 0"/></clipPath><clipPath id="P"><path d="M182 168h3v60.957h-3zm0 0"/></clipPath><clipPath id="Q"><path d="M185 162h3v66.957h-3zm0 0"/></clipPath><clipPath id="R"><path d="M188 129h4v99.957h-4zm0 0"/></clipPath><clipPath id="S"><path d="M191 67h4v161.957h-4zm0 0"/></clipPath><clipPath id="T"><path d="M194 147h4v81.957h-4zm0 0"/></clipPath><clipPath id="U"><path d="M197 159h4v69.957h-4zm0 0"/></clipPath><clipPath id="V"><path d="M200 17h4v211.957h-4zm0 0"/></clipPath><clipPath id="W"><path d="M203 170h4v58.957h-4zm0 0"/></clipPath><clipPath id="X"><path d="M206 136h4v92.957h-4zm0 0"/></clipPath><clipPath id="Y"><path d="M209 87h4v141.957h-4zm0 0"/></clipPath><clipPath id="Z"><path d="M212 198h4v30.957h-4zm0 0"/></clipPath><clipPath id="aa"><path d="M216 183h3v45.957h-3zm0 0"/></clipPath><clipPath id="ab"><path d="M219 205h3v23.957h-3zm0 0"/></clipPath><clipPath id="ac"><path d="M222 53h3v175.957h-3zm0 0"/></clipPath><clipPath id="ad"><path d="M225 174h3v54.957h-3zm0 0"/></clipPath><clipPath id="ae"><path d="M228 154h3v74.957h-3zm0 0"/></clipPath><clipPath id="af"><path d="M231 204h3v24.957h-3zm0 0"/></clipPath><clipPath id="ag"><path d="M234 138h3v90.957h-3zm0 0"/></clipPath><clipPath id="ah"><path d="M237 203h3v25.957h-3zm0 0"/></clipPath><clipPath id="ai"><path d="M240 109h3v119.957h-3zm0 0"/></clipPath><clipPath id="aj"><path d="M243 117h3v111.957h-3zm0 0"/></clipPath><clipPath id="ak"><path d="M246 182h3v46.957h-3zm0 0"/></clipPath><clipPath id="al"><path d="M249 204h4v24.957h-4zm0 0"/></clipPath><clipPath id="am"><path d="M252 216h4v12.957h-4zm0 0"/></clipPath><clipPath id="an"><path d="M255 140h4v88.957h-4zm0 0"/></clipPath><clipPath id="ao"><path d="M258 185h4v43.957h-4zm0 0"/></clipPath><clipPath id="ap"><path d="M261 162h4v66.957h-4zm0 0"/></clipPath><clipPath id="aq"><path d="M264 108h4v120.957h-4zm0 0"/></clipPath><clipPath id="ar"><path d="M267 77h4v151.957h-4zm0 0"/></clipPath><clipPath id="as"><path d="M270 81h4v147.957h-4zm0 0"/></clipPath><clipPath id="at"><path d="M273 157h4v71.957h-4zm0 0"/></clipPath><clipPath id="au"><path d="M277 225h3v3.957h-3zm0 0"/></clipPath><clipPath id="av"><path d="M280 225h3v3.957h-3zm0 0"/></clipPath><clipPath id="aw"><path d="M283 198h3v30.957h-3zm0 0"/></clipPath><clipPath id="ax"><path d="M286 217h3v11.957h-3zm0 0"/></clipPath><clipPath id="ay"><path d="M289 97h3v131.957h-3zm0 0"/></clipPath><clipPath id="az"><path d="M292 199h3v29.957h-3zm0 0"/></clipPath><clipPath id="aA"><path d="M295 197h3v31.957h-3zm0 0"/></clipPath><clipPath id="aB"><path d="M298 228h3v.957h-3zm0 0"/></clipPath><clipPath id="aC"><path d="M301 137h3v91.957h-3zm0 0"/></clipPath><clipPath id="aD"><path d="M304 196h3v32.957h-3zm0 0"/></clipPath><clipPath id="aE"><path d="M307 192h3v36.957h-3zm0 0"/></clipPath><clipPath id="aF"><path d="M310 191h4v37.957h-4zm0 0"/></clipPath><clipPath id="aG"><path d="M313 184h4v44.957h-4zm0 0"/></clipPath><clipPath id="aH"><path d="M316 201h4v27.957h-4zm0 0"/></clipPath><clipPath id="aI"><path d="M319 163h4v65.957h-4zm0 0"/></clipPath><clipPath id="aJ"><path d="M322 212h4v16.957h-4zm0 0"/></clipPath><clipPath id="aK"><path d="M325 64h4v164.957h-4zm0 0"/></clipPath><clipPath id="aL"><path d="M328 174h4v54.957h-4zm0 0"/></clipPath><clipPath id="aM"><path d="M331 157h4v71.957h-4zm0 0"/></clipPath><clipPath id="aN"><path d="M334 151h4v77.957h-4zm0 0"/></clipPath><clipPath id="aO"><path d="M338 183h3v45.957h-3zm0 0"/></clipPath><clipPath id="aP"><path d="M341 139h3v89.957h-3zm0 0"/></clipPath><clipPath id="aQ"><path d="M344 72h3v156.957h-3zm0 0"/></clipPath><clipPath id="aR"><path d="M347 170h3v58.957h-3zm0 0"/></clipPath><clipPath id="aS"><path d="M350 122h3v106.957h-3zm0 0"/></clipPath><clipPath id="aT"><path d="M353 226h3v2.957h-3zm0 0"/></clipPath><clipPath id="aU"><path d="M356 155h3v73.957h-3zm0 0"/></clipPath><clipPath id="aV"><path d="M359 148h3v80.957h-3zm0 0"/></clipPath><path id="aW" d="M3.063.094c1.515 0 2.421-1.375 2.421-3.719s-.906-3.719-2.421-3.719S.64-5.969.64-3.625 1.53.094 3.062.094zm0-.594C1.937-.5 1.28-1.64 1.28-3.625s.672-3.14 1.782-3.14 1.78 1.156 1.78 3.14S4.173-.5 3.064-.5zm0 0"/><path id="aX" d="M.813 0h4.5v-.594H1.733V-.64l1.797-2c1.203-1.343 1.563-1.937 1.563-2.75 0-1.093-.875-1.953-2.094-1.953S.875-6.484.875-5.28H1.5c0-.86.594-1.485 1.484-1.485.844 0 1.485.547 1.485 1.375 0 .688-.375 1.204-1.297 2.25L.812-.484zm0 0"/><path id="aY" d="M3.047-7.25h-.688L.641-6.11v.688l1.703-1.14h.031V0h.672zm0 0"/><path id="aZ" d="M.969 0h.61v-1.016h.077c.219.5.672 1.125 1.672 1.125 1.328 0 2.235-1.125 2.235-2.812 0-1.672-.907-2.813-2.25-2.813-1 0-1.438.625-1.657 1.11h-.062V-7.25H.969zm.625-2.719c0-1.297.593-2.219 1.656-2.219 1.094 0 1.672.97 1.672 2.22 0 1.265-.594 2.25-1.672 2.25-1.063 0-1.656-.938-1.656-2.25zm0 0"/><path id="ba" d="M3.031.11c1.094 0 1.828-.594 2.063-1.266L4.5-1.36c-.203.484-.703.89-1.469.89-1.11 0-1.812-.812-1.844-2.062h4.047v-.313c0-1.812-1.125-2.672-2.296-2.672C1.53-5.516.546-4.328.546-2.687c0 1.656.969 2.796 2.484 2.796zM1.187-3.095c.063-1 .75-1.844 1.75-1.844.97 0 1.657.797 1.657 1.844zm0 0"/><path id="bb" d="M.828 0h.64v-3.516c0-.796.61-1.39 1.47-1.39.156 0 .312.031.374.031v-.64h-.328c-.687 0-1.28.359-1.5.906h-.046v-.829h-.61zm0 0"/><path id="bc" d="M2.344.125c.906 0 1.469-.5 1.687-.984h.047V0h.625v-3.688c0-1.468-1.094-1.828-1.922-1.828-.844 0-1.687.329-2.062 1.22l.594.218c.203-.469.687-.875 1.484-.875.828 0 1.281.453 1.281 1.203v.125c0 .422-.516.422-1.422.531-1.234.156-2.094.5-2.094 1.578C.563-.469 1.36.125 2.345.125zm.094-.578c-.72 0-1.25-.375-1.25-1.031 0-.672.546-.938 1.468-1.047.438-.063 1.235-.156 1.422-.344v.797c0 .89-.64 1.625-1.64 1.625zm0 0"/><path id="bk" d="m5.297-4.484-.922-2.172c-.031-.078-.063-.125-.063-.14 0-.063.188-.266.657-.313.11-.016.218-.016.218-.204 0-.14-.14-.14-.171-.14-.454 0-.922.031-1.375.031-.266 0-.954-.031-1.22-.031-.062 0-.202 0-.202.219 0 .125.11.125.25.125.656 0 .734.109.828.343l1.281 3.047L2.281-1.25l-.14.125c-.532.578-1.047.75-1.61.781-.14.016-.234.016-.234.219 0 .016 0 .125.14.125.329 0 .688-.031 1.032-.031.39 0 .828.031 1.218.031.063 0 .188 0 .188-.219 0-.11-.11-.125-.125-.125-.094 0-.438-.031-.438-.328 0-.172.157-.36.297-.5l1.11-1.172.984-1.062L5.797-.812c.047.125.062.14.062.156 0 .094-.203.281-.64.312C5.109-.328 5-.313 5-.125 5 0 5.125 0 5.172 0c.297 0 1.062-.031 1.375-.031.266 0 .937.031 1.203.031.078 0 .219 0 .219-.203 0-.14-.11-.14-.203-.14-.735 0-.75-.032-.938-.47-.422-1.015-1.156-2.718-1.406-3.375.734-.765 1.89-2.062 2.234-2.359a2.205 2.205 0 0 1 1.39-.562c.142-.016.235-.016.235-.22 0-.015 0-.124-.14-.124-.329 0-.688.031-1.032.031-.406 0-.812-.031-1.203-.031-.062 0-.203 0-.203.219 0 .078.047.109.125.125.094.015.438.03.438.343 0 .141-.125.282-.204.391zm0 0"/><path id="bd" d="M.125-2.344c0-.906-.5-1.469-.984-1.687v-.047H0v-.625h-3.688c-1.468 0-1.828 1.094-1.828 1.922 0 .844.329 1.687 1.22 2.062l.218-.594c-.469-.203-.875-.687-.875-1.484 0-.828.453-1.281 1.203-1.281h.125c.422 0 .422.516.531 1.422.156 1.234.5 2.094 1.578 2.094C-.469-.563.125-1.36.125-2.345zm-.578-.094c0 .72-.375 1.25-1.031 1.25-.672 0-.938-.546-1.047-1.468-.063-.438-.156-1.235-.344-1.422h.797c.89 0 1.625.64 1.625 1.64zm0 0"/><path id="be" d="M-7.25-1.469v.64H0v-.64zm0 0"/><path id="bf" d="M.11-3.031c0-1.094-.594-1.828-1.266-2.063l-.203.594c.484.203.89.703.89 1.469 0 1.11-.812 1.812-2.062 1.844v-4.047h-.313c-1.812 0-2.672 1.125-2.672 2.296 0 1.407 1.188 2.391 2.829 2.391 1.656 0 2.796-.969 2.796-2.484zm-3.204 1.844c-1-.063-1.844-.75-1.844-1.75 0-.97.797-1.657 1.844-1.657zm0 0"/><path id="bg" d="M6.203-5.438c.078-.046.188-.093.188-.218a.19.19 0 0 0-.188-.188c-.031 0-.062 0-.172.047L.953-3.359c-.125.062-.187.109-.187.218 0 .125.109.172.187.204L6.016-.5c.125.063.156.063.171.063.141 0 .204-.126.204-.188 0-.125-.079-.156-.172-.203L1.406-3.141zm-.156 6.813c.156 0 .344 0 .344-.188S6.187 1 6.047 1H1.109c-.14 0-.343 0-.343.188s.187.187.343.187zm0 0"/><path id="bh" d="M3.625-5.594c0-.172-.125-.328-.344-.328-.234 0-.484.203-.484.469a.32.32 0 0 0 .328.328c.281 0 .5-.25.5-.469zm-1.828 6c-.188.766-.672 1.203-1.11 1.203C.5 1.61.47 1.594.36 1.563c.172-.063.36-.25.36-.485C.719.891.563.766.375.766a.494.494 0 0 0-.484.515c0 .375.39.563.796.563.657 0 1.516-.485 1.735-1.375l.828-3.313c.047-.14.047-.281.047-.281 0-.5-.375-.844-.875-.844-.938 0-1.469 1.281-1.469 1.39 0 .079.063.11.125.11.094 0 .11-.031.172-.203.25-.578.688-1.062 1.156-1.062.266 0 .281.25.281.406 0 .015 0 .187-.03.281zm0 0"/><path id="bi" d="M4.703-5.922c.031-.125.031-.14.031-.172 0-.078-.046-.125-.14-.125-.125 0-.907.063-1.094.078-.078.016-.188.032-.188.172 0 .125.11.125.25.125.422 0 .422.063.422.14 0 .063-.078.376-.125.563l-.171.688c-.094.344-.188.687-.266 1.047-.172-.328-.438-.563-.844-.563-1.047 0-2.203 1.25-2.203 2.61C.375-.375 1 .094 1.609.094c.579 0 1.047-.485 1.204-.656.093.5.546.656.828.656.265 0 .484-.11.687-.485.156-.296.281-.859.281-.89 0-.047-.03-.11-.109-.11-.11 0-.125.047-.156.22-.203.78-.39 1.046-.672 1.046-.235 0-.281-.219-.281-.406 0-.125.046-.375.046-.406zm-1.86 4.844c-.03.14-.046.156-.187.328-.328.39-.687.625-1.031.625-.438 0-.578-.453-.578-.844 0-.437.25-1.469.469-1.906.28-.531.703-.86 1.062-.86.594 0 .735.72.735.766s-.016.094-.032.14zm0 0"/><path id="bj" d="M1.734-7.781c0-.203 0-.39-.218-.39s-.22.187-.22.39v10.11c0 .202 0 .39.22.39s.218-.188.218-.39zm0 0"/></defs><g clip-path="url(#a)"><path fill="#54576a" d="M57.46 228.957h2.438v-17.82h-2.437zm0 0"/></g><g clip-path="url(#b)"><path fill="#54576a" d="M60.508 228.957h2.441V184.48h-2.441zm0 0"/></g><g clip-path="url(#c)"><path fill="#54576a" d="M63.559 228.957h2.437v-46.8H63.56zm0 0"/></g><g clip-path="url(#d)"><path fill="#54576a" d="M66.61 228.957h2.437v-74.219h-2.438zm0 0"/></g><g clip-path="url(#e)"><path fill="#54576a" d="M69.656 228.957h2.442v-90.648h-2.442zm0 0"/></g><g clip-path="url(#f)"><path fill="#54576a" d="M72.707 228.957h2.441v-71.25h-2.441zm0 0"/></g><g clip-path="url(#g)"><path fill="#54576a" d="M75.758 228.957h2.441V157.34h-2.441zm0 0"/></g><g clip-path="url(#h)"><path fill="#54576a" d="M78.809 228.957h2.437V211.32H78.81zm0 0"/></g><g clip-path="url(#i)"><path fill="#54576a" d="M81.855 228.957h2.442v-104.96h-2.442zm0 0"/></g><g clip-path="url(#j)"><path fill="#54576a" d="M84.906 228.957h2.442V120.844h-2.442zm0 0"/></g><g clip-path="url(#k)"><path fill="#54576a" d="M87.957 228.957h2.441v-33.223h-2.441zm0 0"/></g><g clip-path="url(#l)"><path fill="#54576a" d="M91.008 228.957h2.437v-97.371h-2.437zm0 0"/></g><g clip-path="url(#m)"><path fill="#54576a" d="M94.055 228.957h2.441V124.793h-2.441zm0 0"/></g><g clip-path="url(#n)"><path fill="#54576a" d="M97.105 228.957h2.442V120.203h-2.442zm0 0"/></g><g clip-path="url(#o)"><path fill="#54576a" d="M100.156 228.957h2.442v-33.883h-2.442zm0 0"/></g><g clip-path="url(#p)"><path fill="#54576a" d="M103.207 228.957h2.438v-8.027h-2.438zm0 0"/></g><g clip-path="url(#q)"><path fill="#54576a" d="M106.254 228.957h2.441v-32.96h-2.441zm0 0"/></g><g clip-path="url(#r)"><path fill="#54576a" d="M109.305 228.957h2.441V90.98h-2.441zm0 0"/></g><g clip-path="url(#s)"><path fill="#54576a" d="M112.355 228.957h2.438V102.672h-2.438zm0 0"/></g><g clip-path="url(#t)"><path fill="#54576a" d="M115.406 228.957h2.438v-12.672h-2.438zm0 0"/></g><g clip-path="url(#u)"><path fill="#54576a" d="M118.453 228.957h2.442v-36.484h-2.442zm0 0"/></g><g clip-path="url(#v)"><path fill="#54576a" d="M121.504 228.957h2.441v-96.516h-2.441zm0 0"/></g><g clip-path="url(#w)"><path fill="#54576a" d="M124.555 228.957h2.437V141.68h-2.437zm0 0"/></g><g clip-path="url(#x)"><path fill="#54576a" d="M127.602 228.957h2.441V63.262h-2.441zm0 0"/></g><g clip-path="url(#y)"><path fill="#54576a" d="M130.652 228.957h2.442v-90.266h-2.442zm0 0"/></g><g clip-path="url(#z)"><path fill="#54576a" d="M133.703 228.957h2.442v-42.406h-2.442zm0 0"/></g><g clip-path="url(#A)"><path fill="#54576a" d="M136.754 228.957h2.437v-6.742h-2.437zm0 0"/></g><g clip-path="url(#B)"><path fill="#54576a" d="M139.805 228.957h2.437v-88.914h-2.437zm0 0"/></g><g clip-path="url(#C)"><path fill="#54576a" d="M142.852 228.957h2.441V62.902h-2.441zm0 0"/></g><g clip-path="url(#D)"><path fill="#54576a" d="M145.902 228.957h2.442v-59.086h-2.442zm0 0"/></g><g clip-path="url(#E)"><path fill="#54576a" d="M148.953 228.957h2.438v-112.82h-2.438zm0 0"/></g><g clip-path="url(#F)"><path fill="#54576a" d="M152.004 228.957h2.437V77.297h-2.437zm0 0"/></g><g clip-path="url(#G)"><path fill="#54576a" d="M155.05 228.957h2.442v-28.992h-2.441zm0 0"/></g><g clip-path="url(#H)"><path fill="#54576a" d="M158.102 228.957h2.437v-57.59h-2.437zm0 0"/></g><g clip-path="url(#I)"><path fill="#54576a" d="M161.152 228.957h2.438v-8.266h-2.438zm0 0"/></g><g clip-path="url(#J)"><path fill="#54576a" d="M164.203 228.957h2.438v-99.8h-2.438zm0 0"/></g><g clip-path="url(#K)"><path fill="#54576a" d="M167.25 228.957h2.441V46.247h-2.441zm0 0"/></g><g clip-path="url(#L)"><path fill="#54576a" d="M170.3 228.957h2.442V99.187h-2.441zm0 0"/></g><g clip-path="url(#M)"><path fill="#54576a" d="M173.352 228.957h2.437V118.754h-2.437zm0 0"/></g><g clip-path="url(#N)"><path fill="#54576a" d="M176.398 228.957h2.442v-58.094h-2.442zm0 0"/></g><g clip-path="url(#O)"><path fill="#54576a" d="M179.45 228.957h2.44v-14.152h-2.44zm0 0"/></g><g clip-path="url(#P)"><path fill="#54576a" d="M182.5 228.957h2.441V168.16H182.5zm0 0"/></g><g clip-path="url(#Q)"><path fill="#54576a" d="M185.55 228.957h2.438V162.32h-2.437zm0 0"/></g><g clip-path="url(#R)"><path fill="#54576a" d="M188.598 228.957h2.441v-99.336h-2.441zm0 0"/></g><g clip-path="url(#S)"><path fill="#54576a" d="M191.648 228.957h2.442V67.594h-2.442zm0 0"/></g><g clip-path="url(#T)"><path fill="#54576a" d="M194.7 228.957h2.44v-81.184h-2.44zm0 0"/></g><g clip-path="url(#U)"><path fill="#54576a" d="M197.75 228.957h2.438v-69.762h-2.438zm0 0"/></g><g clip-path="url(#V)"><path fill="#54576a" d="M200.797 228.957h2.441v-211.2h-2.441zm0 0"/></g><g clip-path="url(#W)"><path fill="#54576a" d="M203.848 228.957h2.441v-58.496h-2.441zm0 0"/></g><g clip-path="url(#X)"><path fill="#54576a" d="M206.898 228.957h2.438v-92.668h-2.438zm0 0"/></g><g clip-path="url(#Y)"><path fill="#54576a" d="M209.95 228.957h2.437V87.125h-2.438zm0 0"/></g><g clip-path="url(#Z)"><path fill="#54576a" d="M212.996 228.957h2.441v-30.555h-2.44zm0 0"/></g><g clip-path="url(#aa)"><path fill="#54576a" d="M216.047 228.957h2.441v-45.555h-2.441zm0 0"/></g><g clip-path="url(#ab)"><path fill="#54576a" d="M219.098 228.957h2.437v-23.324h-2.437zm0 0"/></g><g clip-path="url(#ac)"><path fill="#54576a" d="M222.145 228.957h2.44V53.043h-2.44zm0 0"/></g><g clip-path="url(#ad)"><path fill="#54576a" d="M225.195 228.957h2.442v-54.715h-2.442zm0 0"/></g><g clip-path="url(#ae)"><path fill="#54576a" d="M228.246 228.957h2.441v-74.094h-2.44zm0 0"/></g><g clip-path="url(#af)"><path fill="#54576a" d="M231.297 228.957h2.437V204.18h-2.437zm0 0"/></g><g clip-path="url(#ag)"><path fill="#54576a" d="M234.348 228.957h2.437v-90.285h-2.437zm0 0"/></g><g clip-path="url(#ah)"><path fill="#54576a" d="M237.395 228.957h2.44v-25.953h-2.44zm0 0"/></g><g clip-path="url(#ai)"><path fill="#54576a" d="M240.445 228.957h2.442V109.625h-2.442zm0 0"/></g><g clip-path="url(#aj)"><path fill="#54576a" d="M243.496 228.957h2.438V117.762h-2.438zm0 0"/></g><g clip-path="url(#ak)"><path fill="#54576a" d="M246.547 228.957h2.437v-46.61h-2.437zm0 0"/></g><g clip-path="url(#al)"><path fill="#54576a" d="M249.594 228.957h2.441v-24.531h-2.441zm0 0"/></g><g clip-path="url(#am)"><path fill="#54576a" d="M252.645 228.957h2.437v-12.5h-2.437zm0 0"/></g><g clip-path="url(#an)"><path fill="#54576a" d="M255.695 228.957h2.438v-88.852h-2.438zm0 0"/></g><g clip-path="url(#ao)"><path fill="#54576a" d="M258.746 228.957h2.438v-43.336h-2.438zm0 0"/></g><g clip-path="url(#ap)"><path fill="#54576a" d="M261.793 228.957h2.441v-66.191h-2.441zm0 0"/></g><g clip-path="url(#aq)"><path fill="#54576a" d="M264.844 228.957h2.441V108.926h-2.441zm0 0"/></g><g clip-path="url(#ar)"><path fill="#54576a" d="M267.895 228.957h2.437V77.359h-2.437zm0 0"/></g><g clip-path="url(#as)"><path fill="#54576a" d="M270.941 228.957h2.442V81.375h-2.442zm0 0"/></g><g clip-path="url(#at)"><path fill="#54576a" d="M273.992 228.957h2.442v-71.672h-2.442zm0 0"/></g><g clip-path="url(#au)"><path fill="#54576a" d="M277.043 228.957h2.441v-3.937h-2.441zm0 0"/></g><g clip-path="url(#av)"><path fill="#54576a" d="M280.094 228.957h2.437v-3.445h-2.437zm0 0"/></g><g clip-path="url(#aw)"><path fill="#54576a" d="M283.14 228.957h2.442v-30.789h-2.441zm0 0"/></g><g clip-path="url(#ax)"><path fill="#54576a" d="M286.191 228.957h2.442v-11.566h-2.442zm0 0"/></g><g clip-path="url(#ay)"><path fill="#54576a" d="M289.242 228.957h2.442V97.199h-2.442zm0 0"/></g><g clip-path="url(#az)"><path fill="#54576a" d="M292.293 228.957h2.437v-29.016h-2.437zm0 0"/></g><g clip-path="url(#aA)"><path fill="#54576a" d="M295.34 228.957h2.441v-31.031h-2.441zm0 0"/></g><g clip-path="url(#aB)"><path fill="#54576a" d="M298.39 228.957h2.442v-.098h-2.441zm0 0"/></g><g clip-path="url(#aC)"><path fill="#54576a" d="M301.441 228.957h2.438v-91.219h-2.438zm0 0"/></g><g clip-path="url(#aD)"><path fill="#54576a" d="M304.492 228.957h2.438v-32.215h-2.438zm0 0"/></g><g clip-path="url(#aE)"><path fill="#54576a" d="M307.54 228.957h2.44v-36.832h-2.44zm0 0"/></g><g clip-path="url(#aF)"><path fill="#54576a" d="M310.59 228.957h2.441v-37.844h-2.441zm0 0"/></g><g clip-path="url(#aG)"><path fill="#54576a" d="M313.64 228.957h2.438v-44.094h-2.437zm0 0"/></g><g clip-path="url(#aH)"><path fill="#54576a" d="M316.688 228.957h2.44V201.68h-2.44zm0 0"/></g><g clip-path="url(#aI)"><path fill="#54576a" d="M319.738 228.957h2.442v-65.719h-2.442zm0 0"/></g><g clip-path="url(#aJ)"><path fill="#54576a" d="M322.79 228.957h2.44v-16.883h-2.44zm0 0"/></g><g clip-path="url(#aK)"><path fill="#54576a" d="M325.84 228.957h2.437V64.98h-2.437zm0 0"/></g><g clip-path="url(#aL)"><path fill="#54576a" d="M328.89 228.957h2.438v-54.055h-2.437zm0 0"/></g><g clip-path="url(#aM)"><path fill="#54576a" d="M331.938 228.957h2.44v-71.453h-2.44zm0 0"/></g><g clip-path="url(#aN)"><path fill="#54576a" d="M334.988 228.957h2.442v-77.61h-2.442zm0 0"/></g><g clip-path="url(#aO)"><path fill="#54576a" d="M338.04 228.957h2.437v-45.059h-2.438zm0 0"/></g><g clip-path="url(#aP)"><path fill="#54576a" d="M341.09 228.957h2.437v-89.508h-2.437zm0 0"/></g><g clip-path="url(#aQ)"><path fill="#54576a" d="M344.137 228.957h2.441V72.305h-2.441zm0 0"/></g><g clip-path="url(#aR)"><path fill="#54576a" d="M347.188 228.957h2.44v-58.379h-2.44zm0 0"/></g><g clip-path="url(#aS)"><path fill="#54576a" d="M350.238 228.957h2.438v-106.59h-2.438zm0 0"/></g><g clip-path="url(#aT)"><path fill="#54576a" d="M353.29 228.957h2.437v-2.309h-2.438zm0 0"/></g><g clip-path="url(#aU)"><path fill="#54576a" d="M356.336 228.957h2.441v-73.906h-2.441zm0 0"/></g><g clip-path="url(#aV)"><path fill="#54576a" d="M359.387 228.957h2.441v-80.152h-2.441zm0 0"/></g><path fill="none" stroke="#fff" stroke-linejoin="round" stroke-miterlimit="10" stroke-width=".8" d="M55.629 228.957v3.504"/><use xlink:href="#aW" x="52.572" y="243.257" fill="#fff"/><path fill="none" stroke="#fff" stroke-linejoin="round" stroke-miterlimit="10" stroke-width=".8" d="M116.625 228.957v3.504"/><g fill="#fff"><use xlink:href="#aX" x="110.526" y="243.257"/><use xlink:href="#aW" x="116.607" y="243.257"/></g><path fill="none" stroke="#fff" stroke-linejoin="round" stroke-miterlimit="10" stroke-width=".8" d="M177.621 228.957v3.504"/><g fill="#fff"><path d="M172.082 241.695h3.375v1.562h.625v-1.563h.968v-.593h-.968v-5.094h-.782l-3.218 5.156zm3.375-.594h-2.641v-.047l2.594-4.14h.047zm0 0"/><use xlink:href="#aW" x="177.682" y="243.257"/></g><path fill="none" stroke="#fff" stroke-linejoin="round" stroke-miterlimit="10" stroke-width=".8" d="M238.613 228.957v3.504"/><g fill="#fff"><path d="M235.612 243.35c1.375.016 2.297-1.077 2.297-2.374 0-1.36-1.016-2.36-2.22-2.36-.78 0-1.468.422-1.812 1.063h-.047c.016-2.031.688-3.172 1.875-3.172.829 0 1.329.547 1.47 1.313h.655c-.14-1.125-.953-1.907-2.125-1.907-1.671 0-2.5 1.656-2.5 4.016 0 2.547 1.204 3.422 2.407 3.422zm0-.593c-.906 0-1.578-.734-1.656-1.734-.063-.953.687-1.813 1.656-1.813.937 0 1.656.781 1.656 1.766s-.719 1.781-1.656 1.781zm0 0"/><use xlink:href="#aW" x="238.592" y="243.257"/></g><path fill="none" stroke="#fff" stroke-linejoin="round" stroke-miterlimit="10" stroke-width=".8" d="M299.61 228.957v3.504"/><g fill="#fff"><path d="M296.549 243.35c1.375 0 2.39-.843 2.39-2 0-.905-.625-1.687-1.437-1.843v-.047c.703-.203 1.172-.875 1.188-1.656-.016-1.078-.938-1.89-2.141-1.89-1.219 0-2.14.812-2.125 1.89-.016.781.469 1.453 1.172 1.656v.047c-.828.156-1.438.938-1.438 1.844 0 1.156 1 2 2.39 2zm0-.593c-1.031 0-1.75-.594-1.734-1.438-.016-.874.734-1.515 1.734-1.515s1.734.64 1.75 1.516c-.016.843-.719 1.437-1.75 1.437zm0-3.531c-.86 0-1.5-.578-1.484-1.375-.016-.797.625-1.36 1.484-1.36s1.484.563 1.5 1.36c-.016.797-.656 1.375-1.5 1.375zm0 0"/><use xlink:href="#aW" x="299.598" y="243.257"/></g><path fill="none" stroke="#fff" stroke-linejoin="round" stroke-miterlimit="10" stroke-width=".8" d="M360.605 228.957v3.504"/><g fill="#fff"><use xlink:href="#aY" x="352.269" y="243.257"/><use xlink:href="#aW" x="356.709" y="243.257"/><use xlink:href="#aW" x="362.822" y="243.257"/></g><g fill="#fff"><path d="M163.752 249.964h-.656v6.078h-.047l-4.297-6.078h-.64v7.25h.656v-6.078h.063l4.28 6.078h.641zM168.992 255.136c0 1-.75 1.531-1.485 1.531-.78 0-1.328-.562-1.328-1.406v-3.484h-.64v3.515c0 1.297.75 2 1.797 2 .796 0 1.359-.422 1.609-.984h.047v.906h.64v-5.438h-.64zM171.284 257.214h.64v-3.484c0-.844.563-1.453 1.313-1.453.735 0 1.172.5 1.172 1.234v3.703h.64v-3.578c0-.781.47-1.36 1.298-1.36.718 0 1.203.438 1.203 1.297v3.641h.625v-3.64c0-1.22-.625-1.876-1.64-1.876-.782 0-1.36.391-1.61 1h-.047c-.234-.625-.719-1-1.469-1-.703 0-1.234.344-1.453.907h-.062v-.828h-.61zm0 0"/><use xlink:href="#aZ" x="179.004" y="257.214"/><use xlink:href="#ba" x="185.114" y="257.214"/><use xlink:href="#bb" x="190.898" y="257.214"/></g><g fill="#fff"><path d="M200.203 257.323c1.406 0 2.39-1.14 2.39-2.796 0-1.672-.984-2.829-2.39-2.829-1.422 0-2.407 1.157-2.407 2.828 0 1.657.985 2.797 2.407 2.797zm0-.578c-1.141 0-1.766-1-1.766-2.219s.625-2.25 1.766-2.25c1.125 0 1.75 1.032 1.75 2.25s-.625 2.22-1.75 2.22zM206.199 251.776h-1.203v-.671c0-.563.312-.875.86-.875.218 0 .343.03.437.078l.187-.563c-.14-.047-.344-.125-.672-.125-.75 0-1.437.485-1.437 1.36v.797h-.844v.546h.844v4.891h.625v-4.89h1.203zm0 0"/></g><path fill="#fff" d="M214.479 251.776h-.688l-1.61 4.61h-.062l-1.61-4.61h-.687l1.985 5.438h.687zm0 0"/><g fill="#fff"><use xlink:href="#bc" x="214.697" y="257.214"/><use xlink:href="#bb" x="220.241" y="257.214"/><path d="M224.637 257.214h.625v-5.438h-.625zm.312-6.375c.266 0 .484-.203.484-.453s-.218-.453-.484-.453c-.25 0-.469.203-.469.453s.219.453.469.453zm0 0"/><use xlink:href="#bc" x="226.103" y="257.214"/><use xlink:href="#aZ" x="231.647" y="257.214"/><path d="M239.226 249.964h-.64v7.25h.64zm0 0"/><use xlink:href="#ba" x="240.05" y="257.214"/><path d="M250.318 252.964c-.265-.781-.843-1.266-1.843-1.266-1.094 0-1.891.625-1.891 1.532 0 .718.438 1.218 1.39 1.453l.891.203c.594.14.875.453.875.89 0 .563-.531.985-1.375.985-.734 0-1.203-.344-1.36-.985l-.608.157c.203.906.921 1.39 1.984 1.39 1.187 0 2.016-.656 2.016-1.578 0-.719-.454-1.219-1.36-1.437l-.828-.203c-.672-.172-.984-.438-.984-.907 0-.547.515-.937 1.25-.937s1.093.39 1.265.875zM252.818 256.23h-.688l-.047.39c-.125.953-.312 1.89-.406 2.36h.485c.171-.5.468-1.61.593-2.375zm0 0"/></g><path fill="#fff" d="M262.084 249.76s0-.108-.14-.108c-.157 0-1.204.093-1.391.109-.078.016-.14.062-.14.219 0 .125.093.125.25.125.53 0 .546.078.546.187l-.031.219-.656 2.578c-.188-.406-.5-.703-1-.703-1.282 0-2.625 1.61-2.625 3.203 0 1.031.593 1.75 1.453 1.75.218 0 .765-.047 1.406-.828a1.01 1.01 0 0 0 1 .828c.375 0 .625-.25.812-.61.188-.39.329-1.046.329-1.077 0-.11-.11-.11-.141-.11-.11 0-.11.047-.156.203-.172.703-.375 1.344-.829 1.344-.28 0-.328-.281-.328-.5 0-.266.032-.328.079-.516zm-2.266 6.157c-.062.203-.062.219-.218.406-.485.594-.922.766-1.235.766-.547 0-.703-.594-.703-1.016 0-.546.36-1.89.61-2.39.343-.64.828-1.047 1.265-1.047.703 0 .86.89.86.953s-.016.14-.032.188zm0 0"/><path fill="none" stroke="#fff" stroke-linejoin="round" stroke-miterlimit="10" stroke-width=".8" d="M42.242 228.957h-3.5"/><use xlink:href="#aW" x="28.878" y="232.758" fill="#fff"/><path fill="none" stroke="#fff" stroke-linejoin="round" stroke-miterlimit="10" stroke-width=".8" d="M42.242 133.027h-3.5"/><use xlink:href="#aY" x="28.878" y="136.829" fill="#fff"/><path fill="none" stroke="#fff" stroke-linejoin="round" stroke-miterlimit="10" stroke-width=".8" d="M42.242 37.098h-3.5"/><use xlink:href="#aX" x="28.878" y="40.9" fill="#fff"/><path fill="#fff" d="M9.509 158.057v.688l7.25-2.64v-.704l-7.25-2.64v.703l6.39 2.265v.063zm0 0"/><g fill="#fff"><use xlink:href="#bd" x="16.759" y="152.997"/><use xlink:href="#be" x="16.759" y="147.452"/><path d="M14.68 140.879c1 0 1.532.75 1.532 1.484 0 .781-.562 1.328-1.406 1.328h-3.484v.64h3.515c1.297 0 2-.75 2-1.796 0-.797-.422-1.36-.984-1.61v-.046h.906v-.64h-5.438v.64zm0 0"/><use xlink:href="#bf" x="16.759" y="139.415"/></g><g fill="#fff"><path d="M16.868 127.878c0-1.407-1.14-2.39-2.796-2.39-1.672 0-2.829.983-2.829 2.39 0 1.422 1.157 2.406 2.829 2.406 1.656 0 2.796-.984 2.796-2.406zm-.578 0c0 1.14-1 1.765-2.218 1.765s-2.25-.625-2.25-1.765c0-1.125 1.03-1.75 2.25-1.75s2.218.625 2.218 1.75zM11.322 121.881v1.204h-.672c-.563 0-.875-.313-.875-.86 0-.219.03-.344.078-.437l-.563-.188c-.047.14-.125.344-.125.672 0 .75.485 1.438 1.36 1.438h.796v.843h.547v-.843h4.891v-.625h-4.89v-1.204zm0 0"/></g><path fill="#fff" d="M11.322 113.602v.687l4.609 1.61v.062l-4.61 1.61v.687l5.438-1.984v-.688zm0 0"/><g fill="#fff"><use xlink:href="#bd" x="16.759" y="113.383"/><path d="M16.759 107.011v-.64h-3.516c-.796 0-1.39-.61-1.39-1.47 0-.156.031-.312.031-.374h-.64v.328c0 .687.359 1.281.906 1.5v.047h-.829v.609zM16.759 103.444v-.625h-5.438v.625zm-6.375-.313c0-.265-.203-.484-.453-.484s-.453.219-.453.484c0 .25.203.469.453.469s.453-.219.453-.469zm0 0"/><use xlink:href="#bd" x="16.759" y="101.977"/><path d="M16.759 95.464v-.61h-1.016v-.077c.5-.219 1.125-.672 1.125-1.672 0-1.328-1.125-2.235-2.812-2.235-1.672 0-2.813.907-2.813 2.25 0 1 .625 1.438 1.11 1.657v.062H9.509v.625zm-2.719-.625c-1.297 0-2.218-.594-2.218-1.656 0-1.094.968-1.672 2.218-1.672 1.266 0 2.25.594 2.25 1.672 0 1.062-.937 1.656-2.25 1.656zm0 0"/><use xlink:href="#be" x="16.759" y="90.323"/><use xlink:href="#bf" x="16.759" y="88.031"/><path d="M12.509 77.762c-.781.265-1.266.844-1.266 1.844 0 1.093.625 1.89 1.532 1.89.718 0 1.218-.437 1.453-1.39l.203-.891c.14-.594.453-.875.89-.875.563 0 .985.531.985 1.375 0 .734-.344 1.203-.985 1.36l.157.609c.906-.203 1.39-.922 1.39-1.985 0-1.187-.656-2.015-1.578-2.015-.718 0-1.218.453-1.437 1.36l-.203.827c-.172.672-.438.985-.907.985-.546 0-.937-.516-.937-1.25s.39-1.094.875-1.266zm0 0"/></g><path d="m58.68 55.378 3.05 26.657 3.047 2.324 3.051 27.418 3.05 16.43h9.15l3.05 14.312 3.05 3.152h9.15l3.046.64h9.153l3.046 29.224h15.25l3.051 27.718h12.2l3.046.36h21.352l3.05 16.656h30.497l3.05 28.488h158.586" style="fill:none;stroke-width:1.50002;stroke-linecap:square;stroke-linejoin:round;stroke:#bd93f9;stroke-miterlimit:10" transform="matrix(1 0 0 -1 0 266.515)"/><path fill="none" stroke="#fff" stroke-linecap="square" stroke-miterlimit="10" stroke-width=".8" d="M42.242 228.957V7.195M377.043 228.957V7.195M42.242 228.957h334.801M42.242 7.195h334.801"/><path fill="none" stroke="#fff" stroke-miterlimit="10" stroke-opacity=".7" d="M49.242 52.285h81.38c1.331 0 2-.668 2-2v-36.09c0-1.332-.669-2-2-2h-81.38c-1.336 0-2 .668-2 2v36.09c0 1.332.664 2 2 2zm0 0"/><path d="M51.242 246.222h20" style="fill:none;stroke-width:1.50002;stroke-linecap:square;stroke-linejoin:round;stroke:#bd93f9;stroke-miterlimit:10" transform="matrix(1 0 0 -1 0 266.515)"/><g fill="#fff"><path d="M84.291 20.047v2.922c0 .484-.125.484-.86.484v.344c.391-.016.938-.031 1.235-.031.281 0 .86.015 1.219.031v-.344c-.719 0-.844 0-.844-.484v-2c0-1.14.766-1.75 1.469-1.75.687 0 .812.594.812 1.203v2.547c0 .484-.125.484-.859.484v.344c.39-.016.938-.031 1.234-.031.282 0 .86.015 1.22.031v-.344c-.72 0-.845 0-.845-.484v-2c0-1.14.782-1.75 1.47-1.75s.812.594.812 1.203v2.547c0 .484-.125.484-.86.484v.344c.39-.016.938-.031 1.235-.031.28 0 .859.015 1.218.031v-.344c-.562 0-.828 0-.843-.328v-2.078c0-.938 0-1.281-.344-1.672-.14-.187-.5-.406-1.14-.406-.923 0-1.391.656-1.579 1.078-.156-.953-.969-1.078-1.453-1.078-.797 0-1.313.469-1.61 1.156V18.97l-1.546.125v.344c.765 0 .86.078.86.609zM95.804 22.969c.046.437.343.89.859.89.234 0 .89-.156.89-1.03v-.61h-.265v.61c0 .624-.281.702-.39.702-.36 0-.407-.5-.407-.546v-2.188c0-.453 0-.875-.39-1.281a2.088 2.088 0 0 0-1.5-.61c-.891 0-1.641.516-1.641 1.235 0 .328.219.515.5.515.297 0 .5-.218.5-.5 0-.14-.063-.5-.563-.5.297-.39.828-.5 1.188-.5.531 0 1.156.422 1.156 1.391v.406c-.562.032-1.328.063-2.016.39-.812.376-1.093.938-1.093 1.423 0 .875 1.062 1.156 1.75 1.156.718 0 1.218-.438 1.422-.953zm-.063-1.797v1.094c0 1.047-.797 1.406-1.281 1.406-.531 0-.985-.375-.985-.922 0-.594.454-1.5 2.266-1.578zM100.758 21.235c.328-.422.75-.954 1.016-1.235.328-.39.781-.562 1.297-.562v-.344c-.297.031-.61.031-.907.031-.328 0-.906-.015-1.047-.031v.344c.235.015.329.156.329.328 0 .187-.11.328-.172.39l-.672.844-.86-1.094c-.093-.109-.093-.14-.093-.203 0-.156.172-.265.39-.265v-.344c-.297.015-1.015.031-1.187.031-.219 0-.735 0-1.031-.031v.344c.765 0 .765 0 1.28.656l1.079 1.406-1.016 1.297a1.741 1.741 0 0 1-1.406.656v.344c.297-.016.625-.031.906-.031.328 0 .782.015 1.047.031v-.344c-.25-.031-.328-.172-.328-.328 0-.25.328-.61.984-1.39l.829 1.093c.093.125.234.297.234.36 0 .093-.094.265-.39.265v.344a34.79 34.79 0 0 1 1.171-.031c.297 0 .719.015 1.047.031v-.344c-.594 0-.781-.015-1.031-.328zM81.959 26.116c0-.22 0-.235-.219-.235-.563.563-1.39.563-1.672.563v.281c.172 0 .719 0 1.203-.234v4.64c0 .328-.015.438-.86.438h-.28v.281c.312-.031 1.125-.031 1.484-.031.375 0 1.172 0 1.5.031v-.281h-.281c-.844 0-.875-.11-.875-.438zm0 0"/><use xlink:href="#bg" x="83.848" y="31.85"/><use xlink:href="#bh" x="91.015" y="31.85"/><use xlink:href="#bg" x="95.296" y="31.85"/><use xlink:href="#bi" x="102.464" y="31.85"/><use xlink:href="#bj" x="109.057" y="23.797"/><use xlink:href="#bk" x="112.087" y="23.797"/><use xlink:href="#bi" x="121.125" y="26.266"/><use xlink:href="#bj" x="126.398" y="23.797"/></g><path fill="#54576a" d="M51.242 45.422h20v-7h-20zm0 0"/><use xlink:href="#bj" x="79.24" y="45.425" fill="#fff"/><use xlink:href="#bk" x="82.27" y="45.425" fill="#fff"/><use xlink:href="#bh" x="91.308" y="47.584" fill="#fff"/><use xlink:href="#bj" x="96.087" y="45.425" fill="#fff"/></svg>