<svg xmlns="http://www.w3.org/2000/svg" xmlns:xlink="http://www.w3.org/1999/xlink" width="384.24" height="270.314"><defs><path id="a" d="M3.063.094c1.515 0 2.421-1.375 2.421-3.719s-.906-3.719-2.421-3.719S.64-5.969.64-3.625 1.53.094 3.062.094zm0-.594C1.937-.5 1.28-1.64 1.28-3.625s.672-3.14 1.782-3.14 1.78 1.156 1.78 3.14S4.173-.5 3.064-.5zm0 0"/><path id="b" d="M.813 0h4.5v-.594H1.733V-.64l1.797-2c1.203-1.343 1.563-1.937 1.563-2.75 0-1.093-.875-1.953-2.094-1.953S.875-6.484.875-5.28H1.5c0-.86.594-1.485 1.484-1.485.844 0 1.485.547 1.485 1.375 0 .688-.375 1.204-1.297 2.25L.812-.484zm0 0"/><path id="c" d="M.64-1.563h3.376V0h.625v-1.563h.968v-.593h-.968V-7.25h-.782L.641-2.094zm3.376-.593H1.375v-.047l2.594-4.14h.047zm0 0"/><path id="d" d="M3.094.094C4.469.109 5.39-.984 5.39-2.281c0-1.36-1.016-2.36-2.22-2.36-.78 0-1.468.422-1.812 1.063h-.046C1.327-5.61 2-6.75 3.188-6.75c.828 0 1.328.547 1.468 1.313h.657c-.141-1.125-.954-1.907-2.125-1.907-1.672 0-2.5 1.657-2.5 4.016C.688-.781 1.89.094 3.094.094zm0-.594c-.906 0-1.578-.734-1.656-1.734-.063-.954.687-1.813 1.656-1.813.937 0 1.656.781 1.656 1.766S4.031-.5 3.094-.5zm0 0"/><path id="e" d="M3.047-7.25h-.688L.641-6.11v.688l1.703-1.14h.031V0h.672zm0 0"/><path id="f" d="M4.281-2.078c0 1-.75 1.531-1.484 1.531-.781 0-1.328-.562-1.328-1.406v-3.484h-.64v3.515c0 1.297.75 2 1.796 2 .797 0 1.36-.422 1.61-.984h.046V0h.64v-5.438h-.64zm0 0"/><path id="g" d="M.828 0h.64v-3.484c0-.844.563-1.454 1.313-1.454.735 0 1.172.5 1.172 1.235V0h.64v-3.578c0-.781.47-1.36 1.298-1.36.718 0 1.203.438 1.203 1.297V0h.625v-3.64c0-1.22-.625-1.876-1.64-1.876-.782 0-1.36.391-1.61 1h-.047c-.234-.625-.719-1-1.469-1-.703 0-1.234.344-1.453.907h-.063v-.829H.829zm0 0"/><path id="h" d="M.969 0h.61v-1.016h.077c.219.5.672 1.125 1.672 1.125 1.328 0 2.235-1.125 2.235-2.812 0-1.672-.907-2.813-2.25-2.813-1 0-1.438.625-1.657 1.11h-.062V-7.25H.969zm.625-2.719c0-1.297.593-2.219 1.656-2.219 1.094 0 1.672.97 1.672 2.22 0 1.265-.594 2.25-1.672 2.25-1.063 0-1.656-.938-1.656-2.25zm0 0"/><path id="i" d="M3.031.11c1.094 0 1.828-.594 2.063-1.266L4.5-1.36c-.203.484-.703.89-1.469.89-1.11 0-1.812-.812-1.844-2.062h4.047v-.313c0-1.812-1.125-2.672-2.296-2.672C1.53-5.516.546-4.328.546-2.687c0 1.656.969 2.796 2.484 2.796zM1.187-3.095c.063-1 .75-1.844 1.75-1.844.97 0 1.657.797 1.657 1.844zm0 0"/><path id="j" d="M.828 0h.64v-3.516c0-.796.61-1.39 1.47-1.39.156 0 .312.031.374.031v-.64h-.328c-.687 0-1.28.359-1.5.906h-.046v-.829h-.61zm0 0"/><path id="k" d="M2.953.11c1.406 0 2.39-1.141 2.39-2.797 0-1.672-.984-2.829-2.39-2.829-1.422 0-2.406 1.157-2.406 2.829 0 1.656.984 2.796 2.406 2.796zm0-.579c-1.14 0-1.765-1-1.765-2.219s.625-2.25 1.765-2.25c1.125 0 1.75 1.032 1.75 2.25s-.625 2.22-1.75 2.22zm0 0"/><path id="l" d="M2.344.125c.906 0 1.469-.5 1.687-.984h.047V0h.625v-3.688c0-1.468-1.094-1.828-1.922-1.828-.844 0-1.687.329-2.062 1.22l.594.218c.203-.469.687-.875 1.484-.875.828 0 1.281.453 1.281 1.203v.125c0 .422-.516.422-1.422.531-1.234.156-2.094.5-2.094 1.578C.563-.469 1.36.125 2.345.125zm.094-.578c-.72 0-1.25-.375-1.25-1.031 0-.672.546-.938 1.468-1.047.438-.063 1.235-.156 1.422-.344v.797c0 .89-.64 1.625-1.64 1.625zm0 0"/><path id="m" d="M.844 0h.625v-5.438H.844zm.312-6.375c.266 0 .485-.203.485-.453s-.22-.453-.485-.453c-.25 0-.468.203-.468.453s.218.453.468.453zm0 0"/><path id="n" d="M1.469-7.25h-.64V0h.64zm0 0"/><path id="o" d="M4.484-4.25c-.265-.781-.843-1.266-1.843-1.266C1.547-5.516.75-4.89.75-3.984c0 .718.438 1.218 1.39 1.453l.891.203c.594.14.875.453.875.89 0 .563-.531.985-1.375.985-.734 0-1.203-.344-1.36-.984l-.609.156c.204.906.922 1.39 1.985 1.39 1.187 0 2.015-.656 2.015-1.578 0-.718-.453-1.218-1.359-1.437l-.828-.203c-.672-.172-.984-.438-.984-.907 0-.546.515-.937 1.25-.937s1.093.39 1.265.875zm0 0"/><path id="s" d="M1.469-3.406c0-.938.61-1.531 1.468-1.531.844 0 1.376.562 1.376 1.453V0h.64v-3.516c0-1.296-.75-2-1.86-2-.796 0-1.343.375-1.593.938h-.063v-.86H.829V0h.64zm0 0"/><path id="t" d="M2.969-5.438h-1.14v-1.296h-.641v1.296H.375v.547h.813v3.625c0 .891.703 1.344 1.406 1.344.25 0 .437-.047.547-.094l-.125-.562c-.094.015-.204.047-.375.047-.422 0-.813-.203-.813-.89v-3.47h1.14zm0 0"/><path id="u" d="M.828 2.047h.625v-3.063h.063c.218.5.671 1.125 1.671 1.125 1.329 0 2.235-1.125 2.235-2.812 0-1.672-.906-2.813-2.25-2.813-1 0-1.438.625-1.656 1.11h-.079v-1.032H.829zm.61-4.766c0-1.297.609-2.219 1.671-2.219 1.094 0 1.672.97 1.672 2.22 0 1.265-.593 2.25-1.672 2.25-1.062 0-1.671-.938-1.671-2.25zm0 0"/><path id="v" d="M2.797.11c.984 0 1.437-.626 1.656-1.126h.078V0h.625v-7.25h-.64v2.844h-.063c-.203-.485-.656-1.11-1.656-1.11-1.344 0-2.25 1.141-2.25 2.813 0 1.687.906 2.812 2.25 2.812zm.062-.579c-1.078 0-1.671-.984-1.671-2.25 0-1.25.593-2.219 1.671-2.219 1.063 0 1.672.922 1.672 2.22 0 1.312-.61 2.25-1.672 2.25zm0 0"/><path id="p" d="M.125-2.344c0-.906-.5-1.469-.984-1.687v-.047H0v-.625h-3.688c-1.468 0-1.828 1.094-1.828 1.922 0 .844.329 1.687 1.22 2.062l.218-.594c-.469-.203-.875-.687-.875-1.484 0-.828.453-1.281 1.203-1.281h.125c.422 0 .422.516.531 1.422.156 1.234.5 2.094 1.578 2.094C-.469-.563.125-1.36.125-2.345zm-.578-.094c0 .72-.375 1.25-1.031 1.25-.672 0-.938-.546-1.047-1.468-.063-.438-.156-1.235-.344-1.422h.797c.89 0 1.625.64 1.625 1.64zm0 0"/><path id="q" d="M-7.25-1.469v.64H0v-.64zm0 0"/><path id="r" d="M.11-3.031c0-1.094-.594-1.828-1.266-2.063l-.203.594c.484.203.89.703.89 1.469 0 1.11-.812 1.812-2.062 1.844v-4.047h-.313c-1.812 0-2.672 1.125-2.672 2.296 0 1.407 1.188 2.391 2.829 2.391 1.656 0 2.796-.969 2.796-2.484zm-3.204 1.844c-1-.063-1.844-.75-1.844-1.75 0-.97.797-1.657 1.844-1.657zm0 0"/></defs><path fill="none" stroke="#fff" stroke-linejoin="round" stroke-miterlimit="10" stroke-width=".8" d="M54.383 232.758v3.5"/><use xlink:href="#a" x="51.327" y="247.056" fill="#fff"/><path fill="none" stroke="#fff" stroke-linejoin="round" stroke-miterlimit="10" stroke-width=".8" d="M115.875 232.758v3.5"/><g fill="#fff"><use xlink:href="#b" x="109.775" y="247.056"/><use xlink:href="#a" x="115.856" y="247.056"/></g><path fill="none" stroke="#fff" stroke-linejoin="round" stroke-miterlimit="10" stroke-width=".8" d="M177.36 232.758v3.5"/><g fill="#fff"><use xlink:href="#c" x="171.182" y="247.056"/><use xlink:href="#a" x="177.423" y="247.056"/></g><path fill="none" stroke="#fff" stroke-linejoin="round" stroke-miterlimit="10" stroke-width=".8" d="M238.848 232.758v3.5"/><g fill="#fff"><use xlink:href="#d" x="232.752" y="247.056"/><use xlink:href="#a" x="238.826" y="247.056"/></g><path fill="none" stroke="#fff" stroke-linejoin="round" stroke-miterlimit="10" stroke-width=".8" d="M300.34 232.758v3.5"/><g fill="#fff"><path d="M297.277 247.15c1.375 0 2.39-.844 2.39-2 0-.906-.624-1.688-1.437-1.844v-.047c.703-.203 1.172-.875 1.188-1.656-.016-1.078-.938-1.89-2.141-1.89-1.219 0-2.14.812-2.125 1.89-.016.781.469 1.453 1.172 1.656v.047c-.828.156-1.438.938-1.438 1.844 0 1.156 1 2 2.39 2zm0-.594c-1.031 0-1.75-.594-1.734-1.438-.016-.874.734-1.515 1.734-1.515s1.734.64 1.75 1.516c-.016.843-.719 1.437-1.75 1.437zm0-3.531c-.86 0-1.5-.578-1.484-1.375-.016-.797.625-1.36 1.484-1.36s1.484.563 1.5 1.36c-.016.797-.656 1.375-1.5 1.375zm0 0"/><use xlink:href="#a" x="300.326" y="247.056"/></g><path fill="none" stroke="#fff" stroke-linejoin="round" stroke-miterlimit="10" stroke-width=".8" d="M361.828 232.758v3.5"/><g fill="#fff"><use xlink:href="#e" x="353.488" y="247.056"/><use xlink:href="#a" x="357.928" y="247.056"/><use xlink:href="#a" x="364.041" y="247.056"/></g><g fill="#fff"><path d="M163.752 253.763h-.656v6.078h-.047l-4.297-6.078h-.64v7.25h.656v-6.078h.063l4.28 6.078h.641zm0 0"/><use xlink:href="#f" x="164.711" y="261.013"/><use xlink:href="#g" x="170.456" y="261.013"/><use xlink:href="#h" x="179.004" y="261.013"/><use xlink:href="#i" x="185.114" y="261.013"/><use xlink:href="#j" x="190.898" y="261.013"/></g><g fill="#fff"><use xlink:href="#k" x="197.249" y="261.013"/><path d="M206.199 255.575h-1.203v-.671c0-.563.312-.875.86-.875.218 0 .343.03.437.078l.187-.563c-.14-.047-.344-.125-.672-.125-.75 0-1.437.485-1.437 1.36v.796h-.844v.547h.844v4.891h.625v-4.89h1.203zm0 0"/></g><path fill="#fff" d="M214.479 255.575h-.688l-1.61 4.61h-.062l-1.61-4.61h-.687l1.985 5.438h.687zm0 0"/><g fill="#fff"><use xlink:href="#l" x="214.697" y="261.013"/><use xlink:href="#j" x="220.241" y="261.013"/><use xlink:href="#m" x="223.793" y="261.013"/><use xlink:href="#l" x="226.103" y="261.013"/><use xlink:href="#h" x="231.647" y="261.013"/><use xlink:href="#n" x="237.757" y="261.013"/><use xlink:href="#i" x="240.05" y="261.013"/><use xlink:href="#o" x="245.834" y="261.013"/><path d="M252.818 260.029h-.688l-.047.39c-.125.953-.312 1.89-.406 2.36h.485c.171-.5.468-1.61.593-2.375zm0 0"/></g><path fill="#fff" d="M262.084 253.56s0-.11-.14-.11c-.157 0-1.204.094-1.391.11-.078.015-.14.062-.14.219 0 .125.093.125.25.125.53 0 .546.078.546.187l-.031.219-.656 2.578c-.188-.406-.5-.703-1-.703-1.282 0-2.625 1.61-2.625 3.203 0 1.031.593 1.75 1.453 1.75.218 0 .765-.047 1.406-.828a1.01 1.01 0 0 0 1 .828c.375 0 .625-.25.812-.61.188-.39.329-1.046.329-1.078 0-.109-.11-.109-.141-.109-.11 0-.11.047-.156.203-.172.703-.375 1.344-.829 1.344-.28 0-.328-.281-.328-.5 0-.266.032-.328.079-.516zm-2.266 6.156c-.062.203-.062.219-.218.406-.485.594-.922.766-1.235.766-.547 0-.703-.594-.703-1.016 0-.547.36-1.89.61-2.39.343-.64.828-1.047 1.265-1.047.703 0 .86.89.86.953s-.016.14-.032.188zm0 0"/><path fill="none" stroke="#fff" stroke-linejoin="round" stroke-miterlimit="10" stroke-width=".8" d="M42.242 232.758h-3.5"/><use xlink:href="#a" x="28.878" y="236.557" fill="#fff"/><path fill="none" stroke="#fff" stroke-linejoin="round" stroke-miterlimit="10" stroke-width=".8" d="M42.242 195.797h-3.5"/><use xlink:href="#e" x="28.878" y="199.597" fill="#fff"/><path fill="none" stroke="#fff" stroke-linejoin="round" stroke-miterlimit="10" stroke-width=".8" d="M42.242 158.836h-3.5"/><use xlink:href="#b" x="28.878" y="162.637" fill="#fff"/><path fill="none" stroke="#fff" stroke-linejoin="round" stroke-miterlimit="10" stroke-width=".8" d="M42.242 121.875h-3.5"/><path fill="#fff" d="M32.034 125.772c1.36 0 2.36-.875 2.36-2.032 0-.921-.563-1.593-1.5-1.78v-.048c.765-.234 1.25-.843 1.25-1.672 0-1.03-.813-1.906-2.094-1.906-1.203 0-2.188.766-2.203 1.906h.64c.016-.812.72-1.328 1.563-1.328.875 0 1.453.563 1.453 1.36 0 .843-.688 1.39-1.625 1.39h-.422v.594h.422c1.156 0 1.86.594 1.86 1.484 0 .829-.704 1.438-1.704 1.438-.922 0-1.64-.516-1.687-1.313h-.672c.047 1.126 1.015 1.907 2.36 1.907zm0 0"/><path fill="none" stroke="#fff" stroke-linejoin="round" stroke-miterlimit="10" stroke-width=".8" d="M42.242 84.918h-3.5"/><use xlink:href="#c" x="28.878" y="88.718" fill="#fff"/><path fill="none" stroke="#fff" stroke-linejoin="round" stroke-miterlimit="10" stroke-width=".8" d="M42.242 47.957h-3.5"/><path fill="#fff" d="M31.8 51.85c1.344 0 2.312-1.015 2.312-2.39.016-1.39-.984-2.39-2.25-2.39-.53 0-1 .187-1.328.453h-.031L30.8 45.1h3.015v-.594h-3.578l-.437 3.516.672.093c.297-.265.797-.437 1.297-.437.953 0 1.703.734 1.703 1.797 0 1.031-.688 1.781-1.672 1.781-.828 0-1.453-.547-1.485-1.313h-.64c.031 1.11.922 1.907 2.125 1.907zm0 0"/><path fill="none" stroke="#fff" stroke-linejoin="round" stroke-miterlimit="10" stroke-width=".8" d="M42.242 10.996h-3.5"/><use xlink:href="#d" x="28.878" y="14.797" fill="#fff"/><path fill="#fff" d="M9.509 161.856v.688l7.25-2.64v-.704l-7.25-2.64v.702l6.39 2.266v.063zm0 0"/><g fill="#fff"><use xlink:href="#p" x="16.759" y="156.796"/><use xlink:href="#q" x="16.759" y="151.251"/><path d="M14.68 144.678c1 0 1.532.75 1.532 1.484 0 .781-.562 1.328-1.406 1.328h-3.484v.64h3.515c1.297 0 2-.75 2-1.796 0-.797-.422-1.36-.984-1.61v-.046h.906v-.64h-5.438v.64zm0 0"/><use xlink:href="#r" x="16.759" y="143.214"/></g><g fill="#fff"><path d="M16.868 131.677c0-1.407-1.14-2.39-2.796-2.39-1.672 0-2.829.983-2.829 2.39 0 1.422 1.157 2.406 2.829 2.406 1.656 0 2.796-.984 2.796-2.406zm-.578 0c0 1.14-1 1.765-2.218 1.765s-2.25-.625-2.25-1.765c0-1.125 1.03-1.75 2.25-1.75s2.218.625 2.218 1.75zM11.322 125.68v1.204h-.672c-.563 0-.875-.313-.875-.86 0-.219.03-.344.078-.437l-.563-.188c-.047.14-.125.344-.125.672 0 .75.485 1.438 1.36 1.438h.796v.843h.547v-.843h4.891v-.625h-4.89v-1.204zm0 0"/></g><path fill="#fff" d="M11.322 117.4v.688l4.609 1.61v.062l-4.61 1.61v.687l5.438-1.984v-.688zm0 0"/><g fill="#fff"><use xlink:href="#p" x="16.759" y="117.182"/><path d="M16.759 110.81v-.64h-3.516c-.796 0-1.39-.61-1.39-1.47 0-.156.031-.312.031-.374h-.64v.328c0 .687.359 1.281.906 1.5v.047h-.829v.609zM16.759 107.243v-.625h-5.438v.625zm-6.375-.313c0-.265-.203-.484-.453-.484s-.453.219-.453.484c0 .25.203.469.453.469s.453-.219.453-.469zm0 0"/><use xlink:href="#p" x="16.759" y="105.776"/><path d="M16.759 99.263v-.61h-1.016v-.077c.5-.219 1.125-.672 1.125-1.672 0-1.328-1.125-2.235-2.812-2.235-1.672 0-2.813.907-2.813 2.25 0 1 .625 1.438 1.11 1.657v.062H9.509v.625zm-2.719-.625c-1.297 0-2.218-.594-2.218-1.656 0-1.094.968-1.672 2.218-1.672 1.266 0 2.25.594 2.25 1.672 0 1.062-.937 1.656-2.25 1.656zm0 0"/><use xlink:href="#q" x="16.759" y="94.122"/><use xlink:href="#r" x="16.759" y="91.83"/><path d="M12.509 81.56c-.781.266-1.266.845-1.266 1.845 0 1.093.625 1.89 1.532 1.89.718 0 1.218-.437 1.453-1.39l.203-.891c.14-.594.453-.875.89-.875.563 0 .985.531.985 1.375 0 .734-.344 1.203-.985 1.36l.157.609c.906-.203 1.39-.922 1.39-1.985 0-1.187-.656-2.015-1.578-2.015-.718 0-1.218.453-1.437 1.36l-.203.827c-.172.672-.438.985-.907.985-.546 0-.937-.516-.937-1.25s.39-1.094.875-1.266zm0 0"/></g><g fill="none" stroke-miterlimit="10"><path stroke="#50fa7b" stroke-linecap="square" stroke-linejoin="round" stroke-width="1.5" d="m57.46 180.7 3.075-26.563 3.07-13.422 3.079-8.95 3.074-6.69 3.074-5.329 3.074-4.414 3.074-3.77 3.075-3.277 3.074-2.906 3.074-2.602 3.074-2.355 3.075-2.152 3.074-1.98 3.074-1.833 3.074-1.707 3.074-1.594 3.075-1.496 3.074-1.41 3.078-1.332 3.07-1.262 3.075-1.199 3.078-1.144 3.074-1.09 3.074-1.047 3.074-1 3.075-.957 3.074-.926 3.074-.887 3.074-.855 3.074-.828 3.075-.797 3.074-.774 3.074-.75 3.074-.726 3.075-.703 3.074-.684 3.074-.66 3.078-.649 3.07-.628 3.078-.61 3.075-.597 3.074-.582 3.074-.567 3.074-.555 3.075-.543 3.074-.527 3.074-.52 3.074-.503 3.074-.496 3.075-.485 3.074-.476 3.074-.465 3.074-.457 3.075-.446 3.074-.437 3.074-.434 3.074-.422 3.074-.414 3.075-.41 3.078-.402 3.074-.39 3.074-.387 3.074-.383 3.075-.375 3.074-.371 6.148-.72 3.075-.35 3.074-.348 3.074-.34 3.074-.336 3.074-.332 3.075-.328 6.148-.64 3.074-.313 3.075-.309 3.078-.305 3.074-.3 3.074-.297 3.074-.293 3.075-.29 6.148-.57 6.148-.554 6.149-.54 6.148-.53 6.149-.516 3.074-.254 6.148-.5 3.075-.246 3.078-.242 3.074-.243 3.074-.234"/><path stroke="#bd93f9" stroke-linecap="square" stroke-linejoin="round" stroke-width="1.5" d="m57.46 205.59 3.075-12.602 3.07-5.86 3.079-3.898 3.074-3.453 3.074-2.257 3.074-3.657 3.074-1.277L82.055 169l3.074-.645 3.074-1.902 3.074-2.719 3.075-.664 3.074-3.011 3.074-1.297 3.074-2.809 3.074.02 3.075-.61 3.074-1.738 3.078-2.031 3.07-.168 3.075-1.848 3.078-1.422 3.074-.96 3.074-.372 3.074-.847 3.075-1.036 3.074.11 3.074-2.477 3.074-.238 3.074-1.11 3.075-.257 3.074-1.184 3.074.313 3.074-.461 3.075-.813 3.074-1.406 3.074.203 3.078-1.348 3.07.293 3.078-1.918 3.075.516 3.074-1.902 3.074.386 3.074-.257 3.075-.02 3.074-.777 3.074-.496 3.074-.961 3.074-1.293 3.075 1.238 3.074-.648 3.074-.832 3.074-.13 3.075-.519 3.074-.035 3.074-1.61 3.074.372 3.074-.461 3.075-.04 3.078-.609 3.074-.574 3.074.445 3.074-1.09 3.075-.445 3.074.223 3.074.387 3.074-1.422 3.075-.5 3.074.89 3.074-.757 3.074-.149 3.074-.906 3.075 1.183 3.074-.906 3.074-.683 3.074-.871 3.075-.442 3.078.758 3.074-.094 3.074-1.367h3.074l3.075-1.535 3.074.203 3.074.336 3.074.203 3.074-.594 3.075.188 3.074-1.387 3.074.238 3.074-.203 3.074-.09 3.075-.683h3.074l3.074-.89 3.074-.294 3.075 1.68 3.078-1.774 3.074.723 3.074-.594"/><path stroke="#fff" stroke-linecap="square" stroke-width=".8" d="M42.242 232.758V10.996M377.043 232.758V10.996M42.242 232.758h334.801M42.242 10.996h334.801"/><path stroke="#fff" stroke-opacity=".7" d="M49.242 48.352h155.219c1.332 0 2-.668 2-2V17.996c0-1.336-.668-2-2-2H49.242c-1.336 0-2 .664-2 2v28.356c0 1.332.664 2 2 2zm0 0"/><path stroke="#50fa7b" stroke-linecap="square" stroke-linejoin="round" stroke-width="1.5" d="M51.242 24.094h20"/></g><g fill="#fff"><path d="M80.209 27.596h2.578c1.547 0 2.265-.797 2.265-1.906 0-1.094-.718-1.75-1.421-1.813v-.047c.64-.171 1.14-.687 1.14-1.593 0-1.078-.703-1.891-2.125-1.891H80.21zm.656-.594v-2.797h1.953c.969 0 1.61.657 1.61 1.485 0 .75-.532 1.312-1.641 1.312zm0-3.375V20.94h1.781c1 0 1.5.531 1.5 1.297 0 .797-.578 1.39-1.437 1.39zm0 0"/><use xlink:href="#i" x="85.69" y="27.596"/><use xlink:href="#j" x="91.474" y="27.596"/><use xlink:href="#s" x="95.026" y="27.596"/><use xlink:href="#o" x="100.799" y="27.596"/><use xlink:href="#t" x="105.908" y="27.596"/></g><g fill="#fff"><use xlink:href="#i" x="109.418" y="27.596"/><use xlink:href="#m" x="115.202" y="27.596"/><use xlink:href="#s" x="117.512" y="27.596"/><path d="M124.692 20.346h-.61v.64c0 .547-.265 1.063-.624 1.485l.343.297c.563-.453.89-1.203.89-1.781zm0 0"/></g><use xlink:href="#o" x="124.293" y="27.596" fill="#fff"/><g fill="#fff"><use xlink:href="#f" x="132.201" y="27.596"/><use xlink:href="#u" x="137.947" y="27.596"/><use xlink:href="#u" x="143.915" y="27.596"/><use xlink:href="#i" x="149.884" y="27.596"/><use xlink:href="#j" x="155.668" y="27.596"/></g><g fill="#fff"><use xlink:href="#h" x="162.029" y="27.596"/><use xlink:href="#k" x="168.139" y="27.596"/><use xlink:href="#f" x="174.026" y="27.596"/><use xlink:href="#s" x="179.772" y="27.596"/><use xlink:href="#v" x="185.545" y="27.596"/></g><path d="M51.242 231.544h20" style="fill:none;stroke-width:1.50002;stroke-linecap:square;stroke-linejoin:round;stroke:#bd93f9;stroke-miterlimit:10" transform="matrix(1 0 0 -1 0 270.314)"/><g fill="#fff"><path d="M84.146 36.837h.64c-.062-1.094-1.015-1.922-2.359-1.922s-2.359.812-2.359 1.984c0 .922.656 1.516 1.781 1.844l.875.25c.891.265 1.516.61 1.516 1.343 0 .876-.797 1.454-1.875 1.454-.969 0-1.734-.47-1.813-1.328h-.671c.078 1.14 1 1.937 2.484 1.937 1.578 0 2.516-.89 2.516-2.047 0-1.203-1.047-1.687-1.97-1.953l-.765-.219c-.703-.187-1.437-.547-1.437-1.312 0-.782.687-1.36 1.703-1.36.953 0 1.64.516 1.734 1.328zm0 0"/><use xlink:href="#m" x="85.509" y="42.274"/><use xlink:href="#g" x="87.82" y="42.274"/><use xlink:href="#f" x="96.368" y="42.274"/><use xlink:href="#n" x="102.113" y="42.274"/><use xlink:href="#l" x="104.406" y="42.274"/><use xlink:href="#t" x="109.95" y="42.274"/></g><g fill="#fff"><use xlink:href="#i" x="113.46" y="42.274"/><use xlink:href="#v" x="119.244" y="42.274"/></g></svg>