<svg height="141.688" viewBox="0 0 309.767 141.688" width="309.767" xmlns="http://www.w3.org/2000/svg" xmlns:xlink="http://www.w3.org/1999/xlink"><defs><clipPath id="a"><path d="m1 80h111v61.6875h-111zm0 0"/></clipPath><clipPath id="b"><path d="m123 81h105v60.6875h-105zm0 0"/></clipPath><clipPath id="c"><path d="m25 122h26v19.6875h-26zm0 0"/></clipPath><clipPath id="d"><path d="m184 122h26v19.6875h-26zm0 0"/></clipPath><g id="e"><path d="m6.3125-10.4375c.15625-.65625.21875-.828125 1.734375-.828125.453125 0 .578125 0 .578125-.328125 0-.171875-.1875-.171875-.25-.171875-.34375 0-.75.046875-1.09375.046875h-2.3125c-.3125 0-.703125-.046875-1.03125-.046875-.125 0-.328125 0-.328125.328125 0 .171875.15625.171875.421875.171875 1.046875 0 1.046875.140625 1.046875.328125 0 .03125 0 .140625-.0625.40625l-2.328125 9.25c-.15625.609375-.1875.78125-1.390625.78125-.328125 0-.5 0-.5.3125 0 .1875.09375.1875.4375.1875h7.71875c.375 0 .390625-.015625.515625-.328125l1.328125-3.671875c.03125-.078125.0625-.1875.0625-.234375 0-.109375-.078125-.171875-.171875-.171875-.015625 0-.09375 0-.125.0625-.046875.015625-.046875.0625-.171875.390625-.5625 1.515625-1.328125 3.453125-4.25 3.453125h-1.640625c-.25 0-.28125 0-.390625-.015625-.1875-.015625-.203125-.046875-.203125-.1875 0-.125.03125-.234375.078125-.375zm0 0"/></g><g id="f"><path d="m3.171875-.828125c0-.5-.421875-.84375-.828125-.84375-.5 0-.84375.421875-.84375.828125 0 .5.40625.84375.828125.84375.5 0 .84375-.40625.84375-.828125zm0 0"/></g></defs><use fill="#fff" x="6.641" xlink:href="#e" y="83.812"/><path d="m6.078125-3.234375c-.65625-.8125-.796875-1-1.171875-1.296875-.65625-.53125-1.328125-.75-1.9375-.75-1.40625 0-2.3125 1.3125-2.3125 2.71875 0 1.375.890625 2.6875 2.265625 2.6875s2.359375-1.078125 2.953125-2.03125c.640625.8125.78125.984375 1.15625 1.28125.671875.546875 1.328125.75 1.953125.75 1.390625 0 2.296875-1.3125 2.296875-2.703125 0-1.375-.875-2.703125-2.25-2.703125s-2.375 1.078125-2.953125 2.046875zm.3125.40625c.484375-.859375 1.359375-2.078125 2.71875-2.078125 1.265625 0 1.90625 1.25 1.90625 2.328125 0 1.171875-.796875 2.140625-1.84375 2.140625-.703125 0-1.234375-.5-1.484375-.75-.296875-.328125-.578125-.703125-1.296875-1.640625zm-.828125.515625c-.5.859375-1.375 2.0625-2.734375 2.0625-1.265625 0-1.90625-1.25-1.90625-2.3125 0-1.171875.796875-2.140625 1.84375-2.140625.703125 0 1.234375.5 1.484375.75.296875.3125.578125.6875 1.3125 1.640625zm0 0" fill="#fff" transform="translate(18.11 77.565)"/><use fill="#fff" x="66.374" xlink:href="#e" y="27.12"/><path d="m.515625 1.515625c-.078125.359375-.140625.453125-.625.453125-.140625 0-.265625 0-.265625.234375 0 .015625.015625.109375.140625.109375.15625 0 .328125-.015625.484375-.015625h.515625c.25 0 .859375.015625 1.109375.015625.078125 0 .21875 0 .21875-.203125 0-.140625-.078125-.140625-.28125-.140625-.5625 0-.59375-.078125-.59375-.171875 0-.140625.53125-2.203125.609375-2.484375.125.34375.453125.8125 1.078125.8125 1.34375 0 2.8125-1.765625 2.8125-3.515625 0-1.109375-.625-1.875-1.515625-1.875-.765625 0-1.421875.734375-1.546875.90625-.09375-.59375-.5625-.90625-1.046875-.90625-.34375 0-.625.15625-.84375.609375-.21875.4375-.390625 1.171875-.390625 1.21875s.0625.109375.140625.109375c.09375 0 .109375-.015625.171875-.296875.1875-.703125.40625-1.40625.890625-1.40625.28125 0 .375.1875.375.546875 0 .28125-.046875.40625-.09375.625zm2.0625-5.25c.09375-.328125.421875-.671875.609375-.84375.140625-.125.53125-.453125.984375-.453125.53125 0 .765625.53125.765625 1.140625 0 .578125-.328125 1.9375-.640625 2.546875-.296875.65625-.84375 1.21875-1.390625 1.21875-.8125 0-.953125-1.015625-.953125-1.0625s.03125-.140625.046875-.203125zm0 0" fill="#fff" transform="translate(77.843 20.872)"/><use fill="#fff" x="151.425" xlink:href="#e" y="28.213"/><path d="m3.4375-7.65625c0-.28125 0-.296875-.234375-.296875-.28125.328125-.890625.765625-2.109375.765625v.34375c.265625 0 .859375 0 1.53125-.296875v6.21875c0 .4375-.046875.578125-1.09375.578125h-.375v.34375c.328125-.03125 1.484375-.03125 1.875-.03125.40625 0 1.546875 0 1.875.03125v-.34375h-.375c-1.046875 0-1.09375-.140625-1.09375-.578125zm0 0" fill="#fff" transform="translate(162.894 21.966)"/><path d="m4.515625-5.296875c.0625 0 .421875 0 .453125.015625h.59375c3.5 0 4.75-1.640625 4.75-3.28125 0-2.4375-2.203125-3.234375-4.421875-3.234375h-5.03125c-.3125 0-.578125 0-.578125.3125 0 .296875.328125.296875.453125.296875.90625 0 .96875.140625.96875.984375v8.625c0 .84375-.0625.96875-.953125.96875-.171875 0-.46875 0-.46875.296875 0 .3125.265625.3125.578125.3125h4.609375c.3125 0 .578125 0 .578125-.3125 0-.296875-.296875-.296875-.484375-.296875-.984375 0-1.046875-.125-1.046875-.96875zm2.84375-.78125c.546875-.71875.59375-1.8125.59375-2.5 0-.90625-.078125-1.828125-.53125-2.453125.953125.21875 2.296875.734375 2.296875 2.46875 0 1.203125-.78125 2.09375-2.359375 2.484375zm-2.84375-4.1875c0-.34375 0-.921875 1.03125-.921875 1.234375 0 1.8125.453125 1.8125 2.609375 0 2.46875-.921875 2.671875-1.984375 2.671875h-.859375zm-2.34375 9.65625c.140625-.296875.140625-.71875.140625-.9375v-8.703125c0-.21875 0-.625-.140625-.9375h1.953125c-.21875.265625-.21875.609375-.21875.875v8.765625c0 .171875 0 .640625.140625.9375zm0 0" fill="#fff" transform="translate(211.767 83.86)"/><path d="m8.65625-11.515625c.015625-.078125.0625-.171875.0625-.265625 0-.171875-.171875-.171875-.21875-.171875-.015625 0-.859375.078125-.9375.09375-.296875.015625-.546875.046875-.859375.0625-.4375.03125-.5625.046875-.5625.359375 0 .171875.140625.171875.390625.171875.84375 0 .859375.15625.859375.328125 0 .109375-.03125.25-.0625.296875l-1.046875 4.1875c-.1875-.453125-.65625-1.140625-1.546875-1.140625-1.9375 0-4.046875 2.515625-4.046875 5.0625 0 1.703125 1 2.703125 2.171875 2.703125.953125 0 1.75-.734375 2.234375-1.3125.171875 1.015625.984375 1.3125 1.5 1.3125s.9375-.3125 1.234375-.921875c.28125-.59375.515625-1.640625.515625-1.71875s-.0625-.15625-.171875-.15625c-.140625 0-.171875.09375-.234375.359375-.265625 1.015625-.578125 2.09375-1.296875 2.09375-.5 0-.53125-.453125-.53125-.796875 0-.0625 0-.421875.125-.90625zm-3.46875 9.46875c-.09375.296875-.09375.328125-.328125.65625-.375.484375-1.140625 1.21875-1.953125 1.21875-.703125 0-1.09375-.640625-1.09375-1.65625 0-.9375.53125-2.875.859375-3.59375.578125-1.203125 1.390625-1.828125 2.0625-1.828125 1.140625 0 1.359375 1.40625 1.359375 1.546875 0 .015625-.046875.25-.0625.28125zm0 0" fill="#fff" transform="translate(297.687 83.908)"/><g fill="#fff"><path d="m5.1875-2.046875c-.09375.296875-.09375.328125-.328125.65625-.375.484375-1.140625 1.21875-1.953125 1.21875-.703125 0-1.09375-.640625-1.09375-1.65625 0-.9375.53125-2.875.859375-3.59375.578125-1.203125 1.390625-1.828125 2.0625-1.828125 1.140625 0 1.359375 1.40625 1.359375 1.546875 0 .015625-.046875.25-.0625.28125zm1.09375-4.40625c-.1875-.453125-.65625-1.140625-1.546875-1.140625-1.9375 0-4.046875 2.515625-4.046875 5.0625 0 1.703125 1 2.703125 2.171875 2.703125.953125 0 1.75-.734375 2.234375-1.3125.171875 1.015625.984375 1.3125 1.5 1.3125s.9375-.3125 1.234375-.921875c.28125-.59375.515625-1.640625.515625-1.71875s-.0625-.15625-.171875-.15625c-.140625 0-.171875.09375-.234375.359375-.265625 1.015625-.578125 2.09375-1.296875 2.09375-.5 0-.53125-.453125-.53125-.796875 0-.390625.0625-.578125.203125-1.25.125-.4375.21875-.8125.34375-1.3125.640625-2.578125.796875-3.203125.796875-3.296875 0-.25-.1875-.4375-.4375-.4375-.5625 0-.703125.609375-.734375.8125zm0 0" transform="translate(104.738 138.329)"/><use x="113.586716" xlink:href="#f" y="138.329"/><path d="m3.921875-3.4375c.296875.046875.765625.15625.859375.171875.234375.0625 1 .34375 1 1.171875 0 .53125-.484375 1.921875-2.46875 1.921875-.375 0-1.65625-.046875-2-1 .6875.09375 1.03125-.453125 1.03125-.828125 0-.359375-.25-.546875-.59375-.546875-.375 0-.875.296875-.875 1.0625 0 1.015625 1.03125 1.65625 2.40625 1.65625 2.625 0 3.40625-1.921875 3.40625-2.828125 0-.25 0-.734375-.5625-1.28125-.421875-.421875-.84375-.5-1.765625-.6875-.46875-.109375-1.203125-.265625-1.203125-1.046875 0-.34375.3125-1.578125 1.9375-1.578125.71875 0 1.4375.28125 1.609375.890625-.765625 0-.796875.65625-.796875.671875 0 .359375.328125.46875.484375.46875.234375 0 .71875-.1875.71875-.90625 0-.734375-.65625-1.46875-2-1.46875-2.25 0-2.859375 1.78125-2.859375 2.484375 0 1.296875 1.28125 1.578125 1.671875 1.671875zm0 0" transform="translate(118.269304 138.329)"/><use x="126.209047" xlink:href="#f" y="138.329"/></g><g fill="none" stroke="#fff" stroke-miterlimit="10"><path d="m-.0004375 19.844063c3.4101565 19.34375 17.5039065 30.601562 35.9101565 33.847656" stroke-width="1.19553" transform="matrix(1 0 0 -1 18.602 77.93)"/><path d="m-1.91382 2.549769c.160586-.956483 1.91452137-2.392217 2.390876-2.5476011-.47675776-.1618679-2.229341-1.5981489-2.389855-2.5535509" stroke-linecap="round" stroke-linejoin="round" stroke-width=".9564" transform="matrix(.9848 -.17363 -.17363 -.9848 54.51104 24.23731)"/><path d="m76.534719 56.691719h44.398437" stroke-width="1.19553" transform="matrix(1 0 0 -1 18.602 77.93)"/><path d="m-1.91194 2.54888c.160156-.953125 1.91015625-2.390625 2.390625-2.55078125-.48046875-.15624975-2.230469-1.59374975-2.390625-2.54687475" stroke-linecap="round" stroke-linejoin="round" stroke-width=".9564" transform="matrix(1 0 0 -1 139.53694 21.23638)"/><path d="m161.577687 53.859688c18.546875-3.273438 30.746094-15.46875 33.847657-33.074219" stroke-width="1.19553" transform="matrix(1 0 0 -1 18.602 77.93)"/><path d="m-1.911618 2.54896c.156738-.955806 1.91135232-2.387693 2.390876-2.54760168-.48060507-.16119032-2.23251-1.59362332-2.393702-2.55287232" stroke-linecap="round" stroke-linejoin="round" stroke-width=".9564" transform="matrix(.17363 .9848 .9848 -.17363 214.02873 57.14545)"/><path d="m178.5855.0003125c-20.09375 3.5429685-33.308594 16.7539065-36.683594 35.9101565" stroke-dasharray="2.98883 2.98883" stroke-width="1.19553" transform="matrix(1 0 0 -1 18.602 77.93)"/><path d="m-1.913226 2.548817c.160585-.956484 1.91519926-2.388371 2.390876-2.54760166-.47675813-.16186834-2.23251-1.59362334-2.389855-2.55355134" stroke-linecap="round" stroke-linejoin="round" stroke-width=".9564" transform="matrix(-.17363 -.9848 -.9848 .17363 160.5021 42.02096)"/><path d="m218.269094.0003125h44.398437" stroke-width="1.19553" transform="matrix(1 0 0 -1 18.602 77.93)"/><path d="m-1.911615 2.551094c.15625-.957031 1.91015625-2.390625 2.390625-2.5507815-.48046875-.1601565-2.234375-1.5937495-2.390625-2.5507815" stroke-linecap="round" stroke-linejoin="round" stroke-width=".9564" transform="matrix(1 0 0 -1 281.27099 77.93)"/></g><g clip-path="url(#a)"><path d="m-.0004375-19.843437c16.6054685-28.757813 43.8359375-31.085938 75.5937495-36.683594" fill="none" stroke="#fff" stroke-miterlimit="10" stroke-width="1.19553" transform="matrix(1 0 0 -1 18.602 77.93)"/></g><path d="m-1.914458 2.550621c.160514-.955402 1.9130971-2.391683 2.393024-2.54902584-.47952376-.15990916-2.23346-1.59564316-2.390198-2.55144816" style="fill:none;stroke-width:.9564;stroke-linecap:round;stroke-linejoin:round;stroke:#fff;stroke-miterlimit:10" transform="matrix(.9848 .17363 .17363 -.9848 94.1964 134.45754)"/><g clip-path="url(#b)"><path d="m121.890187-56.695c30.679688 5.410156 55.292969 9.875 70.390625 36.023438" fill="none" stroke="#fff" stroke-miterlimit="10" stroke-width="1.19553" transform="matrix(1 0 0 -1 18.602 77.93)"/></g><path d="m-1.910425 2.549919c.155423-.956734 1.91287684-2.391362 2.387934-2.55011397-.47704088-.15813703-2.23191-1.59528803-2.389993-2.54808603" style="fill:none;stroke-width:.9564;stroke-linecap:round;stroke-linejoin:round;stroke:#fff;stroke-miterlimit:10" transform="matrix(.49998 -.86601 -.86601 -.49998 210.88218 98.60093)"/><path d="m6.86675 51.02375c0 3.792969-3.074219 6.867188-6.8671875 6.867188s-6.8632815-3.074219-6.8632815-6.867188 3.070313-6.863281 6.8632815-6.863281 6.8671875 3.070312 6.8671875 6.863281zm0 0" fill="none" stroke="#fff" stroke-miterlimit="10" stroke-width=".3985" transform="matrix(1 0 0 -1 18.602 77.93)"/><path d="m2.9375-6.375c0-.25 0-.265625-.234375-.265625-.625.640625-1.5.640625-1.8125.640625v.3125c.203125 0 .78125 0 1.296875-.265625v5.171875c0 .359375-.03125.46875-.921875.46875h-.3125v.3125c.34375-.03125 1.203125-.03125 1.609375-.03125.390625 0 1.265625 0 1.609375.03125v-.3125h-.3125c-.90625 0-.921875-.109375-.921875-.46875zm0 0" fill="#fff" transform="translate(16.112 30.117)"/><path d="m106.077687 70.8675c0 3.792969-3.070312 6.863281-6.863281 6.863281s-6.867187-3.070312-6.867187-6.863281 3.074218-6.867187 6.867187-6.867187 6.863281 3.074218 6.863281 6.867187zm0 0" fill="none" stroke="#fff" stroke-miterlimit="10" stroke-width=".3985" transform="matrix(1 0 0 -1 18.602 77.93)"/><path d="m1.265625-.765625 1.0625-1.03125c1.546875-1.375 2.140625-1.90625 2.140625-2.90625 0-1.140625-.890625-1.9375-2.109375-1.9375-1.125 0-1.859375.921875-1.859375 1.8125 0 .546875.5.546875.53125.546875.171875 0 .515625-.109375.515625-.53125 0-.25-.1875-.515625-.53125-.515625-.078125 0-.09375 0-.125.015625.21875-.65625.765625-1.015625 1.34375-1.015625.90625 0 1.328125.8125 1.328125 1.625 0 .796875-.484375 1.578125-1.046875 2.203125l-1.90625 2.125c-.109375.109375-.109375.140625-.109375.375h3.703125l.265625-1.734375h-.234375c-.0625.296875-.125.734375-.234375.890625-.0625.078125-.71875.078125-.9375.078125zm0 0" fill="#fff" transform="translate(115.324 10.274)"/><path d="m205.292531 51.02375c0 3.792969-3.074219 6.867188-6.863281 6.867188-3.792969 0-6.867188-3.074219-6.867188-6.867188s3.074219-6.863281 6.867188-6.863281c3.789062 0 6.863281 3.070312 6.863281 6.863281zm0 0" fill="none" stroke="#fff" stroke-miterlimit="10" stroke-width=".3985" transform="matrix(1 0 0 -1 18.602 77.93)"/><path d="m2.890625-3.515625c.8125-.265625 1.390625-.953125 1.390625-1.75 0-.8125-.875-1.375-1.828125-1.375-1 0-1.765625.59375-1.765625 1.359375 0 .328125.21875.515625.515625.515625s.5-.21875.5-.515625c0-.484375-.46875-.484375-.609375-.484375.296875-.5.953125-.625 1.3125-.625.421875 0 .96875.21875.96875 1.109375 0 .125-.03125.703125-.28125 1.140625-.296875.484375-.640625.515625-.890625.515625-.078125.015625-.3125.03125-.390625.03125-.078125.015625-.140625.03125-.140625.125 0 .109375.0625.109375.234375.109375h.4375c.8125 0 1.1875.671875 1.1875 1.65625 0 1.359375-.6875 1.640625-1.125 1.640625s-1.1875-.171875-1.53125-.75c.34375.046875.65625-.171875.65625-.546875 0-.359375-.265625-.5625-.546875-.5625-.25 0-.5625.140625-.5625.578125 0 .90625.921875 1.5625 2.015625 1.5625 1.21875 0 2.125-.90625 2.125-1.921875 0-.8125-.640625-1.59375-1.671875-1.8125zm0 0" fill="#fff" transform="translate(214.537 30.117)"/><path d="m148.601125.0003125c0 3.7929685-3.074219 6.8632815-6.867188 6.8632815-3.792968 0-6.867187-3.070313-6.867187-6.8632815s3.074219-6.8671875 6.867187-6.8671875c3.792969 0 6.867188 3.074219 6.867188 6.8671875zm0 0" fill="none" stroke="#fff" stroke-miterlimit="10" stroke-width=".3985" transform="matrix(1 0 0 -1 18.602 77.93)"/><path d="m2.9375-1.640625v.859375c0 .359375-.03125.46875-.765625.46875h-.203125v.3125c.40625-.03125.921875-.03125 1.34375-.03125s.9375 0 1.359375.03125v-.3125h-.21875c-.734375 0-.75-.109375-.75-.46875v-.859375h.984375v-.3125h-.984375v-4.53125c0-.203125 0-.265625-.171875-.265625-.078125 0-.109375 0-.1875.125l-3.0625 4.671875v.3125zm.046875-.3125h-2.421875l2.421875-3.71875zm0 0" fill="#fff" transform="translate(157.844 81.141)"/><g clip-path="url(#c)"><path d="m26.706594-56.695c0 3.792969-3.070313 6.867188-6.863282 6.867188-3.792968 0-6.867187-3.074219-6.867187-6.867188 0-3.789062 3.074219-6.863281 6.867187-6.863281 3.792969 0 6.863282 3.074219 6.863282 6.863281zm0 0" fill="none" stroke="#fff" stroke-miterlimit="10" stroke-width=".3985" transform="matrix(1 0 0 -1 18.602 77.93)"/></g><path d="m4.46875-2c0-1.1875-.8125-2.1875-1.890625-2.1875-.46875 0-.90625.15625-1.265625.515625v-1.953125c.203125.0625.53125.125.84375.125 1.234375 0 1.9375-.90625 1.9375-1.03125 0-.0625-.03125-.109375-.109375-.109375 0 0-.03125 0-.078125.03125-.203125.09375-.6875.296875-1.359375.296875-.390625 0-.859375-.078125-1.328125-.28125-.078125-.03125-.09375-.03125-.109375-.03125-.109375 0-.109375.078125-.109375.234375v2.953125c0 .171875 0 .25.140625.25.078125 0 .09375-.015625.140625-.078125.109375-.15625.46875-.703125 1.28125-.703125.515625 0 .765625.453125.84375.640625.15625.375.1875.75.1875 1.25 0 .359375 0 .953125-.25 1.375-.234375.390625-.609375.640625-1.0625.640625-.71875 0-1.296875-.53125-1.46875-1.109375.03125 0 .0625.015625.171875.015625.328125 0 .5-.25.5-.484375 0-.25-.171875-.5-.5-.5-.140625 0-.484375.078125-.484375.53125 0 .859375.6875 1.828125 1.796875 1.828125 1.15625 0 2.171875-.953125 2.171875-2.21875zm0 0" fill="#fff" transform="translate(35.954 137.834)"/><g clip-path="url(#d)"><path d="m185.448781-56.695c0 3.792969-3.070312 6.867188-6.863281 6.867188s-6.867188-3.074219-6.867188-6.867188c0-3.789062 3.074219-6.863281 6.867188-6.863281s6.863281 3.074219 6.863281 6.863281zm0 0" fill="none" stroke="#fff" stroke-miterlimit="10" stroke-width=".3985" transform="matrix(1 0 0 -1 18.602 77.93)"/></g><path d="m1.3125-3.265625v-.25c0-2.515625 1.234375-2.875 1.75-2.875.234375 0 .65625.0625.875.40625-.15625 0-.546875 0-.546875.4375 0 .3125.234375.46875.453125.46875.15625 0 .46875-.09375.46875-.484375 0-.59375-.4375-1.078125-1.265625-1.078125-1.28125 0-2.625 1.28125-2.625 3.484375 0 2.671875 1.15625 3.375 2.078125 3.375 1.109375 0 2.0625-.9375 2.0625-2.25 0-1.265625-.890625-2.21875-2-2.21875-.671875 0-1.046875.5-1.25.984375zm1.1875 3.203125c-.625 0-.921875-.59375-.984375-.75-.1875-.46875-.1875-1.265625-.1875-1.4375 0-.78125.328125-1.78125 1.21875-1.78125.171875 0 .625 0 .9375.625.171875.359375.171875.875.171875 1.359375s0 .984375-.171875 1.34375c-.296875.59375-.75.640625-.984375.640625zm0 0" fill="#fff" transform="translate(194.694 137.834)"/><path d="m247.812062 14.172188c0 3.792968-3.074218 6.867187-6.863281 6.867187-3.792969 0-6.867187-3.074219-6.867187-6.867187 0-3.789063 3.074218-6.863282 6.867187-6.863282 3.789063 0 6.863281 3.074219 6.863281 6.863282zm0 0" fill="none" stroke="#fff" stroke-miterlimit="10" stroke-width=".3985" transform="matrix(1 0 0 -1 18.602 77.93)"/><path d="m4.75-6.078125c.078125-.109375.078125-.125.078125-.34375h-2.421875c-1.203125 0-1.234375-.125-1.265625-.3125h-.25l-.328125 2.046875h.25c.03125-.15625.109375-.78125.25-.90625.0625-.0625.84375-.0625.96875-.0625h2.0625c-.109375.15625-.890625 1.25-1.109375 1.578125-.90625 1.34375-1.234375 2.734375-1.234375 3.75 0 .09375 0 .546875.46875.546875.453125 0 .453125-.453125.453125-.546875v-.515625c0-.546875.03125-1.09375.109375-1.625.046875-.234375.171875-1.09375.625-1.703125zm0 0" fill="#fff" transform="translate(257.057 66.967)"/></svg>